<?xml version="1.0" encoding="utf-8"?>
<!-- Generator: Adobe Illustrator 17.0.0, SVG Export Plug-In . SVG Version: 6.00 Build 0)  -->
<!DOCTYPE svg PUBLIC "-//W3C//DTD SVG 1.1//EN" "http://www.w3.org/Graphics/SVG/1.1/DTD/svg11.dtd">
<svg version="1.1" id="图层_1" xmlns="http://www.w3.org/2000/svg" xmlns:xlink="http://www.w3.org/1999/xlink" x="0px" y="0px"
	 width="30px" height="30px" viewBox="0 0 30 30" enable-background="new 0 0 30 30" xml:space="preserve">
<path fill-rule="evenodd" clip-rule="evenodd" fill="#000400" d="M29.5,30h-1h-27h-1c0-0.27,0.026-0.533,0.041-0.801
	C0.526,29.133,0.5,29.07,0.5,29c0-0.118,0.03-0.229,0.068-0.334c0.525-5.952,4.527-10.896,9.961-12.809
	c0.018-0.119,0.056-0.23,0.11-0.332l-0.035-0.002C8.726,14.12,7.5,11.846,7.5,9.272V7.728C7.5,3.46,10.858,0,15,0
	c4.142,0,7.5,3.46,7.5,7.728v1.544c0,2.585-1.242,4.86-3.133,6.263c0.053,0.101,0.09,0.215,0.106,0.334
	c5.431,1.914,9.434,6.848,9.959,12.797C29.471,28.771,29.5,28.882,29.5,29c0,0.07-0.026,0.133-0.041,0.199
	C29.474,29.467,29.5,29.73,29.5,30z M20.5,9.09V7.909C20.5,4.646,18.037,2,15,2c-3.037,0-5.5,2.647-5.5,5.91V9.09
	C9.5,12.354,11.962,15,15,15C18.037,15,20.5,12.354,20.5,9.09z M15.5,17L15.5,17C9.002,17,3.633,21.771,2.669,28H27.33
	C26.366,21.771,21.998,17,15.5,17z"/>
</svg>
