<?xml version="1.0" encoding="utf-8"?>
<!-- Generator: Adobe Illustrator 17.0.0, SVG Export Plug-In . SVG Version: 6.00 Build 0)  -->
<!DOCTYPE svg PUBLIC "-//W3C//DTD SVG 1.1//EN" "http://www.w3.org/Graphics/SVG/1.1/DTD/svg11.dtd">
<svg version="1.1" id="图层_1" xmlns="http://www.w3.org/2000/svg" xmlns:xlink="http://www.w3.org/1999/xlink" x="0px" y="0px"
	 width="20px" height="20px" viewBox="0 0 20 20" enable-background="new 0 0 20 20" xml:space="preserve">
<g>
	<g>
		<path fill="#000400" d="M19.917,3.412c-0.973-1.258-2.393-2.172-4.161-2.169c-0.174,0-0.351,0.008-0.53,0.026l-0.013,0.001
			l-0.011,0.002c-1.164,0.178-2.197,0.792-2.891,1.878c-0.696,1.084-1.31,2.043-1.31,4.092v11.001c0,0.646,0.773,0.999,1.438,0.999
			h0.505c0.663-0.001,1.058-0.353,1.058-0.999V9.243c0.553,0.229,1.287,0.24,1.877,0.24c1.587,0,3.182-0.796,4.066-2.265
			l0.057-0.094V3.52L19.917,3.412z M19.178,6.892c-0.735,1.155-2.022,1.789-3.3,1.789c-0.676,0-1.343-0.175-1.924-0.537
			l-0.632-0.395V18.07c-0.001,0.204-0.17,0.37-0.38,0.37h-0.504c-0.209,0-0.738-0.03-0.738-0.234L11.667,7.719
			c-0.001-1.954,0.758-3.241,1.34-4.142c0.582-0.896,1.356-1.352,2.314-1.511c0.148-0.014,0.292-0.021,0.434-0.021
			c1.423,0.002,2.56,0.694,3.423,1.753V6.892z M4.799,1.272L4.788,1.27L4.775,1.269c-0.18-0.018-0.357-0.027-0.531-0.027
			C2.476,1.24,1.056,2.153,0.084,3.411L0,3.519v3.604l0.057,0.094c0.885,1.468,2.479,2.265,4.065,2.265
			c0.59,0,1.325-0.01,1.878-0.239v9.001c0,0.646,0.393,0.999,1.057,0.999h0.505C8.226,19.241,9,18.89,9,18.243V7.243
			C9,5.194,8.385,4.235,7.689,3.15C6.996,2.064,5.963,1.451,4.799,1.272z M8.334,18.328c0,0.204-0.562,0.112-0.771,0.112H7.057
			c-0.209,0-0.379-0.166-0.379-0.37V7.748L6.045,8.143C5.464,8.505,4.797,8.68,4.122,8.68c-1.278,0-2.564-0.634-3.3-1.789V3.798
			c0.862-1.059,1.999-1.751,3.422-1.753c0.142,0,0.286,0.007,0.434,0.021c0.959,0.159,1.732,0.615,2.314,1.511
			c0.582,0.901,1.342,2.188,1.342,4.142V18.328z"/>
	</g>
</g>
</svg>
