<?xml version="1.0" encoding="utf-8"?>
<!-- Generator: Adobe Illustrator 17.0.0, SVG Export Plug-In . SVG Version: 6.00 Build 0)  -->
<!DOCTYPE svg PUBLIC "-//W3C//DTD SVG 1.1//EN" "http://www.w3.org/Graphics/SVG/1.1/DTD/svg11.dtd">
<svg version="1.1" id="图层_1" xmlns="http://www.w3.org/2000/svg" xmlns:xlink="http://www.w3.org/1999/xlink" x="0px" y="0px"
	 width="20px" height="20px" viewBox="0 0 20 20" enable-background="new 0 0 20 20" xml:space="preserve">
<path fill="#000400" d="M5.952,19.502c-0.552,0-1.002-0.51-1.002-1.137V8.698L4.106,9.686c-0.181,0.213-0.444,0.335-0.723,0.335
	c-0.268,0-0.514-0.108-0.694-0.305L0.306,7.104C0.114,6.894,0.005,6.61,0.001,6.306c-0.005-0.303,0.095-0.591,0.28-0.808
	l3.748-4.399c0.511-0.6,0.711-0.6,0.818-0.6h2.36c0.607,0,0.738,0.045,0.87,0.201L8.214,0.86L8.208,1.086
	c0,0.516,0.171,0.962,0.497,1.289C9.027,2.699,9.487,2.876,10,2.876c1.055,0,1.792-0.735,1.792-1.788V0.879l0.129-0.179l0.002-0.002
	c0.133-0.155,0.262-0.201,0.869-0.201h2.36c0.108,0,0.31,0,0.819,0.6l3.747,4.399c0.184,0.217,0.285,0.504,0.28,0.808
	c-0.005,0.305-0.113,0.588-0.305,0.798L17.31,9.715c-0.188,0.205-0.434,0.318-0.696,0.318c-0.271,0-0.533-0.126-0.721-0.346
	l-0.842-0.989l-0.002,9.667c0,0.627-0.449,1.137-1.002,1.137H5.952L5.952,19.502z M5.258,7.165c0.299,0,0.457,0.337,0.457,0.914
	v10.474c0,0.043-0.099,0.117,0,0h8.571c0.04,0,0,0.045,0,0V8.079c0-0.576,0.156-0.914,0.455-0.914c0.135,0,0.34,0.052,0.551,0.3
	l1.27,1.49c0.021,0.025,0.039,0.038,0.052,0.038c0.013,0,0.03-0.013,0.053-0.036l2.383-2.611c0.019-0.02,0.021-0.045,0.023-0.058
	c0-0.023-0.008-0.044-0.021-0.06L15.303,1.83c-0.122-0.144-0.223-0.238-0.267-0.278h-2.243c-0.038,0-0.074,0-0.106,0.001
	C12.479,2.978,11.407,3.929,10,3.929c-0.704,0-1.334-0.234-1.824-0.679C7.704,2.82,7.405,2.234,7.312,1.552
	c-0.033,0-0.067-0.001-0.104-0.001H4.965C4.92,1.591,4.82,1.685,4.697,1.83L0.95,6.229C0.932,6.25,0.93,6.275,0.93,6.289
	c0,0.013,0.003,0.038,0.021,0.057l2.384,2.612c0.021,0.023,0.039,0.036,0.051,0.036c0.013,0,0.031-0.013,0.052-0.039l1.269-1.488
	C4.92,7.217,5.124,7.165,5.258,7.165z"/>
</svg>
