<?xml version="1.0" encoding="utf-8"?>
<!-- Generator: Adobe Illustrator 17.0.0, SVG Export Plug-In . SVG Version: 6.00 Build 0)  -->
<!DOCTYPE svg PUBLIC "-//W3C//DTD SVG 1.1//EN" "http://www.w3.org/Graphics/SVG/1.1/DTD/svg11.dtd">
<svg version="1.1" id="图层_1" xmlns="http://www.w3.org/2000/svg" xmlns:xlink="http://www.w3.org/1999/xlink" x="0px" y="0px"
	 width="20px" height="20px" viewBox="0 0 20 20" enable-background="new 0 0 20 20" xml:space="preserve">
<path fill-rule="evenodd" clip-rule="evenodd" fill="#000400" d="M19,16.75H1c-0.552,0-1-0.448-1-1v-12c0-0.552,0.448-1,1-1h18
	c0.552,0,1,0.448,1,1v12C20,16.302,19.552,16.75,19,16.75z M19,4.75c0-0.553-0.448-1-1-1H2c-0.552,0-1,0.447-1,1v10
	c0,0.553,0.448,1,1,1h16c0.552,0,1-0.447,1-1V4.75z M16,10.75h1v2h-1V10.75z M15,7.75h2v1h-2V7.75z M15,5.75h2v1h-2V5.75z M13,12.75
	H4c-0.552,0-1-0.448-1-1v-6c0-0.552,0.448-1,1-1h9c0.552,0,1,0.448,1,1v6C14,12.302,13.552,12.75,13,12.75z M13,6.75
	c0-0.552-0.448-1-1-1H5c-0.552,0-1,0.448-1,1v4c0,0.551,0.448,1,1,1h7c0.552,0,1-0.449,1-1V6.75z"/>
</svg>
