<?xml version="1.0" encoding="utf-8"?>
<!-- Generator: Adobe Illustrator 17.0.0, SVG Export Plug-In . SVG Version: 6.00 Build 0)  -->
<!DOCTYPE svg PUBLIC "-//W3C//DTD SVG 1.1//EN" "http://www.w3.org/Graphics/SVG/1.1/DTD/svg11.dtd">
<svg version="1.1" id="图层_1" xmlns="http://www.w3.org/2000/svg" xmlns:xlink="http://www.w3.org/1999/xlink" x="0px" y="0px"
	 width="30px" height="30px" viewBox="0 0 30 30" enable-background="new 0 0 30 30" xml:space="preserve">
<path fill-rule="evenodd" clip-rule="evenodd" fill="#000400" d="M22.251,1.921L9.291,14.995l12.96,13.073
	c0.214,0.216,0.331,0.5,0.331,0.806c0,0.305-0.117,0.59-0.331,0.805c-0.212,0.215-0.494,0.332-0.795,0.332
	c-0.301,0-0.584-0.117-0.797-0.332L6.902,15.8c-0.214-0.215-0.331-0.501-0.331-0.805c0-0.304,0.117-0.59,0.329-0.806L20.659,0.311
	c0.426-0.429,1.167-0.429,1.593,0c0.213,0.214,0.33,0.501,0.33,0.805C22.582,1.42,22.465,1.707,22.251,1.921z"/>
</svg>
