<?xml version="1.0" encoding="utf-8"?>
<!-- Generator: Adobe Illustrator 16.0.0, SVG Export Plug-In . SVG Version: 6.00 Build 0)  -->
<!DOCTYPE svg PUBLIC "-//W3C//DTD SVG 1.1 Tiny//EN" "http://www.w3.org/Graphics/SVG/1.1/DTD/svg11-tiny.dtd">
<svg version="1.1" baseProfile="tiny" id="图层_1"
	 xmlns="http://www.w3.org/2000/svg" xmlns:xlink="http://www.w3.org/1999/xlink" x="0px" y="0px" width="30px" height="30px"
	 viewBox="0 0 30 30" xml:space="preserve">
<path fill="#040000" d="M1.921,7.325l13.074,12.96l13.073-12.96c0.216-0.214,0.5-0.331,0.806-0.331s0.59,0.117,0.806,0.331
	c0.215,0.212,0.331,0.494,0.331,0.795c0,0.302-0.116,0.584-0.331,0.797L15.8,22.674c-0.215,0.215-0.501,0.332-0.805,0.332
	c-0.304,0-0.59-0.117-0.806-0.33L0.311,8.917c-0.429-0.426-0.429-1.167,0-1.593c0.214-0.213,0.501-0.33,0.805-0.33
	C1.42,6.994,1.707,7.111,1.921,7.325z"/>
</svg>
