<?xml version="1.0" encoding="utf-8"?>
<!-- Generator: Adobe Illustrator 16.0.0, SVG Export Plug-In . SVG Version: 6.00 Build 0)  -->
<!DOCTYPE svg PUBLIC "-//W3C//DTD SVG 1.1 Tiny//EN" "http://www.w3.org/Graphics/SVG/1.1/DTD/svg11-tiny.dtd">
<svg version="1.1" baseProfile="tiny" id="图层_1"
	 xmlns="http://www.w3.org/2000/svg" xmlns:xlink="http://www.w3.org/1999/xlink" x="0px" y="0px" width="30px" height="30px"
	 viewBox="0 0 30 30" xml:space="preserve">
<path fill="#040000" d="M6.901,28.079l12.96-13.074L6.901,1.932C6.688,1.716,6.57,1.432,6.57,1.126s0.117-0.59,0.331-0.806
	c0.212-0.215,0.494-0.331,0.795-0.331c0.302,0,0.584,0.116,0.797,0.331L22.25,14.2c0.215,0.215,0.332,0.501,0.332,0.805
	c0,0.304-0.117,0.591-0.33,0.806L8.493,29.689c-0.426,0.429-1.167,0.429-1.593,0c-0.213-0.215-0.33-0.502-0.33-0.806
	S6.688,28.293,6.901,28.079z"/>
</svg>
