<?xml version="1.0" encoding="utf-8"?>
<!-- Generator: Adobe Illustrator 16.0.0, SVG Export Plug-In . SVG Version: 6.00 Build 0)  -->
<!DOCTYPE svg PUBLIC "-//W3C//DTD SVG 1.1 Tiny//EN" "http://www.w3.org/Graphics/SVG/1.1/DTD/svg11-tiny.dtd">
<svg version="1.1" baseProfile="tiny" id="图层_1"
	 xmlns="http://www.w3.org/2000/svg" xmlns:xlink="http://www.w3.org/1999/xlink" x="0px" y="0px" width="30px" height="30px"
	 viewBox="0 0 30 30" xml:space="preserve">
<path fill="#040000" d="M28.079,22.675L15.005,9.715L1.932,22.675c-0.216,0.214-0.5,0.331-0.806,0.331s-0.59-0.117-0.806-0.331
	c-0.215-0.212-0.331-0.494-0.331-0.795c0-0.302,0.116-0.584,0.331-0.797L14.2,7.326c0.215-0.215,0.501-0.332,0.805-0.332
	c0.304,0,0.591,0.117,0.806,0.33l13.879,13.759c0.429,0.426,0.429,1.167,0,1.593c-0.215,0.213-0.502,0.33-0.806,0.33
	S28.293,22.889,28.079,22.675z"/>
</svg>
