<svg xmlns="http://www.w3.org/2000/svg" width="30" height="30" viewBox="0 0 30 30">
  <metadata><?xpacket begin="﻿" id="W5M0MpCehiHzreSzNTczkc9d"?>
<x:xmpmeta xmlns:x="adobe:ns:meta/" x:xmptk="Adobe XMP Core 5.6-c138 79.159824, 2016/09/14-01:09:01        ">
   <rdf:RDF xmlns:rdf="http://www.w3.org/1999/02/22-rdf-syntax-ns#">
      <rdf:Description rdf:about=""/>
   </rdf:RDF>
</x:xmpmeta>
                                                                                                    
                                                                                                    
                                                                                                    
                                                                                                    
                                                                                                    
                                                                                                    
                                                                                                    
                                                                                                    
                                                                                                    
                                                                                                    
                                                                                                    
                                                                                                    
                                                                                                    
                                                                                                    
                                                                                                    
                                                                                                    
                                                                                                    
                                                                                                    
                                                                                                    
                                                                                                    
                           
<?xpacket end="w"?></metadata>
<defs>
    <style>
      .cls-1 {
        fill: #333;
        fill-rule: evenodd;
      }
    </style>
  </defs>
  <path id="go" class="cls-1" d="M787,328h25.279l-11.957,12.061a1.146,1.146,0,0,0,0,1.611,1.118,1.118,0,0,0,1.592,0l13.757-13.878a1.119,1.119,0,0,0,.306-0.68A0.885,0.885,0,0,0,816,327v0s0-.006,0-0.009a1.142,1.142,0,0,0-.329-0.806l-13.758-13.878a1.127,1.127,0,0,0-1.923.805,1.134,1.134,0,0,0,.331.806L812.3,326H787A1,1,0,0,0,787,328Z" transform="translate(-786 -312)"/>
</svg>
