<?xml version="1.0" encoding="utf-8"?>
<!-- Generator: Adobe Illustrator 17.0.0, SVG Export Plug-In . SVG Version: 6.00 Build 0)  -->
<!DOCTYPE svg PUBLIC "-//W3C//DTD SVG 1.1//EN" "http://www.w3.org/Graphics/SVG/1.1/DTD/svg11.dtd">
<svg version="1.1" id="图层_1" xmlns="http://www.w3.org/2000/svg" xmlns:xlink="http://www.w3.org/1999/xlink" x="0px" y="0px"
	 width="20px" height="20px" viewBox="0 0 20 20" enable-background="new 0 0 20 20" xml:space="preserve">
<path fill-rule="evenodd" clip-rule="evenodd" fill="#000400" d="M10,20.011C4.48,20.011-0.011,15.519-0.011,10
	C-0.011,4.479,4.48-0.012,10-0.012c5.521,0,10.012,4.491,10.012,10.011C20.012,15.519,15.521,20.011,10,20.011z M10,0.908
	c-5.012,0-9.091,4.079-9.091,9.091c0,5.013,4.079,9.091,9.091,9.091c5.014,0,9.092-4.078,9.092-9.091
	C19.092,4.987,15.014,0.908,10,0.908z M17.535,10c0,0.512-0.054,1.029-0.159,1.539h0.007v0.004l0,0l-0.027,0.136l-0.112,0.398
	c-0.028,0.1-0.06,0.196-0.09,0.292l-0.04,0.113c-0.027,0.08-0.056,0.156-0.086,0.233c-0.02,0.055-0.041,0.107-0.063,0.16
	c-0.023,0.055-0.047,0.109-0.07,0.162l-0.022,0.049c-0.023,0.054-0.048,0.108-0.074,0.162l-0.039,0.078
	c-0.197,0.401-0.432,0.785-0.695,1.142l-0.036,0.049c-0.054,0.071-0.11,0.144-0.169,0.215l-0.488,0.579v-0.001l-0.006,0.007
	l-0.014-0.019c-0.173,0.175-0.372,0.308-0.558,0.463c-0.198,0.166-0.384,0.351-0.596,0.495c-0.036,0.025-0.078,0.038-0.114,0.063
	c-0.793,0.516-1.665,0.885-2.593,1.07c-0.485,0.097-0.984,0.147-1.491,0.147c-2.044,0-3.949-0.805-5.38-2.268l-0.016,0.018
	l-0.087-0.103l-0.006-0.006l-0.346-0.413c-0.229-0.28-0.429-0.58-0.614-0.889c-0.11-0.183-0.221-0.365-0.314-0.557l-0.026-0.053
	l-0.009-0.02c-0.035-0.073-0.069-0.147-0.101-0.222c-0.022-0.051-0.044-0.1-0.065-0.15c-0.022-0.053-0.043-0.108-0.064-0.164
	l-0.002-0.006c-0.001-0.004-0.002-0.007-0.004-0.011c-0.027-0.068-0.052-0.139-0.078-0.21l-0.041-0.122
	c-0.016-0.047-0.029-0.095-0.043-0.142c-0.015-0.047-0.03-0.094-0.043-0.141l-0.004-0.014l-0.012-0.035l-0.094-0.34l-0.041-0.145
	l0.018-0.004c-0.101-0.483-0.151-0.976-0.156-1.468c0-0.024-0.004-0.049-0.004-0.073v0v0c0-3.199,2.013-6.037,5.024-7.103
	L7.487,2.888l0.129-0.046l0.385-0.107c0.077-0.021,0.137-0.037,0.196-0.051l0.081-0.019c0.141-0.033,0.254-0.056,0.37-0.078
	L8.747,2.57C8.814,2.559,8.882,2.548,8.95,2.539l0.098-0.012C9.16,2.512,9.275,2.5,9.392,2.491l0.061-0.003l0.06-0.005
	c0.03-0.002,0.061-0.003,0.091-0.005l0.097-0.006c0.05-0.002,0.101-0.003,0.152-0.004l0.054-0.001C9.938,2.465,9.969,2.464,10,2.464
	l0.285,0.006c0.063,0.002,0.125,0.006,0.186,0.01l0.131,0.009c0.106,0.008,0.214,0.019,0.319,0.032l0.117,0.015
	c0.066,0.009,0.129,0.018,0.194,0.029l0.114,0.021c0.103,0.018,0.207,0.039,0.311,0.062l0.136,0.032
	c0.055,0.014,0.11,0.028,0.166,0.043l0.04,0.01l0.489,0.134V2.87l0,0l-0.006,0.016C15.511,3.945,17.535,6.786,17.535,10L17.535,10
	C17.535,9.999,17.535,9.999,17.535,10z M11.919,5.485c0,2.79,1.866,5.19,4.553,5.878c0.096-0.448,0.143-0.907,0.143-1.364
	c0-2.826-1.78-5.32-4.444-6.247C12.004,4.313,11.919,4.896,11.919,5.485z M11.283,3.511c-0.072-0.014-0.139-0.026-0.205-0.037
	c-0.623-0.102-1.212-0.115-1.805-0.048C9.14,3.441,9.032,3.456,8.925,3.473L8.89,3.479C8.879,3.481,8.87,3.483,8.858,3.485
	c-0.056,0.01-0.113,0.021-0.169,0.032c0.187,0.639,0.282,1.299,0.282,1.968l0,0l0,0c0,1.11-0.272,2.161-0.738,3.102
	c-0.872,1.763-2.458,3.126-4.455,3.655l0.025,0.073c0.03,0.078,0.062,0.158,0.094,0.236c0.201,0.474,0.446,0.908,0.739,1.313
	c1.304-1.307,3.098-2.053,4.945-2.053h0.792c1.86,0,3.664,0.756,4.972,2.078c0.119-0.164,0.226-0.336,0.329-0.508
	c0.155-0.26,0.298-0.524,0.415-0.8l0.021-0.049c0.02-0.048,0.038-0.097,0.058-0.146c0.009-0.023,0.017-0.044,0.026-0.068
	l0.025-0.069c-3.081-0.802-5.222-3.563-5.222-6.765l0,0l0,0C10.998,4.814,11.094,4.151,11.283,3.511z M3.528,11.356
	c2.67-0.699,4.524-3.095,4.524-5.87c0-0.584-0.084-1.164-0.25-1.723C5.155,4.696,3.386,7.188,3.386,10
	C3.386,10.451,3.433,10.905,3.528,11.356z M10.374,12.731H9.582c-1.634,0-3.213,0.67-4.354,1.844
	c1.246,1.297,2.979,2.039,4.771,2.039c1.783,0,3.508-0.733,4.75-2.018C13.608,13.41,12.021,12.731,10.374,12.731z"/>
</svg>
