<?xml version="1.0" encoding="utf-8"?>
<!-- Generator: Adobe Illustrator 17.0.0, SVG Export Plug-In . SVG Version: 6.00 Build 0)  -->
<!DOCTYPE svg PUBLIC "-//W3C//DTD SVG 1.1//EN" "http://www.w3.org/Graphics/SVG/1.1/DTD/svg11.dtd">
<svg version="1.1" id="图层_1" xmlns="http://www.w3.org/2000/svg" xmlns:xlink="http://www.w3.org/1999/xlink" x="0px" y="0px"
	 width="20px" height="20px" viewBox="0 0 20 20" enable-background="new 0 0 20 20" xml:space="preserve">
<path fill-rule="evenodd" clip-rule="evenodd" fill="#000400" d="M17.25,20h-14c-0.552,0-1-0.447-1-1V9c0-0.552,0.448-1,1-1V6
	c0-1.657,1.343-3,3-3h2.273C8.351,2.707,8.25,2.366,8.25,2c0-1.104,0.896-2,2-2c1.104,0,2,0.896,2,2c0,0.366-0.101,0.707-0.273,1
	h2.273c1.656,0,3,1.343,3,3v2c0.553,0,1,0.448,1,1v10C18.25,19.553,17.803,20,17.25,20z M16.25,7c0-1.657-1.344-3-3-3h-2V3.723V3V2
	c0-0.552-0.447-1-1-1c-0.552,0-1,0.448-1,1v1v0.723V4h-2c-1.657,0-3,1.343-3,3v1h12V7z M17.25,10c0-0.552-0.447-1-1-1h-12
	c-0.552,0-1,0.448-1,1v8c0,0.553,0.448,1,1,1h12c0.553,0,1-0.447,1-1V10z M10.75,16h-6c-0.276,0-0.5-0.224-0.5-0.5
	c0-0.275,0.224-0.5,0.5-0.5h6c0.275,0,0.5,0.225,0.5,0.5C11.25,15.776,11.025,16,10.75,16z M8.75,13h-4c-0.276,0-0.5-0.224-0.5-0.5
	c0-0.275,0.224-0.5,0.5-0.5h4c0.276,0,0.5,0.225,0.5,0.5C9.25,12.776,9.026,13,8.75,13z"/>
</svg>
