<?xml version="1.0" encoding="utf-8"?>
<!-- Generator: Adobe Illustrator 17.0.0, SVG Export Plug-In . SVG Version: 6.00 Build 0)  -->
<!DOCTYPE svg PUBLIC "-//W3C//DTD SVG 1.1//EN" "http://www.w3.org/Graphics/SVG/1.1/DTD/svg11.dtd">
<svg version="1.1" id="图层_1" xmlns="http://www.w3.org/2000/svg" xmlns:xlink="http://www.w3.org/1999/xlink" x="0px" y="0px"
	 width="20px" height="20px" viewBox="0 0 20 20" enable-background="new 0 0 20 20" xml:space="preserve">
<g>
	<g>
		<path fill="#000400" d="M14.021,5.521V4.57C14.037,2.326,12.231,0.5,10,0.5c-2.217,0-4.023,1.827-4.023,4.07v0.952
			c-2.5,0.236-4.477,2.34-4.477,4.93v7.695c0,0.743,0.602,1.352,1.336,1.352h14.329c0.748,0,1.336-0.608,1.336-1.352v-7.695
			C18.5,7.857,16.527,5.75,14.021,5.521z M13.943,9.101v1.352c0,0.253-0.207,0.461-0.441,0.461c-0.25,0-0.441-0.208-0.441-0.461
			V9.101c0-0.252,0.206-0.46,0.441-0.46C13.752,8.64,13.943,8.848,13.943,9.101z M10,1.405c1.733,0,3.127,1.427,3.127,3.165v0.906
			H6.873V4.57C6.873,2.816,8.282,1.405,10,1.405z M6.858,9.101v1.352c0,0.253-0.206,0.461-0.44,0.461
			c-0.25,0-0.441-0.208-0.441-0.461V9.101c0-0.252,0.206-0.46,0.441-0.46C6.667,8.64,6.858,8.848,6.858,9.101z M5.977,6.427v1.405
			C5.459,8.026,5.081,8.516,5.081,9.101v1.352c0,0.758,0.602,1.366,1.336,1.366c0.749,0,1.335-0.608,1.335-1.366V9.101
			c0-0.592-0.37-1.089-0.88-1.28V6.382h6.254v1.436c-0.55,0.176-0.961,0.675-0.961,1.283v1.352c0,0.758,0.602,1.366,1.336,1.366
			c0.749,0,1.336-0.608,1.336-1.366V9.101c0-0.568-0.338-1.052-0.816-1.259V6.428c2.012,0.231,3.568,1.938,3.568,4.024v5.03
			c-0.044-0.01-0.086-0.023-0.133-0.023H2.41v-5.007H2.395C2.395,8.362,3.969,6.653,5.977,6.427z M17.148,18.593H2.85
			c-0.25,0-0.44-0.208-0.44-0.445V16.35h15.047c0.047,0,0.089-0.014,0.133-0.023v1.821C17.59,18.4,17.384,18.593,17.148,18.593z"/>
	</g>
</g>
</svg>
