<?xml version="1.0" encoding="utf-8"?>
<!-- Generator: Adobe Illustrator 17.0.0, SVG Export Plug-In . SVG Version: 6.00 Build 0)  -->
<!DOCTYPE svg PUBLIC "-//W3C//DTD SVG 1.1//EN" "http://www.w3.org/Graphics/SVG/1.1/DTD/svg11.dtd">
<svg version="1.1" id="图层_1" xmlns="http://www.w3.org/2000/svg" xmlns:xlink="http://www.w3.org/1999/xlink" x="0px" y="0px"
	 width="20px" height="20px" viewBox="0 0 20 20" enable-background="new 0 0 20 20" xml:space="preserve">
<path fill-rule="evenodd" clip-rule="evenodd" fill="#000400" d="M19.333,12.5c0,4.141-3.358,7.5-7.5,7.5
	c-4.143,0-7.5-3.359-7.5-7.5c0-3.625,2.583-6.613,6-7.312V4.737L9.124,4H8.075C7.528,5.163,6.07,6,4.333,6c-2.209,0-4-1.343-4-3
	c0-1.657,1.791-3,4-3c1.741,0,3.211,0.836,3.759,2h2.027V1.334h0.215V1h3v0.334h0.525V2h0.475v2h-0.475v0.44h-0.525v0.746
	C16.751,5.885,19.333,8.876,19.333,12.5z M4.333,1c-1.657,0-3,0.895-3,2c0,1.104,1.343,2,3,2s3-0.896,3-2
	C7.333,1.895,5.989,1,4.333,1z M5.333,12.5c0,3.59,2.91,6.5,6.5,6.5c3.59,0,6.5-2.91,6.5-6.5c0-3.587-2.906-6.495-6.492-6.5h-0.018
	C8.238,6.005,5.333,8.913,5.333,12.5z"/>
</svg>
