<?xml version="1.0" encoding="utf-8"?>
<!-- Generator: Adobe Illustrator 17.0.0, SVG Export Plug-In . SVG Version: 6.00 Build 0)  -->
<!DOCTYPE svg PUBLIC "-//W3C//DTD SVG 1.1//EN" "http://www.w3.org/Graphics/SVG/1.1/DTD/svg11.dtd">
<svg version="1.1" id="图层_1" xmlns="http://www.w3.org/2000/svg" xmlns:xlink="http://www.w3.org/1999/xlink" x="0px" y="0px"
	 width="30px" height="30px" viewBox="0 0 30 30" enable-background="new 0 0 30 30" xml:space="preserve">
<g>
	<g>
		<path fill="#000400" d="M6.229,12.696V12.63c0.454-0.11,0.819-0.356,1.096-0.739c0.277-0.383,0.416-0.845,0.416-1.386
			c0-0.823-0.318-1.43-0.954-1.819c-0.636-0.39-1.61-0.584-2.921-0.584H0.498v9.652h3.757c1.135,0,2.032-0.252,2.69-0.756
			c0.658-0.504,0.987-1.193,0.987-2.07c0-0.589-0.134-1.069-0.403-1.438C7.261,13.118,6.827,12.854,6.229,12.696z M3.106,10.075
			h0.733c0.818,0,1.228,0.271,1.228,0.813c0,0.304-0.103,0.532-0.307,0.686c-0.205,0.154-0.494,0.231-0.868,0.231H3.106V10.075z
			 M4.023,15.739H3.106v-2.027h0.865c0.414,0,0.73,0.086,0.947,0.258c0.218,0.171,0.327,0.417,0.327,0.739
			C5.245,15.396,4.838,15.739,4.023,15.739z M9.457,17.753h2.582V7.48H9.457V17.753z M19.209,10.61
			c-0.563-0.313-1.213-0.469-1.947-0.469c-1.189,0-2.112,0.337-2.77,1.014c-0.658,0.675-0.987,1.623-0.987,2.842
			c0,1.193,0.335,2.139,1.007,2.838c0.671,0.701,1.575,1.051,2.709,1.051c1.185,0,2.106-0.343,2.764-1.027
			c0.658-0.684,0.987-1.639,0.987-2.862c0-0.779-0.153-1.46-0.459-2.043C20.207,11.37,19.771,10.922,19.209,10.61z M18.096,15.466
			c-0.164,0.337-0.447,0.505-0.848,0.505c-0.405,0-0.693-0.168-0.865-0.505c-0.172-0.337-0.258-0.826-0.258-1.469
			c0-0.643,0.086-1.125,0.258-1.449c0.172-0.323,0.455-0.485,0.852-0.485c0.405,0,0.691,0.163,0.858,0.489
			c0.167,0.325,0.251,0.807,0.251,1.445C18.344,14.64,18.262,15.129,18.096,15.466z M29.502,10.273h-2.608
			c-0.158-0.026-0.405-0.055-0.739-0.086c-0.334-0.031-0.57-0.046-0.707-0.046c-1.029,0-1.822,0.224-2.377,0.673
			c-0.554,0.449-0.832,1.081-0.832,1.894c0,0.524,0.111,0.969,0.334,1.333c0.223,0.366,0.527,0.635,0.914,0.806
			c-0.404,0.246-0.671,0.459-0.799,0.637c-0.127,0.178-0.191,0.385-0.191,0.617c0,0.211,0.085,0.425,0.255,0.641
			c0.169,0.215,0.368,0.372,0.597,0.469c-1.109,0.26-1.663,0.836-1.663,1.73c0,0.664,0.287,1.174,0.861,1.527
			c0.575,0.354,1.392,0.531,2.452,0.531c1.404,0,2.495-0.252,3.272-0.758c0.777-0.508,1.166-1.216,1.166-2.127
			c0-1.412-0.838-2.119-2.516-2.119h-1.241c-0.335,0-0.605-0.034-0.811-0.102c-0.207-0.068-0.311-0.167-0.311-0.295
			c0-0.102,0.03-0.209,0.092-0.324c0.163,0.036,0.383,0.055,0.66,0.055c1.123,0,1.967-0.223,2.532-0.668
			c0.566-0.444,0.849-1.07,0.849-1.875c0-0.339-0.07-0.636-0.211-0.891l1.024-0.377V10.273z M24.854,18.011h1.01
			c0.428,0,0.755,0.041,0.984,0.122c0.229,0.082,0.343,0.222,0.343,0.419c0,0.247-0.188,0.448-0.563,0.604
			c-0.377,0.155-0.878,0.234-1.503,0.234c-0.383,0-0.689-0.065-0.917-0.194c-0.229-0.131-0.344-0.301-0.344-0.512
			c0-0.19,0.096-0.35,0.287-0.479C24.342,18.075,24.576,18.011,24.854,18.011z M26.045,13.587c-0.135,0.189-0.324,0.284-0.57,0.284
			c-0.533,0-0.799-0.383-0.799-1.149c0-0.766,0.266-1.149,0.799-1.149c0.514,0,0.771,0.387,0.771,1.162
			C26.246,13.114,26.18,13.398,26.045,13.587z"/>
	</g>
</g>
</svg>
