<?xml version="1.0" encoding="utf-8"?>
<!-- Generator: Adobe Illustrator 17.0.0, SVG Export Plug-In . SVG Version: 6.00 Build 0)  -->
<!DOCTYPE svg PUBLIC "-//W3C//DTD SVG 1.1//EN" "http://www.w3.org/Graphics/SVG/1.1/DTD/svg11.dtd">
<svg version="1.1" id="图层_1" xmlns="http://www.w3.org/2000/svg" xmlns:xlink="http://www.w3.org/1999/xlink" x="0px" y="0px"
	 width="20px" height="20px" viewBox="0 0 20 20" enable-background="new 0 0 20 20" xml:space="preserve">
<path fill-rule="evenodd" clip-rule="evenodd" fill="#000400" d="M16.428,12.192c-0.023,0-0.045-0.005-0.063-0.01
	c-1.119,2.286-3.336,3.811-5.83,4.011v2.738h3.708c0.256,0,0.535,0.205,0.535,0.538c0,0.259-0.205,0.538-0.535,0.538H5.756
	c-0.257,0-0.535-0.206-0.535-0.538c0-0.259,0.205-0.538,0.535-0.538h3.708v-2.738c-2.531-0.198-4.747-1.721-5.829-4.004
	c-0.024,0.003-0.045,0.003-0.063,0.003c-1.977,0-3.584-1.614-3.584-3.598V4.583c0-0.259,0.205-0.539,0.536-0.539h2.43V0.531
	c0-0.259,0.205-0.538,0.536-0.538H16.51c0.258,0,0.535,0.205,0.535,0.538v3.514h2.43c0.258,0,0.537,0.206,0.537,0.539v4.012
	C20.012,10.579,18.404,12.192,16.428,12.192z M2.955,9.131V5.121H1.06v3.474c0,1.253,0.942,2.302,2.177,2.464
	C3.049,10.403,2.955,9.757,2.955,9.131z M15.975,1.109H4.025v8.022c0,3.306,2.68,5.997,5.974,5.997c3.295,0,5.975-2.69,5.975-5.997
	V1.109z M18.94,5.121h-1.854v4.011c0,0.626-0.094,1.273-0.283,1.927c1.23-0.162,2.137-1.192,2.137-2.464V5.121z M11.863,7.81
	l0.271,1.598c0.049,0.068,0.049,0.136,0.049,0.178c0,0.232-0.182,0.413-0.412,0.413c-0.047,0-0.123,0-0.195-0.062l-1.535-0.792
	L8.491,9.945c-0.144,0.072-0.325,0.043-0.433-0.064c-0.11-0.111-0.16-0.227-0.16-0.377l0.28-1.736l-1.11-1.155
	C6.952,6.496,6.907,6.335,6.952,6.21c0.013-0.179,0.147-0.304,0.329-0.304L8.97,5.668l0.753-1.554
	c0.049-0.15,0.172-0.235,0.358-0.235c0.153,0,0.286,0.087,0.358,0.234l0.753,1.555l1.746,0.251c0.105,0.053,0.209,0.156,0.26,0.263
	c0.076,0.22-0.023,0.351-0.103,0.432L11.863,7.81z M8.807,8.819l1.011-0.542c0.122-0.06,0.244-0.058,0.36-0.001l1.013,0.543
	l-0.201-1.112c-0.003-0.115-0.003-0.239,0.117-0.358l0.809-0.778l-1.147-0.181c-0.09-0.044-0.2-0.1-0.261-0.22L10,5.15L9.492,6.168
	C9.438,6.277,9.323,6.402,9.176,6.402L8.083,6.57l0.808,0.777c0.12,0.12,0.12,0.245,0.12,0.337L8.807,8.819z"/>
</svg>
