<?xml version="1.0" encoding="utf-8"?>
<!-- Generator: Adobe Illustrator 17.0.0, SVG Export Plug-In . SVG Version: 6.00 Build 0)  -->
<!DOCTYPE svg PUBLIC "-//W3C//DTD SVG 1.1//EN" "http://www.w3.org/Graphics/SVG/1.1/DTD/svg11.dtd">
<svg version="1.1" id="图层_1" xmlns="http://www.w3.org/2000/svg" xmlns:xlink="http://www.w3.org/1999/xlink" x="0px" y="0px"
	 width="30px" height="30px" viewBox="0 0 30 30" enable-background="new 0 0 30 30" xml:space="preserve">
<path fill-rule="evenodd" clip-rule="evenodd" fill="#000400" d="M27.129,17.469h-0.028c-0.134,0.367-0.481,0.635-0.901,0.635
	H12.814c-0.534,0-0.966-0.426-0.966-0.951c0-0.525,0.432-0.951,0.966-0.951c0,0,8.028,0,11.232,0
	c1.224,0.078,1.188-0.065,1.577-1.172c0.442-1.865,1.863-4.701,2.135-5.794c0.268-1.073-0.609-1.01-0.609-1.01H7.417
	c0,0-1.164-0.077-0.908,1.251c0.446,2.308,1.395,8.213,1.843,10.532c0.286,0.936,0.242,1.346,1.641,1.266H22.51h4.71
	c0,0-0.481,1.879-1.302,1.863c-0.002,0-0.002,0-0.004,0c0,0-16.11,0.014-17.664,0.033c-0.132-0.008-0.243-0.012-0.316-0.01
	c-0.527,0.025-1.048-0.381-1.163-1.088L3.203,3.163C3.201,3.155,3.202,3.146,3.2,3.138L2.473,3.152H0.964
	c-0.534,0-0.966-0.426-0.966-0.951c0-0.526,0.433-0.951,0.966-0.951h2.761c1.125,0.257,1.38,1.526,1.38,1.526L5.091,2.779
	c0.006,0.028,0.015,0.054,0.02,0.082l0.671,3.462h3.133l19.116,0.025C28.693,6.328,30.057,6.434,30,8.107
	C29.097,12.732,27.129,17.469,27.129,17.469z M12.203,25.445c1.067,0,1.933,0.852,1.933,1.902c0,1.051-0.865,1.902-1.933,1.902
	s-1.933-0.852-1.933-1.902C10.271,26.297,11.136,25.445,12.203,25.445z M23.154,25.445c1.066,0,1.932,0.852,1.932,1.902
	c0,1.051-0.865,1.902-1.932,1.902c-1.068,0-1.934-0.852-1.934-1.902C21.221,26.297,22.086,25.445,23.154,25.445z"/>
</svg>
