<?xml version="1.0" encoding="utf-8"?>
<!-- Generator: Adobe Illustrator 17.0.0, SVG Export Plug-In . SVG Version: 6.00 Build 0)  -->
<!DOCTYPE svg PUBLIC "-//W3C//DTD SVG 1.1//EN" "http://www.w3.org/Graphics/SVG/1.1/DTD/svg11.dtd">
<svg version="1.1" id="图层_1" xmlns="http://www.w3.org/2000/svg" xmlns:xlink="http://www.w3.org/1999/xlink" x="0px" y="0px"
	 width="30px" height="30px" viewBox="0 0 30 30" enable-background="new 0 0 30 30" xml:space="preserve">
<path fill-rule="evenodd" clip-rule="evenodd" fill="#000400" d="M15,30C6.716,30,0,23.284,0,15C0,6.716,6.716,0,15,0
	c8.284,0,15,6.716,15,15C30,23.284,23.284,30,15,30z M15,2C7.82,2,2,7.82,2,15c0,7.18,5.82,13,13,13c7.18,0,13-5.82,13-13
	C28,7.82,22.18,2,15,2z M17.475,21.389L13,17c0.033-0.342-0.005-0.803,0-1.223V8c0-0.553,0.447-1,1-1c0.552,0,1,0.447,1,1v8
	c0,0.025-0.013,0.047-0.015,0.07l3.903,3.904c0.391,0.391,0.391,1.023,0,1.414C18.498,21.779,17.865,21.779,17.475,21.389z"/>
</svg>
