<?xml version="1.0" encoding="utf-8"?>
<!-- Generator: Adobe Illustrator 17.0.0, SVG Export Plug-In . SVG Version: 6.00 Build 0)  -->
<!DOCTYPE svg PUBLIC "-//W3C//DTD SVG 1.1//EN" "http://www.w3.org/Graphics/SVG/1.1/DTD/svg11.dtd">
<svg version="1.1" id="图层_1" xmlns="http://www.w3.org/2000/svg" xmlns:xlink="http://www.w3.org/1999/xlink" x="0px" y="0px"
	 width="30px" height="30px" viewBox="0 0 30 30" enable-background="new 0 0 30 30" xml:space="preserve">
<path fill-rule="evenodd" clip-rule="evenodd" fill="#000400" d="M15,28.355l-0.677-0.678c-0.687-0.688-1.328-1.178-2.605-2.153
	c-0.79-0.604-1.772-1.354-3.159-2.452c-1.733-1.371-3.89-3.078-5.571-5.092c-2.007-2.404-2.983-4.794-2.983-7.308
	c0-5.749,4.562-9.306,8.788-9.306c2.366,0,4.545,1.053,6.208,2.984c1.665-1.932,3.847-2.987,6.216-2.987
	c4.223,0,8.779,3.538,8.779,9.252c0,5.917-5.572,10.177-8.566,12.465c-0.574,0.44-1.15,0.878-1.727,1.315l-0.027,0.021
	c-2.244,1.707-3.083,2.346-3.998,3.26L15,28.355L15,28.355z M8.792,3.293c-3.303,0-6.868,2.821-6.868,7.379
	c0,4.698,4.515,8.27,7.811,10.876c1.376,1.091,2.357,1.841,3.146,2.442l0.005,0.004c0.918,0.703,1.545,1.182,2.11,1.679
	c0.805-0.726,1.753-1.447,3.52-2.792c0.476-0.361,1.067-0.812,1.751-1.334c3.778-2.887,7.81-6.353,7.81-10.932
	c0-4.524-3.562-7.325-6.86-7.325c-2.125,0-4.05,1.131-5.419,3.184L15,7.67l-0.797-1.196C12.835,4.423,10.914,3.293,8.792,3.293
	L8.792,3.293z"/>
</svg>
