<?xml version="1.0" encoding="utf-8"?>
<!-- Generator: Adobe Illustrator 17.0.0, SVG Export Plug-In . SVG Version: 6.00 Build 0)  -->
<!DOCTYPE svg PUBLIC "-//W3C//DTD SVG 1.1//EN" "http://www.w3.org/Graphics/SVG/1.1/DTD/svg11.dtd">
<svg version="1.1" id="图层_1" xmlns="http://www.w3.org/2000/svg" xmlns:xlink="http://www.w3.org/1999/xlink" x="0px" y="0px"
	 width="20px" height="20px" viewBox="0 0 20 20" enable-background="new 0 0 20 20" xml:space="preserve">
<g>
	<g>
		<path fill="#000400" d="M18.796,0.499H1.307c-0.388,0-0.704,0.31-0.704,0.689v13.22c0,0.38,0.508,1.09,0.896,1.09h8.182v2.163
			H5.307c-0.236,0-0.427,0.188-0.427,0.419c0,0.23,0.191,0.418,0.427,0.418h9.602c0.236,0,0.427-0.188,0.427-0.418
			c0-0.23-0.191-0.419-0.427-0.419h-4.374v-2.163H18.5c0.387,0,0.999-0.71,0.999-1.09V1.188C19.499,0.808,19.184,0.499,18.796,0.499
			z M18.5,14.499H1.499L1.458,14.26v-2.761c0.012,0,0.031-0.001,0.041-0.001H18.5c0.01,0,0.022,0.001,0.033,0.001L18.5,14.499z
			 M18.544,10.521c-0.014-0.003-0.031-0.022-0.044-0.022H1.458V1.336h17.188L18.544,10.521z M10.108,12.79
			c-0.298,0-0.541,0.237-0.541,0.529c0,0.001,0,0.001,0,0.001c0,0.292,0.242,0.529,0.541,0.529c0.299,0,0.54-0.236,0.54-0.529
			S10.406,12.79,10.108,12.79z"/>
	</g>
</g>
</svg>
