<?xml version="1.0" encoding="utf-8"?>
<!-- Generator: Adobe Illustrator 17.0.0, SVG Export Plug-In . SVG Version: 6.00 Build 0)  -->
<!DOCTYPE svg PUBLIC "-//W3C//DTD SVG 1.1//EN" "http://www.w3.org/Graphics/SVG/1.1/DTD/svg11.dtd">
<svg version="1.1" id="图层_1" xmlns="http://www.w3.org/2000/svg" xmlns:xlink="http://www.w3.org/1999/xlink" x="0px" y="0px"
	 width="30px" height="30px" viewBox="0 0 30 30" enable-background="new 0 0 30 30" xml:space="preserve">
<path fill="#000400" d="M28.64,13.271c-0.005-1.154-0.153-2.269-0.442-3.313c-0.979-3.538-3.094-6.282-6.287-8.156
	c-1.598-0.938-3.379-1.517-5.295-1.721c-0.196-0.021-0.395-0.04-0.588-0.057c-0.084-0.007-0.169-0.016-0.253-0.023L15.756,0
	c-0.407,0-0.813,0-1.22,0h-0.015l-0.014,0.002c-0.016,0.002-0.032,0.005-0.048,0.007c-0.033,0.006-0.064,0.011-0.093,0.014
	c-0.166,0.019-0.335,0.036-0.499,0.051c-0.354,0.034-0.721,0.069-1.08,0.131C10.573,0.592,8.594,1.46,6.904,2.787
	c-1.682,1.322-2.978,2.87-3.85,4.6c-0.873,1.731-1.342,3.686-1.397,5.812c-0.022,0.86-0.015,1.733-0.008,2.578
	c0.002,0.295,0.004,0.59,0.005,0.885c0.001,0.181,0.019,0.373,0.055,0.587c0.274,1.64,1.757,2.876,3.45,2.876
	c0.239,0,0.479-0.025,0.713-0.075c0.812-0.174,1.51-0.594,2.019-1.214c0.509-0.622,0.78-1.386,0.782-2.207
	c0.004-1.231,0.003-2.251-0.002-3.212c-0.001-0.235-0.021-0.47-0.059-0.697c-0.13-0.783-0.559-1.505-1.206-2.035
	c-0.638-0.522-1.429-0.809-2.226-0.809c-0.197,0-0.395,0.018-0.587,0.053c-0.136,0.025-0.269,0.057-0.4,0.091
	C5.38,5.991,9.451,2.011,15.139,2.011c0.098,0,0.198,0.001,0.296,0.004c5.571,0.135,9.532,4.086,10.667,8.019
	c-0.029-0.007-0.059-0.014-0.086-0.021c-0.222-0.054-0.451-0.11-0.687-0.124c-0.069-0.004-0.14-0.006-0.209-0.006
	c-0.937,0-1.815,0.36-2.474,1.014c-0.66,0.655-1.025,1.532-1.027,2.47c-0.001,0.894-0.002,2.074,0.001,3.28
	c0.003,0.936,0.37,1.811,1.036,2.464c0.662,0.651,1.544,1.011,2.482,1.011c0.067,0,0.137-0.002,0.203-0.006
	c0.012-0.001,0.023-0.002,0.035-0.002c-1.833,3.418-4.725,5.477-8.598,6.12c-0.018,0.003-0.028,0.003-0.035,0.004
	c-0.004-0.007-0.011-0.017-0.019-0.034c-0.44-0.915-1.387-1.506-2.411-1.506c-0.317,0-0.629,0.055-0.928,0.165
	c-1.301,0.478-2.016,1.84-1.662,3.165c0.295,1.104,1.297,1.914,2.437,1.969C14.208,29.998,14.255,30,14.301,30
	c1.129,0,2.117-0.672,2.516-1.711c0.01-0.027,0.017-0.039,0.019-0.045c0.004-0.001,0.01-0.002,0.02-0.004
	c0.379-0.048,0.709-0.101,1.01-0.162c2.385-0.48,4.6-1.601,6.406-3.242c1.807-1.64,3.125-3.726,3.811-6.031
	c0.02-0.061,0.035-0.123,0.051-0.184c0.039-0.144,0.075-0.281,0.133-0.402c0.253-0.53,0.375-1.053,0.375-1.6
	c0-0.418,0-0.836,0-1.254C28.642,14.679,28.643,13.969,28.64,13.271z M23.65,16.617c-0.003-0.397-0.002-0.801-0.002-1.19
	c0-0.142,0-0.284,0-0.427c0-0.176,0-0.353,0-0.529c0-0.366-0.001-0.744,0.001-1.116c0.005-0.761,0.567-1.376,1.339-1.462
	c0.051-0.006,0.104-0.009,0.156-0.009c0.668,0,1.268,0.479,1.425,1.138c0.026,0.107,0.04,0.224,0.04,0.339
	c0.004,1.17,0.004,2.242,0.001,3.278c-0.002,0.769-0.55,1.374-1.333,1.468c-0.054,0.006-0.109,0.01-0.164,0.01l0,0
	c-0.67,0-1.27-0.481-1.425-1.146C23.664,16.869,23.652,16.75,23.65,16.617z M6.644,13.382c0.001,0.384,0.001,0.768,0.001,1.152
	l0,0.479c0,0.174,0,0.349,0,0.524c0,0.363,0.001,0.738-0.001,1.107c-0.004,0.762-0.567,1.377-1.338,1.463
	c-0.052,0.005-0.104,0.008-0.155,0.008l0,0c-0.676,0-1.277-0.484-1.43-1.15c-0.023-0.101-0.036-0.215-0.036-0.34
	c-0.003-1.109-0.004-2.203-0.001-3.25c0.002-0.833,0.651-1.486,1.478-1.487l0.002-0.18l0,0v0.18
	C5.991,11.887,6.642,12.544,6.644,13.382z"/>
</svg>
