<svg xmlns="http://www.w3.org/2000/svg" width="30" height="30"><g fill-rule="evenodd" clip-rule="evenodd" fill="#070001"><path d="M18.935-.008h-.021l.014.002zM19 19.016h-6a1 1 0 1 0 0 2h6a1 1 0 1 0 0-2zM13 13.016h4a1 1 0 1 0 0-2h-4a1 1 0 1 0 0 2z"/><path d="M24.712 5.372l-5.1-5.1a.965.965 0 0 0-.685-.278l-.038.016c-.012-.001-.022-.006-.034-.007.021-.001.039-.012.06-.012h-.116c-.014-.001-.025-.008-.04-.008s-.027.008-.041.008L10 .016a2 2 0 0 0-2 2v2H6a2 2 0 0 0-2 2v22a2 2 0 0 0 2 2h14a2 2 0 0 0 2-2v-2h2a2 2 0 0 0 2-2V6.585l-1.288-1.213zM19 3.016c0-.021.011-.039.012-.061L23.08 7c-.027.002-.051.016-.08.016h-3a1 1 0 0 1-1-1v-3zm1 24a1 1 0 0 1-1 1H7a1 1 0 0 1-1-1v-20a1 1 0 0 1 1-1h1v18a2 2 0 0 0 2 2h10v1zm4-4a1 1 0 0 1-1 1H11a1 1 0 0 1-1-1v-20a1 1 0 0 1 1-1h6v5a2 2 0 0 0 2 2h5v14z"/><path d="M12 16.016a1 1 0 0 0 1 1h8a1 1 0 1 0 0-2h-8a1 1 0 0 0-1 1z"/></g></svg>