<?xml version="1.0" encoding="utf-8"?>
<!-- Generator: Adobe Illustrator 17.0.0, SVG Export Plug-In . SVG Version: 6.00 Build 0)  -->
<!DOCTYPE svg PUBLIC "-//W3C//DTD SVG 1.1//EN" "http://www.w3.org/Graphics/SVG/1.1/DTD/svg11.dtd">
<svg version="1.1" id="图层_1" xmlns="http://www.w3.org/2000/svg" xmlns:xlink="http://www.w3.org/1999/xlink" x="0px" y="0px"
	 width="30px" height="30px" viewBox="0 0 30 30" enable-background="new 0 0 30 30" xml:space="preserve">
<path fill-rule="evenodd" clip-rule="evenodd" fill="#000400" d="M29,5h-2v23c0,1.104-0.896,2-2,2H5c-1.104,0-2-0.896-2-2V5H1
	C0.447,5,0,4.552,0,4c0-0.553,0.447-1,1-1h12V2c0-1.104,0.896-2,2-2s2,0.896,2,2v1h12c0.552,0,1,0.448,1,1C30,4.552,29.552,5,29,5z
	 M25,5H5v22c0,0.553,0.447,1,1,1h18c0.552,0,1-0.447,1-1V5z M18,25c-0.553,0-1-0.447-1-1V10c0-0.552,0.447-1,1-1
	c0.552,0,1,0.448,1,1v14C19,24.553,18.552,25,18,25z M12,25c-0.553,0-1-0.447-1-1V10c0-0.552,0.447-1,1-1c0.552,0,1,0.448,1,1v14
	C13,24.553,12.552,25,12,25z"/>
</svg>
