<?xml version="1.0" encoding="utf-8"?>
<!-- Generator: Adobe Illustrator 17.0.0, SVG Export Plug-In . SVG Version: 6.00 Build 0)  -->
<!DOCTYPE svg PUBLIC "-//W3C//DTD SVG 1.1//EN" "http://www.w3.org/Graphics/SVG/1.1/DTD/svg11.dtd">
<svg version="1.1" id="图层_1" xmlns="http://www.w3.org/2000/svg" xmlns:xlink="http://www.w3.org/1999/xlink" x="0px" y="0px"
	 width="30px" height="30px" viewBox="0 0 30 30" enable-background="new 0 0 30 30" xml:space="preserve">
<path fill-rule="evenodd" clip-rule="evenodd" fill="#000400" d="M29.011,30H0.989c-0.55,0-0.997-0.457-0.997-1.018
	c0-0.561,0.485-0.939,1.035-0.939h28c0.554,0,0.98,0.379,0.98,0.939C30.008,29.543,29.56,30,29.011,30z M11.275,24.023l-6.836,1.971
	c-0.152,0.033-0.291,0.051-0.419,0.051c-0.346,0-0.62-0.119-0.796-0.344c-0.207-0.265-0.265-0.66-0.17-1.144l1.893-7.126
	L21.09,0.608c0.777-0.81,1.855-0.809,2.632,0l3.685,3.841c0.798,0.832,0.798,1.908,0,2.744L11.275,24.023z M9.871,22.418
	l-3.384-3.527l-1.276,4.857L9.871,22.418z M21.617,10.309l-3.51-3.658L7.829,17.363l3.511,3.658L21.617,10.309z M25.815,5.822
	c0.001-0.097-0.143-0.249-0.361-0.478l-2.522-2.626c-0.244-0.273-0.411-0.451-0.523-0.451c-0.113,0-0.282,0.177-0.526,0.448
	l-2.373,2.473l3.511,3.656l2.369-2.47C25.653,6.101,25.815,5.928,25.815,5.822z"/>
</svg>
