<?xml version="1.0" encoding="utf-8"?>
<!-- Generator: Adobe Illustrator 17.0.0, SVG Export Plug-In . SVG Version: 6.00 Build 0)  -->
<!DOCTYPE svg PUBLIC "-//W3C//DTD SVG 1.1//EN" "http://www.w3.org/Graphics/SVG/1.1/DTD/svg11.dtd">
<svg version="1.1" id="图层_1" xmlns="http://www.w3.org/2000/svg" xmlns:xlink="http://www.w3.org/1999/xlink" x="0px" y="0px"
	 width="20px" height="20px" viewBox="0 0 20 20" enable-background="new 0 0 20 20" xml:space="preserve">
<g>
	<g>
		<path fill="#000400" d="M18.257,9.781V9.049C18.257,4.335,14.554,0.5,10,0.5c-4.553,0-8.257,3.835-8.257,8.549v0.732
			C0.718,10.247,0,11.299,0,12.523v3.978C0,18.154,1.308,19.5,2.917,19.5c0.689,0,1.25-0.577,1.25-1.286v-7.406
			c0-0.709-0.561-1.285-1.25-1.285c-0.117,0-0.228,0.021-0.341,0.036V9.049c0-4.242,3.33-7.692,7.424-7.692
			c4.093,0,7.425,3.45,7.425,7.691v0.51c-0.113-0.014-0.225-0.036-0.342-0.036c-0.689,0-1.25,0.576-1.25,1.285v7.406
			c0,0.709,0.561,1.286,1.25,1.286c1.609,0,2.918-1.346,2.918-2.999v-3.978C20.001,11.298,19.282,10.246,18.257,9.781z
			 M3.333,10.808v7.406c0,0.236-0.187,0.429-0.417,0.429c-1.148,0-2.083-0.96-2.083-2.142v-3.978c0-1.182,0.935-2.143,2.083-2.143
			C3.146,10.379,3.333,10.571,3.333,10.808z M19.167,16.501c0,1.182-0.934,2.142-2.084,2.142c-0.229,0-0.416-0.192-0.416-0.429
			v-7.406c0-0.237,0.188-0.429,0.416-0.429c1.15,0,2.084,0.961,2.084,2.143V16.501z"/>
	</g>
</g>
</svg>
