<?xml version="1.0" encoding="utf-8"?>
<!-- Generator: Adobe Illustrator 17.0.0, SVG Export Plug-In . SVG Version: 6.00 Build 0)  -->
<!DOCTYPE svg PUBLIC "-//W3C//DTD SVG 1.1//EN" "http://www.w3.org/Graphics/SVG/1.1/DTD/svg11.dtd">
<svg version="1.1" id="图层_1" xmlns="http://www.w3.org/2000/svg" xmlns:xlink="http://www.w3.org/1999/xlink" x="0px" y="0px"
	 width="30px" height="30px" viewBox="0 0 30 30" enable-background="new 0 0 30 30" xml:space="preserve">
<path fill-rule="evenodd" clip-rule="evenodd" fill="#000400" d="M28,27.5H2c-1.105,0-2-0.896-2-2v-20c0-1.104,0.895-2,2-2h26
	c1.104,0,2,0.896,2,2v20C30,26.604,29.104,27.5,28,27.5z M27.728,7.429l-6.364,6.364L28,20.429V7.066
	C27.923,7.194,27.838,7.318,27.728,7.429z M3,25.5h24c0.553,0,1-0.447,1-1v-1.334c-0.097-0.047-0.191-0.101-0.272-0.182
	l-7.778-7.778l-3.535,3.536c-0.781,0.781-2.047,0.781-2.829,0l-3.535-3.536l-7.778,7.778C2.191,23.065,2.097,23.119,2,23.166V24.5
	C2,25.053,2.448,25.5,3,25.5z M2.272,7.429C2.161,7.318,2.077,7.194,2,7.066v13.362l6.636-6.636L2.272,7.429z M4.266,5.5
	C4.029,5.885,4.06,6.388,4.393,6.722l9.9,9.899c0.39,0.391,1.023,0.391,1.414,0l9.899-9.899c0.334-0.334,0.364-0.837,0.128-1.222
	H4.266z"/>
</svg>
