<?xml version="1.0" encoding="utf-8"?>
<!-- Generator: Adobe Illustrator 17.0.0, SVG Export Plug-In . SVG Version: 6.00 Build 0)  -->
<!DOCTYPE svg PUBLIC "-//W3C//DTD SVG 1.1//EN" "http://www.w3.org/Graphics/SVG/1.1/DTD/svg11.dtd">
<svg version="1.1" id="图层_1" xmlns="http://www.w3.org/2000/svg" xmlns:xlink="http://www.w3.org/1999/xlink" x="0px" y="0px"
	 width="30px" height="30px" viewBox="0 0 30 30" enable-background="new 0 0 30 30" xml:space="preserve">
<path fill-rule="evenodd" clip-rule="evenodd" fill="#000400" d="M28,27H2c-1.104,0-2-0.895-2-2v-0.334
	c0.097-0.047,0.191-0.1,0.272-0.182l9.778-9.777l3.535,3.535c0.781,0.781,2.047,0.781,2.829,0l3.535-3.535l9.778,9.777
	c0.081,0.082,0.176,0.135,0.272,0.182V5c0,0,0,0,0,0v20C30,26.105,29.104,27,28,27z M29.728,4.929
	c0.095-0.095,0.165-0.203,0.233-0.311C29.985,4.742,30,4.869,30,5v16.93l-8.637-8.637L29.728,4.929z M27.606,4.222L15.707,16.121
	c-0.391,0.391-1.024,0.391-1.414,0l-9.9-9.9C4.086,5.915,2.08,3.843,1.213,3.162C1.455,3.059,1.72,3,2,3h25.734
	C27.971,3.385,27.94,3.888,27.606,4.222z M0.272,4.929l8.364,8.364L0,21.93V5C0,4.87,0.015,4.742,0.039,4.619
	C0.107,4.727,0.177,4.834,0.272,4.929z"/>
</svg>
