<?xml version="1.0" encoding="utf-8"?>
<!-- Generator: Adobe Illustrator 17.0.0, SVG Export Plug-In . SVG Version: 6.00 Build 0)  -->
<!DOCTYPE svg PUBLIC "-//W3C//DTD SVG 1.1//EN" "http://www.w3.org/Graphics/SVG/1.1/DTD/svg11.dtd">
<svg version="1.1" id="图层_1" xmlns="http://www.w3.org/2000/svg" xmlns:xlink="http://www.w3.org/1999/xlink" x="0px" y="0px"
	 width="30px" height="30px" viewBox="0 0 30 30" enable-background="new 0 0 30 30" xml:space="preserve">
<path fill-rule="evenodd" clip-rule="evenodd" fill="#000400" d="M15,30C6.715,30,0,23.284,0,15C0,6.716,6.715,0,15,0
	c8.284,0,15,6.716,15,15C30,23.284,23.284,30,15,30z M15,2C7.82,2,2,7.82,2,15c0,7.18,5.82,13,13,13c7.18,0,13-5.82,13-13
	C28,7.82,22.18,2,15,2z M17.271,14.394c-0.578,0.526-1.224,1.113-1.224,1.539v1.14c0,0.529-0.469,0.957-1.047,0.957
	c-0.579,0-1.051-0.428-1.051-0.957v-1.14c0-1.216,0.968-2.101,1.82-2.883c0.515-0.471,1.133-1.036,1.133-1.364
	c0-0.967-0.855-1.752-1.902-1.752c-1.066,0-1.901,0.749-1.901,1.706c0,0.529-0.472,0.96-1.05,0.96c-0.579,0-1.05-0.431-1.05-0.96
	c0-1.998,1.795-3.626,4.002-3.626c2.207,0,4,1.647,4,3.672C19.001,12.811,18.121,13.615,17.271,14.394z M16.002,19.798
	c0.266,0.242,0.414,0.576,0.414,0.915c0,0.342-0.148,0.676-0.414,0.915c-0.258,0.242-0.624,0.381-1.001,0.381
	c-0.377,0-0.743-0.139-1.005-0.381c-0.262-0.239-0.414-0.573-0.414-0.915c0-0.339,0.152-0.673,0.416-0.915
	C14.524,19.315,15.479,19.315,16.002,19.798z"/>
</svg>
