<?xml version="1.0" encoding="utf-8"?>
<!-- Generator: Adobe Illustrator 17.0.0, SVG Export Plug-In . SVG Version: 6.00 Build 0)  -->
<!DOCTYPE svg PUBLIC "-//W3C//DTD SVG 1.1//EN" "http://www.w3.org/Graphics/SVG/1.1/DTD/svg11.dtd">
<svg version="1.1" id="图层_1" xmlns="http://www.w3.org/2000/svg" xmlns:xlink="http://www.w3.org/1999/xlink" x="0px" y="0px"
	 width="30px" height="30px" viewBox="0 0 30 30" enable-background="new 0 0 30 30" xml:space="preserve">
<path fill="#000400" d="M12.881,6.801c0,1.517,0,3.033,0,4.604c-1.537,0-3.075,0-4.666,0c0,1.517,0,3.033,0,4.602
	c1.537,0,3.074,0,4.666,0c0,4.063,0,8.18,0,12.242c1.537,0,3.074,0,4.667,0c0-4.063,0-8.18,0-12.242c1.537,0,3.075,0,4.667,0
	c0-1.515,0-3.032,0-4.602c-1.537,0-3.074,0-4.667,0c0-1.029,0-2.058,0-3.033c0-0.867,0.714-1.517,1.537-1.517
	c1.044,0,2.087,0,3.075,0c0-1.517,0-3.033,0-4.604c-1.537,0-3.075,0-4.667,0C14.968,2.197,12.881,4.256,12.881,6.801z"/>
</svg>
