<?xml version="1.0" encoding="utf-8"?>
<!-- Generator: Adobe Illustrator 17.0.0, SVG Export Plug-In . SVG Version: 6.00 Build 0)  -->
<!DOCTYPE svg PUBLIC "-//W3C//DTD SVG 1.1//EN" "http://www.w3.org/Graphics/SVG/1.1/DTD/svg11.dtd">
<svg version="1.1" id="图层_1" xmlns="http://www.w3.org/2000/svg" xmlns:xlink="http://www.w3.org/1999/xlink" x="0px" y="0px"
	 width="20px" height="20px" viewBox="0 0 20 20" enable-background="new 0 0 20 20" xml:space="preserve">
<path fill-rule="evenodd" clip-rule="evenodd" fill="#000400" d="M18.874,18.505c-0.471,0.529-1.068,0.801-1.729,0.809
	c-1.577,0.018-3.034-1.193-3.829-2.822c-0.5-1.027-1.845-2.775-3.338-2.807c-1.31-0.027-2.385,1.436-3.55,2.688
	c-1.149,1.236-2.173,2.941-3.808,2.941c-0.661,0-1.259-0.279-1.729-0.809c-0.701-0.791-1.019-2.062-0.852-3.396l0.582-4.627
	C0.834,8.769,2.087,7.3,3.677,6.684h12.41c1.59,0.616,2.676,2.286,2.891,4l1,4C20.146,16.019,19.574,17.714,18.874,18.505z
	 M18.978,14.685l-1-4c-0.234-1.829-1.586-3.008-3.482-3.008H5.443c-1.896,0-3.23,1.179-3.466,3.008l-0.972,3.768
	c-0.139,1.081,0.107,2.088,0.657,2.695c0.316,0.348,0.71,0.535,1.141,0.531c1.161-0.008,1.944-1.1,2.922-2.307
	c1.024-1.267,2.425-2.828,4.245-2.828c1.821,0,3.652,1.278,4.135,2.834c0.393,1.268,1.893,2.408,3.034,2.303
	c0.429-0.039,0.823-0.186,1.138-0.533C18.827,16.54,19.116,15.764,18.978,14.685z M15.477,10.684c-0.276,0-0.5-0.224-0.5-0.5
	c0-0.276,0.224-0.5,0.5-0.5c0.275,0,0.5,0.224,0.5,0.5C15.977,10.46,15.753,10.684,15.477,10.684z M14.477,9.684
	c-0.276,0-0.5-0.224-0.5-0.5s0.224-0.5,0.5-0.5c0.275,0,0.5,0.224,0.5,0.5S14.753,9.684,14.477,9.684z M13.477,10.684
	c-0.276,0-0.5-0.224-0.5-0.5c0-0.276,0.224-0.5,0.5-0.5c0.275,0,0.5,0.224,0.5,0.5C13.977,10.46,13.753,10.684,13.477,10.684z
	 M14.477,10.684c0.275,0,0.5,0.224,0.5,0.5c0,0.276-0.225,0.501-0.5,0.501c-0.276,0-0.5-0.225-0.5-0.501
	C13.977,10.908,14.201,10.684,14.477,10.684z M6.471,10.689H5.972v0.499c0,0.275-0.223,0.499-0.499,0.499
	c-0.275,0-0.498-0.224-0.498-0.499v-0.499H4.477c-0.275,0-0.498-0.223-0.498-0.498c0-0.276,0.223-0.498,0.498-0.498h0.499v-0.5
	c0-0.274,0.223-0.498,0.498-0.498c0.276,0,0.499,0.223,0.499,0.498v0.5h0.499c0.274,0,0.498,0.222,0.498,0.498
	C6.969,10.466,6.746,10.689,6.471,10.689z M14.471,5.767c-0.825,0-1.497-0.682-1.497-1.521c0-0.838-0.671-1.52-1.496-1.52
	s-1.496,0.682-1.496,1.52v2.431H8.984V4.246c0-1.397,1.119-2.532,2.493-2.532c1.375,0,2.494,1.135,2.494,2.532
	c0,0.279,0.223,0.507,0.499,0.507c0.274,0,0.497-0.228,0.497-0.507V1.193c0-0.28,0.223-0.507,0.499-0.507
	c0.276,0,0.499,0.227,0.499,0.507v3.053C15.966,5.084,15.294,5.767,14.471,5.767z"/>
</svg>
