<?xml version="1.0" encoding="utf-8"?>
<!-- Generator: Adobe Illustrator 17.0.0, SVG Export Plug-In . SVG Version: 6.00 Build 0)  -->
<!DOCTYPE svg PUBLIC "-//W3C//DTD SVG 1.1//EN" "http://www.w3.org/Graphics/SVG/1.1/DTD/svg11.dtd">
<svg version="1.1" id="图层_1" xmlns="http://www.w3.org/2000/svg" xmlns:xlink="http://www.w3.org/1999/xlink" x="0px" y="0px"
	 width="30px" height="30px" viewBox="0 0 30 30" enable-background="new 0 0 30 30" xml:space="preserve">
<path fill="#000400" d="M14.613,16.893c-1.696,0-3.392,0-5.087,0c0-1.271,0-2.542,0-3.813c2.972,0,5.943,0,8.915,0
	c0,0.016,0,0.033,0,0.048c0.016,0,0.032,0,0.049,0c0.007,0.332,0.067,0.689,0.145,0.965c0,0.226,0,0.451,0,0.677
	c0.016,0,0.033,0,0.049,0c0,0.289,0,0.579,0,0.869c-0.016,0-0.033,0-0.049,0c0,0.241,0,0.483,0,0.724c-0.016,0-0.032,0-0.049,0
	c0,0.128,0,0.257,0,0.386c-0.016,0-0.031,0-0.048,0c0,0.113,0,0.226,0,0.338c-0.017,0-0.032,0-0.048,0c0,0.098,0,0.193,0,0.29
	c-0.017,0-0.033,0-0.049,0c0,0.064,0,0.128,0,0.193c-0.017,0-0.032,0-0.049,0c0,0.08,0,0.161,0,0.241c-0.016,0-0.032,0-0.049,0
	c0,0.048,0,0.097,0,0.145c-0.016,0-0.031,0-0.048,0c-0.048,0.225-0.097,0.451-0.146,0.676c-0.016,0-0.032,0-0.049,0
	c0,0.033,0,0.064,0,0.097c-0.016,0-0.031,0-0.048,0c-0.032,0.145-0.064,0.29-0.097,0.435c-0.017,0-0.033,0-0.049,0
	c-0.016,0.065-0.032,0.129-0.049,0.193c-0.016,0-0.031,0-0.048,0c0,0.049,0,0.096,0,0.145c-0.017,0-0.032,0-0.048,0
	c-0.033,0.098-0.065,0.193-0.098,0.289c-0.016,0-0.032,0-0.049,0c0,0.033,0,0.064,0,0.098c-0.016,0-0.031,0-0.048,0
	c-0.017,0.065-0.032,0.129-0.049,0.192c-0.032,0.017-0.064,0.032-0.097,0.049c-0.032,0.097-0.064,0.192-0.098,0.29
	c-0.031,0.016-0.064,0.031-0.096,0.048c0,0.032,0,0.064,0,0.097c-0.033,0.016-0.064,0.032-0.098,0.048c0,0.032,0,0.065,0,0.097
	c-0.016,0-0.032,0-0.049,0c-0.016,0.049-0.031,0.096-0.048,0.145c-0.032,0.016-0.065,0.033-0.097,0.049c0,0.032,0,0.064,0,0.097
	c-0.049,0.032-0.098,0.063-0.146,0.097c0,0.032,0,0.064,0,0.096c-0.064,0.049-0.129,0.097-0.194,0.144c0,0.033,0,0.064,0,0.098
	c-0.097,0.08-0.193,0.16-0.29,0.24c0,0.033,0,0.064,0,0.098c-0.13,0.112-0.259,0.225-0.388,0.338
	c-0.032,0.048-0.065,0.096-0.097,0.145c-0.032,0-0.065,0-0.097,0c-0.064,0.08-0.13,0.161-0.194,0.241c-0.032,0-0.064,0-0.097,0
	c-0.048,0.064-0.097,0.129-0.145,0.193c-0.048,0.017-0.097,0.032-0.146,0.048c-0.016,0.033-0.032,0.064-0.048,0.098
	c-0.032,0-0.065,0-0.097,0c-0.016,0.031-0.033,0.063-0.048,0.096c-0.049,0.016-0.097,0.032-0.146,0.049c0,0.016,0,0.031,0,0.047
	c-0.032,0-0.065,0-0.097,0c-0.017,0.033-0.033,0.066-0.049,0.098c-0.048,0.016-0.097,0.032-0.146,0.048c0,0.017,0,0.032,0,0.048
	c-0.032,0-0.064,0-0.097,0c0,0.018,0,0.033,0,0.049c-0.032,0-0.064,0-0.097,0c0,0.016,0,0.032,0,0.049c-0.032,0-0.065,0-0.097,0
	c0,0.016,0,0.032,0,0.048c-0.032,0-0.065,0-0.097,0c-0.016,0.032-0.033,0.064-0.048,0.097c-0.146,0.049-0.291,0.096-0.436,0.145
	c0,0.017,0,0.032,0,0.049c-0.032,0-0.065,0-0.097,0c0,0.016,0,0.031,0,0.048c-0.064,0.017-0.129,0.032-0.194,0.048
	c0,0.018,0,0.033,0,0.049c-0.048,0-0.097,0-0.145,0c0,0.016,0,0.032,0,0.049c-0.032,0-0.064,0-0.097,0c0,0.016,0,0.031,0,0.047
	c-0.21,0.049-0.42,0.098-0.63,0.147c0,0.016,0,0.031,0,0.047c-0.048,0-0.097,0-0.145,0c0,0.017,0,0.033,0,0.049
	c-0.049,0-0.097,0-0.146,0c0,0.016,0,0.031,0,0.049c-0.065,0-0.129,0-0.194,0c0,0.016,0,0.031,0,0.048
	c-0.258,0.032-0.517,0.065-0.775,0.097c-0.996,0.287-2.836,0.186-3.73-0.097c-0.081,0-0.162,0-0.242,0
	c-0.452-0.146-0.904-0.29-1.357-0.434c0-0.016,0-0.031,0-0.049c-0.064-0.016-0.129-0.031-0.193-0.048c0-0.017,0-0.032,0-0.048
	c-0.033,0-0.064,0-0.097,0c0-0.017,0-0.032,0-0.049c-0.048,0-0.097,0-0.145,0c0-0.016,0-0.032,0-0.049
	c-0.065-0.016-0.129-0.031-0.194-0.047c0-0.018,0-0.033,0-0.049c-0.065-0.017-0.129-0.032-0.194-0.049
	c-0.017-0.031-0.032-0.063-0.048-0.096c-0.097-0.033-0.194-0.065-0.291-0.098c-0.016-0.031-0.032-0.064-0.048-0.096
	c-0.064-0.016-0.129-0.032-0.194-0.049c-0.016-0.031-0.032-0.065-0.048-0.096c-0.032,0-0.064,0-0.097,0
	c-0.016-0.033-0.032-0.065-0.048-0.098c-0.032,0-0.064,0-0.097,0c-0.016-0.031-0.032-0.064-0.049-0.096c-0.032,0-0.064,0-0.097,0
	c-0.016-0.033-0.032-0.064-0.048-0.097c-0.032,0-0.065,0-0.097,0c-0.032-0.048-0.064-0.097-0.097-0.146c-0.032,0-0.064,0-0.097,0
	c-0.049-0.064-0.097-0.128-0.145-0.192c-0.032,0-0.064,0-0.097,0c-0.081-0.097-0.161-0.193-0.242-0.29c-0.032,0-0.064,0-0.097,0
	c-0.146-0.16-0.291-0.322-0.436-0.482c-0.097-0.081-0.194-0.161-0.291-0.242c0-0.031,0-0.063,0-0.096
	c-0.081-0.065-0.161-0.129-0.242-0.193c0-0.032,0-0.064,0-0.097c-0.064-0.048-0.129-0.097-0.194-0.146
	c-0.016-0.047-0.032-0.096-0.048-0.143c-0.032-0.017-0.064-0.032-0.097-0.049c0-0.032,0-0.064,0-0.097
	c-0.032-0.016-0.065-0.031-0.097-0.048c-0.016-0.048-0.032-0.097-0.048-0.146c-0.016,0-0.032,0-0.048,0c0-0.031,0-0.064,0-0.096
	c-0.033-0.016-0.065-0.032-0.097-0.049c0-0.032,0-0.065,0-0.097c-0.032-0.016-0.064-0.032-0.097-0.048
	c-0.016-0.049-0.032-0.097-0.048-0.145c-0.016,0-0.032,0-0.049,0c-0.032-0.098-0.064-0.193-0.097-0.289
	c-0.032-0.018-0.064-0.033-0.097-0.049c-0.016-0.064-0.032-0.129-0.048-0.193c-0.016,0-0.032,0-0.048,0
	c-0.032-0.098-0.064-0.193-0.097-0.29c-0.016,0-0.032,0-0.048,0c0-0.048,0-0.097,0-0.144c-0.017,0-0.033,0-0.049,0
	c0-0.032,0-0.065,0-0.097c-0.016,0-0.032,0-0.048,0c-0.016-0.064-0.032-0.129-0.048-0.193c-0.016,0-0.033,0-0.048,0
	c-0.016-0.08-0.033-0.16-0.049-0.241c-0.016,0-0.032,0-0.048,0c-0.016-0.097-0.032-0.192-0.048-0.29c-0.016,0-0.032,0-0.048,0
	c0-0.047,0-0.096,0-0.145c-0.016,0-0.032,0-0.049,0c0-0.048,0-0.097,0-0.145c-0.016,0-0.032,0-0.048,0c0-0.049,0-0.096,0-0.144
	c-0.016,0-0.032,0-0.048,0c0-0.064,0-0.129,0-0.193c-0.016,0-0.032,0-0.048,0c-0.016-0.129-0.032-0.258-0.048-0.387
	c-0.016,0-0.033,0-0.048,0c-0.017-0.16-0.033-0.322-0.049-0.482c-0.016,0-0.032,0-0.048,0c-0.016-0.258-0.032-0.516-0.048-0.772
	c-0.079-0.281-0.049-0.752-0.049-1.111c0-0.965,0.181-1.803,0.436-2.511c0-0.064,0-0.128,0-0.193c0.017,0,0.033,0,0.049,0
	c0-0.032,0-0.064,0-0.096c0.016,0,0.032,0,0.048,0c0.032-0.145,0.064-0.29,0.097-0.435c0.016,0,0.033,0,0.049,0
	c0.016-0.064,0.032-0.129,0.048-0.193c0.016,0,0.032,0,0.048,0c0-0.048,0-0.096,0-0.145c0.016,0,0.032,0,0.048,0
	c0.032-0.096,0.065-0.192,0.097-0.289c0.016,0,0.032,0,0.048,0c0-0.032,0-0.065,0-0.097c0.016,0,0.032,0,0.048,0
	c0-0.032,0-0.064,0-0.096c0.016,0,0.032,0,0.048,0c0-0.033,0-0.064,0-0.097c0.017,0,0.033,0,0.048,0c0-0.032,0-0.064,0-0.096
	c0.017,0,0.033,0,0.049,0c0-0.032,0-0.065,0-0.097c0.016,0,0.032,0,0.048,0c0-0.032,0-0.065,0-0.097
	c0.032-0.016,0.064-0.032,0.097-0.048c0.017-0.064,0.033-0.129,0.049-0.193c0.016,0,0.032,0,0.048,0
	C1.448,9.995,1.464,9.946,1.48,9.898c0.035-0.021,0.068-0.037,0.1-0.053c0-0.032,0-0.064,0-0.096C1.612,9.732,1.645,9.716,1.677,9.7
	c0-0.032,0-0.064,0-0.097c0.032-0.016,0.064-0.032,0.097-0.048c0-0.033,0-0.064,0-0.097C1.806,9.442,1.838,9.427,1.871,9.41
	c0.016-0.048,0.032-0.096,0.048-0.145c0.048-0.032,0.097-0.064,0.146-0.096c0-0.032,0-0.065,0-0.097
	C2.162,8.991,2.259,8.911,2.356,8.83c0-0.032,0-0.064,0-0.096C2.517,8.59,2.678,8.444,2.84,8.3c0.145-0.161,0.29-0.322,0.435-0.483
	c0.033,0,0.065,0,0.097,0c0.064-0.081,0.129-0.161,0.194-0.241C3.615,7.56,3.663,7.543,3.712,7.527
	C3.728,7.495,3.744,7.463,3.76,7.431c0.032,0,0.064,0,0.097,0c0.032-0.049,0.065-0.097,0.097-0.145c0.032,0,0.064,0,0.097,0
	c0.016-0.032,0.032-0.064,0.048-0.097c0.048-0.016,0.097-0.032,0.146-0.048c0-0.016,0-0.032,0-0.048c0.032,0,0.064,0,0.097,0
	C4.358,7.061,4.374,7.028,4.39,6.996C4.438,6.98,4.487,6.964,4.535,6.948c0-0.016,0-0.032,0-0.048
	C4.6,6.884,4.665,6.868,4.729,6.852C4.745,6.82,4.761,6.788,4.777,6.756c0.032,0,0.065,0,0.097,0c0-0.017,0-0.033,0-0.048
	c0.032,0,0.064,0,0.097,0c0-0.017,0-0.033,0-0.048c0.032,0,0.064,0,0.097,0c0-0.016,0-0.032,0-0.048c0.032,0,0.064,0,0.097,0
	c0.016-0.033,0.032-0.064,0.049-0.097c0.048,0,0.097,0,0.145,0c0-0.016,0-0.032,0-0.048c0.032,0,0.064,0,0.097,0
	c0-0.016,0-0.032,0-0.048c0.032,0,0.064,0,0.097,0c0-0.016,0-0.032,0-0.048C5.65,6.338,5.747,6.306,5.844,6.274
	c0-0.016,0-0.032,0-0.048c0.096-0.018,0.193-0.034,0.29-0.05c0-0.017,0-0.032,0-0.048c0.032,0,0.064,0,0.097,0
	c0-0.016,0-0.032,0-0.048c0.048,0,0.097,0,0.146,0c0-0.016,0-0.032,0-0.048c0.048,0,0.097,0,0.145,0c0-0.016,0-0.032,0-0.048
	c0.049,0,0.097,0,0.146,0c0-0.016,0-0.032,0-0.048c0.048,0,0.097,0,0.146,0c0-0.017,0-0.032,0-0.049c0.064,0,0.129,0,0.194,0
	c0-0.016,0-0.032,0-0.048c0.064,0,0.129,0,0.193,0c0-0.016,0-0.033,0-0.048c0.065,0,0.129,0,0.194,0c0-0.016,0-0.032,0-0.049
	c0.081,0,0.162,0,0.243,0c0-0.016,0-0.032,0-0.048c0.081,0,0.161,0,0.242,0c0-0.016,0-0.032,0-0.048c0.081,0,0.162,0,0.242,0
	c0-0.017,0-0.033,0-0.048c0.145,0,0.291,0,0.436,0c0-0.017,0-0.033,0-0.048c0.21,0,0.42,0,0.63,0c0-0.016,0-0.032,0-0.049
	c0.242,0,0.484,0,0.727,0c0,0.017,0,0.033,0,0.049c0.21,0,0.42,0,0.63,0c0,0.016,0,0.032,0,0.048c0.129,0,0.259,0,0.388,0
	c0,0.016,0,0.032,0,0.048c0.097,0,0.194,0,0.29,0c0,0.016,0,0.032,0,0.048c0.081,0,0.162,0,0.242,0c0,0.016,0,0.032,0,0.048
	c0.081,0,0.162,0,0.243,0c0,0.017,0,0.033,0,0.049c0.193,0.032,0.387,0.064,0.581,0.096c0,0.017,0,0.032,0,0.049
	c0.049,0,0.097,0,0.146,0c0,0.016,0,0.032,0,0.048c0.048,0,0.097,0,0.146,0c0,0.016,0,0.033,0,0.048c0.048,0,0.097,0,0.145,0
	c0,0.016,0,0.033,0,0.048c0.048,0,0.097,0,0.146,0c0,0.016,0,0.032,0,0.048c0.032,0,0.064,0,0.097,0c0,0.016,0,0.032,0,0.048
	c0.048,0,0.097,0,0.146,0c0,0.016,0,0.032,0,0.048c0.032,0,0.064,0,0.097,0c0,0.017,0,0.033,0,0.048
	c0.081,0.017,0.162,0.032,0.242,0.048c0,0.016,0,0.032,0,0.049c0.097,0.032,0.194,0.064,0.291,0.096c0,0.017,0,0.032,0,0.048
	c0.097,0.032,0.194,0.064,0.291,0.097c0.016,0.032,0.033,0.064,0.049,0.097c0.097,0.032,0.193,0.064,0.29,0.096
	c0.017,0.033,0.033,0.064,0.049,0.097c0.065,0.016,0.129,0.032,0.194,0.048c0.032,0.048,0.064,0.096,0.097,0.145
	c0.032,0,0.064,0,0.097,0c0,0.016,0,0.032,0,0.048c0.048,0.016,0.097,0.033,0.146,0.048c0.01,0.033,0.026,0.065,0.042,0.097
	c0.032,0,0.064,0,0.097,0c0.016,0.032,0.032,0.064,0.048,0.096c0.017,0,0.032,0,0.049,0c0.016,0.032,0.032,0.065,0.048,0.097
	c0.032,0,0.064,0,0.097,0c0.065,0.08,0.129,0.16,0.194,0.241c0.032,0,0.064,0,0.097,0c0,0.016,0,0.033,0,0.049
	c0.081,0.064,0.162,0.129,0.242,0.193c0,0.032,0,0.064,0,0.097c-0.129,0.074-0.189,0.189-0.29,0.29
	c-0.226,0.225-0.453,0.45-0.679,0.676c-0.016,0-0.032,0-0.048,0c-0.387,0.403-0.775,0.805-1.163,1.207
	c-0.173,0.172-0.407,0.315-0.533,0.531c-0.055-0.04-0.007,0.006-0.048-0.048c-0.117-0.068-0.159-0.182-0.242-0.241
	c-0.032,0-0.064,0-0.097,0c-0.032-0.048-0.064-0.097-0.097-0.146c-0.032,0-0.064,0-0.097,0c-0.033-0.048-0.065-0.096-0.097-0.144
	c-0.032,0-0.064,0-0.097,0c-0.016-0.032-0.033-0.064-0.048-0.097c-0.097-0.032-0.194-0.064-0.291-0.097
	c-0.016-0.032-0.032-0.064-0.048-0.096c-0.048,0-0.097,0-0.146,0c0-0.016,0-0.032,0-0.048c-0.032,0-0.064,0-0.097,0
	c0-0.016,0-0.032,0-0.049c-0.065-0.015-0.129-0.032-0.194-0.047c0-0.017,0-0.033,0-0.048c-0.048,0-0.097,0-0.146,0
	c0-0.017,0-0.032,0-0.048c-0.048,0-0.097,0-0.146,0c0-0.016,0-0.033,0-0.048c-0.048,0-0.097,0-0.145,0c0-0.016,0-0.032,0-0.048
	c-0.048,0-0.097,0-0.146,0c0-0.016,0-0.033,0-0.048c-0.129-0.016-0.258-0.032-0.388-0.048c0-0.016,0-0.032,0-0.048
	c-0.113,0-0.226,0-0.339,0c0-0.016,0-0.032,0-0.048c-0.242,0-0.484,0-0.727,0c-0.927,0-1.457,0.16-2.083,0.434
	c-0.049,0-0.097,0-0.146,0c0,0.017,0,0.033,0,0.049C7.2,9.877,7.103,9.909,7.006,9.941c0,0.017,0,0.033,0,0.048
	c-0.065,0.017-0.129,0.033-0.194,0.048c-0.016,0.032-0.032,0.065-0.049,0.097c-0.064,0.016-0.129,0.033-0.193,0.048
	c-0.016,0.032-0.033,0.064-0.049,0.097c-0.032,0-0.064,0-0.097,0c-0.032,0.048-0.064,0.097-0.097,0.145c-0.032,0-0.065,0-0.097,0
	c-0.032,0.048-0.064,0.096-0.097,0.144c-0.033,0-0.065,0-0.097,0c-0.129,0.145-0.258,0.29-0.388,0.435
	c-0.129,0.113-0.258,0.226-0.387,0.338c0,0.032,0,0.064,0,0.096c-0.065,0.049-0.129,0.097-0.194,0.146c0,0.032,0,0.064,0,0.096
	c-0.032,0.016-0.065,0.032-0.097,0.048c-0.017,0.049-0.033,0.097-0.049,0.145c-0.016,0-0.032,0-0.048,0c0,0.033,0,0.064,0,0.097
	c-0.032,0.016-0.065,0.033-0.097,0.048c-0.032,0.097-0.064,0.193-0.097,0.29c-0.032,0.016-0.064,0.032-0.097,0.048
	c0,0.032,0,0.064,0,0.096c-0.016,0-0.032,0-0.048,0c0,0.032,0,0.064,0,0.097c-0.016,0-0.032,0-0.048,0c0,0.048,0,0.097,0,0.145
	c-0.016,0-0.032,0-0.048,0c-0.016,0.064-0.032,0.128-0.048,0.193c-0.016,0-0.032,0-0.049,0c0,0.048,0,0.096,0,0.145
	c-0.016,0-0.032,0-0.048,0c0,0.032,0,0.064,0,0.096c-0.016,0-0.032,0-0.048,0c0,0.065,0,0.129,0,0.193c-0.016,0-0.032,0-0.048,0
	c0,0.049,0,0.097,0,0.146c-0.016,0-0.032,0-0.049,0c0,0.064,0,0.128,0,0.193C3.921,14.335,3.879,15.4,4.1,16.121
	c0.016,0.145,0.033,0.289,0.048,0.434c0.715,2.01,1.856,3.152,3.828,3.911c0.064,0,0.129,0,0.194,0
	c0.686,0.229,1.926,0.285,2.665,0.048c0.194-0.031,0.388-0.065,0.582-0.096c0-0.016,0-0.033,0-0.049c0.048,0,0.097,0,0.146,0
	c0-0.016,0-0.032,0-0.049c0.032,0,0.064,0,0.097,0c0-0.016,0-0.031,0-0.048c0.049,0,0.097,0,0.146,0c0-0.017,0-0.032,0-0.048
	c0.048,0,0.097,0,0.146,0c0-0.016,0-0.032,0-0.049c0.097-0.032,0.194-0.065,0.291-0.097c0-0.016,0-0.032,0-0.048
	c0.064-0.016,0.129-0.032,0.194-0.049c0.016-0.031,0.032-0.064,0.048-0.096c0.064-0.017,0.129-0.033,0.194-0.049
	c0.016-0.032,0.032-0.065,0.048-0.096c0.033,0,0.065,0,0.097,0c0.032-0.049,0.064-0.098,0.097-0.145c0.032,0,0.064,0,0.097,0
	c0.08-0.098,0.161-0.193,0.242-0.291c0.032,0,0.064,0,0.097,0c0-0.016,0-0.031,0-0.049c0.048-0.031,0.097-0.063,0.145-0.096
	c0-0.031,0-0.064,0-0.097c0.081-0.063,0.162-0.128,0.243-0.193c0-0.032,0-0.064,0-0.096c0.048-0.032,0.097-0.064,0.145-0.097
	c0-0.032,0-0.065,0-0.097c0.033-0.017,0.065-0.032,0.097-0.048c0-0.033,0-0.065,0-0.098c0.032-0.016,0.065-0.031,0.097-0.048
	c0.016-0.063,0.032-0.129,0.048-0.192c0.016,0,0.032,0,0.048,0c0-0.033,0-0.065,0-0.098c0.016,0,0.032,0,0.048,0
	c0.032-0.096,0.065-0.192,0.097-0.289c0.016,0,0.032,0,0.048,0c0.017-0.096,0.033-0.193,0.049-0.289c0.016,0,0.032,0,0.048,0
	C14.516,17.312,14.564,17.103,14.613,16.893z M24.254,10.038c0.792,0,1.583,0,2.374,0c0,1.095,0,2.189,0,3.283
	c1.099,0,2.197,0,3.295,0c0.072,0.197,0.049,0.549,0.049,0.821c0,0.515,0,1.03,0,1.545c-0.271,0.099-0.763,0.048-1.115,0.048
	c-0.742,0-1.485,0-2.229,0c0,1.094,0,2.189,0,3.283c-0.791,0-1.582,0-2.374,0c0-1.094,0-2.189,0-3.283c-1.114,0-2.229,0-3.343,0
	c0-0.804,0-1.609,0-2.414c1.114,0,2.229,0,3.343,0C24.254,12.227,24.254,11.132,24.254,10.038z"/>
</svg>
