<?xml version="1.0" encoding="utf-8"?>
<!-- Generator: Adobe Illustrator 17.0.0, SVG Export Plug-In . SVG Version: 6.00 Build 0)  -->
<!DOCTYPE svg PUBLIC "-//W3C//DTD SVG 1.1//EN" "http://www.w3.org/Graphics/SVG/1.1/DTD/svg11.dtd">
<svg version="1.1" id="图层_1" xmlns="http://www.w3.org/2000/svg" xmlns:xlink="http://www.w3.org/1999/xlink" x="0px" y="0px"
	 width="20px" height="20px" viewBox="0 0 20 20" enable-background="new 0 0 20 20" xml:space="preserve">
<path fill="#000400" d="M15.436,19c-0.22,0-0.408-0.174-0.408-0.396l-0.027-0.601H5l-0.012,0.601C4.988,18.826,4.8,19,4.579,19
	c-0.22,0-0.409-0.174-0.409-0.396V18.16l-0.047-0.015c-0.85-0.159-1.463-0.872-1.463-1.712v-3.961l0.016-0.443H2.628
	C1.118,11.823,0,10.54,0,9.083C0,7.577,1.165,6.31,2.691,6.12h0.047V3.583C2.738,2.3,3.446,1,5.02,1h10.071
	c0.613,0,1.148,0.206,1.542,0.603c0.456,0.459,0.708,1.173,0.708,1.98l0.016,2.537h0.047C18.883,6.342,20,7.609,20,9.067
	c0,1.458-1.134,2.725-2.612,2.947h-0.047l0.016,0.443v3.977c0,0.84-0.613,1.553-1.463,1.712l-0.048,0.015v0.443
	C15.83,18.826,15.657,19,15.436,19z M3.084,6.88c-1.259,0-2.282,0.999-2.282,2.202c0,1.205,1.023,2.218,2.282,2.218
	c0.11,0,0.221,0.048,0.283,0.111c0.079,0.078,0.11,0.174,0.11,0.285l-0.016,0.807v3.961c0,0.524,0.441,0.967,0.991,0.967h11.094
	c0.551,0,0.991-0.428,0.991-0.967v-3.961l-0.016-0.807c0-0.111,0.031-0.207,0.11-0.285c0.078-0.08,0.173-0.111,0.283-0.111
	c1.259,0,2.281-0.982,2.281-2.202c0-1.22-1.007-2.218-2.266-2.218c-1.243,0-2.266,0.982-2.282,2.187l0.032,0.396v4.008
	c0,0.223-0.188,0.396-0.409,0.396H5.728c-0.22,0-0.409-0.174-0.409-0.396V9.495V9.463l0.031-0.38C5.35,7.862,4.328,6.88,3.084,6.88z
	 M5.177,1.951c-0.976,0-1.4,0.871-1.4,1.728v2.504l0.047,0.016c1.274,0.222,2.25,1.204,2.423,2.44v4.294h7.537v-4.31
	c0.189-1.235,1.227-2.25,2.518-2.44h0.048V3.694c0-0.856-0.425-1.727-1.386-1.727H5.177V1.951z"/>
</svg>
