<?xml version="1.0" encoding="utf-8"?>
<!-- Generator: Adobe Illustrator 17.0.0, SVG Export Plug-In . SVG Version: 6.00 Build 0)  -->
<!DOCTYPE svg PUBLIC "-//W3C//DTD SVG 1.1//EN" "http://www.w3.org/Graphics/SVG/1.1/DTD/svg11.dtd">
<svg version="1.1" id="图层_1" xmlns="http://www.w3.org/2000/svg" xmlns:xlink="http://www.w3.org/1999/xlink" x="0px" y="0px"
	 width="30px" height="30px" viewBox="0 0 30 30" enable-background="new 0 0 30 30" xml:space="preserve">
<path fill-rule="evenodd" clip-rule="evenodd" fill="#000400" d="M15,0C6.716,0,0,6.716,0,15c0,8.284,6.716,15,15,15
	c8.284,0,15-6.716,15-15C30,6.716,23.284,0,15,0z M15,28C7.82,28,2,22.18,2,15C2,7.82,7.82,2,15,2c7.18,0,13,5.821,13,13
	C28,22.18,22.18,28,15,28z M15,7.5c-0.689,0-1.25,0.561-1.25,1.25C13.75,9.44,14.31,10,15,10c0.689,0,1.247-0.56,1.25-1.25
	C16.249,8.061,15.689,7.5,15,7.5z M15,11.875c-0.689,0-1.25,0.561-1.25,1.25v8.125c0,0.69,0.561,1.25,1.25,1.25
	c0.689,0,1.247-0.56,1.25-1.25v-8.125C16.249,12.436,15.689,11.875,15,11.875z"/>
</svg>
