<?xml version="1.0" encoding="utf-8"?>
<!-- Generator: Adobe Illustrator 17.0.0, SVG Export Plug-In . SVG Version: 6.00 Build 0)  -->
<!DOCTYPE svg PUBLIC "-//W3C//DTD SVG 1.1//EN" "http://www.w3.org/Graphics/SVG/1.1/DTD/svg11.dtd">
<svg version="1.1" id="图层_1" xmlns="http://www.w3.org/2000/svg" xmlns:xlink="http://www.w3.org/1999/xlink" x="0px" y="0px"
	 width="20px" height="20px" viewBox="0 0 20 20" enable-background="new 0 0 20 20" xml:space="preserve">
<path fill="#140700" d="M16.565,4.612c-0.352-0.9-0.857-1.708-1.5-2.401c-0.642-0.694-1.392-1.238-2.225-1.619
	C11.977,0.199,11.061,0,10.116,0C9.171,0,8.254,0.199,7.391,0.593c-0.833,0.38-1.582,0.925-2.225,1.619
	c-0.643,0.693-1.147,1.501-1.5,2.401c-0.365,0.931-0.55,1.92-0.55,2.94c0,1.361,0.339,2.695,0.981,3.858
	c0.602,1.092,1.529,2.006,2.546,2.649v5.058C6.643,19.604,7.009,20,7.46,20h5.316c0.451,0,0.816-0.396,0.816-0.883v-5.074
	c1.008-0.643,1.941-1.547,2.538-2.625c0.644-1.166,0.985-2.502,0.985-3.866C17.116,6.533,16.931,5.543,16.565,4.612z M12.479,19.111
	H7.758c-0.161,0-0.292-0.141-0.292-0.314v-1.66h5.304v1.66C12.771,18.971,12.64,19.111,12.479,19.111z M13.044,13.361
	c-0.16,0.061-0.273,0.225-0.273,0.418v2.47h-2.248V10.2h2.66c0.228,0,0.411-0.199,0.411-0.444l0,0c0-0.245-0.184-0.444-0.411-0.444
	H7.055c-0.227,0-0.412,0.199-0.412,0.444l0,0c0,0.246,0.185,0.444,0.412,0.444h2.644v6.049H7.466v-2.47
	c0-0.193-0.114-0.357-0.273-0.418c-1.921-1.188-3.254-3.424-3.254-5.809c0-3.675,2.771-6.666,6.176-6.666
	c3.406,0,6.178,2.991,6.178,6.666C16.293,9.954,14.984,12.18,13.044,13.361z"/>
</svg>
