<?xml version="1.0" encoding="utf-8"?>
<!-- Generator: Adobe Illustrator 17.0.0, SVG Export Plug-In . SVG Version: 6.00 Build 0)  -->
<!DOCTYPE svg PUBLIC "-//W3C//DTD SVG 1.1//EN" "http://www.w3.org/Graphics/SVG/1.1/DTD/svg11.dtd">
<svg version="1.1" id="图层_1" xmlns="http://www.w3.org/2000/svg" xmlns:xlink="http://www.w3.org/1999/xlink" x="0px" y="0px"
	 width="30px" height="30px" viewBox="0 0 30 30" enable-background="new 0 0 30 30" xml:space="preserve">
<path fill-rule="evenodd" clip-rule="evenodd" fill="#000400" d="M29.495,14.217l-3.37,14.004c-0.007,0.029-0.187,0.774-1.19,1.363
	C24.347,29.928,23.448,30,23.296,30l0,0c0,0-19.772-0.012-21.104-0.012c-1.186,0-1.692-0.492-1.692-1.646
	c0-0.486,0.001-4.035,0.002-7.565c0.001-3.488,0.002-6.955,0.002-7.424c0-1.087,0.591-1.444,1.7-1.406
	C6.378,12.09,6.814,11.415,7.5,11c0.172-0.104,0.296-0.122,0.673-0.268c1.681-1.281,2.469-3.914,2.916-5.784
	c0.108-0.455,0.185-0.897,0.257-1.324c0.324-1.896,0.604-3.534,3.65-3.622c0.658-0.017,1.263,0.255,1.814,0.811
	c1.08,1.088,1.909,3.206,1.735,5.132c-0.13,1.449-0.53,2.497-0.854,3.354l-0.164,0.394C17.32,10.188,17.526,10.852,17.5,11
	c0.588,0.001,1.746,0,3,0h5c2.566,0,3.991,1.837,4,3.177v0.02L29.495,14.217z M5.5,14c-1.014,0-2.517,0.003-3,0v14l3.058,0.011
	L5.5,14L5.5,14z M15.5,11L15.5,11c-0.037-0.6,0.013-1.603,0.011-2c-0.003-0.872,0.673-2.099,0.947-3.326
	c0.271-1.208-0.242-2.561-0.831-3.296c-0.212-0.265-0.445-0.401-0.611-0.387c-1.377,0.116-1.545,1.376-1.757,2.973
	c-0.122,0.911-0.247,1.854-0.625,2.692c-1.024,2.275-1.767,3.747-3.423,5.01L9.167,12.69C8.553,12.925,7.931,12.859,7.5,13v15
	l15.927,0.011c0.365,0,0.414-0.112,0.598-0.53c0.024-0.057,0.05-0.115,0.079-0.179c0.127-0.497,3.287-12.846,3.366-13.165
	c0.048-0.194-0.038-0.557-0.294-0.874C26.97,13.006,26.136,13,25.5,13h-9C15.596,13,15.5,11.884,15.5,11z"/>
</svg>
