<?xml version="1.0" encoding="utf-8"?>
<!-- Generator: Adobe Illustrator 17.0.0, SVG Export Plug-In . SVG Version: 6.00 Build 0)  -->
<!DOCTYPE svg PUBLIC "-//W3C//DTD SVG 1.1//EN" "http://www.w3.org/Graphics/SVG/1.1/DTD/svg11.dtd">
<svg version="1.1" id="图层_1" xmlns="http://www.w3.org/2000/svg" xmlns:xlink="http://www.w3.org/1999/xlink" x="0px" y="0px"
	 width="30px" height="30px" viewBox="0 0 30 30" enable-background="new 0 0 30 30" xml:space="preserve">
<g>
	<g>
		<path fill="#000400" d="M27.496,12.016h-7.973C22.613,0.584,17.395,0,17.395,0c-2.211,0-1.753,1.752-1.92,2.044
			c0,5.591-5.927,9.972-5.927,9.972v15.856c0,1.564,2.129,2.128,2.964,2.128H24.49c1.128,0,2.046-2.962,2.046-2.962
			C29.5,16.94,29.5,13.936,29.5,13.936C29.5,11.85,27.496,12.016,27.496,12.016z M6.275,12.022H1.501
			c-0.985,0-1.001,0.97-1.001,0.97l0.986,15.991C1.486,30,2.504,30,2.504,30h4.132c0.86,0,0.854-0.673,0.854-0.673V13.234
			C7.489,12.006,6.275,12.022,6.275,12.022z"/>
	</g>
</g>
</svg>
