<?xml version="1.0" encoding="utf-8"?>
<!-- Generator: Adobe Illustrator 17.0.0, SVG Export Plug-In . SVG Version: 6.00 Build 0)  -->
<!DOCTYPE svg PUBLIC "-//W3C//DTD SVG 1.1//EN" "http://www.w3.org/Graphics/SVG/1.1/DTD/svg11.dtd">
<svg version="1.1" id="图层_1" xmlns="http://www.w3.org/2000/svg" xmlns:xlink="http://www.w3.org/1999/xlink" x="0px" y="0px"
	 width="30px" height="30px" viewBox="0 0 30 30" enable-background="new 0 0 30 30" xml:space="preserve">
<path fill-rule="evenodd" clip-rule="evenodd" fill="#000400" d="M15,27.327c-1.326,0-2.64-0.157-3.91-0.469L5.24,30v-5.96
	C1.903,21.438,0,17.682,0,13.664C0,6.13,6.729,0,15,0c8.271,0,15,6.13,15,13.664C30,21.197,23.271,27.327,15,27.327z M15,1.835
	c-7.238,0-13.125,5.306-13.125,11.828c0,3.582,1.772,6.931,4.863,9.19l0.377,0.275v3.769l3.734-2.005l0.366,0.1
	c1.224,0.33,2.497,0.499,3.784,0.499c7.238,0,13.125-5.307,13.125-11.829C28.125,7.141,22.238,1.835,15,1.835z M12.588,14.3
	L5.14,18.381l8.194-8.718l3.911,4.08l7.355-4.08l-8.193,8.718L12.588,14.3z"/>
</svg>
