<?xml version="1.0" encoding="utf-8"?>
<!-- Generator: Adobe Illustrator 17.0.0, SVG Export Plug-In . SVG Version: 6.00 Build 0)  -->
<!DOCTYPE svg PUBLIC "-//W3C//DTD SVG 1.1//EN" "http://www.w3.org/Graphics/SVG/1.1/DTD/svg11.dtd">
<svg version="1.1" id="图层_1" xmlns="http://www.w3.org/2000/svg" xmlns:xlink="http://www.w3.org/1999/xlink" x="0px" y="0px"
	 width="20px" height="20px" viewBox="0 0 20 20" enable-background="new 0 0 20 20" xml:space="preserve">
<path fill-rule="evenodd" clip-rule="evenodd" fill="#000400" d="M18.029,14.999h-1v3c0,1.104-0.897,2-2,2H5.429
	c-1.104,0-2.399,0.104-2.399-1v-4h-1c-1.312,0.111-2.316-0.725-2-2V5.798c0-1.104,0.896-1.8,2-1.8h2v-2c0-1.104,0.295-2,1.4-2h9.2
	c1.106,0,1.4,0.896,1.4,2v2c0.039,0.005,3.175-0.004,3,0c1.06,0.066,0.991,0.708,1,1.8v7.201
	C20.029,14.102,19.134,14.999,18.029,14.999z M5.68,18.986h8.698c1.041,0.058,1.749-0.583,1.656-1.397V17.24v-1.921V14.62v-1.222
	v-0.175l-0.005-0.225c-0.022-0.689-0.186-0.998-1.03-0.998h-9.94c-0.844,0-1.009,0.309-1.03,0.998l0,0l-0.005,0.399v1.222v0.699
	v1.921l0.005,0.759C3.945,18.816,4.613,19.071,5.68,18.986z M14.029,0.999h-8c-0.854-0.133-1.061,0.142-1,1v2h10v-2
	C15.108,1.227,14.906,0.924,14.029,0.999z M18.029,4.999h-16c-0.699,0.095-1.022-0.037-1,1v7c-0.111,0.774-0.146,1.053,0.985,1.02
	c0.015-0.02,1.015-0.02,1.015-0.02v-2c0-1.105,0.895-1,2-1h10c1.103,0,2-0.104,2,1v2h1c0.55,0.017,0.788,0.057,1-1v-7
	C19.133,5.123,18.994,5.004,18.029,4.999z M16.229,8.198c-0.552,0-1-0.447-1-1s0.448-1,1-1c0.553,0,1,0.448,1,1
	S16.781,8.198,16.229,8.198z"/>
</svg>
