<?xml version="1.0" encoding="utf-8"?>
<!-- Generator: Adobe Illustrator 17.0.0, SVG Export Plug-In . SVG Version: 6.00 Build 0)  -->
<!DOCTYPE svg PUBLIC "-//W3C//DTD SVG 1.1//EN" "http://www.w3.org/Graphics/SVG/1.1/DTD/svg11.dtd">
<svg version="1.1" id="图层_1" xmlns="http://www.w3.org/2000/svg" xmlns:xlink="http://www.w3.org/1999/xlink" x="0px" y="0px"
	 width="30px" height="30px" viewBox="0 0 30 30" enable-background="new 0 0 30 30" xml:space="preserve">
<g id="OK_1_">
	<path id="K_1_" fill="#000400" d="M21.387,15.25c-0.865,0-2.594,1.73-6.054,1.73c-3.459,0-5.188-1.73-6.053-1.73
		c-0.95,0-1.729,0.779-1.729,1.73c0,0.863,0.519,1.295,0.865,1.471c1.037,0.605,4.323,1.986,4.323,1.986l-3.718,4.67
		c0,0-0.691,0.777-0.691,1.383c0,0.951,0.777,1.73,1.729,1.73c0.864,0,1.297-0.605,1.297-0.605l3.977-4.582l3.892,4.582
		c0,0,0.432,0.605,1.297,0.605c0.951,0,1.729-0.779,1.729-1.73c0-0.517-0.69-1.383-0.69-1.383l-3.633-4.67
		c0,0,3.285-1.381,4.322-1.986c0.348-0.262,0.867-0.607,0.867-1.471C23.117,16.029,22.336,15.25,21.387,15.25z"/>
	<path id="O_1_" fill="#000400" d="M15.333,2.28c-3.372,0-6.053,2.68-6.053,6.053c0,3.372,2.681,6.052,6.053,6.052
		c3.372,0,6.054-2.681,6.054-6.052C21.387,4.96,18.705,2.28,15.333,2.28z M15.333,11.358c-1.644,0-3.025-1.383-3.025-3.025
		c0-1.643,1.382-3.027,3.025-3.027c1.644,0,3.026,1.384,3.026,3.027C18.359,9.975,16.977,11.358,15.333,11.358z"/>
</g>
</svg>
