<?xml version="1.0" encoding="utf-8"?>
<!-- Generator: Adobe Illustrator 17.0.0, SVG Export Plug-In . SVG Version: 6.00 Build 0)  -->
<!DOCTYPE svg PUBLIC "-//W3C//DTD SVG 1.1//EN" "http://www.w3.org/Graphics/SVG/1.1/DTD/svg11.dtd">
<svg version="1.1" id="图层_1" xmlns="http://www.w3.org/2000/svg" xmlns:xlink="http://www.w3.org/1999/xlink" x="0px" y="0px"
	 width="20px" height="20px" viewBox="0 0 20 20" enable-background="new 0 0 20 20" xml:space="preserve">
<path fill-rule="evenodd" clip-rule="evenodd" fill="#000400" d="M16.423,8.988C16.395,8.96,16.395,8.96,16.245,8.96
	c-0.027,0.005-0.089,0.011-0.153,0.011c-0.281,0-0.518-0.1-0.727-0.306c-0.323-0.32-0.323-0.651-0.323-0.87
	c0-0.148-0.002-0.148-0.029-0.176c-0.027-0.028-0.027-0.028-0.178-0.028c-0.027,0.005-0.089,0.01-0.153,0.01
	c-0.28,0-0.517-0.1-0.725-0.306c-0.324-0.321-0.324-0.651-0.324-0.869c0-0.147,0-0.147-0.029-0.176
	c-0.028-0.028-0.028-0.028-0.179-0.028c-0.026,0.005-0.087,0.01-0.153,0.01c-0.28,0-0.517-0.1-0.726-0.306
	c-0.323-0.32-0.323-0.65-0.323-0.869c0-0.148,0-0.148-0.029-0.175c-0.027-0.029-0.027-0.029-0.178-0.029l-0.104,0
	c-0.227,0-0.491-0.032-0.746-0.269L11.096,4.55l4.844,12.369c0.788,0.084,1.384,0.726,1.384,1.531c0,0.862-0.684,1.537-1.557,1.537
	H4.561c-0.872,0-1.556-0.675-1.556-1.537c0-0.791,0.606-1.444,1.384-1.529L8.81,5.813C8.645,5.889,8.491,5.909,8.395,5.921
	C8.259,5.94,8.253,5.949,8.232,5.975C8.23,5.986,8.239,6.037,8.245,6.077l0.009,0.065c0.031,0.21,0.083,0.558-0.17,0.9
	C7.839,7.377,7.529,7.456,7.261,7.489C7.127,7.508,7.12,7.518,7.101,7.542c-0.002,0.01,0.005,0.06,0.012,0.1l0.01,0.069
	c0.031,0.208,0.082,0.557-0.17,0.9C6.672,8.99,6.305,9.036,6.128,9.059C5.993,9.077,5.987,9.085,5.967,9.111
	C5.964,9.123,5.973,9.172,5.979,9.213l0.009,0.065c0.031,0.208,0.082,0.557-0.17,0.9c-0.086,0.127-0.231,0.2-0.402,0.2
	c-0.107,0-0.194-0.042-0.258-0.074C4.913,10.128,4.865,9.84,5.005,9.611C5.021,9.58,5.013,9.529,5.007,9.488L4.998,9.423
	c-0.031-0.21-0.082-0.558,0.169-0.9C5.413,8.187,5.721,8.108,5.99,8.076c0.135-0.02,0.142-0.029,0.162-0.056
	C6.154,8.011,6.146,7.96,6.14,7.919L6.13,7.854c-0.03-0.208-0.082-0.557,0.171-0.9C6.548,6.619,6.855,6.54,7.124,6.507
	c0.134-0.02,0.141-0.028,0.16-0.053C7.287,6.442,7.279,6.391,7.273,6.35l-0.01-0.063C7.231,6.078,7.181,5.729,7.434,5.386
	C7.68,5.051,7.987,4.972,8.256,4.938C8.392,4.919,8.398,4.91,8.418,4.886c0.003-0.012-0.006-0.062-0.012-0.103L8.397,4.718
	C8.392,4.701,8.388,4.685,8.385,4.667C8.2,4.694,8.016,4.661,7.868,4.618C7.791,4.594,7.771,4.591,7.765,4.591
	c-0.023,0.005-0.03,0.022-0.04,0.083C7.676,5.014,7.506,5.267,7.222,5.42c-0.259,0.165-0.63,0.135-0.844,0.076
	C6.28,5.465,6.259,5.462,6.253,5.462C6.231,5.467,6.225,5.483,6.215,5.544C6.153,5.969,5.908,6.186,5.711,6.291
	C5.449,6.457,5.08,6.428,4.865,6.367C4.769,6.336,4.749,6.333,4.743,6.333C4.721,6.338,4.714,6.355,4.705,6.416
	C4.643,6.841,4.397,7.057,4.201,7.162C4.09,7.217,4.019,7.217,3.957,7.217c-0.176,0-0.333-0.085-0.432-0.233
	c-0.125-0.296-0.042-0.563,0.18-0.693c0.018-0.002,0.024-0.02,0.035-0.081C3.8,5.786,4.046,5.57,4.241,5.464
	c0.26-0.166,0.632-0.138,0.846-0.076C5.186,5.42,5.206,5.422,5.209,5.423C5.233,5.417,5.239,5.4,5.249,5.34
	C5.298,5,5.468,4.747,5.751,4.594c0.263-0.168,0.632-0.136,0.847-0.076c0.097,0.031,0.117,0.034,0.117,0.034
	C6.743,4.547,6.75,4.53,6.76,4.469c0.049-0.34,0.219-0.593,0.503-0.747c0.264-0.166,0.632-0.136,0.844-0.076
	c0.099,0.031,0.119,0.033,0.119,0.033c0.028-0.004,0.035-0.022,0.046-0.083C8.317,3.287,8.458,3.09,8.608,2.964L7.866,2.271
	c-0.126-0.079-0.196-0.28-0.145-0.485c0.025-0.103,0.11-0.285,0.381-0.352l1.128-0.183l0.498-0.983
	c0.176-0.349,0.663-0.37,0.879-0.053l0.512,1.008l1.131,0.157c0.219,0.052,0.31,0.188,0.371,0.278
	c0.116,0.17,0.085,0.394-0.079,0.558L11.75,2.998l0.162,0.893c0.026,0,0.065,0,0.102,0c0.027-0.005,0.089-0.011,0.153-0.011
	c0.281,0,0.517,0.1,0.726,0.307c0.323,0.32,0.323,0.651,0.323,0.87c0,0.147,0,0.147,0.029,0.176
	c0.027,0.029,0.027,0.029,0.177,0.029c0.02-0.005,0.079-0.011,0.143-0.011c0.284,0,0.532,0.103,0.737,0.305
	c0.325,0.321,0.325,0.651,0.325,0.871c0,0.148,0,0.148,0.027,0.175c0.029,0.028,0.029,0.028,0.179,0.028
	c0.027-0.006,0.088-0.011,0.153-0.011c0.279,0,0.518,0.101,0.727,0.306c0.323,0.32,0.323,0.651,0.323,0.869
	c0,0.148,0.001,0.149,0.028,0.177c0.027,0.028,0.027,0.028,0.178,0.028c0.028-0.005,0.088-0.01,0.153-0.01
	c0.28,0,0.518,0.099,0.727,0.306c0.095,0.094,0.147,0.217,0.147,0.347c0,0.129-0.053,0.252-0.147,0.347
	C16.924,9.184,16.62,9.184,16.423,8.988z M15.792,19.003c0.319,0,0.56-0.238,0.56-0.553c0-0.316-0.24-0.554-0.56-0.554H4.586
	c-0.319,0-0.559,0.237-0.559,0.554c0,0.314,0.24,0.553,0.559,0.553H15.792z M10.584,6.068c-0.011,0.011-0.021,0.022-0.032,0.032
	c-0.14,0.139-0.153,0.18-0.153,0.25c0,0.073,0.013,0.111,0.153,0.251c0.158,0.156,0.45,0.445,0.45,0.945
	c-0.032,0.514-0.293,0.791-0.489,0.956c-0.128,0.128-0.141,0.166-0.141,0.239c0,0.072,0.012,0.109,0.155,0.251
	c0.156,0.154,0.449,0.443,0.449,0.944c-0.032,0.516-0.295,0.793-0.489,0.957c-0.134,0.133-0.141,0.146-0.141,0.237
	c0,0.073,0.013,0.111,0.154,0.252c0.157,0.154,0.451,0.445,0.451,0.944c0,0.272-0.223,0.493-0.498,0.493
	c-0.289,0-0.499-0.207-0.499-0.493c0-0.073-0.012-0.11-0.155-0.25c-0.158-0.159-0.449-0.448-0.449-0.946
	c0.032-0.515,0.295-0.792,0.49-0.956c0.133-0.132,0.14-0.145,0.14-0.238c0-0.073-0.013-0.111-0.154-0.251
	C9.669,9.53,9.375,9.241,9.375,8.741C9.407,8.227,9.67,7.949,9.864,7.784c0.132-0.131,0.142-0.145,0.142-0.238
	c0-0.072-0.014-0.113-0.155-0.25C9.744,7.19,9.575,7.022,9.477,6.77l-4,10.144h9.4L10.584,6.068z M9.517,2.465
	c0.109,0.109,0.197,0.302,0.138,0.477L9.608,3.27l0.326-0.172c0.108-0.053,0.179-0.053,0.242-0.053c0.066,0,0.17,0,0.26,0.063
	l0.317,0.162l-0.065-0.361c-0.028-0.074-0.004-0.169,0.01-0.232V2.575l0.083-0.13L11.04,2.19l-0.371-0.054
	c-0.165,0.006-0.34-0.112-0.399-0.289l-0.142-0.29L9.972,1.877c-0.038,0.11-0.158,0.22-0.322,0.274L9.249,2.212L9.517,2.465z"/>
</svg>
