<?xml version="1.0" encoding="utf-8"?>
<!-- Generator: Adobe Illustrator 17.0.0, SVG Export Plug-In . SVG Version: 6.00 Build 0)  -->
<!DOCTYPE svg PUBLIC "-//W3C//DTD SVG 1.1//EN" "http://www.w3.org/Graphics/SVG/1.1/DTD/svg11.dtd">
<svg version="1.1" id="图层_1" xmlns="http://www.w3.org/2000/svg" xmlns:xlink="http://www.w3.org/1999/xlink" x="0px" y="0px"
	 width="30px" height="30px" viewBox="0 0 30 30" enable-background="new 0 0 30 30" xml:space="preserve">
<path fill="#000002" d="M13.493,2.648h3.675c0.088,0,0.175-0.086,0.175-0.17c0-0.086-0.087-0.172-0.175-0.172h-3.675
	c-0.097,0-0.175,0.077-0.175,0.172C13.318,2.571,13.396,2.648,13.493,2.648z M7.018,2.544c0-1.36,1.13-2.461,2.52-2.461h11.583
	c1.392,0,2.52,1.103,2.52,2.461v24.995c0,1.36-1.13,2.461-2.52,2.461H9.539c-1.392,0-2.52-1.102-2.52-2.461V2.544z M15.593,29.317
	c0.966,0,1.75-0.765,1.75-1.71c0-0.944-0.784-1.709-1.75-1.709c-0.966,0-1.75,0.765-1.75,1.709
	C13.843,28.551,14.626,29.317,15.593,29.317z M8.943,24.871h12.949V4.699H8.943V24.871z"/>
</svg>
