<?xml version="1.0" encoding="utf-8"?>
<!-- Generator: Adobe Illustrator 17.0.0, SVG Export Plug-In . SVG Version: 6.00 Build 0)  -->
<!DOCTYPE svg PUBLIC "-//W3C//DTD SVG 1.1//EN" "http://www.w3.org/Graphics/SVG/1.1/DTD/svg11.dtd">
<svg version="1.1" id="图层_1" xmlns="http://www.w3.org/2000/svg" xmlns:xlink="http://www.w3.org/1999/xlink" x="0px" y="0px"
	 width="30px" height="30px" viewBox="0 0 30 30" enable-background="new 0 0 30 30" xml:space="preserve">
<path fill="#000400" d="M8.981,28.181c-0.792-5.408,1.164-9.47,2.071-13.785c-1.549-2.509,0.186-7.555,3.452-6.309
	c4.017,1.528-3.481,9.321,1.552,10.296c5.256,1.018,7.401-8.774,4.143-11.957C15.488,1.827,6.491,6.32,7.597,12.9
	c0.27,1.61,1.995,2.097,0.69,4.318c-3.014-0.642-3.913-2.929-3.8-5.977c0.186-4.993,4.661-8.484,9.149-8.967
	c5.677-0.612,11.003,2.003,11.738,7.141c0.833,5.796-2.559,12.077-8.625,11.625c-1.645-0.123-2.335-0.908-3.626-1.663
	C12.414,22.955,11.549,26.388,8.981,28.181"/>
</svg>
