<?xml version="1.0" encoding="utf-8"?>
<!-- Generator: Adobe Illustrator 17.0.0, SVG Export Plug-In . SVG Version: 6.00 Build 0)  -->
<!DOCTYPE svg PUBLIC "-//W3C//DTD SVG 1.1//EN" "http://www.w3.org/Graphics/SVG/1.1/DTD/svg11.dtd">
<svg version="1.1" id="图层_1" xmlns="http://www.w3.org/2000/svg" xmlns:xlink="http://www.w3.org/1999/xlink" x="0px" y="0px"
	 width="30px" height="30px" viewBox="0 0 30 30" enable-background="new 0 0 30 30" xml:space="preserve">
<path fill-rule="evenodd" clip-rule="evenodd" fill="#000400" d="M16.166,29.96c-0.167,0.027-0.33,0.042-0.493,0.042
	c-0.161,0-0.322-0.015-0.483-0.04c-0.521-0.09-12.476-2.338-12.476-19.39V6.167c0-0.747,0.328-1.469,0.9-1.979
	c0.571-0.507,1.354-0.763,2.104-0.715C5.784,3.477,6.047,3.49,6.443,3.49c0.739,0,2.177-0.046,3.502-0.358
	c0.632-0.147,1.982-0.667,3.937-2.499c0.127-0.118,0.213-0.18,0.231-0.192c0.938-0.595,2.194-0.588,3.115-0.002
	c0.162,0.104,0.418,0.302,0.739,0.557c0.877,0.694,2.345,1.857,3.541,2.137c1.324,0.311,2.746,0.357,3.476,0.357
	c0.39,0,0.651-0.012,0.709-0.016l0.208-0.008c0.71,0,1.389,0.256,1.911,0.721c0.572,0.508,0.901,1.229,0.901,1.98v4.405
	C28.714,27.614,16.679,29.872,16.166,29.96z M26.788,6.167c0-0.224-0.1-0.441-0.273-0.594c-0.166-0.148-0.385-0.23-0.613-0.23
	c-0.051,0.001-0.389,0.022-0.917,0.022c-0.816,0-2.408-0.053-3.926-0.408c-1.622-0.38-3.302-1.711-4.305-2.506
	c-0.253-0.2-0.451-0.361-0.579-0.442c-0.277-0.176-0.654-0.188-0.944-0.035c-1.761,1.638-3.411,2.649-4.835,2.982
	C8.878,5.313,7.268,5.366,6.443,5.366c-0.52,0-0.852-0.02-0.885-0.024C5.302,5.343,5.077,5.427,4.913,5.573
	C4.739,5.728,4.64,5.945,4.64,6.167v4.405c0,15.495,10.43,17.464,10.873,17.54c0.089,0.014,0.217,0.018,0.329-0.002
	c0.439-0.074,10.946-2.053,10.946-17.538V6.167z M19.1,13.178c-0.092,0.029-0.188,0.044-0.283,0.044
	c-0.385,0-0.726-0.234-0.847-0.582c-0.196-0.558-0.904-1.209-2.254-1.209c-1.11,0-1.77,0.708-1.846,1.409
	c-0.094,0.862,0.684,1.563,2.028,1.831c2.773,0.553,3.586,2.324,3.439,3.672c-0.148,1.369-1.243,2.504-2.729,2.836v0.975
	c0,0.469-0.401,0.85-0.894,0.85c-0.493,0-0.894-0.381-0.894-0.85V21.21c-1.755-0.283-2.728-1.373-3.055-2.303
	c-0.075-0.215-0.059-0.446,0.048-0.649c0.108-0.204,0.29-0.355,0.517-0.427c0.092-0.029,0.188-0.045,0.284-0.045
	c0.384,0,0.725,0.234,0.846,0.582c0.196,0.559,0.904,1.209,2.254,1.209c1.111,0,1.77-0.708,1.846-1.408
	c0.094-0.861-0.684-1.563-2.028-1.831c-2.773-0.554-3.586-2.325-3.439-3.674c0.148-1.368,1.243-2.502,2.729-2.835V8.856
	c0-0.47,0.4-0.852,0.893-0.852c0.493,0,0.894,0.382,0.894,0.852v0.942c1.755,0.283,2.729,1.372,3.055,2.302
	c0.075,0.215,0.059,0.446-0.048,0.649C19.51,12.954,19.326,13.106,19.1,13.178z"/>
</svg>
