<?xml version="1.0" encoding="utf-8"?>
<!-- Generator: Adobe Illustrator 17.0.0, SVG Export Plug-In . SVG Version: 6.00 Build 0)  -->
<!DOCTYPE svg PUBLIC "-//W3C//DTD SVG 1.1//EN" "http://www.w3.org/Graphics/SVG/1.1/DTD/svg11.dtd">
<svg version="1.1" id="图层_1" xmlns="http://www.w3.org/2000/svg" xmlns:xlink="http://www.w3.org/1999/xlink" x="0px" y="0px"
	 width="30px" height="30px" viewBox="0 0 30 30" enable-background="new 0 0 30 30" xml:space="preserve">
<path fill-rule="evenodd" clip-rule="evenodd" fill="#000400" d="M28,30H2c-1.105,0-2-0.896-2-2V12c0-1.104,0.895-2,2-2h26
	c1.104,0,2,0.896,2,2v16C30,29.104,29.104,30,28,30z M28,13c0-0.552-0.447-1-1-1H3c-0.553,0-1,0.448-1,1v14c0,0.553,0.447,1,1,1h24
	c0.553,0,1-0.447,1-1V13z M16,19.723V22h-2v-2.277c-0.595-0.347-1-0.984-1-1.723c0-1.104,0.896-2,2-2s2,0.896,2,2
	C17,18.738,16.596,19.376,16,19.723z M21.92,10C21.967,9.672,22,9.34,22,9c0-3.866-3.135-7-7-7c-3.866,0-7,3.134-7,7
	c0,0.341,0.032,0.673,0.079,1H6.059C6.022,9.671,6,9.338,6,9c0-4.97,4.029-9,9-9s9,4.029,9,9c0,0.339-0.022,0.671-0.059,1H21.92z"/>
</svg>
