<?xml version="1.0" encoding="utf-8"?>
<!-- Generator: Adobe Illustrator 17.0.0, SVG Export Plug-In . SVG Version: 6.00 Build 0)  -->
<!DOCTYPE svg PUBLIC "-//W3C//DTD SVG 1.1//EN" "http://www.w3.org/Graphics/SVG/1.1/DTD/svg11.dtd">
<svg version="1.1" id="图层_1" xmlns="http://www.w3.org/2000/svg" xmlns:xlink="http://www.w3.org/1999/xlink" x="0px" y="0px"
	 width="30px" height="30px" viewBox="0 0 30 30" enable-background="new 0 0 30 30" xml:space="preserve">
<path fill="#000400" d="M2.308,27.692h9.23H2.308z M4.615,20.77H9.23v4.615H4.615V20.77z M16.153,16.154h2.308v9.23h-2.308V16.154z
	 M0,30h13.846V16.154H0V30z M2.308,27.692v-9.232h9.23v9.232H2.308L2.308,27.692z M16.153,27.692h4.615V30h-4.615V27.692z
	 M27.692,20.77H30v2.308h-2.308V20.77L27.692,20.77z M23.077,16.154H30v2.307h-6.923V16.154z M20.769,4.615h4.616V9.23h-4.616V4.615
	z M30,0H16.153v13.846H30V0z M27.692,11.538h-9.232v-9.23h9.232V11.538z M0,13.846h13.846V0H0V13.846z M2.308,2.308h9.23v9.23h-9.23
	V2.308z M27.692,27.692h-4.615V30H30v-4.615h-2.308V27.692z M20.769,20.77v4.615h4.616v-2.308h-2.308V20.77H20.769z M4.615,4.615
	H9.23V9.23H4.615V4.615z"/>
</svg>
