<?xml version="1.0" encoding="utf-8"?>
<!-- Generator: Adobe Illustrator 17.0.0, SVG Export Plug-In . SVG Version: 6.00 Build 0)  -->
<!DOCTYPE svg PUBLIC "-//W3C//DTD SVG 1.1//EN" "http://www.w3.org/Graphics/SVG/1.1/DTD/svg11.dtd">
<svg version="1.1" id="图层_1" xmlns="http://www.w3.org/2000/svg" xmlns:xlink="http://www.w3.org/1999/xlink" x="0px" y="0px"
	 width="30px" height="30px" viewBox="0 0 30 30" enable-background="new 0 0 30 30" xml:space="preserve">
<path fill-rule="evenodd" clip-rule="evenodd" fill="#000400" d="M29,15.252c0,0.595-0.154,1.135-0.461,1.621
	c-0.308,0.486-0.722,0.858-1.242,1.114c0.125,0.471,0.188,0.963,0.188,1.475c0,1.588-0.556,3.059-1.665,4.41
	c-1.109,1.351-2.622,2.42-4.539,3.203c-1.917,0.783-3.999,1.176-6.25,1.176c-2.25,0-4.33-0.393-6.242-1.176
	c-1.911-0.783-3.422-1.852-4.531-3.203c-1.109-1.352-1.664-2.822-1.664-4.41c0-0.481,0.057-0.963,0.172-1.444
	c-0.532-0.256-0.959-0.632-1.281-1.13C1.162,16.391,1,15.845,1,15.251c0-0.839,0.302-1.56,0.906-2.158
	c0.604-0.6,1.339-0.899,2.203-0.899c0.885,0,1.641,0.323,2.265,0.968c2.271-1.557,4.953-2.386,8.045-2.489l1.813-8.005
	c0.031-0.133,0.109-0.241,0.234-0.323c0.125-0.082,0.26-0.107,0.406-0.077l5.765,1.245c0.187-0.38,0.468-0.685,0.843-0.915
	c0.375-0.23,0.787-0.346,1.234-0.346c0.646,0,1.198,0.223,1.656,0.668c0.459,0.446,0.688,0.987,0.688,1.622
	c0,0.635-0.229,1.178-0.688,1.629c-0.458,0.451-1.01,0.676-1.656,0.676c-0.645,0-1.194-0.223-1.648-0.669
	c-0.453-0.446-0.68-0.986-0.68-1.621l-5.218-1.137l-1.624,7.253c3.124,0.093,5.827,0.912,8.108,2.458
	c0.604-0.625,1.349-0.937,2.234-0.937c0.864,0,1.599,0.3,2.203,0.899c0.604,0.599,0.906,1.319,0.906,2.158L29,15.252L29,15.252z
	 M7.533,18.31c0,0.636,0.227,1.179,0.68,1.629c0.453,0.451,1.002,0.678,1.648,0.678c0.645,0,1.197-0.227,1.656-0.678
	c0.458-0.45,0.688-0.993,0.688-1.629c0-0.635-0.229-1.175-0.688-1.621c-0.458-0.445-1.01-0.668-1.656-0.668
	c-0.636,0-1.182,0.226-1.641,0.676C7.762,17.147,7.533,17.685,7.533,18.31L7.533,18.31z M20.188,23.765
	c0.114-0.112,0.171-0.246,0.171-0.399c0-0.153-0.057-0.286-0.171-0.399c-0.104-0.102-0.234-0.153-0.39-0.153
	c-0.156,0-0.291,0.051-0.406,0.153c-0.428,0.431-1.057,0.748-1.891,0.953c-0.834,0.204-1.667,0.307-2.5,0.307
	c-0.833,0-1.666-0.103-2.5-0.307c-0.834-0.205-1.464-0.522-1.891-0.953c-0.115-0.102-0.25-0.153-0.406-0.153
	c-0.156,0-0.286,0.051-0.39,0.153c-0.114,0.104-0.171,0.234-0.171,0.392c0,0.159,0.057,0.294,0.171,0.407
	c0.448,0.439,1.065,0.789,1.852,1.045c0.786,0.256,1.424,0.406,1.914,0.453c0.49,0.046,0.964,0.069,1.422,0.068
	c0.458,0,0.932-0.024,1.422-0.068c0.489-0.045,1.128-0.197,1.914-0.453c0.786-0.258,1.403-0.606,1.851-1.045H20.188L20.188,23.765z
	 M20.142,20.614c0.646,0,1.194-0.226,1.648-0.676c0.453-0.451,0.681-0.994,0.681-1.629c0-0.625-0.229-1.163-0.688-1.613
	c-0.458-0.451-1.005-0.676-1.64-0.676c-0.646,0-1.198,0.222-1.657,0.668c-0.458,0.445-0.688,0.986-0.688,1.621
	c0,0.635,0.229,1.178,0.688,1.629C18.943,20.389,19.496,20.614,20.142,20.614L20.142,20.614z"/>
</svg>
