<?xml version="1.0" encoding="utf-8"?>
<!-- Generator: Adobe Illustrator 17.0.0, SVG Export Plug-In . SVG Version: 6.00 Build 0)  -->
<!DOCTYPE svg PUBLIC "-//W3C//DTD SVG 1.1//EN" "http://www.w3.org/Graphics/SVG/1.1/DTD/svg11.dtd">
<svg version="1.1" id="图层_1" xmlns="http://www.w3.org/2000/svg" xmlns:xlink="http://www.w3.org/1999/xlink" x="0px" y="0px"
	 width="30px" height="30px" viewBox="0 0 30 30" enable-background="new 0 0 30 30" xml:space="preserve">
<path fill-rule="evenodd" clip-rule="evenodd" fill="#000400" d="M29.685,28.208c0.408,0.407,0.408,1.069,0,1.477
	c-0.408,0.408-1.07,0.408-1.477,0l-5.911-5.91c-0.006-0.007-0.008-0.016-0.014-0.021c-2.361,2.023-5.422,3.254-8.775,3.254
	c-7.456,0-13.5-6.045-13.5-13.5c0-7.456,6.044-13.5,13.5-13.5c7.455,0,13.5,6.044,13.5,13.5c0,3.353-1.23,6.414-3.254,8.775
	c0.006,0.006,0.015,0.008,0.021,0.014L29.685,28.208z M13.508,2.007c-6.352,0-11.5,5.149-11.5,11.5c0,6.352,5.148,11.5,11.5,11.5
	c6.352,0,11.5-5.148,11.5-11.5C25.008,7.156,19.859,2.007,13.508,2.007z"/>
</svg>
