<?xml version="1.0" encoding="utf-8"?>
<!-- Generator: Adobe Illustrator 17.0.0, SVG Export Plug-In . SVG Version: 6.00 Build 0)  -->
<!DOCTYPE svg PUBLIC "-//W3C//DTD SVG 1.1//EN" "http://www.w3.org/Graphics/SVG/1.1/DTD/svg11.dtd">
<svg version="1.1" id="图层_1" xmlns="http://www.w3.org/2000/svg" xmlns:xlink="http://www.w3.org/1999/xlink" x="0px" y="0px"
	 width="20px" height="20px" viewBox="0 0 20 20" enable-background="new 0 0 20 20" xml:space="preserve">
<path fill="#000400" d="M17.38,4.026l0.007-0.007l-0.237-0.272c-0.032-0.036-0.065-0.069-0.097-0.105
	c-0.025-0.026-0.049-0.053-0.074-0.08c-0.084-0.091-0.168-0.181-0.256-0.268c-0.015-0.015-0.029-0.029-0.045-0.043
	c-0.389-0.384-0.807-0.733-1.25-1.041c-0.047-0.033-0.094-0.067-0.142-0.099c-0.066-0.045-0.134-0.087-0.202-0.13
	c-0.072-0.046-0.144-0.091-0.217-0.135c-0.057-0.033-0.112-0.065-0.168-0.097c-0.09-0.051-0.178-0.101-0.269-0.149
	c-0.046-0.024-0.093-0.048-0.14-0.072c-0.104-0.052-0.208-0.103-0.313-0.152c-0.037-0.017-0.075-0.035-0.113-0.052
	c-0.117-0.052-0.234-0.102-0.353-0.149c-0.03-0.013-0.062-0.024-0.091-0.036c-0.128-0.049-0.258-0.096-0.387-0.141
	c-0.024-0.007-0.049-0.016-0.073-0.024c-0.136-0.045-0.274-0.087-0.412-0.125c-0.021-0.006-0.04-0.012-0.061-0.018
	c-0.142-0.039-0.284-0.073-0.429-0.105c-0.019-0.004-0.037-0.009-0.056-0.013c-0.144-0.03-0.288-0.058-0.434-0.083
	c-0.02-0.003-0.04-0.007-0.061-0.011c-0.142-0.022-0.284-0.041-0.427-0.058c-0.024-0.002-0.049-0.006-0.074-0.009
	c-0.138-0.015-0.277-0.025-0.417-0.034c-0.029-0.001-0.058-0.005-0.088-0.007C10.336,0.504,10.168,0.499,10,0.499
	c-0.169,0-0.337,0.005-0.504,0.013c-0.03,0.001-0.059,0.005-0.088,0.007c-0.14,0.009-0.279,0.019-0.417,0.034
	C8.966,0.556,8.941,0.56,8.917,0.562C8.773,0.579,8.631,0.598,8.49,0.62C8.47,0.624,8.449,0.627,8.429,0.63
	C8.284,0.655,8.14,0.683,7.996,0.713C7.977,0.717,7.959,0.722,7.94,0.726C7.796,0.758,7.653,0.793,7.511,0.832
	c-0.02,0.006-0.04,0.012-0.06,0.018c-0.139,0.038-0.276,0.08-0.413,0.125C7.014,0.982,6.99,0.99,6.966,0.998
	C6.836,1.042,6.707,1.088,6.58,1.138C6.549,1.15,6.519,1.162,6.488,1.174C6.37,1.222,6.252,1.271,6.136,1.323
	C6.097,1.34,6.059,1.358,6.021,1.375c-0.105,0.049-0.209,0.1-0.313,0.152c-0.047,0.024-0.093,0.048-0.14,0.072
	C5.478,1.646,5.389,1.697,5.3,1.748C5.244,1.78,5.188,1.812,5.132,1.845C5.059,1.889,4.986,1.935,4.915,1.98
	C4.847,2.023,4.779,2.065,4.712,2.11C4.665,2.142,4.618,2.176,4.571,2.209C4.128,2.518,3.709,2.866,3.32,3.25
	c-0.015,0.015-0.03,0.028-0.044,0.043C3.188,3.381,3.104,3.471,3.02,3.562c-0.024,0.027-0.049,0.054-0.074,0.08
	C2.915,3.678,2.881,3.711,2.85,3.747L2.612,4.019l0.007,0.007C1.295,5.66,0.5,7.738,0.5,9.999c0,5.237,4.261,9.5,9.5,9.5
	c5.239,0,9.499-4.263,9.499-9.5C19.499,7.738,18.704,5.66,17.38,4.026z M16.863,15.295c-1.695-1.772-4.006-2.821-6.452-2.928V10.49
	h8.249C18.559,12.294,17.903,13.95,16.863,15.295z M1.339,10.49h8.248v1.877c-2.445,0.107-4.757,1.155-6.452,2.928
	C2.095,13.95,1.44,12.294,1.339,10.49z M3.834,3.903c0.024-0.025,0.049-0.05,0.073-0.074c0.075-0.074,0.152-0.146,0.23-0.219
	c0.027-0.025,0.054-0.049,0.081-0.074c0.077-0.068,0.154-0.135,0.233-0.201C4.484,3.308,4.517,3.282,4.55,3.255
	c0.075-0.061,0.15-0.12,0.227-0.178c0.042-0.031,0.084-0.062,0.127-0.093c0.069-0.051,0.139-0.101,0.21-0.149
	C5.17,2.796,5.227,2.76,5.284,2.723c0.059-0.039,0.117-0.078,0.177-0.115c0.078-0.047,0.157-0.092,0.236-0.138
	C5.738,2.447,5.778,2.422,5.82,2.399C5.928,2.34,6.036,2.284,6.145,2.23C6.16,2.222,6.176,2.214,6.191,2.207
	c1.052-0.515,2.206-0.815,3.396-0.872v5.369C7.363,6.597,5.261,5.637,3.721,4.022C3.758,3.982,3.795,3.942,3.834,3.903z
	 M13.854,2.23c0.109,0.054,0.218,0.11,0.324,0.169c0.042,0.023,0.083,0.047,0.125,0.071c0.078,0.046,0.157,0.091,0.234,0.138
	c0.061,0.037,0.119,0.076,0.178,0.114c0.057,0.037,0.114,0.073,0.17,0.112c0.071,0.048,0.141,0.098,0.21,0.149
	c0.043,0.031,0.085,0.062,0.127,0.093c0.077,0.059,0.152,0.118,0.227,0.178c0.032,0.027,0.065,0.053,0.098,0.081
	c0.08,0.066,0.157,0.133,0.233,0.202c0.027,0.024,0.055,0.049,0.081,0.074c0.078,0.072,0.154,0.145,0.231,0.218
	c0.023,0.025,0.049,0.049,0.073,0.074c0.038,0.039,0.075,0.079,0.112,0.118c-1.54,1.616-3.642,2.575-5.866,2.681V1.334
	c1.19,0.056,2.344,0.357,3.396,0.872C13.823,2.214,13.838,2.223,13.854,2.23z M9.587,7.528v2.138H1.333
	c0.072-1.889,0.75-3.625,1.847-5.019C4.87,6.392,7.163,7.422,9.587,7.528z M9.587,18.56c-2.226-0.105-4.328-1.066-5.869-2.684
	c1.541-1.618,3.644-2.578,5.869-2.685V18.56z M10.412,13.191c2.225,0.107,4.329,1.066,5.869,2.685
	c-1.54,1.618-3.644,2.579-5.869,2.684V13.191z M10.412,9.666V7.528c2.424-0.106,4.717-1.136,6.408-2.881
	c1.097,1.394,1.774,3.129,1.847,5.019H10.412L10.412,9.666z"/>
</svg>
