<?xml version="1.0" encoding="utf-8"?>
<!-- Generator: Adobe Illustrator 17.0.0, SVG Export Plug-In . SVG Version: 6.00 Build 0)  -->
<!DOCTYPE svg PUBLIC "-//W3C//DTD SVG 1.1//EN" "http://www.w3.org/Graphics/SVG/1.1/DTD/svg11.dtd">
<svg version="1.1" id="图层_1" xmlns="http://www.w3.org/2000/svg" xmlns:xlink="http://www.w3.org/1999/xlink" x="0px" y="0px"
	 width="30px" height="30px" viewBox="0 0 30 30" enable-background="new 0 0 30 30" xml:space="preserve">
<path fill="#000400" d="M23.31,30c-0.261,0-0.498-0.071-0.734-0.19l-6.641-3.649c-0.285-0.144-0.594-0.237-0.902-0.237
	c-0.308,0-0.617,0.071-0.901,0.237l-6.64,3.649C7.254,29.929,7.018,30,6.757,30c-0.451,0-0.901-0.213-1.21-0.568
	c-0.332-0.38-0.451-0.877-0.38-1.398l1.28-7.727c0.12-0.639-0.095-1.302-0.545-1.752l-5.407-5.499
	c-0.457-0.459-0.613-1.139-0.403-1.752c0.189-0.593,0.688-1.02,1.281-1.115l7.424-1.138c0.615-0.094,1.162-0.497,1.446-1.089
	l3.32-7.038C13.848,0.332,14.369,0,15.01,0c0.617,0,1.162,0.355,1.423,0.924l3.321,7.038c0.283,0.593,0.83,0.995,1.445,1.089
	l7.425,1.138c0.592,0.095,1.091,0.498,1.28,1.115c0.213,0.616,0.047,1.303-0.403,1.752l-5.384,5.475
	c-0.45,0.45-0.664,1.113-0.545,1.753l1.28,7.726c0.095,0.521-0.047,1.018-0.38,1.396C24.212,29.787,23.785,30,23.31,30z"/>
</svg>
