<?xml version="1.0" encoding="utf-8"?>
<!-- Generator: Adobe Illustrator 17.0.0, SVG Export Plug-In . SVG Version: 6.00 Build 0)  -->
<!DOCTYPE svg PUBLIC "-//W3C//DTD SVG 1.1//EN" "http://www.w3.org/Graphics/SVG/1.1/DTD/svg11.dtd">
<svg version="1.1" id="图层_1" xmlns="http://www.w3.org/2000/svg" xmlns:xlink="http://www.w3.org/1999/xlink" x="0px" y="0px"
	 width="30px" height="30px" viewBox="0 0 30 30" enable-background="new 0 0 30 30" xml:space="preserve">
<path fill="#040000" d="M29.423,13.362c0.544-0.545,0.73-1.351,0.483-2.08c-0.215-0.707-0.815-1.229-1.545-1.342l-7.248-1.111
	c-0.498-0.08-0.924-0.4-1.139-0.857l-3.24-6.867c-0.191-0.417-0.525-0.752-0.942-0.942c-0.957-0.437-2.087-0.015-2.524,0.942
	l-3.242,6.868C9.812,8.43,9.387,8.751,8.889,8.832L1.637,9.944c-0.724,0.116-1.32,0.631-1.54,1.331
	c-0.252,0.73-0.066,1.539,0.48,2.085l5.283,5.369c0.361,0.368,0.522,0.887,0.43,1.393l-1.252,7.551
	c-0.08,0.484,0.025,0.971,0.274,1.385c0.063,0.132,0.137,0.26,0.234,0.374c0.268,0.326,0.647,0.502,1.043,0.543
	c0.417,0.08,0.862,0.019,1.258-0.197l6.492-3.566c0.434-0.246,0.965-0.246,1.399,0l6.5,3.568c0.273,0.145,0.574,0.221,0.882,0.224
	c0.556,0.015,1.085-0.248,1.409-0.7c0.403-0.453,0.572-1.068,0.457-1.665l-1.252-7.548c-0.089-0.506,0.073-1.024,0.435-1.389
	L29.423,13.362z M22.717,17.194c-0.853,0.861-1.237,2.084-1.028,3.278l1.168,7.171l-6.08-3.344
	c-0.555-0.296-1.167-0.434-1.777-0.424c0-3.107,0-17.49,0-21.3l0.031-0.065l3.007,6.381c0.521,1.112,1.561,1.891,2.776,2.079
	l6.979,1.066L22.717,17.194z"/>
</svg>
