<?xml version="1.0" encoding="utf-8"?>
<!-- Generator: Adobe Illustrator 17.0.0, SVG Export Plug-In . SVG Version: 6.00 Build 0)  -->
<!DOCTYPE svg PUBLIC "-//W3C//DTD SVG 1.1//EN" "http://www.w3.org/Graphics/SVG/1.1/DTD/svg11.dtd">
<svg version="1.1" id="图层_1" xmlns="http://www.w3.org/2000/svg" xmlns:xlink="http://www.w3.org/1999/xlink" x="0px" y="0px"
	 width="20px" height="20px" viewBox="0 0 20 20" enable-background="new 0 0 20 20" xml:space="preserve">
<g>
	<g>
		<path fill="#000400" d="M20.033,4.333h-2.572c-0.2-1.132-1.121-1.889-2.378-1.889H14.5V1.971c0-0.26-0.211-0.472-0.467-0.472
			H3.737c-1.271,0-2.304,1.047-2.304,2.33v1.95c0,1.286,0.795,2.72,2.066,2.72h0.504l-1.537,6.222h-1.5
			c-0.257,0-0.467,0.21-0.467,0.472v1.477c0,1.009,0.814,1.83,1.809,1.83h6.65c0.997,0,1.542-0.992,1.542-2v-1
			c0-0.262,0.056-0.778-0.201-0.778H9.03L10.567,8.5H14.5c0.256,0,0-0.6,0-0.861V7.167h0.35c1.33,0,2.371-0.785,2.604-1.889h2.58
			c0.256,0,0.467-0.212,0.467-0.472C20.5,4.544,20.289,4.333,20.033,4.333z M9.5,15.5v1c0,0.488-0.057,1.057-0.542,1.057h-6.65
			c-0.482,0-0.875-0.396-0.875-0.887v-1.004L1.5,15.5h0.971c0.001,0.003,0.002,0.004,0.003,0.007C2.482,15.504,2.482,15.5,2.5,15.5
			H9.5z M8.069,14.722H3.431L5.5,8.5h4L8.069,14.722z M13.5,7.5h-10c-0.756,0-1.133-0.956-1.133-1.72V3.832
			c0-0.765,0.615-1.388,1.371-1.388l9.829,0.001L13.5,7.5z M14.85,6.222H14.5V3.388h0.583c0.919,0,1.487,0.543,1.487,1.417
			C16.57,5.726,15.686,6.222,14.85,6.222z"/>
	</g>
</g>
</svg>
