<?xml version="1.0" encoding="utf-8"?>
<!-- Generator: Adobe Illustrator 17.0.0, SVG Export Plug-In . SVG Version: 6.00 Build 0)  -->
<!DOCTYPE svg PUBLIC "-//W3C//DTD SVG 1.1//EN" "http://www.w3.org/Graphics/SVG/1.1/DTD/svg11.dtd">
<svg version="1.1" id="图层_1" xmlns="http://www.w3.org/2000/svg" xmlns:xlink="http://www.w3.org/1999/xlink" x="0px" y="0px"
	 width="20px" height="20px" viewBox="0 0 20 20" enable-background="new 0 0 20 20" xml:space="preserve">
<path fill-rule="evenodd" clip-rule="evenodd" fill="#000101" d="M17.515,10H17.41C17.136,7,15,5.13,12,5.014V4.568
	c1,0.014,2.256-0.898,2.256-2.052c0-1.132-0.919-2.053-2.089-2.053c-0.6,0-1.149,0.245-1.547,0.667
	C10.22,0.708,9.665,0.463,9.062,0.463c-1.169,0-2.187,0.921-2.187,2.053C6.875,3.67,8,4.608,9,4.568v0.446
	c-3,0.116-4.993,2.2-5.251,4.875C1.611,10.141,0,11.921,0,14.024V16h2.32c0.262,2,1.381,2.122,2.686,2.122
	C6.311,18.122,7.43,18,7.692,16h4.633c0.264,2,1.382,2.122,2.686,2.122c1.306,0,2.424-0.122,2.686-2.122H20v-3.794
	C20,10.909,18.856,10,17.515,10z M12.202,1.542c0.56,0,1.01,0.438,1.01,0.978s-0.45,0.977-1.01,0.977
	c-0.555,0-1.008-0.438-1.008-0.977S11.648,1.542,12.202,1.542z M11,6h0.891c2.248,0,4.138,2,4.41,4H11V6z M10.255,4.22
	c0.142-0.093,0.27-0.2,0.384-0.318c0.114,0.121,0.243,0.229,0.383,0.319v0.789h-0.767V4.22z M9.073,3.494
	c-0.556,0-1.009-0.438-1.009-0.978c0-0.539,0.453-0.977,1.009-0.977c0.557,0,1.01,0.438,1.01,0.977
	C10.083,3.056,9.63,3.494,9.073,3.494z M9.387,6H10v4H4.974C5.25,8,7.139,6,9.387,6z M5.01,17.423c-0.901,0-1.635-0.71-1.635-1.583
	c0-0.874,0.734-1.585,1.635-1.585c0.902,0,1.635,0.711,1.635,1.585C6.645,16.713,5.912,17.423,5.01,17.423z M15.016,17.423
	c-0.901,0-1.636-0.71-1.636-1.583c0-0.874,0.734-1.585,1.636-1.585c0.901,0,1.635,0.711,1.635,1.585
	C16.65,16.713,15.917,17.423,15.016,17.423z M19,15h-1.299c-0.262-1-1.381-2.122-2.686-2.122S12.592,14,12.328,15H7.696
	c-0.262-1-1.381-2.122-2.687-2.122C3.705,12.878,2.585,14,2.324,15H1.797H1.188H1v-1l0,0c0.002-1,0.529-1.65,0.656-1.797
	C2.484,11.313,3.286,11,4.388,11h13.131C18.247,11,19,11.505,19,12.21V15z"/>
</svg>
