<?xml version="1.0" encoding="utf-8"?>
<!-- Generator: Adobe Illustrator 17.0.0, SVG Export Plug-In . SVG Version: 6.00 Build 0)  -->
<!DOCTYPE svg PUBLIC "-//W3C//DTD SVG 1.1//EN" "http://www.w3.org/Graphics/SVG/1.1/DTD/svg11.dtd">
<svg version="1.1" id="图层_1" xmlns="http://www.w3.org/2000/svg" xmlns:xlink="http://www.w3.org/1999/xlink" x="0px" y="0px"
	 width="30px" height="30px" viewBox="0 0 30 30" enable-background="new 0 0 30 30" xml:space="preserve">
<path fill="#000400" d="M26.144,9.225c0.01,0.25,0.017,0.502,0.017,0.754c0,7.675-5.782,16.522-16.359,16.522
	c-3.247,0-6.27-0.961-8.812-2.609c0.45,0.054,0.908,0.082,1.371,0.082c2.694,0,5.172-0.93,7.141-2.486
	c-2.516-0.047-4.64-1.727-5.372-4.033c0.351,0.068,0.711,0.104,1.081,0.104c0.525,0,1.034-0.07,1.515-0.203
	c-2.629-0.533-4.61-2.879-4.61-5.693c0-0.025,0-0.05,0-0.072c0.775,0.433,1.662,0.695,2.604,0.724
	c-1.542-1.039-2.557-2.817-2.557-4.831c0-1.066,0.283-2.063,0.778-2.922c2.834,3.515,7.071,5.826,11.848,6.07
	c-0.099-0.426-0.148-0.868-0.148-1.324c0-3.207,2.574-5.808,5.749-5.808c1.653,0,3.146,0.706,4.196,1.834
	c1.311-0.26,2.541-0.743,3.651-1.409c-0.431,1.355-1.341,2.493-2.529,3.213c1.164-0.141,2.273-0.453,3.303-0.914
	C28.242,7.385,27.267,8.409,26.144,9.225z"/>
</svg>
