<?xml version="1.0" encoding="utf-8"?>
<!-- Generator: Adobe Illustrator 17.0.0, SVG Export Plug-In . SVG Version: 6.00 Build 0)  -->
<!DOCTYPE svg PUBLIC "-//W3C//DTD SVG 1.1//EN" "http://www.w3.org/Graphics/SVG/1.1/DTD/svg11.dtd">
<svg version="1.1" id="图层_1" xmlns="http://www.w3.org/2000/svg" xmlns:xlink="http://www.w3.org/1999/xlink" x="0px" y="0px"
	 width="30px" height="30px" viewBox="0 0 30 30" enable-background="new 0 0 30 30" xml:space="preserve">
<path fill-rule="evenodd" clip-rule="evenodd" fill="#000400" d="M15,30C6.716,30,0,23.284,0,15C0,6.716,6.716,0,15,0
	c8.284,0,15,6.716,15,15C30,23.284,23.284,30,15,30z M15,2C7.82,2,2,7.82,2,15c0,7.18,5.82,13,13,13c7.18,0,13-5.82,13-13
	C28,7.82,22.18,2,15,2z M21.318,16.348l-7.245,5.361c-0.259,0.189-0.536,0.293-0.809,0.293c-0.628,0-1.262-0.537-1.262-1.564V9.562
	C12,8.088,13.217,7.662,14.073,8.291l7.245,5.362c0.434,0.319,0.681,0.811,0.681,1.347C21.999,15.537,21.752,16.029,21.318,16.348z
	 M14.003,11.009v7.999l6.005-3.999L14.003,11.009z"/>
</svg>
