<?xml version="1.0" encoding="utf-8"?>
<!-- Generator: Adobe Illustrator 17.0.0, SVG Export Plug-In . SVG Version: 6.00 Build 0)  -->
<!DOCTYPE svg PUBLIC "-//W3C//DTD SVG 1.1//EN" "http://www.w3.org/Graphics/SVG/1.1/DTD/svg11.dtd">
<svg version="1.1" id="图层_1" xmlns="http://www.w3.org/2000/svg" xmlns:xlink="http://www.w3.org/1999/xlink" x="0px" y="0px"
	 width="30px" height="30px" viewBox="0 0 30 30" enable-background="new 0 0 30 30" xml:space="preserve">
<path fill="#000400" d="M14.215,24.286h1.578c0,0,1.221-0.4,1.498-0.709c0.254-0.283,0.246-0.816,0.246-0.816
	s-0.035-2.492,1.081-2.859c1.101-0.362,2.513,2.408,4.011,3.475c1.131,0.807,1.852,0.91,1.852,0.91h3.95c0,0,2.288-0.473,1.294-2.18
	c-0.08-0.139-0.577-1.264-2.976-3.571c-2.511-2.415-2.174-2.024,0.85-6.204c1.842-2.546,2.578-4.098,2.348-4.764
	C29.727,6.932,28.373,7.1,28.373,7.1l-4.682-0.004c0,0-0.161-0.014-0.408,0.139c-0.243,0.151-0.398,0.502-0.398,0.502
	s-0.713,1.969-1.665,3.644c-2.007,3.534-2.729,4.119-3.057,3.9c-0.763-0.512-0.79-2.178-0.79-3.274c0-3.425,0.637-5.128-0.84-5.498
	c-0.489-0.123-1.065-0.219-2.318-0.232c-1.609-0.018-2.756,0.02-3.526,0.412c-0.513,0.26-0.908,0.841-0.667,0.875
	c0.298,0.041,0.972,0.188,1.33,0.693c0.462,0.652,0.446,2.115,0.446,2.115s0.142,4.41-0.742,4.91
	c-0.607,0.344-1.319-0.736-3.107-3.941c-0.917-1.643-1.61-3.458-1.61-3.458S6.205,7.542,5.966,7.361
	C5.678,7.142,5.527,7.096,5.527,7.096L0.99,7.1c0,0-0.643,0.019-0.879,0.309C-0.099,7.667,0.095,8.2,0.095,8.2
	s3.354,8.135,7.15,12.235C10.727,24.195,14.215,24.286,14.215,24.286L14.215,24.286z"/>
</svg>
