<?xml version="1.0" encoding="utf-8"?>
<!-- Generator: Adobe Illustrator 17.0.0, SVG Export Plug-In . SVG Version: 6.00 Build 0)  -->
<!DOCTYPE svg PUBLIC "-//W3C//DTD SVG 1.1//EN" "http://www.w3.org/Graphics/SVG/1.1/DTD/svg11.dtd">
<svg version="1.1" id="图层_1" xmlns="http://www.w3.org/2000/svg" xmlns:xlink="http://www.w3.org/1999/xlink" x="0px" y="0px"
	 width="20px" height="20px" viewBox="0 0 20 20" enable-background="new 0 0 20 20" xml:space="preserve">
<path fill-rule="evenodd" clip-rule="evenodd" fill="#000400" d="M19.326,10.031c-0.094,0.063-0.203,0.094-0.299,0.094
	c-0.125,0-0.235-0.047-0.329-0.141l-8.344-8.385c-0.094-0.094-0.22-0.157-0.361-0.157c-0.126,0-0.251,0.047-0.361,0.157L1.288,9.952
	c-0.094,0.094-0.204,0.141-0.33,0.141c-0.125,0-0.235-0.047-0.314-0.126C0.55,9.889,0.502,9.795,0.502,9.669
	C0.487,9.528,0.55,9.387,0.644,9.292L8.94,0.938c0.283-0.282,0.644-0.439,1.037-0.439c0.393,0,0.754,0.157,1.037,0.439l8.344,8.385
	c0.094,0.094,0.142,0.22,0.142,0.361C19.5,9.826,19.421,9.952,19.326,10.031z M9.5,11.5h-4l0,0v-4l0,0h4h1h4v4h-4H9.5z M9.5,8.5h-3
	v2h3V8.5z M13.5,8.5h-3v2h3V8.5z M2.828,9.434c0.267,0,0.471,0.204,0.471,0.471v8.15c0,0.282,0.22,0.502,0.503,0.502h3.441v-0.895
	c0-1.523,1.241-2.748,2.75-2.748c1.509,0,2.749,1.24,2.749,2.748v0.895h3.441c0.283,0,0.504-0.22,0.504-0.502v-8.15
	c0-0.267,0.203-0.471,0.471-0.471c0.268,0,0.342-0.201,0.342,0.066v9c0,0.801-0.515,0.999-1.316,0.999h-3.441H12.46h-0.659V18.84
	v-0.283v-0.911c0-1.005-0.818-1.806-1.808-1.806c-1.006,0-1.807,0.816-1.807,1.806v0.911v0.283v0.659h-0.66H7.244H3.802
	c-0.801,0-1.303-0.198-1.303-0.999v-9C2.5,9.233,2.561,9.434,2.828,9.434z"/>
</svg>
