<?xml version="1.0" encoding="utf-8"?>
<!-- Generator: Adobe Illustrator 17.0.0, SVG Export Plug-In . SVG Version: 6.00 Build 0)  -->
<!DOCTYPE svg PUBLIC "-//W3C//DTD SVG 1.1//EN" "http://www.w3.org/Graphics/SVG/1.1/DTD/svg11.dtd">
<svg version="1.1" id="图层_1" xmlns="http://www.w3.org/2000/svg" xmlns:xlink="http://www.w3.org/1999/xlink" x="0px" y="0px"
	 width="30px" height="30px" viewBox="0 0 30 30" enable-background="new 0 0 30 30" xml:space="preserve">
<path fill-rule="evenodd" clip-rule="evenodd" fill="#000400" d="M15,30C6.715,30,0,23.284,0,15C0,6.716,6.715,0,15,0
	c8.284,0,15,6.716,15,15C30,23.284,23.284,30,15,30z M15,2C7.82,2,2,7.82,2,15c0,7.18,5.82,13,13,13c7.18,0,13-5.82,13-13
	C28,7.82,22.18,2,15,2z M15,22.5c-0.689,0-1.25-0.562-1.25-1.25C13.75,20.56,14.31,20,15,20c0.689,0,1.247,0.56,1.25,1.25
	C16.249,21.938,15.689,22.5,15,22.5z M15,18.125c-0.689,0-1.25-0.56-1.25-1.25V8.75c0-0.689,0.561-1.25,1.25-1.25
	c0.689,0,1.247,0.562,1.25,1.25v8.125C16.249,17.565,15.689,18.125,15,18.125z"/>
</svg>
