<?xml version="1.0" encoding="utf-8"?>
<!-- Generator: Adobe Illustrator 17.0.0, SVG Export Plug-In . SVG Version: 6.00 Build 0)  -->
<!DOCTYPE svg PUBLIC "-//W3C//DTD SVG 1.1//EN" "http://www.w3.org/Graphics/SVG/1.1/DTD/svg11.dtd">
<svg version="1.1" id="图层_1" xmlns="http://www.w3.org/2000/svg" xmlns:xlink="http://www.w3.org/1999/xlink" x="0px" y="0px"
	 width="20px" height="20px" viewBox="0 0 20 20" enable-background="new 0 0 20 20" xml:space="preserve">
<g>
	<g>
		<path fill="#000400" d="M18.22,8.444h-1.121c-0.443-1.923-1.688-3.566-3.387-4.604l-0.693-3.479C12.977,0.16,12.771,0,12.553,0
			H6.414c-0.25,0.003-0.405,0.16-0.464,0.361L5.256,3.84C3.112,5.148,1.692,7.421,1.692,10c0,2.577,1.421,4.845,3.564,6.152
			l0.693,3.479c0.04,0.213,0.235,0.367,0.464,0.369h6.139c0.229-0.002,0.426-0.156,0.466-0.369l0.693-3.479
			c1.696-1.036,2.943-2.678,3.387-4.597h1.121c0.261,0,0.473-0.199,0.473-0.444V8.888C18.692,8.644,18.48,8.444,18.22,8.444z
			 M6.805,0.888h5.357l0.479,2.41c-0.966-0.404-2.035-0.632-3.158-0.632c-1.123,0-2.192,0.228-3.158,0.632L6.805,0.888z
			 M12.162,19.111H6.805l-0.48-2.41c0.966,0.403,2.035,0.632,3.158,0.632c1.123,0,2.193-0.229,3.158-0.632L12.162,19.111z
			 M9.483,16.444c-3.787,0-6.847-2.88-6.847-6.444c0-3.564,3.06-6.445,6.847-6.445c3.787,0,6.848,2.88,6.848,6.445
			C16.331,13.564,13.271,16.444,9.483,16.444z M17.747,10.667h-0.501c0.021-0.221,0.029-0.44,0.029-0.667
			c0-0.224-0.009-0.448-0.029-0.667h0.501V10.667z M12.387,11.509L9.879,9.955V5.178c0-0.23-0.214-0.431-0.458-0.431
			c-0.245,0-0.459,0.201-0.459,0.431v4.979c0,0.145,0.092,0.288,0.214,0.375l2.721,1.698c0.092,0.058,0.152,0.058,0.244,0.058
			c0.153,0,0.307-0.058,0.398-0.201C12.661,11.884,12.601,11.624,12.387,11.509z"/>
	</g>
</g>
</svg>
