<?xml version="1.0" encoding="utf-8"?>
<!-- Generator: Adobe Illustrator 17.0.0, SVG Export Plug-In . SVG Version: 6.00 Build 0)  -->
<!DOCTYPE svg PUBLIC "-//W3C//DTD SVG 1.1//EN" "http://www.w3.org/Graphics/SVG/1.1/DTD/svg11.dtd">
<svg version="1.1" id="图层_1" xmlns="http://www.w3.org/2000/svg" xmlns:xlink="http://www.w3.org/1999/xlink" x="0px" y="0px"
	 width="30px" height="30px" viewBox="0 0 30 30" enable-background="new 0 0 30 30" xml:space="preserve">
<path fill="#000400" d="M15.236,2c1.727,0,3.377,0.336,4.951,1.007c1.574,0.672,2.932,1.574,4.072,2.705
	c1.139,1.131,2.047,2.477,2.725,4.04c0.674,1.549,1.02,3.223,1.016,4.913c0,1.713-0.339,3.351-1.016,4.913
	c-0.678,1.562-1.586,2.908-2.727,4.039c-1.139,1.131-2.496,2.032-4.07,2.705c-1.565,0.67-3.25,1.012-4.951,1.007
	c-2.2,0-4.26-0.526-6.179-1.579L2,28l2.302-6.803c-1.219-1.992-1.828-4.171-1.828-6.533c0-1.713,0.338-3.351,1.016-4.913
	c0.677-1.563,1.585-2.909,2.725-4.04c1.14-1.131,2.497-2.033,4.072-2.705C11.85,2.338,13.535,1.995,15.236,2 M15.236,25.213
	c1.433,0,2.807-0.279,4.122-0.84c1.314-0.559,2.446-1.31,3.395-2.251c0.947-0.941,1.703-2.063,2.267-3.368
	c0.562-1.289,0.85-2.683,0.847-4.089c0-1.422-0.282-2.785-0.847-4.09c-0.564-1.305-1.32-2.427-2.267-3.368
	c-0.948-0.94-2.08-1.691-3.395-2.25c-1.303-0.557-2.705-0.843-4.122-0.84c-1.433,0-2.807,0.28-4.122,0.84
	c-1.315,0.56-2.446,1.31-3.394,2.25C6.773,8.148,6.018,9.27,5.453,10.575c-0.561,1.29-0.85,2.683-0.847,4.09
	c0,2.273,0.677,4.333,2.032,6.181L5.3,24.759l4.096-1.293C11.18,24.631,13.126,25.213,15.236,25.213 M18.673,16.31
	c0.146,0,0.697,0.246,1.65,0.738c0.954,0.494,1.458,0.789,1.515,0.891c0.022,0.057,0.034,0.14,0.034,0.252
	c0,0.369-0.097,0.795-0.288,1.276c-0.18,0.437-0.58,0.804-1.201,1.101c-0.621,0.297-1.196,0.445-1.726,0.445
	c-0.645,0-1.716-0.348-3.217-1.043c-1.106-0.503-2.065-1.164-2.877-1.98c-0.813-0.818-1.647-1.854-2.505-3.108
	c-0.812-1.198-1.213-2.284-1.202-3.258v-0.135c0.034-1.019,0.452-1.903,1.253-2.653c0.271-0.246,0.564-0.37,0.88-0.37
	c0.067,0,0.169,0.009,0.305,0.025c0.136,0.017,0.243,0.025,0.322,0.025c0.214,0,0.364,0.037,0.448,0.109
	c0.085,0.073,0.172,0.227,0.263,0.462c0.09,0.224,0.276,0.717,0.558,1.478c0.283,0.762,0.423,1.182,0.423,1.26
	c0,0.235-0.194,0.557-0.584,0.966c-0.389,0.409-0.583,0.669-0.583,0.781c0.003,0.09,0.033,0.178,0.084,0.252
	c0.384,0.817,0.959,1.584,1.727,2.301c0.632,0.593,1.484,1.158,2.556,1.696c0.136,0.078,0.26,0.117,0.372,0.117
	c0.17,0,0.475-0.272,0.915-0.815C18.232,16.582,18.525,16.31,18.673,16.31"/>
</svg>
