<?xml version="1.0" standalone="no"?>
<!DOCTYPE svg PUBLIC "-//W3C//DTD SVG 1.1//EN" "http://www.w3.org/Graphics/SVG/1.1/DTD/svg11.dtd" >
<svg xmlns="http://www.w3.org/2000/svg" xmlns:xlink="http://www.w3.org/1999/xlink" version="1.1">
<metadata>
Created by FontForge 20170910 at Fri Sep 29 17:16:38 2006
 By Jimmy Wärting
(c) 2006 Microsoft Corporation. All Rights Reserved.
</metadata>
<defs>
<font id="Trebuchet-BoldItalic" horiz-adv-x="1200" >
  <font-face 
    font-family="Trebuchet MS"
    font-weight="700"
    font-style="italic"
    font-stretch="normal"
    units-per-em="2048"
    panose-1="2 11 7 3 2 2 2 9 2 4"
    ascent="1638"
    descent="-410"
    x-height="1071"
    cap-height="1464"
    bbox="-221 -571 2367 1977"
    underline-thickness="200"
    underline-position="-361"
    slope="-10"
    unicode-range="U+0020-FB02"
  />
    <missing-glyph />
    <glyph glyph-name="glyph0" horiz-adv-x="1024" 
d="M128 350v768h768v-768h-768zM256 478h512v512h-512v-512z" />
    <glyph glyph-name="glyph1" horiz-adv-x="0" 
 />
    <glyph glyph-name="glyph2" horiz-adv-x="994" 
 />
    <glyph glyph-name="space" unicode=" " horiz-adv-x="617" 
 />
    <glyph glyph-name="exclam" unicode="!" horiz-adv-x="752" 
d="M442 424h-132l10 279q4 109 13.5 202.5t22.5 165.5l78 420h297l-57 -330q-13 -77 -103 -348zM163 141q0 68 49.5 114.5t117.5 46.5t117.5 -46.5t49.5 -114.5t-49 -114.5t-118 -46.5t-118 46.5t-49 114.5z" />
    <glyph glyph-name="quotedbl" unicode="&#x22;" horiz-adv-x="800" 
d="M773 1086h-200l52 381h260zM363 1086h-200l52 381h260z" />
    <glyph glyph-name="numbersign" unicode="#" 
d="M1174 910h-215l-84 -320h154v-181h-202l-120 -429h-195l118 429h-230l-118 -429h-195l118 429h-140v181h189l83 320h-157v181h205l108 396h193l-105 -396h229l108 396h193l-104 -396h167v-181zM769 910h-237l-84 -320h235z" />
    <glyph glyph-name="dollar" unicode="$" 
d="M1025 1180q-108 86 -236 86q-241 0 -241 -183q0 -81 128 -178q158 -119 220 -173.5t103.5 -141t41.5 -190.5q0 -181 -111 -290.5t-309 -134.5l-29 -156h-227l29 161q-134 21 -246 75l84 259q134 -102 311 -102q228 0 228 177q0 49 -31 97.5t-88.5 94.5t-244.5 190
q-128 125 -128 285q0 171 98 285.5t271 145.5l37 199h227l-36 -194q153 -11 229 -49z" />
    <glyph glyph-name="percent" unicode="%" horiz-adv-x="1500" 
d="M199 1027q0 195 109 329.5t285 134.5q250 0 250 -269q0 -187 -107.5 -320.5t-278.5 -133.5q-258 0 -258 259zM398 1058q0 -126 79 -126q82 0 126.5 83t44.5 200q0 112 -86 112q-75 0 -119.5 -81.5t-44.5 -187.5zM310 -20h-208l1190 1511h207zM770 240q0 196 109.5 329.5
t285.5 133.5q249 0 249 -269q0 -187 -107.5 -320.5t-278.5 -133.5q-258 0 -258 260zM969 271q0 -127 79 -127q82 0 126.5 83t44.5 201q0 111 -86 111q-76 0 -120 -82t-44 -186z" />
    <glyph glyph-name="ampersand" unicode="&#x26;" horiz-adv-x="1446" 
d="M1366 691h-250q-40 -178 -52.5 -254.5t-12.5 -141.5q0 -97 86 -97q69 0 177 78v-247q-101 -49 -253 -49q-124 0 -193 63q-157 -63 -337 -63q-186 0 -300 96.5t-114 266.5q0 287 229 487q-85 109 -85 216q0 209 143.5 327t380.5 118q180 0 283 -62l-65 -221
q-92 84 -213 84q-132 0 -208 -64.5t-76 -184.5q0 -81 64 -140h337l32 173l257 37l-41 -213h248zM512 691q-133 -138 -133 -307q0 -186 230 -186q114 0 184 36q0 45 10 99l66 358h-357z" />
    <glyph glyph-name="quotesingle" unicode="'" horiz-adv-x="617" 
d="M475 1086h-200l52 381h260z" />
    <glyph glyph-name="parenleft" unicode="(" horiz-adv-x="752" 
d="M495 -455q-356 264 -356 749q0 360 188 710t479 502v-150q-392 -414 -392 -1246q0 -230 81 -387v-178z" />
    <glyph glyph-name="parenright" unicode=")" horiz-adv-x="752" 
d="M-10 -455v179q182 138 296 505.5t114 705.5q0 251 -89 418v140q177 -75 271 -273t94 -468q0 -360 -188.5 -690.5t-497.5 -516.5z" />
    <glyph glyph-name="asterisk" unicode="*" horiz-adv-x="885" 
d="M782 1102l-133 -11l137 -78l86 -111l-193 -144l-84 122l-53 128l-50 -114l-111 -136l-172 154l119 115l110 57l-135 12l-156 62l98 205l158 -67l71 -76l-54 155v135h236v-131l-46 -162l100 89l141 62l82 -201z" />
    <glyph glyph-name="plus" unicode="+" 
d="M713 535v-355h-201v355h-348v201h348v343h201v-343h349v-201h-349z" />
    <glyph glyph-name="comma" unicode="," horiz-adv-x="752" 
d="M228 -414l-77 101q159 117 159 263q0 56 -58 101t-58 97q0 65 53 107t126 42q71 0 124 -58t53 -133q0 -302 -322 -520z" />
    <glyph glyph-name="hyphen" unicode="-" horiz-adv-x="752" 
d="M88 476l42 235h529l-42 -235h-529z" />
    <glyph glyph-name="hyphen" unicode="&#x2010;" horiz-adv-x="752" 
d="M88 476l42 235h529l-42 -235h-529z" />
    <glyph glyph-name="period" unicode="." horiz-adv-x="752" 
d="M204 139q0 66 46.5 112.5t112.5 46.5t112.5 -46.5t46.5 -112.5t-46.5 -112.5t-112.5 -46.5t-112.5 46.5t-46.5 112.5z" />
    <glyph glyph-name="slash" unicode="/" horiz-adv-x="813" 
d="M226 0h-236l556 1471h234z" />
    <glyph glyph-name="zero" unicode="0" 
d="M91 430q0 458 181 759.5t509 301.5q403 0 403 -435q0 -497 -173.5 -786.5t-509.5 -289.5q-195 0 -302.5 119.5t-107.5 330.5zM361 466q0 -257 156 -257q192 0 294 240t102 589q0 224 -166 224q-176 0 -281 -255.5t-105 -540.5z" />
    <glyph glyph-name="one" unicode="1" 
d="M701 0h-271l190 1024l-293 -143l40 265q356 158 486 325h120z" />
    <glyph glyph-name="two" unicode="2" 
d="M516 239h524l-45 -239h-952v84l582 683q137 161 162.5 199t43 84t17.5 86q0 133 -199 133q-123 0 -228 -150l-184 122q116 250 436 250q204 0 324 -89.5t120 -254.5q0 -100 -58.5 -210t-220.5 -307z" />
    <glyph glyph-name="three" unicode="3" 
d="M852 781q164 -89 164 -285q0 -516 -608 -516q-216 0 -356 150l130 225q114 -146 259 -146q136 0 221 76.5t85 203.5q0 180 -285 180l41 222q313 0 313 223q0 148 -179 148q-102 0 -203 -81l-130 163q145 147 378 147q183 0 296.5 -94.5t113.5 -256.5q0 -108 -66 -206
t-174 -153z" />
    <glyph glyph-name="four" unicode="4" 
d="M985 595h148l-39 -214h-148l-70 -381h-271l70 381h-657l29 158l974 932h126zM408 595h306l66 356z" />
    <glyph glyph-name="five" unicode="5" 
d="M1121 1242h-539l-45 -246q68 25 150 25q156 0 270 -101t114 -255q0 -685 -635 -685q-206 0 -338 126l113 232q46 -54 118 -91.5t136 -37.5q155 0 247.5 118t92.5 292q0 89 -60.5 141t-156.5 52q-132 0 -237 -114l-112 52l125 721h800z" />
    <glyph glyph-name="six" unicode="6" 
d="M929 1495l120 -155q-111 -42 -253 -164t-246 -257q70 23 153 23q182 0 287 -98t105 -271q0 -248 -158.5 -423t-394.5 -175q-426 0 -426 432q0 357 260 687.5t553 400.5zM381 379q0 -175 176 -175q118 0 193 99.5t75 230.5q0 83 -43.5 131t-121.5 48q-132 0 -205.5 -91.5
t-73.5 -242.5z" />
    <glyph glyph-name="seven" unicode="7" 
d="M469 0h-320q206 400 776 1223h-678l46 248h1021v-119q-524 -704 -845 -1352z" />
    <glyph glyph-name="eight" unicode="8" 
d="M896 788q168 -128 168 -317q0 -491 -563 -491q-188 0 -306 95.5t-118 261.5q0 160 83 286t229 196q-125 109 -125 272q0 175 146 287.5t342 112.5q164 0 275.5 -87t111.5 -231q0 -114 -67.5 -219.5t-175.5 -165.5zM708 909q164 133 164 234q0 52 -45.5 85.5t-104.5 33.5
q-185 0 -185 -170q0 -109 171 -183zM624 685q-123 -31 -202.5 -117.5t-79.5 -196.5q0 -72 54.5 -117t134.5 -45q121 0 191 68t70 188q0 134 -168 220z" />
    <glyph glyph-name="nine" unicode="9" 
d="M315 -29l-119 155q119 44 271 175t228 245q-67 -22 -154 -22q-168 0 -279.5 110t-111.5 278q0 262 150 420.5t403 158.5q201 0 313.5 -120.5t112.5 -331.5q0 -342 -241.5 -656.5t-572.5 -411.5zM420 932q0 -179 164 -179q134 0 206.5 90t72.5 244q0 175 -175 175
q-124 0 -196 -93.5t-72 -236.5z" />
    <glyph glyph-name="colon" unicode=":" horiz-adv-x="752" 
d="M164 139q0 66 46.5 112.5t112.5 46.5t112.5 -46.5t46.5 -112.5t-46.5 -112.5t-112.5 -46.5t-112.5 46.5t-46.5 112.5zM290 912q0 66 46.5 112.5t112.5 46.5t112.5 -46.5t46.5 -112.5t-46.5 -112.5t-112.5 -46.5t-112.5 46.5t-46.5 112.5z" />
    <glyph glyph-name="semicolon" unicode=";" horiz-adv-x="752" 
d="M228 -414l-77 101q159 117 159 263q0 56 -58 101t-58 97q0 67 57 110q52 39 122 39q72 0 126 -60q51 -58 51 -131q0 -302 -322 -520zM290 912q0 66 46.5 112.5t112.5 46.5t112.5 -46.5t46.5 -112.5t-46.5 -112.5t-112.5 -46.5t-112.5 46.5t-46.5 112.5z" />
    <glyph glyph-name="less" unicode="&#x3c;" 
d="M192 557v161l799 383v-228l-528 -236l528 -239v-228z" />
    <glyph glyph-name="equal" unicode="=" 
d="M179 745v201h898v-201h-898zM179 325v201h898v-201h-898z" />
    <glyph glyph-name="greater" unicode="&#x3e;" 
d="M265 170v228l527 239l-527 236v228l799 -383v-161z" />
    <glyph glyph-name="question" unicode="?" horiz-adv-x="813" 
d="M303 415h-146q-1 15 -8.5 56t-7.5 64q0 132 108 253l189 177q60 57 90 112t30 108q0 109 -141 109q-111 0 -204 -71l-85 169q113 99 346 99q147 0 236 -79.5t89 -218.5q0 -89 -38 -175t-107 -146l-172 -149q-102 -88 -135 -139q-44 -67 -44 -135v-34zM56 141
q0 68 49.5 114.5t117.5 46.5t117.5 -46.5t49.5 -114.5t-49 -114.5t-118 -46.5t-118 46.5t-49 114.5z" />
    <glyph glyph-name="at" unicode="@" horiz-adv-x="1578" 
d="M905 308q-92 -90 -223 -90q-121 0 -195 67t-74 187q0 196 136.5 344.5t331.5 148.5q99 0 279 -76q-69 -251 -78 -315.5t-9 -109.5q0 -71 52 -71q106 0 168 113t62 262q0 180 -119 288.5t-307 108.5q-293 0 -479 -205t-186 -511q0 -203 126 -328.5t329 -125.5
q106 0 210.5 35t159.5 93l117 -143q-89 -74 -233 -119.5t-276 -45.5q-281 0 -459 169t-178 443q0 395 251.5 656.5t639.5 261.5q276 0 442.5 -145t166.5 -399q0 -227 -126 -399.5t-325 -172.5q-130 0 -204 79zM874 812q-101 0 -171 -105t-70 -224q0 -95 82 -95
q71 0 118.5 52t64.5 132t42 215q-29 25 -66 25z" />
    <glyph glyph-name="A" unicode="A" horiz-adv-x="1257" 
d="M918 0l-46 298h-524l-172 -298h-271l890 1485h93l301 -1485h-271zM760 1040l-301 -547h384z" />
    <glyph glyph-name="B" unicode="B" horiz-adv-x="1208" 
d="M961 818q75 -33 125.5 -126t50.5 -198q0 -253 -178 -379.5t-577 -126.5q-131 0 -328 12l268 1463q168 24 299 24q546 0 546 -360q0 -96 -58.5 -180.5t-147.5 -128.5zM548 1260l-63 -358q59 -3 108 -3q143 0 228 60.5t85 174.5q0 132 -232 132q-48 0 -126 -6zM451 714
l-94 -501q46 -5 88 -5q200 0 314 68.5t114 196.5q0 245 -321 245q-50 0 -101 -4z" />
    <glyph glyph-name="C" unicode="C" horiz-adv-x="1255" 
d="M1165 1183q-114 81 -253 81q-225 0 -377.5 -214.5t-152.5 -475.5q0 -169 83 -270t231 -101q230 0 361 125l-5 -229q-142 -124 -409 -124q-238 0 -384 156.5t-146 406.5q0 404 224.5 678t586.5 274q177 0 314 -58z" />
    <glyph glyph-name="D" unicode="D" horiz-adv-x="1295" 
d="M397 0h-354l267 1462q146 26 274 26q335 0 518 -153t183 -443q0 -407 -242 -649.5t-646 -242.5zM527 1251l-178 -1018q44 -4 80 -4q268 0 426 189t158 485q0 162 -109 260t-280 98q-48 0 -97 -10z" />
    <glyph glyph-name="E" unicode="E" horiz-adv-x="1215" 
d="M1212 1237h-675l-61 -337h484l-41 -218h-484l-82 -454h664l-43 -228h-932l270 1465h943z" />
    <glyph glyph-name="F" unicode="F" horiz-adv-x="1199" 
d="M1240 1237h-705l-61 -337h515l-41 -218h-515l-125 -682h-267l272 1465h969z" />
    <glyph glyph-name="G" unicode="G" horiz-adv-x="1385" 
d="M1204 133q-226 -158 -553 -158q-252 0 -409.5 161.5t-157.5 409.5q0 435 239.5 689.5t652.5 254.5q224 0 333 -100l-78 -217q-147 89 -293 89q-264 0 -424 -193.5t-160 -484.5q0 -180 99 -280.5t271 -100.5q143 0 250 79l53 290h-203l40 218h461z" />
    <glyph glyph-name="H" unicode="H" horiz-adv-x="1389" 
d="M1162 0h-263l125 682h-582l-125 -682h-264l269 1465h264l-104 -565h582l104 565h265z" />
    <glyph glyph-name="I" unicode="I" horiz-adv-x="570" 
d="M329 0h-261l269 1465h262z" />
    <glyph glyph-name="J" unicode="J" horiz-adv-x="1021" 
d="M-3 336h229q-2 -128 107 -128q84 0 140 28t83.5 84.5t58.5 229.5l167 915h258l-168 -916q-63 -344 -194.5 -456.5t-374.5 -112.5q-142 0 -227 75.5t-85 206.5q0 30 6 74z" />
    <glyph glyph-name="K" unicode="K" horiz-adv-x="1331" 
d="M815 821l364 -821h-293l-274 626l-208 -229l-74 -397h-260l269 1465h260l-121 -666l608 666h308z" />
    <glyph glyph-name="L" unicode="L" horiz-adv-x="1082" 
d="M974 0h-924l269 1465h262l-227 -1237h662z" />
    <glyph glyph-name="M" unicode="M" horiz-adv-x="1610" 
d="M1240 0l-17 793l-445 -813h-91l-145 821l-307 -801h-251l544 1465h146l148 -929l484 929h150l42 -1465h-258z" />
    <glyph glyph-name="N" unicode="N" horiz-adv-x="1352" 
d="M1113 -20h-101l-540 947l-162 -927h-258l269 1465h120l529 -908l159 908h257z" />
    <glyph glyph-name="O" unicode="O" horiz-adv-x="1438" 
d="M99 545q0 391 213.5 668.5t555.5 277.5q263 0 405 -139.5t142 -403.5q0 -433 -218 -703t-597 -270q-232 0 -366.5 156.5t-134.5 413.5zM369 572q0 -169 67 -269t196 -100q238 0 376 214t138 511q0 336 -296 336q-208 0 -344.5 -220t-136.5 -472z" />
    <glyph glyph-name="P" unicode="P" horiz-adv-x="1195" 
d="M414 538l-99 -538h-266l276 1463q209 22 319 22q581 0 581 -437q0 -246 -176.5 -386.5t-457.5 -140.5q-90 0 -177 17zM542 1243l-87 -483q51 -14 130 -14q170 0 270 73t100 210q0 231 -262 231q-70 0 -151 -17z" />
    <glyph glyph-name="Q" unicode="Q" horiz-adv-x="1576" 
d="M781 -18q-75 -18 -163 -18q-241 0 -371.5 152.5t-130.5 422.5q0 393 213 672.5t556 279.5q262 0 404.5 -141.5t142.5 -404.5q0 -310 -118 -550t-336 -342q42 -85 145 -132.5t220 -47.5q123 0 229 72l96 -156q-128 -161 -377 -161q-169 0 -308.5 96.5t-201.5 257.5z
M386 566q0 -173 67.5 -272.5t196.5 -99.5q237 0 375 215t138 515q0 338 -295 338q-208 0 -345 -221.5t-137 -474.5z" />
    <glyph glyph-name="R" unicode="R" horiz-adv-x="1277" 
d="M845 649l327 -649h-293l-280 606q-68 1 -167 8l-113 -614h-268l268 1465q292 15 383 15q237 0 374.5 -91.5t137.5 -264.5q0 -176 -100.5 -305.5t-268.5 -169.5zM546 1240l-75 -410q59 -6 105 -6q378 0 378 240q0 101 -72.5 143.5t-240.5 42.5q-14 0 -95 -10z" />
    <glyph glyph-name="S" unicode="S" horiz-adv-x="1027" 
d="M940 1176q-116 85 -236 85q-241 0 -241 -182q0 -77 128 -184l151 -128q70 -60 97 -87.5t57 -76.5t45 -99t15 -102q0 -201 -150.5 -314t-390.5 -113q-197 0 -372 85l84 257q134 -101 311 -101q107 0 177.5 45.5t70.5 129.5q0 83 -128 183l-157 125q-72 58 -97.5 84
t-53.5 72.5t-42 95.5t-14 101q0 202 134 320t351 118q72 0 184 -16.5t157 -37.5z" />
    <glyph glyph-name="T" unicode="T" horiz-adv-x="1403" 
d="M1391 1237h-462l-226 -1237h-263l226 1237h-466l42 228h1192z" />
    <glyph glyph-name="U" unicode="U" horiz-adv-x="1355" 
d="M1217 451q-42 -226 -210 -351t-416 -125q-207 0 -337.5 99.5t-130.5 274.5q0 53 11 113l184 1003h268l-187 -998q-5 -27 -5 -57q0 -99 61 -153t166 -54q134 0 223 73t113 205l183 984h264z" />
    <glyph glyph-name="V" unicode="V" horiz-adv-x="1399" 
d="M674 -20h-142l-294 1485h278l175 -972l514 972h291z" />
    <glyph glyph-name="W" unicode="W" horiz-adv-x="1897" 
d="M1272 -20h-105l-159 894l-475 -894h-105l-207 1485h265l111 -888l462 888h113l136 -882l428 882h282z" />
    <glyph glyph-name="X" unicode="X" horiz-adv-x="1345" 
d="M848 741l345 -741h-287l-232 517l-394 -517h-303l588 772l-279 694l268 -1l189 -488l395 488h303z" />
    <glyph glyph-name="Y" unicode="Y" horiz-adv-x="1400" 
d="M848 648l-119 -648h-258l121 656l-345 809h271l236 -573l439 573h297z" />
    <glyph glyph-name="Z" unicode="Z" horiz-adv-x="1252" 
d="M482 228h597l-43 -228h-949v83l793 1154h-602l42 228h928v-83z" />
    <glyph glyph-name="bracketleft" unicode="[" horiz-adv-x="994" 
d="M923 1278h-263l-267 -1466h263l-43 -232h-544l353 1930h544z" />
    <glyph glyph-name="backslash" unicode="\" horiz-adv-x="978" 
d="M710 0l-539 1471h216l540 -1471h-217z" />
    <glyph glyph-name="bracketright" unicode="]" horiz-adv-x="994" 
d="M552 -420h-544l43 232h263l267 1466h-263l43 232h544z" />
    <glyph glyph-name="asciicircum" unicode="^" 
d="M887 907l-214 358l-218 -362h-192l358 568h107l356 -564h-197z" />
    <glyph glyph-name="underscore" unicode="_" 
d="M-8 -334v209h1215v-209h-1215z" />
    <glyph glyph-name="grave" unicode="`" 
d="M637 1285l-153 333h280l35 -333h-162z" />
    <glyph glyph-name="a" unicode="a" horiz-adv-x="1214" 
d="M988 384q-7 -37 -7 -82q0 -220 34 -302h-156q-70 0 -104 107q-128 -127 -319 -127q-174 0 -269.5 98t-95.5 273q0 305 184.5 522.5t465.5 217.5q271 0 391 -50zM699 887q-168 0 -268 -160.5t-100 -369.5q0 -173 170 -173q108 0 188.5 133t143.5 550q-71 20 -134 20z" />
    <glyph glyph-name="b" unicode="b" horiz-adv-x="1215" 
d="M518 -20q-159 0 -234 101l-80 -81h-183q96 245 131 440l190 1070h244l-84 -479q93 60 227 60q201 0 317 -134q110 -127 110 -332q0 -267 -186 -456t-452 -189zM632 880q-101 0 -174 -86l-97 -529q38 -78 151 -78q175 0 280 126q98 119 98 297q0 270 -258 270z" />
    <glyph glyph-name="c" unicode="c" horiz-adv-x="1009" 
d="M927 806q-105 77 -212 77q-172 0 -276.5 -128.5t-104.5 -321.5q0 -100 59 -171t152 -71q134 0 315 114l-30 -261q-153 -64 -315 -64q-203 0 -321.5 112.5t-118.5 309.5q0 299 173 494t453 195q160 0 277 -66z" />
    <glyph glyph-name="d" unicode="d" horiz-adv-x="1215" 
d="M969 0h-249l19 100q-83 -120 -275 -120q-188 0 -294 110.5t-106 300.5q0 307 171 503.5t455 196.5q54 0 121 -21t97 -46l92 486h242zM707 880q-173 0 -275.5 -127t-102.5 -323q0 -244 202 -244q218 0 283 348l48 256q-48 90 -155 90z" />
    <glyph glyph-name="e" unicode="e" horiz-adv-x="1130" 
d="M343 465q-2 -26 -2 -45q0 -112 66.5 -172t184.5 -60q63 0 145 34.5t129 77.5l-29 -263q-127 -57 -310 -57q-198 0 -321 125t-123 343q0 276 177.5 459.5t464.5 183.5q169 0 274 -71.5t105 -204.5q0 -181 -156.5 -284t-385.5 -103q-112 0 -219 37zM391 654q65 -19 141 -19
q136 0 230 41.5t94 119.5q0 87 -190 87q-75 0 -153 -65.5t-122 -163.5z" />
    <glyph glyph-name="f" unicode="f" horiz-adv-x="840" 
d="M929 1271q-81 36 -139 36q-144 0 -198 -236h246l-25 -201h-252l-160 -938q-26 -153 -141 -252t-269 -100l-53 166q71 16 128 71t70 125l167 928h-151l33 201h148q103 439 469 439q104 0 177 -43z" />
    <glyph glyph-name="g" unicode="g" horiz-adv-x="1096" 
d="M995 885q22 -50 22 -120q0 -156 -67.5 -270t-222.5 -185t-170 -96q68 13 106 13q112 0 191 -68.5t79 -174.5q0 -194 -136.5 -299t-395.5 -105q-97 0 -212.5 38t-188.5 94l109 189q143 -102 297 -102q278 0 278 150q0 32 -28.5 53t-86.5 32l-191 34q-107 33 -107 124
q0 53 88 107q-108 31 -176.5 116.5t-68.5 190.5q0 216 143 350.5t367 134.5q138 0 233 -59l94 102l147 -146zM368 628q0 -80 36 -131t99 -51q110 0 182 87.5t72 212.5q0 141 -147 141q-111 0 -176.5 -72.5t-65.5 -186.5z" />
    <glyph glyph-name="h" unicode="h" horiz-adv-x="1151" 
d="M1080 655l-123 -655h-257l126 665q6 32 6 65q0 150 -150 150q-135 0 -243 -114l-142 -766h-255l272 1510h249l-82 -504q133 85 281 85q154 0 241.5 -86t87.5 -240q0 -51 -11 -110z" />
    <glyph glyph-name="i" unicode="i" horiz-adv-x="669" 
d="M323 1415q0 67 47.5 111.5t115.5 44.5q67 0 115 -44.5t48 -111.5q0 -66 -48 -111t-115 -45t-115 44.5t-48 111.5zM397 0h-254l162 870h-137l42 201h387z" />
    <glyph glyph-name="j" unicode="j" horiz-adv-x="794" 
d="M444 1413q0 67 47.5 112.5t115.5 45.5t115.5 -45.5t47.5 -112.5t-48 -112t-115 -45t-115 45t-48 112zM512 15q-41 -222 -191 -328.5t-466 -106.5l11 221q140 0 216 19t121.5 69t60.5 132l152 849h-144l47 201h389z" />
    <glyph glyph-name="k" unicode="k" horiz-adv-x="1105" 
d="M763 0l-339 441l-42 -35l-71 -406h-251l262 1510h246l-129 -795l189 164q193 168 256 256l175 -151q-44 -54 -442 -405l442 -579h-296z" />
    <glyph glyph-name="l" unicode="l" horiz-adv-x="655" 
d="M477 84q-59 -94 -179 -94q-90 0 -142 59t-52 153q0 122 48 351l201 957h248l-206 -997q-44 -213 -44 -304q0 -58 36 -91.5t90 -33.5z" />
    <glyph glyph-name="m" unicode="m" horiz-adv-x="1700" 
d="M1650 702l-131 -702h-256l127 676q6 32 6 68q0 139 -147 139q-52 0 -113 -36t-91 -78l-143 -769h-256l142 755q2 11 2 24q0 104 -159 104q-48 0 -108.5 -35.5t-96.5 -81.5l-143 -766h-255l145 774q5 27 5 84q0 99 -28 193l245 43q13 -51 22 -97q121 94 302 94
q212 0 300 -115q127 115 320 115q321 0 321 -292q0 -43 -10 -97z" />
    <glyph glyph-name="n" unicode="n" horiz-adv-x="1151" 
d="M947 0h-259l117 624q14 75 14 126q0 133 -157 133q-134 0 -241 -113l-143 -770h-251l151 803q4 21 4 58q0 89 -29 190l245 45l23 -120q132 115 331 115q330 0 330 -309q0 -55 -14 -130z" />
    <glyph glyph-name="o" unicode="o" horiz-adv-x="1167" 
d="M72 401q0 290 177 490t448 200q207 0 319 -107.5t112 -305.5q0 -296 -175 -497t-452 -201q-203 0 -316 108.5t-113 312.5zM332 413q0 -229 197 -229q156 0 247 144.5t91 342.5q0 216 -197 216q-153 0 -245.5 -142.5t-92.5 -331.5z" />
    <glyph glyph-name="p" unicode="p" horiz-adv-x="1226" 
d="M305 29l-80 -449h-250l216 1160q12 64 12 129q0 88 -18 177l244 44q14 -38 23 -102q139 103 276 103q429 0 429 -416q0 -305 -176 -500t-465 -195q-115 0 -211 49zM344 242q49 -51 145 -51q197 0 301.5 119.5t104.5 339.5q0 102 -63 163.5t-173 61.5q-49 0 -115.5 -32.5
t-99.5 -71.5z" />
    <glyph glyph-name="q" unicode="q" horiz-adv-x="1226" 
d="M886 -420h-251l86 474q-108 -74 -257 -74q-193 0 -304 108t-111 301q0 300 182 501t469 201q62 0 140.5 -27.5t114.5 -65.5q22 34 53 51t60.5 20t122.5 3q-55 -138 -92 -339zM756 245l107 576q-60 59 -159 59q-176 0 -283.5 -127.5t-107.5 -318.5q0 -115 65 -179t180 -64
q118 0 198 54z" />
    <glyph glyph-name="r" unicode="r" horiz-adv-x="915" 
d="M869 817q-89 66 -157 66q-97 0 -177.5 -84.5t-101.5 -193.5l-113 -605h-251l200 1071h251l-17 -93q133 113 294 113q41 0 147 -19z" />
    <glyph glyph-name="s" unicode="s" horiz-adv-x="940" 
d="M791 778q-120 105 -220 105q-62 0 -107.5 -28.5t-45.5 -76.5q0 -59 108.5 -114t166.5 -87.5t95 -88t37 -127.5q0 -177 -132.5 -279t-338.5 -102q-176 0 -344 99l132 227q125 -118 245 -118q76 0 125.5 38t49.5 103q0 54 -94 103t-166 89.5t-109.5 99t-37.5 129.5
q0 156 124.5 248.5t305.5 92.5q124 0 322 -84z" />
    <glyph glyph-name="t" unicode="t" horiz-adv-x="897" 
d="M841 870h-295l-108 -475q-13 -57 -13 -95q0 -110 124 -110q55 0 180 52v-225q-108 -37 -294 -37q-122 0 -196 76t-74 198q0 40 9 79l121 537h-124l43 201h124l42 219l286 104l-75 -323h293z" />
    <glyph glyph-name="u" unicode="u" horiz-adv-x="1141" 
d="M928 -1h-250l15 78q-134 -97 -336 -97q-138 0 -216.5 79t-78.5 219q0 44 11 103l129 690h254l-127 -680q-8 -43 -8 -73q0 -130 146 -130q119 0 199.5 77.5t100.5 186.5l110 619h251z" />
    <glyph glyph-name="v" unicode="v" horiz-adv-x="1131" 
d="M511 -20h-90l-328 1091h261l180 -649l377 649h290z" />
    <glyph glyph-name="w" unicode="w" horiz-adv-x="1584" 
d="M1064 -20h-90l-187 619l-401 -619h-92l-211 1091h254l107 -590l367 590h90l177 -597l309 597h265z" />
    <glyph glyph-name="x" unicode="x" horiz-adv-x="1179" 
d="M755 538l311 -538h-305l-176 333l-285 -333h-308l466 559l-284 512h292l169 -325l258 325h315z" />
    <glyph glyph-name="y" unicode="y" horiz-adv-x="1155" 
d="M620 -107q-149 -311 -578 -313v241q283 1 363 183l52 120q-137 39 -185 288l-127 659h263q117 -704 149 -735l344 735h283z" />
    <glyph glyph-name="z" unicode="z" horiz-adv-x="1091" 
d="M447 217h508l-41 -217h-886v85l626 769h-525l41 217h892v-89z" />
    <glyph glyph-name="braceleft" unicode="{" horiz-adv-x="994" 
d="M1016 1306l-151 3q-131 0 -175.5 -52.5t-44.5 -161.5q0 -32 8 -94t8 -94q0 -201 -242 -340q144 -83 144 -216q0 -74 -68 -217.5t-68 -219.5q0 -132 222 -132h47l42 1l-36 -203h-169q-164 0 -273 72.5t-109 201.5q0 90 79.5 257.5t79.5 253.5q0 116 -182 128l26 143
q250 18 250 262q0 39 -9 115t-9 115q0 171 137 272.5t339 101.5h190z" />
    <glyph glyph-name="bar" unicode="|" 
d="M505 -420v1930h206v-1930h-206z" />
    <glyph glyph-name="braceright" unicode="}" horiz-adv-x="994" 
d="M872 492q-250 -16 -250 -268q0 -39 7 -116.5t7 -116.5q0 -192 -135.5 -301.5t-354.5 -109.5h-181l36 203q149 0 228 21.5t116.5 84.5t37.5 166q0 32 -6 97t-6 97q0 213 240 324q-142 107 -142 230q0 72 65 205.5t65 205.5q0 92 -102 92h-217l36 196h177q159 0 267 -71.5
t108 -195.5q0 -80 -75 -230t-75 -229q0 -127 180 -141z" />
    <glyph glyph-name="asciitilde" unicode="~" 
d="M326 479h-146q21 120 78.5 193.5t141.5 73.5q48 0 96 -10t197 -56q41 -11 73 -11q60 0 87 77h148q-38 -148 -92 -207.5t-139 -59.5q-47 0 -96 10t-144.5 38.5t-114.5 28.5q-52 0 -89 -77z" />
    <glyph glyph-name="Adieresis" unicode="&#xc4;" horiz-adv-x="1257" 
d="M918 0l-46 298h-524l-172 -298h-271l890 1485h93l301 -1485h-271zM760 1040l-301 -547h384zM944 1771q0 51 45 81.5t102 30.5q58 0 103 -31.5t45 -80.5q0 -51 -44.5 -82t-103.5 -31q-58 0 -102.5 31t-44.5 82zM471 1771q0 49 45 80.5t103 31.5q57 0 102 -30.5t45 -81.5
q0 -50 -45 -81.5t-102 -31.5q-59 0 -103.5 31t-44.5 82z" />
    <glyph glyph-name="Aring" unicode="&#xc5;" horiz-adv-x="1257" 
d="M918 0l-46 298h-524l-172 -298h-271l890 1485h93l301 -1485h-271zM760 1040l-301 -547h384zM846 1504q-99 0 -173 60t-74 150t74 149.5t173 59.5q100 0 173 -59t73 -150t-73.5 -150.5t-172.5 -59.5zM849 1802q-51 0 -89 -26t-38 -66q0 -39 38 -65t89 -26t89 26t38 65
q0 40 -38 66t-89 26z" />
    <glyph glyph-name="Ccedilla" unicode="&#xc7;" horiz-adv-x="1255" 
d="M1165 1183q-114 81 -253 81q-225 0 -377.5 -214.5t-152.5 -475.5q0 -169 83 -270t231 -101q230 0 361 125l-5 -229q-142 -124 -409 -124q-238 0 -384 156.5t-146 406.5q0 404 224.5 678t586.5 274q177 0 314 -58zM338 -450v123q18 -5 39 -5q58 0 108 25q63 31 63 83
q0 35 -29 64.5t-64 30.5l62 86q230 -15 230 -186q0 -115 -109 -176q-89 -50 -213 -50q-15 0 -87 5z" />
    <glyph glyph-name="Eacute" unicode="&#xc9;" horiz-adv-x="1215" 
d="M1212 1237h-675l-61 -337h484l-41 -218h-484l-82 -454h664l-43 -228h-932l270 1465h943zM843 1585h-216l205 333h284z" />
    <glyph glyph-name="Ntilde" unicode="&#xd1;" horiz-adv-x="1352" 
d="M1113 -20h-101l-540 947l-162 -927h-258l269 1465h120l529 -908l159 908h257zM641 1655h-160q23 105 90 179t153 74q49 0 150.5 -43t124.5 -43q33 0 62 26t34 60h162q-19 -87 -90 -170t-150 -83q-32 0 -144 46.5t-149 46.5q-56 0 -83 -93z" />
    <glyph glyph-name="Odieresis" unicode="&#xd6;" horiz-adv-x="1438" 
d="M99 545q0 391 213.5 668.5t555.5 277.5q263 0 405 -139.5t142 -403.5q0 -433 -218 -703t-597 -270q-232 0 -366.5 156.5t-134.5 413.5zM369 572q0 -169 67 -269t196 -100q238 0 376 214t138 511q0 336 -296 336q-208 0 -344.5 -220t-136.5 -472zM988 1771q0 51 45 81.5
t102 30.5q58 0 103 -31.5t45 -80.5q0 -51 -44.5 -82t-103.5 -31q-58 0 -102.5 31t-44.5 82zM515 1771q0 49 45 80.5t103 31.5q57 0 102 -30.5t45 -81.5q0 -50 -45 -81.5t-102 -31.5q-59 0 -103.5 31t-44.5 82z" />
    <glyph glyph-name="Udieresis" unicode="&#xdc;" horiz-adv-x="1355" 
d="M1217 451q-42 -226 -210 -351t-416 -125q-207 0 -337.5 99.5t-130.5 274.5q0 53 11 113l184 1003h268l-187 -998q-5 -27 -5 -57q0 -99 61 -153t166 -54q134 0 223 73t113 205l183 984h264zM989 1771q0 51 45 81.5t102 30.5q58 0 103 -31.5t45 -80.5q0 -51 -44.5 -82
t-103.5 -31q-58 0 -102.5 31t-44.5 82zM516 1771q0 49 45 80.5t103 31.5q57 0 102 -30.5t45 -81.5q0 -50 -45 -81.5t-102 -31.5q-59 0 -103.5 31t-44.5 82z" />
    <glyph glyph-name="aacute" unicode="&#xe1;" horiz-adv-x="1214" 
d="M988 384q-7 -37 -7 -82q0 -220 34 -302h-156q-70 0 -104 107q-128 -127 -319 -127q-174 0 -269.5 98t-95.5 273q0 305 184.5 522.5t465.5 217.5q271 0 391 -50zM699 887q-168 0 -268 -160.5t-100 -369.5q0 -173 170 -173q108 0 188.5 133t143.5 550q-71 20 -134 20z
M775 1285h-216l205 333h284z" />
    <glyph glyph-name="agrave" unicode="&#xe0;" horiz-adv-x="1214" 
d="M988 384q-7 -37 -7 -82q0 -220 34 -302h-156q-70 0 -104 107q-128 -127 -319 -127q-174 0 -269.5 98t-95.5 273q0 305 184.5 522.5t465.5 217.5q271 0 391 -50zM699 887q-168 0 -268 -160.5t-100 -369.5q0 -173 170 -173q108 0 188.5 133t143.5 550q-71 20 -134 20z
M662 1285l-153 333h280l35 -333h-162z" />
    <glyph glyph-name="acircumflex" unicode="&#xe2;" horiz-adv-x="1214" 
d="M988 384q-7 -37 -7 -82q0 -220 34 -302h-156q-70 0 -104 107q-128 -127 -319 -127q-174 0 -269.5 98t-95.5 273q0 305 184.5 522.5t465.5 217.5q271 0 391 -50zM699 887q-168 0 -268 -160.5t-100 -369.5q0 -173 170 -173q108 0 188.5 133t143.5 550q-71 20 -134 20z
M878 1285l-118 143l-191 -146h-271l432 358h139l290 -355h-281z" />
    <glyph glyph-name="adieresis" unicode="&#xe4;" horiz-adv-x="1214" 
d="M988 384q-7 -37 -7 -82q0 -220 34 -302h-156q-70 0 -104 107q-128 -127 -319 -127q-174 0 -269.5 98t-95.5 273q0 305 184.5 522.5t465.5 217.5q271 0 391 -50zM699 887q-168 0 -268 -160.5t-100 -369.5q0 -173 170 -173q108 0 188.5 133t143.5 550q-71 20 -134 20z
M830 1401q0 51 45 81.5t102 30.5q58 0 103 -31.5t45 -80.5q0 -51 -44.5 -82t-103.5 -31q-58 0 -102.5 31t-44.5 82zM357 1401q0 49 45 80.5t103 31.5q57 0 102 -30.5t45 -81.5q0 -50 -45 -81.5t-102 -31.5q-59 0 -103.5 31t-44.5 82z" />
    <glyph glyph-name="atilde" unicode="&#xe3;" horiz-adv-x="1214" 
d="M988 384q-7 -37 -7 -82q0 -220 34 -302h-156q-70 0 -104 107q-128 -127 -319 -127q-174 0 -269.5 98t-95.5 273q0 305 184.5 522.5t465.5 217.5q271 0 391 -50zM699 887q-168 0 -268 -160.5t-100 -369.5q0 -173 170 -173q108 0 188.5 133t143.5 550q-71 20 -134 20z
M484 1285h-160q23 105 90 179t153 74q49 0 150.5 -43t124.5 -43q33 0 62 26t34 60h162q-19 -87 -90 -170t-150 -83q-32 0 -144 46.5t-149 46.5q-56 0 -83 -93z" />
    <glyph glyph-name="aring" unicode="&#xe5;" horiz-adv-x="1214" 
d="M988 384q-7 -37 -7 -82q0 -220 34 -302h-156q-70 0 -104 107q-128 -127 -319 -127q-174 0 -269.5 98t-95.5 273q0 305 184.5 522.5t465.5 217.5q271 0 391 -50zM699 887q-168 0 -268 -160.5t-100 -369.5q0 -173 170 -173q108 0 188.5 133t143.5 550q-71 20 -134 20z
M771 1285q-99 0 -173 60t-74 150t74 149.5t173 59.5q100 0 173 -59t73 -150t-73.5 -150.5t-172.5 -59.5zM774 1583q-51 0 -89 -26t-38 -66q0 -39 38 -65t89 -26t89 26t38 65q0 40 -38 66t-89 26z" />
    <glyph glyph-name="ccedilla" unicode="&#xe7;" horiz-adv-x="1009" 
d="M927 806q-105 77 -212 77q-172 0 -276.5 -128.5t-104.5 -321.5q0 -100 59 -171t152 -71q134 0 315 114l-30 -261q-153 -64 -315 -64q-203 0 -321.5 112.5t-118.5 309.5q0 299 173 494t453 195q160 0 277 -66zM243 -450v123q18 -5 39 -5q58 0 108 25q63 31 63 83
q0 35 -29 64.5t-64 30.5l62 86q230 -15 230 -186q0 -115 -109 -176q-89 -50 -213 -50q-15 0 -87 5z" />
    <glyph glyph-name="eacute" unicode="&#xe9;" horiz-adv-x="1130" 
d="M343 465q-2 -26 -2 -45q0 -112 66.5 -172t184.5 -60q63 0 145 34.5t129 77.5l-29 -263q-127 -57 -310 -57q-198 0 -321 125t-123 343q0 276 177.5 459.5t464.5 183.5q169 0 274 -71.5t105 -204.5q0 -181 -156.5 -284t-385.5 -103q-112 0 -219 37zM391 654q65 -19 141 -19
q136 0 230 41.5t94 119.5q0 87 -190 87q-75 0 -153 -65.5t-122 -163.5zM755 1285h-216l205 333h284z" />
    <glyph glyph-name="egrave" unicode="&#xe8;" horiz-adv-x="1130" 
d="M343 465q-2 -26 -2 -45q0 -112 66.5 -172t184.5 -60q63 0 145 34.5t129 77.5l-29 -263q-127 -57 -310 -57q-198 0 -321 125t-123 343q0 276 177.5 459.5t464.5 183.5q169 0 274 -71.5t105 -204.5q0 -181 -156.5 -284t-385.5 -103q-112 0 -219 37zM391 654q65 -19 141 -19
q136 0 230 41.5t94 119.5q0 87 -190 87q-75 0 -153 -65.5t-122 -163.5zM677 1285l-153 333h280l35 -333h-162z" />
    <glyph glyph-name="ecircumflex" unicode="&#xea;" horiz-adv-x="1130" 
d="M343 465q-2 -26 -2 -45q0 -112 66.5 -172t184.5 -60q63 0 145 34.5t129 77.5l-29 -263q-127 -57 -310 -57q-198 0 -321 125t-123 343q0 276 177.5 459.5t464.5 183.5q169 0 274 -71.5t105 -204.5q0 -181 -156.5 -284t-385.5 -103q-112 0 -219 37zM391 654q65 -19 141 -19
q136 0 230 41.5t94 119.5q0 87 -190 87q-75 0 -153 -65.5t-122 -163.5zM893 1285l-118 143l-191 -146h-271l432 358h139l290 -355h-281z" />
    <glyph glyph-name="edieresis" unicode="&#xeb;" horiz-adv-x="1130" 
d="M343 465q-2 -26 -2 -45q0 -112 66.5 -172t184.5 -60q63 0 145 34.5t129 77.5l-29 -263q-127 -57 -310 -57q-198 0 -321 125t-123 343q0 276 177.5 459.5t464.5 183.5q169 0 274 -71.5t105 -204.5q0 -181 -156.5 -284t-385.5 -103q-112 0 -219 37zM391 654q65 -19 141 -19
q136 0 230 41.5t94 119.5q0 87 -190 87q-75 0 -153 -65.5t-122 -163.5zM790 1401q0 51 45 81.5t102 30.5q58 0 103 -31.5t45 -80.5q0 -51 -44.5 -82t-103.5 -31q-58 0 -102.5 31t-44.5 82zM317 1401q0 49 45 80.5t103 31.5q57 0 102 -30.5t45 -81.5q0 -50 -45 -81.5
t-102 -31.5q-59 0 -103.5 31t-44.5 82z" />
    <glyph glyph-name="iacute" unicode="&#xed;" horiz-adv-x="669" 
d="M397 0h-254l162 870h-137l42 201h387zM524 1285h-216l205 333h284z" />
    <glyph glyph-name="igrave" unicode="&#xec;" horiz-adv-x="669" 
d="M397 0h-254l162 870h-137l42 201h387zM358 1285l-153 333h280l35 -333h-162z" />
    <glyph glyph-name="icircumflex" unicode="&#xee;" horiz-adv-x="669" 
d="M397 0h-254l162 870h-137l42 201h387zM603 1285l-118 143l-191 -146h-271l432 358h139l290 -355h-281z" />
    <glyph glyph-name="idieresis" unicode="&#xef;" horiz-adv-x="669" 
d="M397 0h-254l162 870h-137l42 201h387zM545 1401q0 51 45 81.5t102 30.5q58 0 103 -31.5t45 -80.5q0 -51 -44.5 -82t-103.5 -31q-58 0 -102.5 31t-44.5 82zM72 1401q0 49 45 80.5t103 31.5q57 0 102 -30.5t45 -81.5q0 -50 -45 -81.5t-102 -31.5q-59 0 -103.5 31t-44.5 82z
" />
    <glyph glyph-name="ntilde" unicode="&#xf1;" horiz-adv-x="1151" 
d="M947 0h-259l117 624q14 75 14 126q0 133 -157 133q-134 0 -241 -113l-143 -770h-251l151 803q4 21 4 58q0 89 -29 190l245 45l23 -120q132 115 331 115q330 0 330 -309q0 -55 -14 -130zM443 1285h-160q23 105 90 179t153 74q49 0 150.5 -43t124.5 -43q33 0 62 26t34 60
h162q-19 -87 -90 -170t-150 -83q-32 0 -144 46.5t-149 46.5q-56 0 -83 -93z" />
    <glyph glyph-name="oacute" unicode="&#xf3;" horiz-adv-x="1167" 
d="M72 401q0 290 177 490t448 200q207 0 319 -107.5t112 -305.5q0 -296 -175 -497t-452 -201q-203 0 -316 108.5t-113 312.5zM332 413q0 -229 197 -229q156 0 247 144.5t91 342.5q0 216 -197 216q-153 0 -245.5 -142.5t-92.5 -331.5zM725 1285h-216l205 333h284z" />
    <glyph glyph-name="ograve" unicode="&#xf2;" horiz-adv-x="1167" 
d="M72 401q0 290 177 490t448 200q207 0 319 -107.5t112 -305.5q0 -296 -175 -497t-452 -201q-203 0 -316 108.5t-113 312.5zM332 413q0 -229 197 -229q156 0 247 144.5t91 342.5q0 216 -197 216q-153 0 -245.5 -142.5t-92.5 -331.5zM637 1285l-153 333h280l35 -333h-162z
" />
    <glyph glyph-name="ocircumflex" unicode="&#xf4;" horiz-adv-x="1167" 
d="M72 401q0 290 177 490t448 200q207 0 319 -107.5t112 -305.5q0 -296 -175 -497t-452 -201q-203 0 -316 108.5t-113 312.5zM332 413q0 -229 197 -229q156 0 247 144.5t91 342.5q0 216 -197 216q-153 0 -245.5 -142.5t-92.5 -331.5zM843 1285l-118 143l-191 -146h-271
l432 358h139l290 -355h-281z" />
    <glyph glyph-name="odieresis" unicode="&#xf6;" horiz-adv-x="1167" 
d="M72 401q0 290 177 490t448 200q207 0 319 -107.5t112 -305.5q0 -296 -175 -497t-452 -201q-203 0 -316 108.5t-113 312.5zM332 413q0 -229 197 -229q156 0 247 144.5t91 342.5q0 216 -197 216q-153 0 -245.5 -142.5t-92.5 -331.5zM790 1401q0 51 45 81.5t102 30.5
q58 0 103 -31.5t45 -80.5q0 -51 -44.5 -82t-103.5 -31q-58 0 -102.5 31t-44.5 82zM317 1401q0 49 45 80.5t103 31.5q57 0 102 -30.5t45 -81.5q0 -50 -45 -81.5t-102 -31.5q-59 0 -103.5 31t-44.5 82z" />
    <glyph glyph-name="otilde" unicode="&#xf5;" horiz-adv-x="1167" 
d="M72 401q0 290 177 490t448 200q207 0 319 -107.5t112 -305.5q0 -296 -175 -497t-452 -201q-203 0 -316 108.5t-113 312.5zM332 413q0 -229 197 -229q156 0 247 144.5t91 342.5q0 216 -197 216q-153 0 -245.5 -142.5t-92.5 -331.5zM469 1285h-160q23 105 90 179t153 74
q49 0 150.5 -43t124.5 -43q33 0 62 26t34 60h162q-19 -87 -90 -170t-150 -83q-32 0 -144 46.5t-149 46.5q-56 0 -83 -93z" />
    <glyph glyph-name="uacute" unicode="&#xfa;" horiz-adv-x="1141" 
d="M928 -1h-250l15 78q-134 -97 -336 -97q-138 0 -216.5 79t-78.5 219q0 44 11 103l129 690h254l-127 -680q-8 -43 -8 -73q0 -130 146 -130q119 0 199.5 77.5t100.5 186.5l110 619h251zM735 1285h-216l205 333h284z" />
    <glyph glyph-name="ugrave" unicode="&#xf9;" horiz-adv-x="1141" 
d="M928 -1h-250l15 78q-134 -97 -336 -97q-138 0 -216.5 79t-78.5 219q0 44 11 103l129 690h254l-127 -680q-8 -43 -8 -73q0 -130 146 -130q119 0 199.5 77.5t100.5 186.5l110 619h251zM612 1285l-153 333h280l35 -333h-162z" />
    <glyph glyph-name="ucircumflex" unicode="&#xfb;" horiz-adv-x="1141" 
d="M928 -1h-250l15 78q-134 -97 -336 -97q-138 0 -216.5 79t-78.5 219q0 44 11 103l129 690h254l-127 -680q-8 -43 -8 -73q0 -130 146 -130q119 0 199.5 77.5t100.5 186.5l110 619h251zM843 1285l-118 143l-191 -146h-271l432 358h139l290 -355h-281z" />
    <glyph glyph-name="udieresis" unicode="&#xfc;" horiz-adv-x="1141" 
d="M928 -1h-250l15 78q-134 -97 -336 -97q-138 0 -216.5 79t-78.5 219q0 44 11 103l129 690h254l-127 -680q-8 -43 -8 -73q0 -130 146 -130q119 0 199.5 77.5t100.5 186.5l110 619h251zM750 1401q0 51 45 81.5t102 30.5q58 0 103 -31.5t45 -80.5q0 -51 -44.5 -82t-103.5 -31
q-58 0 -102.5 31t-44.5 82zM277 1401q0 49 45 80.5t103 31.5q57 0 102 -30.5t45 -81.5q0 -50 -45 -81.5t-102 -31.5q-59 0 -103.5 31t-44.5 82z" />
    <glyph glyph-name="dagger" unicode="&#x2020;" horiz-adv-x="940" 
d="M641 888l-198 -1122l-125 -120l-85 119l198 1123h-350l34 194h350l53 303h210l-53 -303h350l-34 -194h-350z" />
    <glyph glyph-name="degree" unicode="&#xb0;" 
d="M317 1282q0 91 73 150t174 59q100 0 173 -59t73 -150t-73.5 -150.5t-172.5 -59.5q-102 0 -174.5 59.5t-72.5 150.5zM460 1282q0 -38 31 -63.5t73 -25.5q40 0 72 25t32 64t-32 64t-72 25q-42 0 -73 -25.5t-31 -63.5z" />
    <glyph glyph-name="cent" unicode="&#xa2;" 
d="M1014 974l-48 -205q-80 60 -153 69l-183 -605q117 4 278 105l-28 -244q-140 -58 -309 -58l-56 -188h-159l67 215q-231 83 -231 354q0 256 146.5 430.5t386.5 187.5l57 182h145l-58 -191q78 -14 145 -52zM659 821q-106 -37 -165.5 -141t-59.5 -236q0 -95 59 -157z" />
    <glyph glyph-name="sterling" unicode="&#xa3;" 
d="M1025 1189q-93 62 -179 62q-242 0 -242 -381h219l-39 -209h-179q-2 -116 -38.5 -258t-86.5 -207q91 -41 224 -41q154 0 254 151l163 -171q-51 -97 -170.5 -158t-250.5 -61q-74 0 -218.5 28t-217.5 28q-77 0 -212 -18l-62 200q38 13 84 32q92 38 107.5 49.5t36 37t38 59.5
t36 87t31 117t12.5 125h-184l36 209h147q4 609 565 609q152 0 262 -85z" />
    <glyph glyph-name="section" unicode="&#xa7;" 
d="M942 1162q-105 100 -220 100q-175 0 -175 -109q0 -52 73 -83q176 -54 234.5 -81t97 -79.5t38.5 -121.5q0 -130 -104 -233q77 -71 77 -168q0 -184 -144.5 -297t-352.5 -113q-227 0 -364 105l122 222q102 -101 272 -101q193 0 193 132q0 89 -182 131q-121 28 -201 92.5
t-80 149.5q0 130 112 220q-64 62 -64 163q0 185 134 292t351 107q178 0 302 -113zM528 856q-51 -33 -51 -80q0 -37 35 -70t201 -68q19 46 19 87q0 27 -12 48.5t-33.5 35.5t-38.5 18z" />
    <glyph glyph-name="bullet" unicode="&#x2022;" horiz-adv-x="1074" 
d="M542 863q122 0 205.5 -83.5t83.5 -205.5t-83.5 -205.5t-205.5 -83.5t-205.5 83.5t-83.5 205.5t83.5 205.5t205.5 83.5z" />
    <glyph glyph-name="paragraph" unicode="&#xb6;" 
d="M857 -250h-205l285 1553h-137l-285 -1553h-225l158 860q-279 21 -279 313q0 232 117.5 399t310.5 167h579z" />
    <glyph glyph-name="germandbls" unicode="&#xdf;" horiz-adv-x="1182" 
d="M441 3l84 209q51 -12 73 -12q118 0 184.5 85t66.5 220q0 48 -19.5 89t-47 67t-114.5 104q-63 62 -63 130q0 49 53 96l86 74q33 29 49 65.5t16 76.5q0 78 -115 78q-71 0 -120 -59t-80 -229l-190 -1048q-31 -169 -148 -268.5t-289 -100.5l-19 171q167 34 210 271l192 1070
q33 185 155 301.5t293 116.5q164 0 260.5 -64t96.5 -186q0 -63 -28 -131.5t-158 -206.5q247 -143 247 -371q0 -243 -138 -407t-361 -164q-112 0 -176 23z" />
    <glyph glyph-name="registered" unicode="&#xae;" horiz-adv-x="1460" 
d="M75 661q0 292 206.5 498t498.5 206t498 -206t206 -498t-206 -498.5t-498 -206.5t-498.5 206.5t-206.5 498.5zM245 661q0 -221 157 -378t378 -157t377.5 156.5t156.5 378.5q0 221 -156.5 377.5t-377.5 156.5q-222 0 -378.5 -156.5t-156.5 -377.5zM940 267l-190 323h-66
v-323h-162v805h220q297 0 297 -235q0 -145 -133 -216l214 -354h-180zM742 926h-58v-197q94 0 127.5 5t49.5 27.5t16 68.5q0 96 -135 96z" />
    <glyph glyph-name="copyright" unicode="&#xa9;" horiz-adv-x="1460" 
d="M75 661q0 292 206.5 498t498.5 206t498 -206t206 -498t-206 -498.5t-498 -206.5t-498.5 206.5t-206.5 498.5zM245 661q0 -221 157 -378t378 -157t377.5 156.5t156.5 378.5q0 221 -156.5 377.5t-377.5 156.5q-222 0 -378.5 -156.5t-156.5 -377.5zM1012 1025l-56 -142
q-69 51 -167 51q-86 0 -138.5 -76.5t-52.5 -199.5q0 -119 55 -189.5t138 -70.5q91 0 162 92l92 -126q-115 -113 -265 -113q-159 0 -251 114t-92 298q0 178 97.5 297.5t252.5 119.5q131 0 225 -55z" />
    <glyph glyph-name="trademark" unicode="&#x2122;" horiz-adv-x="1319" 
d="M499 1332v-594h-160v594h-218v139h726l147 -454l145 454h123l122 -732h-155l-66 364l-117 -369h-103l-123 374l-61 -369h-156l98 593h-202z" />
    <glyph glyph-name="acute" unicode="&#xb4;" 
d="M710 1285h-216l205 333h284z" />
    <glyph glyph-name="dieresis" unicode="&#xa8;" 
d="M815 1401q0 51 45 81.5t102 30.5q58 0 103 -31.5t45 -80.5q0 -51 -44.5 -82t-103.5 -31q-58 0 -102.5 31t-44.5 82zM342 1401q0 49 45 80.5t103 31.5q57 0 102 -30.5t45 -81.5q0 -50 -45 -81.5t-102 -31.5q-59 0 -103.5 31t-44.5 82z" />
    <glyph glyph-name="notequal" unicode="&#x2260;" 
d="M174 325v201h271l163 219h-434v201h584l116 155h189l-116 -155h125v-201h-275l-163 -219h438v-201h-588l-121 -162h-188l120 162h-121z" />
    <glyph glyph-name="AE" unicode="&#xc6;" horiz-adv-x="1965" 
d="M1962 1237h-675l-61 -337h484l-41 -218h-484l-82 -454h664l-43 -228h-932l55 298h-391l-183 -298h-307l969 1465h1070zM554 493h329l140 750z" />
    <glyph glyph-name="Oslash" unicode="&#xd8;" horiz-adv-x="1438" 
d="M1468 1491l-149 -194q96 -134 96 -349q0 -433 -218 -703t-597 -270q-142 0 -250 61l-54 -71h-248l156 205q-105 150 -105 375q0 391 213.5 668.5t555.5 277.5q174 0 296 -62l48 62h256zM1011 1228q-65 36 -161 36q-208 0 -344.5 -220t-136.5 -472q0 -88 19 -160zM504 236
q54 -33 128 -33q238 0 376 214t138 511q0 71 -13 127z" />
    <glyph glyph-name="infinity" unicode="&#x221e;" 
d="M595 529q-113 -127 -248 -127q-121 0 -199 74t-78 195q0 109 82.5 187t191.5 78q143 0 250 -113q107 113 255 113q117 0 195 -74t78 -191q0 -122 -79.5 -195.5t-206.5 -73.5q-130 0 -241 127zM695 672q87 -107 151 -107q110 0 110 106q0 46 -34 76t-86 30
q-29 0 -72.5 -34t-68.5 -71zM498 672q-75 82 -99.5 93.5t-41.5 11.5q-120 0 -120 -106t110 -106q65 0 151 107z" />
    <glyph glyph-name="plusminus" unicode="&#xb1;" 
d="M713 535v-334h349v-201h-898v201h348v334h-348v201h348v343h201v-343h349v-201h-349z" />
    <glyph glyph-name="lessequal" unicode="&#x2264;" 
d="M192 627v161l799 383v-228l-528 -236l528 -239v-228zM1062 201v-201h-898v201h898z" />
    <glyph glyph-name="greaterequal" unicode="&#x2265;" 
d="M1034 627l-799 -387v228l528 239l-528 236v228l799 -383v-161zM1062 0h-898v201h898v-201z" />
    <glyph glyph-name="yen" unicode="&#xa5;" 
d="M744 648l-15 -80h255l-37 -182h-251l-71 -386h-258l71 386h-259l37 182h256l16 88l-345 809h271l236 -573l439 573h298z" />
    <glyph glyph-name="mu" unicode="&#x3bc;" horiz-adv-x="1141" 
d="M926 0h-250l17 80q-134 -97 -336 -97q-52 0 -103 13l-76 -416h-251l275 1491h254l-127 -679q-8 -43 -8 -72q0 -130 146 -130q119 0 199.5 77.5t100.5 185.5l110 618h251z" />
    <glyph glyph-name="partialdiff" unicode="&#x2202;" horiz-adv-x="1180" 
d="M745 1068q-44 95 -189 177.5t-257 82.5l98 213q301 0 519 -251t218 -568q0 -309 -185 -526t-471 -217q-193 0 -298 97.5t-105 279.5q0 283 194 490t476 222zM838 885q-208 0 -358 -138t-150 -340q0 -95 51.5 -150.5t145.5 -55.5q166 0 261.5 146.5t95.5 355.5
q0 120 -46 182z" />
    <glyph glyph-name="summation" unicode="&#x2211;" horiz-adv-x="1075" 
d="M-68 -173l37 210l518 697l-300 539l34 192h935l-41 -232h-605l288 -495l-513 -679h662l-41 -232h-974z" />
    <glyph glyph-name="product" unicode="&#x220f;" horiz-adv-x="1304" 
d="M1246 1233l-248 -1403h-260l248 1403h-430l-248 -1403h-260l248 1403h-130l41 232h1210l-41 -232h-130z" />
    <glyph glyph-name="pi" unicode="&#x3c0;" horiz-adv-x="1232" 
d="M1139 181l-33 -201q-385 0 -385 261q0 52 50 314l59 308h-277l-152 -863h-253l152 863h-167l36 208h1108l-36 -208h-158l-54 -290q-41 -220 -41 -261q0 -131 151 -131z" />
    <glyph glyph-name="integral" unicode="&#x222b;" horiz-adv-x="1074" 
d="M-22 -297l100 142q77 -95 170 -95q71 0 114 74t43 167v1073q0 180 110.5 313t270.5 133q161 0 280 -102l-124 -142q-59 74 -166 74q-68 0 -110 -55t-42 -251v-1011q0 -188 -93 -315.5t-252 -127.5q-178 0 -301 123z" />
    <glyph glyph-name="ordfeminine" unicode="&#xaa;" horiz-adv-x="876" 
d="M808 728h-75q-85 0 -118 71q-73 -85 -190 -85q-115 0 -178.5 70t-63.5 191q0 206 116 361t297 155q170 0 239 -36l-75 -458q-5 -31 -5 -57q0 -77 53 -212zM583 1343q-108 0 -173 -111.5t-65 -252.5q0 -117 119 -117q35 0 64.5 25t55.5 84t34 101l42 258q-38 13 -77 13z
" />
    <glyph glyph-name="ordmasculine" unicode="&#xba;" horiz-adv-x="888" 
d="M231 1009q0 192 113 337t285 145q126 0 194 -76t68 -213q0 -202 -108 -345t-281 -143q-128 0 -199.5 79t-71.5 216zM393 1017q0 -155 125 -155q96 0 153 103.5t57 230.5q0 147 -115 147q-95 0 -157.5 -103t-62.5 -223z" />
    <glyph glyph-name="Omega" unicode="&#x3a9;" horiz-adv-x="1370" 
d="M1019 193h241l-33 -192l-550 -1l31 181q224 171 315 343t91 400q0 185 -75.5 265t-240.5 80q-178 0 -318 -183t-140 -427q0 -139 54.5 -276t144.5 -200l-32 -183l-550 1l34 192l226 -1q-143 166 -143 404q0 380 209.5 637.5t555.5 257.5q237 0 387 -149t150 -392
q0 -482 -357 -757z" />
    <glyph glyph-name="ae" unicode="&#xe6;" horiz-adv-x="1830" 
d="M1020 1030l-23 -109q163 170 428 170q157 0 258 -60q126 -73 126 -219q0 -196 -185 -301q-151 -87 -362 -87q-113 0 -214 35q-2 -19 -2 -38q0 -117 57 -171t189 -54q67 0 155 39q82 36 126 80l-31 -277q-128 -58 -315 -58q-141 0 -220 37q-79 38 -135 131q-2 -23 17 -148
h-93q-68 0 -101 151q-108 -171 -279 -171q-165 0 -260 108q-90 102 -90 265q0 294 185 512q192 226 470 226q157 0 299 -61zM1551 784q0 91 -145 91q-91 0 -177 -60.5t-131 -158.5q59 -17 134 -17q319 0 319 145zM827 837q-34 42 -98 42q-170 0 -283 -151
q-109 -144 -109 -343q0 -193 120 -193q144 0 282 295q40 107 60 202z" />
    <glyph glyph-name="oslash" unicode="&#xf8;" horiz-adv-x="1167" 
d="M1185 1091l-131 -151q74 -102 74 -262q0 -296 -175 -497t-452 -201q-139 0 -237 52l-58 -67h-208l148 170q-74 104 -74 266q0 290 177 490t448 200q140 0 238 -50l44 50h206zM780 863q-44 24 -110 24q-153 0 -245.5 -142.5t-92.5 -331.5q0 -32 4 -60zM419 210
q44 -26 110 -26q156 0 247 144.5t91 342.5q0 27 -3 51z" />
    <glyph glyph-name="questiondown" unicode="&#xbf;" horiz-adv-x="752" 
d="M502 769q-68 0 -117.5 46.5t-49.5 114.5t49 114.5t118 46.5q68 0 117.5 -46.5t49.5 -114.5t-49.5 -114.5t-117.5 -46.5zM597 -321q-113 -99 -346 -99q-148 0 -236.5 80t-88.5 218q0 170 128 307l228 196q74 65 107 124t33 117v34h146q1 -15 8.5 -56t7.5 -64
q0 -132 -108 -253l-165 -156q-68 -64 -93.5 -101t-38 -71.5t-12.5 -68.5q0 -109 141 -109q111 0 204 71z" />
    <glyph glyph-name="exclamdown" unicode="&#xa1;" horiz-adv-x="752" 
d="M452 769q-68 0 -117.5 46.5t-49.5 114.5t49 114.5t118 46.5t118 -46.5t49 -114.5t-49.5 -114.5t-117.5 -46.5zM472 647l-10 -279q-4 -109 -13.5 -202.5t-22.5 -165.5l-78 -420h-297l57 330q13 77 103 348l129 389h132z" />
    <glyph glyph-name="logicalnot" unicode="&#xac;" 
d="M1062 966v-556h-201v355h-697v201h898z" />
    <glyph glyph-name="radical" unicode="&#x221a;" 
d="M790 1296l-384 -1296h-179l-236 290l146 119l131 -167l364 1229h582v-175h-424z" />
    <glyph glyph-name="florin" unicode="&#x192;" 
d="M1169 1271q-81 36 -139 36q-144 0 -198 -236h246l-25 -201h-252l-160 -938q-26 -153 -141 -252t-269 -100l-53 166q71 16 128 71t70 125l167 928h-151l33 201h148q103 439 469 439q104 0 177 -43z" />
    <glyph glyph-name="approxequal" unicode="&#x2248;" 
d="M317 619h-146q21 120 78.5 193.5t141.5 73.5q48 0 96 -10t197 -56q41 -11 73 -11q60 0 87 77h148q-40 -154 -94 -210.5t-137 -56.5q-47 0 -96 10t-144.5 38.5t-114.5 28.5q-52 0 -89 -77zM317 229h-146q21 120 78.5 193.5t141.5 73.5q48 0 96 -10t197 -56q41 -11 73 -11
q60 0 87 77h148q-40 -154 -94 -210.5t-137 -56.5q-47 0 -96 10t-144.5 38.5t-114.5 28.5q-52 0 -89 -77z" />
    <glyph glyph-name="uni0394" unicode="&#x394;" horiz-adv-x="1198" 
d="M-32 0l27 153l767 1312h186l257 -1312l-27 -153h-1210zM779 1076l-481 -855h640z" />
    <glyph glyph-name="guillemotleft" unicode="&#xab;" horiz-adv-x="1074" 
d="M99 519v96l415 285v-197l-189 -140l189 -124v-197zM551 519v96l415 285v-197l-189 -140l189 -124v-197z" />
    <glyph glyph-name="guillemotright" unicode="&#xbb;" horiz-adv-x="1074" 
d="M189 242v197l189 124l-189 140v197l415 -285v-96zM591 242v197l189 124l-189 140v197l415 -285v-96z" />
    <glyph glyph-name="ellipsis" unicode="&#x2026;" horiz-adv-x="1504" 
d="M400 131q0 -62 -44 -106.5t-106 -44.5t-106 44.5t-44 106.5t44 106t106 44t106 -44t44 -106zM902 131q0 -62 -44 -106.5t-106 -44.5t-106 44.5t-44 106.5t44 106t106 44t106 -44t44 -106zM1404 131q0 -62 -44 -106.5t-106 -44.5t-106 44.5t-44 106.5t44 106t106 44
t106 -44t44 -106z" />
    <glyph glyph-name="nonbreakingspace" unicode="&#xa0;" horiz-adv-x="617" 
 />
    <glyph glyph-name="Agrave" unicode="&#xc0;" horiz-adv-x="1257" 
d="M918 0l-46 298h-524l-172 -298h-271l890 1485h93l301 -1485h-271zM760 1040l-301 -547h384zM736 1585l-153 333h280l35 -333h-162z" />
    <glyph glyph-name="Atilde" unicode="&#xc3;" horiz-adv-x="1257" 
d="M918 0l-46 298h-524l-172 -298h-271l890 1485h93l301 -1485h-271zM760 1040l-301 -547h384zM588 1655h-160q23 105 90 179t153 74q49 0 150.5 -43t124.5 -43q33 0 62 26t34 60h162q-19 -87 -90 -170t-150 -83q-32 0 -144 46.5t-149 46.5q-56 0 -83 -93z" />
    <glyph glyph-name="Otilde" unicode="&#xd5;" horiz-adv-x="1438" 
d="M99 545q0 391 213.5 668.5t555.5 277.5q263 0 405 -139.5t142 -403.5q0 -433 -218 -703t-597 -270q-232 0 -366.5 156.5t-134.5 413.5zM369 572q0 -169 67 -269t196 -100q238 0 376 214t138 511q0 336 -296 336q-208 0 -344.5 -220t-136.5 -472zM612 1655h-160
q23 105 90 179t153 74q49 0 150.5 -43t124.5 -43q33 0 62 26t34 60h162q-19 -87 -90 -170t-150 -83q-32 0 -144 46.5t-149 46.5q-56 0 -83 -93z" />
    <glyph glyph-name="OE" unicode="&#x152;" horiz-adv-x="2167" 
d="M2164 1237h-675l-61 -337h484l-41 -218h-481l-85 -454h664l-43 -228h-932l15 81q-184 -106 -409 -106q-233 0 -367 156t-134 414q0 392 213 669t556 277q233 0 379 -117l17 91h943zM369 572q0 -173 67.5 -271t195.5 -98q238 0 376 214t138 511q0 336 -296 336
q-208 0 -344.5 -219t-136.5 -473z" />
    <glyph glyph-name="oe" unicode="&#x153;" horiz-adv-x="1900" 
d="M1113 465q-2 -25 -2 -45q0 -122 59.5 -177t191.5 -55q63 0 142.5 33t131.5 79l-29 -263q-128 -57 -310 -57q-271 0 -377 167q-174 -167 -419 -167q-203 0 -316 109t-113 312q0 289 176.5 489.5t448.5 200.5q248 0 361 -157q178 157 437 157q172 0 275.5 -72t103.5 -204
q0 -181 -157 -284t-385 -103q-110 0 -219 37zM332 413q0 -229 197 -229q155 0 246.5 145.5t91.5 341.5q0 216 -197 216q-153 0 -245.5 -142.5t-92.5 -331.5zM1161 654q65 -19 141 -19q137 0 230.5 41.5t93.5 119.5q0 87 -190 87q-71 0 -155 -74.5t-120 -154.5z" />
    <glyph glyph-name="endash" unicode="&#x2013;" horiz-adv-x="752" 
d="M63 502v201h581v-201h-581z" />
    <glyph glyph-name="emdash" unicode="&#x2014;" horiz-adv-x="1504" 
d="M63 502v201h1369v-201h-1369z" />
    <glyph glyph-name="quotedblleft" unicode="&#x201c;" 
d="M1138 1399q-73 -53 -95 -74q-50 -49 -55 -103q-3 -34 41 -89t40 -105q-14 -162 -174 -162q-155 0 -155 164q0 14 2 28q24 276 323 452zM678 1399q-73 -53 -95 -74q-50 -49 -55 -103q-3 -34 41 -89t40 -105q-14 -162 -174 -162q-155 0 -155 164q0 14 2 28q24 276 323 452z
" />
    <glyph glyph-name="quotedblright" unicode="&#x201d;" 
d="M1136 1318q-24 -276 -323 -452l-73 111q73 53 95 74q50 49 55 103q3 34 -41 89t-40 105q14 162 174 162q155 0 155 -164q0 -14 -2 -28zM676 1318q-24 -276 -323 -452l-73 111q73 53 95 74q50 49 55 103q3 34 -41 89t-40 105q14 162 174 162q155 0 155 -164q0 -14 -2 -28z
" />
    <glyph glyph-name="quoteleft" unicode="&#x2018;" horiz-adv-x="752" 
d="M678 1399q-73 -53 -95 -74q-50 -49 -55 -103q-3 -34 41 -89t40 -105q-14 -162 -174 -162q-155 0 -155 164q0 14 2 28q24 276 323 452z" />
    <glyph glyph-name="quoteright" unicode="&#x2019;" horiz-adv-x="752" 
d="M676 1318q-24 -276 -323 -452l-73 111q73 53 95 74q50 49 55 103q3 34 -41 89t-40 105q14 162 174 162q155 0 155 -164q0 -14 -2 -28z" />
    <glyph glyph-name="divide" unicode="&#xf7;" 
d="M763 1020q0 -62 -44 -106.5t-106 -44.5t-106 44.5t-44 106.5t44 106t106 44t106 -44t44 -106zM1062 736v-201h-898v201h898zM763 230q0 -62 -44 -106.5t-106 -44.5t-106 44.5t-44 106.5t44 106t106 44t106 -44t44 -106z" />
    <glyph glyph-name="lozenge" unicode="&#x25ca;" horiz-adv-x="1229" 
d="M613 18l-618 617l618 617l617 -617zM613 1004l-369 -369l369 -369l368 369z" />
    <glyph glyph-name="ydieresis" unicode="&#xff;" horiz-adv-x="1155" 
d="M620 -107q-149 -311 -578 -313v241q283 1 363 183l52 120q-137 39 -185 288l-127 659h263q117 -704 149 -735l344 735h283zM815 1401q0 51 45 81.5t102 30.5q58 0 103 -31.5t45 -80.5q0 -51 -44.5 -82t-103.5 -31q-58 0 -102.5 31t-44.5 82zM342 1401q0 49 45 80.5
t103 31.5q57 0 102 -30.5t45 -81.5q0 -50 -45 -81.5t-102 -31.5q-59 0 -103.5 31t-44.5 82z" />
    <glyph glyph-name="Ydieresis" unicode="&#x178;" horiz-adv-x="1400" 
d="M848 648l-119 -648h-258l121 656l-345 809h271l236 -573l439 573h297zM965 1771q0 51 45 81.5t102 30.5q58 0 103 -31.5t45 -80.5q0 -51 -44.5 -82t-103.5 -31q-58 0 -102.5 31t-44.5 82zM492 1771q0 49 45 80.5t103 31.5q57 0 102 -30.5t45 -81.5q0 -50 -45 -81.5
t-102 -31.5q-59 0 -103.5 31t-44.5 82z" />
    <glyph glyph-name="fraction" unicode="&#x2044;" 
d="M256 -35h-188l884 1526h186z" />
    <glyph glyph-name="fraction" unicode="&#x2215;" 
d="M256 -35h-188l884 1526h186z" />
    <glyph glyph-name="Euro" unicode="&#x20ac;" 
d="M39 519v151h116q8 81 25 159h-141v151h186q87 231 251 365q178 145 417 145q162 0 288 -58l-87 -231q-91 63 -212 63q-244 0 -389 -284h514l-50 -151h-524q-23 -79 -32 -159h496l-60 -151h-440q13 -140 81 -224q75 -92 205 -92q207 0 327 125v-249q-109 -104 -375 -104
q-219 0 -353 155q-128 150 -134 389h-109z" />
    <glyph glyph-name="guilsinglleft" unicode="&#x2039;" horiz-adv-x="752" 
d="M141 519v96l415 285v-197l-189 -140l189 -124v-197z" />
    <glyph glyph-name="guilsinglright" unicode="&#x203a;" horiz-adv-x="752" 
d="M181 242v197l189 124l-189 140v197l415 -285v-96z" />
    <glyph glyph-name="fi" unicode="&#xfb01;" horiz-adv-x="1370" 
d="M1023 1415q0 67 47.5 111.5t115.5 44.5q67 0 115 -44.5t48 -111.5q0 -66 -48 -111t-115 -45t-115 44.5t-48 111.5zM1097 0h-254l162 870h-444l-160 -938q-26 -152 -141 -251.5t-269 -100.5l-53 166q71 16 128 71t70 125l167 928h-151l33 201h148q103 439 469 439
q104 0 177 -43l-50 -196q-81 36 -139 36q-144 0 -198 -236h705z" />
    <glyph glyph-name="fl" unicode="&#xfb02;" horiz-adv-x="1320" 
d="M1217 84q-59 -94 -179 -94q-90 0 -142 59t-52 153q0 122 48 351l139 669q-101 85 -241 85q-144 0 -198 -236h246l-25 -201h-252l-160 -938q-26 -152 -141 -251.5t-269 -100.5l-53 166q71 16 128 71t70 125l167 928h-151l33 201h148q103 439 469 439q74 0 157 -25t116 -54
h1l17 79h248l-206 -997q-44 -213 -44 -304q0 -58 36 -91.5t90 -33.5z" />
    <glyph glyph-name="daggerdbl" unicode="&#x2021;" horiz-adv-x="940" 
d="M524 221l-81 -455l-129 -128l-80 128l80 455h-350l34 194h350l83 473h-350l35 194h350l53 303h210l-53 -303h350l-35 -194h-350l-83 -473h350l-34 -194h-350z" />
    <glyph glyph-name="periodcentered" unicode="&#x2219;" horiz-adv-x="752" 
d="M392 831q63 0 106.5 -43.5t43.5 -106.5t-43.5 -107t-106.5 -44q-62 0 -106 44.5t-44 106.5t44 106t106 44z" />
    <glyph glyph-name="quotesinglbase" unicode="&#x201a;" horiz-adv-x="752" 
d="M486 85q-24 -276 -323 -452l-73 111q73 53 95 74q50 49 55 103q3 34 -41 89t-40 105q14 162 174 162q155 0 155 -164q0 -14 -2 -28z" />
    <glyph glyph-name="quotedblbase" unicode="&#x201e;" 
d="M967 85q-24 -276 -323 -452l-73 111q73 53 95 74q50 49 55 103q3 34 -41 89t-40 105q14 162 174 162q155 0 155 -164q0 -14 -2 -28zM507 85q-24 -276 -323 -452l-73 111q73 53 95 74q50 49 55 103q3 34 -41 89t-40 105q14 162 174 162q155 0 155 -164q0 -14 -2 -28z" />
    <glyph glyph-name="perthousand" unicode="&#x2030;" horiz-adv-x="2135" 
d="M141 1027q0 194 109.5 329t284.5 135q250 0 250 -269q0 -189 -107.5 -321.5t-278.5 -132.5q-258 0 -258 259zM340 1058q0 -126 79 -126q82 0 126.5 83t44.5 200q0 112 -86 112q-75 0 -119.5 -81.5t-44.5 -187.5zM252 -20h-208l1190 1511h207zM712 240q0 195 109.5 329
t285.5 134q249 0 249 -269q0 -189 -107.5 -321.5t-278.5 -132.5q-258 0 -258 260zM911 271q0 -127 79 -127q82 0 126.5 81t44.5 203q0 111 -86 111q-75 0 -119.5 -81t-44.5 -187zM1422 240q0 195 109.5 329t285.5 134q249 0 249 -269q0 -189 -107.5 -321.5t-278.5 -132.5
q-258 0 -258 260zM1621 271q0 -127 79 -127q82 0 126.5 81t44.5 203q0 111 -86 111q-75 0 -119.5 -81t-44.5 -187z" />
    <glyph glyph-name="Acircumflex" unicode="&#xc2;" horiz-adv-x="1257" 
d="M918 0l-46 298h-524l-172 -298h-271l890 1485h93l301 -1485h-271zM760 1040l-301 -547h384zM942 1568l-118 143l-191 -146h-271l432 358h139l290 -355h-281z" />
    <glyph glyph-name="Ecircumflex" unicode="&#xca;" horiz-adv-x="1215" 
d="M1212 1237h-675l-61 -337h484l-41 -218h-484l-82 -454h664l-43 -228h-932l270 1465h943zM956 1568l-118 143l-191 -146h-271l432 358h139l290 -355h-281z" />
    <glyph glyph-name="Aacute" unicode="&#xc1;" horiz-adv-x="1257" 
d="M918 0l-46 298h-524l-172 -298h-271l890 1485h93l301 -1485h-271zM760 1040l-301 -547h384zM859 1585h-216l205 333h284z" />
    <glyph glyph-name="Edieresis" unicode="&#xcb;" horiz-adv-x="1215" 
d="M1212 1237h-675l-61 -337h484l-41 -218h-484l-82 -454h664l-43 -228h-932l270 1465h943zM888 1771q0 51 45 81.5t102 30.5q58 0 103 -31.5t45 -80.5q0 -51 -44.5 -82t-103.5 -31q-58 0 -102.5 31t-44.5 82zM415 1771q0 49 45 80.5t103 31.5q57 0 102 -30.5t45 -81.5
q0 -50 -45 -81.5t-102 -31.5q-59 0 -103.5 31t-44.5 82z" />
    <glyph glyph-name="Egrave" unicode="&#xc8;" horiz-adv-x="1215" 
d="M1212 1237h-675l-61 -337h484l-41 -218h-484l-82 -454h664l-43 -228h-932l270 1465h943zM700 1585l-153 333h280l35 -333h-162z" />
    <glyph glyph-name="Iacute" unicode="&#xcd;" horiz-adv-x="570" 
d="M329 0h-261l269 1465h262zM520 1585h-216l205 333h284z" />
    <glyph glyph-name="Icircumflex" unicode="&#xce;" horiz-adv-x="570" 
d="M329 0h-261l269 1465h262zM623 1568l-118 143l-191 -146h-271l432 358h139l290 -355h-281z" />
    <glyph glyph-name="Idieresis" unicode="&#xcf;" horiz-adv-x="570" 
d="M329 0h-261l269 1465h262zM595 1771q0 51 45 81.5t102 30.5q58 0 103 -31.5t45 -80.5q0 -51 -44.5 -82t-103.5 -31q-58 0 -102.5 31t-44.5 82zM122 1771q0 49 45 80.5t103 31.5q57 0 102 -30.5t45 -81.5q0 -50 -45 -81.5t-102 -31.5q-59 0 -103.5 31t-44.5 82z" />
    <glyph glyph-name="Igrave" unicode="&#xcc;" horiz-adv-x="570" 
d="M329 0h-261l269 1465h262zM399 1585l-153 333h280l35 -333h-162z" />
    <glyph glyph-name="Oacute" unicode="&#xd3;" horiz-adv-x="1438" 
d="M99 545q0 391 213.5 668.5t555.5 277.5q263 0 405 -139.5t142 -403.5q0 -433 -218 -703t-597 -270q-232 0 -366.5 156.5t-134.5 413.5zM369 572q0 -169 67 -269t196 -100q238 0 376 214t138 511q0 336 -296 336q-208 0 -344.5 -220t-136.5 -472zM935 1585h-216l205 333
h284z" />
    <glyph glyph-name="Ocircumflex" unicode="&#xd4;" horiz-adv-x="1438" 
d="M99 545q0 391 213.5 668.5t555.5 277.5q263 0 405 -139.5t142 -403.5q0 -433 -218 -703t-597 -270q-232 0 -366.5 156.5t-134.5 413.5zM369 572q0 -169 67 -269t196 -100q238 0 376 214t138 511q0 336 -296 336q-208 0 -344.5 -220t-136.5 -472zM1026 1568l-118 143
l-191 -146h-271l432 358h139l290 -355h-281z" />
    <glyph glyph-name="apple" horiz-adv-x="1024" 
d="M128 350v768h768v-768h-768zM256 478h512v512h-512v-512z" />
    <glyph glyph-name="Ograve" unicode="&#xd2;" horiz-adv-x="1438" 
d="M99 545q0 391 213.5 668.5t555.5 277.5q263 0 405 -139.5t142 -403.5q0 -433 -218 -703t-597 -270q-232 0 -366.5 156.5t-134.5 413.5zM369 572q0 -169 67 -269t196 -100q238 0 376 214t138 511q0 336 -296 336q-208 0 -344.5 -220t-136.5 -472zM810 1585l-153 333h280
l35 -333h-162z" />
    <glyph glyph-name="Uacute" unicode="&#xda;" horiz-adv-x="1355" 
d="M1217 451q-42 -226 -210 -351t-416 -125q-207 0 -337.5 99.5t-130.5 274.5q0 53 11 113l184 1003h268l-187 -998q-5 -27 -5 -57q0 -99 61 -153t166 -54q134 0 223 73t113 205l183 984h264zM954 1585h-216l205 333h284z" />
    <glyph glyph-name="Ucircumflex" unicode="&#xdb;" horiz-adv-x="1355" 
d="M1217 451q-42 -226 -210 -351t-416 -125q-207 0 -337.5 99.5t-130.5 274.5q0 53 11 113l184 1003h268l-187 -998q-5 -27 -5 -57q0 -99 61 -153t166 -54q134 0 223 73t113 205l183 984h264zM1037 1568l-118 143l-191 -146h-271l432 358h139l290 -355h-281z" />
    <glyph glyph-name="Ugrave" unicode="&#xd9;" horiz-adv-x="1355" 
d="M1217 451q-42 -226 -210 -351t-416 -125q-207 0 -337.5 99.5t-130.5 274.5q0 53 11 113l184 1003h268l-187 -998q-5 -27 -5 -57q0 -99 61 -153t166 -54q134 0 223 73t113 205l183 984h264zM801 1585l-153 333h280l35 -333h-162z" />
    <glyph glyph-name="dotlessi" unicode="&#x131;" horiz-adv-x="669" 
d="M397 0h-254l162 870h-137l42 201h387z" />
    <glyph glyph-name="circumflex" unicode="&#x2c6;" 
d="M843 1285l-118 143l-191 -146h-271l432 358h139l290 -355h-281z" />
    <glyph glyph-name="tilde" unicode="&#x2dc;" 
d="M549 1285h-160q23 105 90 179t153 74q49 0 150.5 -43t124.5 -43q33 0 62 26t34 60h162q-19 -87 -90 -170t-150 -83q-32 0 -144 46.5t-149 46.5q-56 0 -83 -93z" />
    <glyph glyph-name="macron" unicode="&#x2c9;" 
d="M1151 1285h-809l38 141h809z" />
    <glyph glyph-name="breve" unicode="&#x2d8;" 
d="M448 1610h214q-16 -55 -16 -73q0 -68 130 -68q162 0 192 141h214q-70 -325 -434 -325q-313 0 -313 236q0 32 13 89z" />
    <glyph glyph-name="dotaccent" unicode="&#x2d9;" 
d="M648 1403q0 52 46 84.5t106 32.5q58 0 105.5 -32.5t47.5 -84.5t-46.5 -85t-106.5 -33q-59 0 -105.5 32.5t-46.5 85.5z" />
    <glyph glyph-name="ring" unicode="&#x2da;" 
d="M771 1285q-99 0 -173 60t-74 150t74 149.5t173 59.5q100 0 173 -59t73 -150t-73.5 -150.5t-172.5 -59.5zM774 1583q-51 0 -89 -26t-38 -66q0 -39 38 -65t89 -26t89 26t38 65q0 40 -38 66t-89 26z" />
    <glyph glyph-name="cedilla" unicode="&#xb8;" 
d="M338 -450v123q18 -5 39 -5q58 0 108 25q63 31 63 83q0 35 -29 64.5t-64 30.5l62 86q230 -15 230 -186q0 -115 -109 -176q-89 -50 -213 -50q-15 0 -87 5z" />
    <glyph glyph-name="hungarumlaut" unicode="&#x2dd;" 
d="M979 1285h-215l177 283h286zM609 1285h-215l177 283h286z" />
    <glyph glyph-name="ogonek" unicode="&#x2db;" 
d="M630 169l69 -169q-57 -16 -92 -58t-35 -87q0 -44 69 -44q86 0 166 61v-205q-132 -40 -204 -40q-115 0 -191.5 57t-76.5 153q0 201 295 332z" />
    <glyph glyph-name="caron" unicode="&#x2c7;" 
d="M788 1285h-140l-281 358h255l130 -146l178 143h298z" />
    <glyph glyph-name="Lslash" unicode="&#x141;" horiz-adv-x="1082" 
d="M661 887l-202 -87l-105 -572h662l-42 -228h-924l124 677l-163 -70v168l197 85l111 605h262l-88 -481l168 75v-172z" />
    <glyph glyph-name="lslash" unicode="&#x142;" horiz-adv-x="655" 
d="M477 84q-59 -94 -179 -94q-90 0 -142 59t-52 153q0 122 48 351l29 138l-148 -71l-1 195l194 90l127 605h248l-98 -477l163 76v-185l-206 -99l-65 -312q-44 -211 -44 -304q0 -58 36 -91.5t90 -33.5z" />
    <glyph glyph-name="Scaron" unicode="&#x160;" horiz-adv-x="1027" 
d="M940 1176q-116 85 -236 85q-241 0 -241 -182q0 -77 128 -184l151 -128q70 -60 97 -87.5t57 -76.5t45 -99t15 -102q0 -201 -150.5 -314t-390.5 -113q-197 0 -372 85l84 257q134 -101 311 -101q107 0 177.5 45.5t70.5 129.5q0 83 -128 183l-157 125q-72 58 -97.5 84
t-53.5 72.5t-42 95.5t-14 101q0 202 134 320t351 118q72 0 184 -16.5t157 -37.5zM728 1565h-140l-281 358h255l130 -146l178 143h298z" />
    <glyph glyph-name="scaron" unicode="&#x161;" horiz-adv-x="940" 
d="M791 778q-120 105 -220 105q-62 0 -107.5 -28.5t-45.5 -76.5q0 -59 108.5 -114t166.5 -87.5t95 -88t37 -127.5q0 -177 -132.5 -279t-338.5 -102q-176 0 -344 99l132 227q125 -118 245 -118q76 0 125.5 38t49.5 103q0 54 -94 103t-166 89.5t-109.5 99t-37.5 129.5
q0 156 124.5 248.5t305.5 92.5q124 0 322 -84zM611 1285h-140l-281 358h255l130 -146l178 143h298z" />
    <glyph glyph-name="Zcaron" unicode="&#x17d;" horiz-adv-x="1252" 
d="M482 228h597l-43 -228h-949v83l793 1154h-602l42 228h928v-83zM842 1565h-140l-281 358h255l130 -146l178 143h298z" />
    <glyph glyph-name="zcaron" unicode="&#x17e;" horiz-adv-x="1091" 
d="M447 217h508l-41 -217h-886v85l626 769h-525l41 217h892v-89zM673 1285h-140l-281 358h255l130 -146l178 143h298z" />
    <glyph glyph-name="brokenbar" unicode="&#xa6;" 
d="M504 673v837h206v-837h-206zM504 -420v837h206v-837h-206z" />
    <glyph glyph-name="Eth" unicode="&#xd0;" horiz-adv-x="1340" 
d="M35 672l40 223h132l103 567q146 26 274 26q335 0 518 -153t183 -443q0 -407 -242 -649.5t-646 -242.5h-354l123 672h-131zM465 895h273l-40 -223h-272l-77 -439q44 -4 80 -4q268 0 426 189t158 485q0 162 -109 260t-280 98q-48 0 -97 -10z" />
    <glyph glyph-name="eth" unicode="&#xf0;" horiz-adv-x="1167" 
d="M807 1079q-52 120 -82 150l-179 -84l-50 103l169 79q-45 57 -147 177l272 49q44 -52 99 -122l174 84l59 -110l-170 -80q80 -127 127.5 -316.5t47.5 -368.5q0 -279 -178 -469.5t-448 -190.5q-203 0 -316 108.5t-113 311.5q0 289 176.5 488.5t448.5 199.5q54 0 110 -9z
M332 412q0 -229 197 -229q155 0 246.5 145t91.5 341q0 216 -197 216q-153 0 -245.5 -142t-92.5 -331z" />
    <glyph glyph-name="Yacute" unicode="&#xdd;" horiz-adv-x="1400" 
d="M848 648l-119 -648h-258l121 656l-345 809h271l236 -573l439 573h297zM920 1585h-216l205 333h284z" />
    <glyph glyph-name="Thorn" unicode="&#xde;" horiz-adv-x="1150" 
d="M362 298l-54 -298h-259l268 1465h259l-32 -178q64 9 120 9q238 0 377 -111t139 -316q0 -280 -163 -435t-462 -155q-92 0 -193 19zM501 1059l-97 -538q79 -21 155 -21q167 0 259.5 90t92.5 254q0 118 -61 174.5t-205 56.5q-66 0 -144 -16z" />
    <glyph glyph-name="thorn" unicode="&#xfe;" horiz-adv-x="1226" 
d="M305 29l-80 -449h-250l329 1931h259l-95 -518q131 98 260 98q429 0 429 -416q0 -305 -176 -500t-465 -195q-115 0 -211 49zM438 771l-94 -529q49 -51 145 -51q197 0 301.5 119.5t104.5 339.5q0 102 -63 163.5t-173 61.5q-50 0 -119 -32.5t-102 -71.5z" />
    <glyph glyph-name="minus" unicode="&#x2212;" 
d="M1062 736v-201h-898v201h898z" />
    <glyph glyph-name="onesuperior" unicode="&#xb9;" horiz-adv-x="980" 
d="M687 565h-166l100 613l-155 -86l24 186q192 97 263 200h81z" />
    <glyph glyph-name="twosuperior" unicode="&#xb2;" horiz-adv-x="952" 
d="M567 731h270l-27 -165h-526v63l303 384q119 151 119 219q0 47 -36.5 73t-88.5 26q-57 0 -113 -89l-118 84q29 73 100.5 119t152.5 46q120 0 196.5 -68t76.5 -185q0 -62 -49.5 -160t-259.5 -347z" />
    <glyph glyph-name="threesuperior" unicode="&#xb3;" horiz-adv-x="949" 
d="M737 1040q79 -57 79 -164q0 -324 -351 -324q-138 0 -220 101l80 157q67 -99 157 -99q166 0 166 151q0 105 -184 105l26 144q85 0 139.5 38t54.5 102q0 38 -31.5 59.5t-74.5 21.5q-59 0 -119 -55l-81 115q86 99 224 99q100 0 177.5 -65t77.5 -158q0 -148 -120 -228z" />
    <glyph glyph-name="onehalf" unicode="&#xbd;" horiz-adv-x="1796" 
d="M434 565h-166l100 613l-155 -86l24 186q192 97 263 200h81zM504 -35h-188l884 1526h186zM1324 165h270l-27 -165h-526v63l303 384q119 151 119 219q0 47 -36.5 73t-88.5 26q-57 0 -113 -89l-118 84q29 73 100.5 119t152.5 46q120 0 196.5 -68t76.5 -185q0 -62 -49.5 -160
t-259.5 -347z" />
    <glyph glyph-name="onequarter" unicode="&#xbc;" horiz-adv-x="1796" 
d="M451 565h-166l100 613l-155 -86l24 186q192 97 263 200h81zM531 -35h-188l884 1526h186zM1624 231h-97l-37 -231h-166l37 231h-385l18 110l560 572h83l-87 -532h97zM1201 381h185l37 214z" />
    <glyph glyph-name="threequarters" unicode="&#xbe;" horiz-adv-x="1796" 
d="M624 1040q79 -57 79 -164q0 -324 -351 -324q-138 0 -220 101l80 157q67 -99 157 -99q166 0 166 151q0 105 -184 105l26 144q85 0 139.5 38t54.5 102q0 38 -31.5 59.5t-74.5 21.5q-59 0 -119 -55l-81 115q86 99 224 99q100 0 177.5 -65t77.5 -158q0 -148 -120 -228z
M594 -35h-188l884 1526h186zM1625 231h-97l-37 -231h-166l37 231h-385l18 110l560 572h83l-87 -532h97zM1202 381h185l37 214z" />
    <glyph glyph-name="mu1" unicode="&#xb5;" horiz-adv-x="1141" 
d="M926 0h-250l17 80q-134 -97 -336 -97q-52 0 -103 13l-76 -416h-251l275 1491h254l-127 -679q-8 -43 -8 -72q0 -130 146 -130q119 0 199.5 77.5t100.5 185.5l110 618h251z" />
    <glyph glyph-name="Ohm" unicode="&#x2126;" horiz-adv-x="1370" 
d="M1019 193h241l-33 -192l-550 -1l31 181q224 171 315 343t91 400q0 185 -75.5 265t-240.5 80q-178 0 -318 -183t-140 -427q0 -139 54.5 -276t144.5 -200l-32 -183l-550 1l34 192l226 -1q-143 166 -143 404q0 380 209.5 637.5t555.5 257.5q237 0 387 -149t150 -392
q0 -482 -357 -757z" />
    <glyph glyph-name="Delta" unicode="&#x2206;" horiz-adv-x="1198" 
d="M-84 0l27 153l767 1312h186l257 -1312l-27 -153h-1210zM727 1076l-481 -855h640z" />
    <glyph glyph-name="yacute" unicode="&#xfd;" horiz-adv-x="1155" 
d="M620 -107q-149 -311 -578 -313v241q283 1 363 183l52 120q-137 39 -185 288l-127 659h263q117 -704 149 -735l344 735h283zM710 1285h-216l205 333h284z" />
    <glyph glyph-name="multiply" unicode="&#xd7;" 
d="M759 629l314 -315l-143 -142l-314 315l-317 -317l-142 141l317 317l-321 321l142 142l321 -321l317 317l143 -141z" />
    <glyph glyph-name="sfthyphen" unicode="&#xad;" horiz-adv-x="752" 
d="M88 476l42 235h529l-42 -235h-529z" />
    <glyph glyph-name="dotlessj" horiz-adv-x="794" 
d="M512 15q-41 -222 -191 -328.5t-466 -106.5l11 221q140 0 216 19t121.5 69t60.5 132l152 849h-144l47 201h389z" />
    <glyph glyph-name="f007" horiz-adv-x="752" 
d="M427 1715l77 -101q-95 -90 -95 -117q0 -29 37.5 -68.5t37.5 -92.5t-39.5 -87t-93.5 -34q-128 0 -128 164q0 194 204 336z" />
    <glyph glyph-name="franc" unicode="&#x20a3;" horiz-adv-x="1807" 
d="M1240 1237h-705l-61 -337h515l-41 -218h-515l-125 -682h-267l272 1465h969zM1760 817q-89 66 -157 66q-97 0 -177.5 -84.5t-101.5 -193.5l-113 -605h-251l200 1071h251l-17 -93q133 113 294 113q41 0 147 -19z" />
    <glyph glyph-name="Gbreve" unicode="&#x11e;" horiz-adv-x="1385" 
d="M1204 133q-226 -158 -553 -158q-252 0 -409.5 161.5t-157.5 409.5q0 435 239.5 689.5t652.5 254.5q224 0 333 -100l-78 -217q-147 89 -293 89q-264 0 -424 -193.5t-160 -484.5q0 -180 99 -280.5t271 -100.5q143 0 250 79l53 290h-203l40 218h461zM581 1910h214
q-16 -55 -16 -73q0 -68 130 -68q162 0 192 141h214q-70 -325 -434 -325q-313 0 -313 236q0 32 13 89z" />
    <glyph glyph-name="gbreve" unicode="&#x11f;" horiz-adv-x="1096" 
d="M995 885q22 -50 22 -120q0 -156 -67.5 -270t-222.5 -185t-170 -96q68 13 106 13q112 0 191 -68.5t79 -174.5q0 -194 -136.5 -299t-395.5 -105q-97 0 -212.5 38t-188.5 94l109 189q143 -102 297 -102q278 0 278 150q0 32 -28.5 53t-86.5 32l-191 34q-107 33 -107 124
q0 53 88 107q-108 31 -176.5 116.5t-68.5 190.5q0 216 143 350.5t367 134.5q138 0 233 -59l94 102l147 -146zM368 628q0 -80 36 -131t99 -51q110 0 182 87.5t72 212.5q0 141 -147 141q-111 0 -176.5 -72.5t-65.5 -186.5zM362 1610h214q-16 -55 -16 -73q0 -68 130 -68
q162 0 192 141h214q-70 -325 -434 -325q-313 0 -313 236q0 32 13 89z" />
    <glyph glyph-name="Idotaccent" unicode="&#x130;" horiz-adv-x="570" 
d="M329 0h-261l269 1465h262zM348 1773q0 52 46 84.5t106 32.5q58 0 105.5 -32.5t47.5 -84.5t-46.5 -85t-106.5 -33q-59 0 -105.5 32.5t-46.5 85.5z" />
    <glyph glyph-name="Scedilla" unicode="&#x15e;" horiz-adv-x="1027" 
d="M940 1176q-116 85 -236 85q-241 0 -241 -182q0 -77 128 -184l151 -128q70 -60 97 -87.5t57 -76.5t45 -99t15 -102q0 -201 -150.5 -314t-390.5 -113q-197 0 -372 85l84 257q134 -101 311 -101q107 0 177.5 45.5t70.5 129.5q0 83 -128 183l-157 125q-72 58 -97.5 84
t-53.5 72.5t-42 95.5t-14 101q0 202 134 320t351 118q72 0 184 -16.5t157 -37.5zM188 -450v123q18 -5 39 -5q58 0 108 25q63 31 63 83q0 35 -29 64.5t-64 30.5l62 86q230 -15 230 -186q0 -115 -109 -176q-89 -50 -213 -50q-15 0 -87 5z" />
    <glyph glyph-name="scedilla" unicode="&#x15f;" horiz-adv-x="940" 
d="M791 778q-120 105 -220 105q-62 0 -107.5 -28.5t-45.5 -76.5q0 -59 108.5 -114t166.5 -87.5t95 -88t37 -127.5q0 -177 -132.5 -279t-338.5 -102q-176 0 -344 99l132 227q125 -118 245 -118q76 0 125.5 38t49.5 103q0 54 -94 103t-166 89.5t-109.5 99t-37.5 129.5
q0 156 124.5 248.5t305.5 92.5q124 0 322 -84zM111 -450v123q18 -5 39 -5q58 0 108 25q63 31 63 83q0 35 -29 64.5t-64 30.5l62 86q230 -15 230 -186q0 -115 -109 -176q-89 -50 -213 -50q-15 0 -87 5z" />
    <glyph glyph-name="Cacute" unicode="&#x106;" horiz-adv-x="1255" 
d="M1165 1183q-114 81 -253 81q-225 0 -377.5 -214.5t-152.5 -475.5q0 -169 83 -270t231 -101q230 0 361 125l-5 -229q-142 -124 -409 -124q-238 0 -384 156.5t-146 406.5q0 404 224.5 678t586.5 274q177 0 314 -58zM963 1585h-216l205 333h284z" />
    <glyph glyph-name="cacute" unicode="&#x107;" horiz-adv-x="1009" 
d="M927 806q-105 77 -212 77q-172 0 -276.5 -128.5t-104.5 -321.5q0 -100 59 -171t152 -71q134 0 315 114l-30 -261q-153 -64 -315 -64q-203 0 -321.5 112.5t-118.5 309.5q0 299 173 494t453 195q160 0 277 -66zM710 1285h-216l205 333h284z" />
    <glyph glyph-name="Ccaron" unicode="&#x10c;" horiz-adv-x="1255" 
d="M1165 1183q-114 81 -253 81q-225 0 -377.5 -214.5t-152.5 -475.5q0 -169 83 -270t231 -101q230 0 361 125l-5 -229q-142 -124 -409 -124q-238 0 -384 156.5t-146 406.5q0 404 224.5 678t586.5 274q177 0 314 -58zM951 1565h-140l-281 358h255l130 -146l178 143h298z" />
    <glyph glyph-name="ccaron" unicode="&#x10d;" horiz-adv-x="1009" 
d="M927 806q-105 77 -212 77q-172 0 -276.5 -128.5t-104.5 -321.5q0 -100 59 -171t152 -71q134 0 315 114l-30 -261q-153 -64 -315 -64q-203 0 -321.5 112.5t-118.5 309.5q0 299 173 494t453 195q160 0 277 -66zM743 1285h-140l-281 358h255l130 -146l178 143h298z" />
    <glyph glyph-name="dcroat" unicode="&#x111;" horiz-adv-x="1215" 
d="M1328 1198h-142l-217 -1198h-249l19 100q-83 -120 -275 -120q-188 0 -294 110.5t-106 300.5q0 307 171 503.5t455 196.5q54 0 121 -21t97 -46l33 174h-271l30 150h269l31 162h242l-29 -162h145zM707 880q-173 0 -275.5 -127t-102.5 -323q0 -244 202 -244q218 0 283 348
l48 256q-48 90 -155 90z" />
    <glyph glyph-name="overscore" unicode="&#xaf;" 
d="M-8 1466v209h1215v-209h-1215z" />
    <glyph glyph-name="commaaccenthigh" horiz-adv-x="752" 
d="M292 1048l-63 85q66 50 81 73.5t15 49.5t-34.5 60.5t-34.5 75.5q0 118 117 118q123 0 123 -139q0 -196 -204 -323z" />
    <glyph glyph-name="middot" unicode="&#xb7;" horiz-adv-x="752" 
d="M220 689q0 66 46.5 112.5t112.5 46.5t112.5 -46.5t46.5 -112.5t-46.5 -112.5t-112.5 -46.5t-112.5 46.5t-46.5 112.5z" />
    <glyph glyph-name="Abreve" unicode="&#x102;" horiz-adv-x="1257" 
d="M918 0l-46 298h-524l-172 -298h-271l890 1485h93l301 -1485h-271zM760 1040l-301 -547h384zM557 1910h214q-16 -55 -16 -73q0 -68 130 -68q162 0 192 141h214q-70 -325 -434 -325q-313 0 -313 236q0 32 13 89z" />
    <glyph glyph-name="abreve" unicode="&#x103;" horiz-adv-x="1214" 
d="M988 384q-7 -37 -7 -82q0 -220 34 -302h-156q-70 0 -104 107q-128 -127 -319 -127q-174 0 -269.5 98t-95.5 273q0 305 184.5 522.5t465.5 217.5q271 0 391 -50zM699 887q-168 0 -268 -160.5t-100 -369.5q0 -173 170 -173q108 0 188.5 133t143.5 550q-71 20 -134 20z
M448 1610h214q-16 -55 -16 -73q0 -68 130 -68q162 0 192 141h214q-70 -325 -434 -325q-313 0 -313 236q0 32 13 89z" />
    <glyph glyph-name="Aogonek" unicode="&#x104;" horiz-adv-x="1257" 
d="M894 157l-22 141h-524l-172 -298h-271l890 1485h93l301 -1485h-200q-13 0 -48 -20.5t-57 -54.5t-22 -70q0 -44 69 -44q86 0 166 61v-205q-132 -40 -204 -40q-115 0 -191.5 57t-76.5 153q0 193 269 320zM760 1040l-301 -547h384z" />
    <glyph glyph-name="aogonek" unicode="&#x105;" horiz-adv-x="1214" 
d="M778 56q-14 23 -23 51q-128 -127 -319 -127q-174 0 -269.5 98t-95.5 273q0 305 184.5 522.5t465.5 217.5q271 0 391 -50l-124 -657q-7 -37 -7 -82q0 -220 34 -302h-6q-13 0 -48 -20.5t-57 -54.5t-22 -70q0 -44 69 -44q86 0 166 61v-205q-132 -40 -204 -40
q-115 0 -191.5 57t-76.5 153q0 131 133 219zM699 887q-168 0 -268 -160.5t-100 -369.5q0 -173 170 -173q108 0 188.5 133t143.5 550q-71 20 -134 20z" />
    <glyph glyph-name="Dcaron" unicode="&#x10e;" horiz-adv-x="1295" 
d="M397 0h-354l267 1462q146 26 274 26q335 0 518 -153t183 -443q0 -407 -242 -649.5t-646 -242.5zM527 1251l-178 -1018q44 -4 80 -4q268 0 426 189t158 485q0 162 -109 260t-280 98q-48 0 -97 -10zM770 1565h-140l-281 358h255l130 -146l178 143h298z" />
    <glyph glyph-name="dcaron" unicode="&#x10f;" horiz-adv-x="1446" 
d="M969 0h-249l19 100q-83 -120 -275 -120q-188 0 -294 110.5t-106 300.5q0 307 171 503.5t455 196.5q54 0 121 -21t97 -46l92 486h242zM707 880q-173 0 -275.5 -127t-102.5 -323q0 -244 202 -244q218 0 283 348l48 256q-48 90 -155 90zM1397 1048l-63 85q66 50 81 73.5
t15 49.5t-34.5 60.5t-34.5 75.5q0 118 117 118q123 0 123 -139q0 -196 -204 -323z" />
    <glyph glyph-name="Dslash" unicode="&#x110;" horiz-adv-x="1340" 
d="M35 672l40 223h132l103 567q146 26 274 26q335 0 518 -153t183 -443q0 -407 -242 -649.5t-646 -242.5h-354l123 672h-131zM465 895h273l-40 -223h-272l-77 -439q44 -4 80 -4q268 0 426 189t158 485q0 162 -109 260t-280 98q-48 0 -97 -10z" />
    <glyph glyph-name="Eogonek" unicode="&#x118;" horiz-adv-x="1215" 
d="M581 0h-539l270 1465h943l-43 -228h-675l-61 -337h484l-41 -218h-484l-82 -454h664l-43 -228h-85q-13 0 -48 -20.5t-57 -54.5t-22 -70q0 -44 69 -44q86 0 166 61v-205q-132 -40 -204 -40q-115 0 -191.5 57t-76.5 153q0 89 56 163z" />
    <glyph glyph-name="eogonek" unicode="&#x119;" horiz-adv-x="1130" 
d="M390 -2q-145 41 -226 158t-81 292q0 276 177.5 459.5t464.5 183.5q169 0 274 -71.5t105 -204.5q0 -181 -156.5 -284t-385.5 -103q-112 0 -219 37q-2 -26 -2 -45q0 -112 66.5 -172t184.5 -60q63 0 145 34.5t129 77.5l-29 -263q-62 -28 -158 -44q-107 -43 -107 -138
q0 -44 69 -44q86 0 166 61v-205q-132 -40 -204 -40q-115 0 -191.5 57t-76.5 153q0 88 55 161zM391 654q65 -19 141 -19q136 0 230 41.5t94 119.5q0 87 -190 87q-75 0 -153 -65.5t-122 -163.5z" />
    <glyph glyph-name="Ecaron" unicode="&#x11a;" horiz-adv-x="1215" 
d="M1212 1237h-675l-61 -337h484l-41 -218h-484l-82 -454h664l-43 -228h-932l270 1465h943zM841 1565h-140l-281 358h255l130 -146l178 143h298z" />
    <glyph glyph-name="ecaron" unicode="&#x11b;" horiz-adv-x="1130" 
d="M343 465q-2 -26 -2 -45q0 -112 66.5 -172t184.5 -60q63 0 145 34.5t129 77.5l-29 -263q-127 -57 -310 -57q-198 0 -321 125t-123 343q0 276 177.5 459.5t464.5 183.5q169 0 274 -71.5t105 -204.5q0 -181 -156.5 -284t-385.5 -103q-112 0 -219 37zM391 654q65 -19 141 -19
q136 0 230 41.5t94 119.5q0 87 -190 87q-75 0 -153 -65.5t-122 -163.5zM838 1285h-140l-281 358h255l130 -146l178 143h298z" />
    <glyph glyph-name="Lacute" unicode="&#x139;" horiz-adv-x="1082" 
d="M974 0h-924l269 1465h262l-227 -1237h662zM632 1585h-216l205 333h284z" />
    <glyph glyph-name="lacute" unicode="&#x13a;" horiz-adv-x="655" 
d="M477 84q-59 -94 -179 -94q-90 0 -142 59t-52 153q0 122 48 351l201 957h248l-206 -997q-44 -213 -44 -304q0 -58 36 -91.5t90 -33.5zM673 1585h-216l205 333h284z" />
    <glyph glyph-name="Lcaron" unicode="&#x13d;" horiz-adv-x="1082" 
d="M974 0h-924l269 1465h262l-227 -1237h662zM854 1048l-63 85q66 50 81 73.5t15 49.5t-34.5 60.5t-34.5 75.5q0 118 117 118q123 0 123 -139q0 -196 -204 -323z" />
    <glyph glyph-name="lcaron" unicode="&#x13e;" horiz-adv-x="830" 
d="M477 84q-59 -94 -179 -94q-90 0 -142 59t-52 153q0 122 48 351l201 957h248l-206 -997q-44 -213 -44 -304q0 -58 36 -91.5t90 -33.5zM765 1048l-63 85q66 50 81 73.5t15 49.5t-34.5 60.5t-34.5 75.5q0 118 117 118q123 0 123 -139q0 -196 -204 -323z" />
    <glyph glyph-name="Ldot" unicode="&#x13f;" horiz-adv-x="1082" 
d="M974 0h-924l269 1465h262l-227 -1237h662zM864 961q63 0 106.5 -43.5t43.5 -106.5t-43.5 -107t-106.5 -44q-62 0 -106 44.5t-44 106.5t44 106t106 44z" />
    <glyph glyph-name="ldot" unicode="&#x140;" horiz-adv-x="915" 
d="M470 84q-59 -94 -179 -94q-90 0 -142 59t-52 153q0 122 48 351l201 957h248l-206 -997q-44 -213 -44 -304q0 -58 36 -91.5t90 -33.5zM785 961q63 0 106.5 -43.5t43.5 -106.5t-43.5 -107t-106.5 -44q-62 0 -106 44.5t-44 106.5t44 106t106 44z" />
    <glyph glyph-name="Nacute" unicode="&#x143;" horiz-adv-x="1352" 
d="M1113 -20h-101l-540 947l-162 -927h-258l269 1465h120l529 -908l159 908h257zM922 1585h-216l205 333h284z" />
    <glyph glyph-name="nacute" unicode="&#x144;" horiz-adv-x="1151" 
d="M947 0h-259l117 624q14 75 14 126q0 133 -157 133q-134 0 -241 -113l-143 -770h-251l151 803q4 21 4 58q0 89 -29 190l245 45l23 -120q132 115 331 115q330 0 330 -309q0 -55 -14 -130zM774 1285h-216l205 333h284z" />
    <glyph glyph-name="Ncaron" unicode="&#x147;" horiz-adv-x="1352" 
d="M1113 -20h-101l-540 947l-162 -927h-258l269 1465h120l529 -908l159 908h257zM902 1565h-140l-281 358h255l130 -146l178 143h298z" />
    <glyph glyph-name="ncaron" unicode="&#x148;" horiz-adv-x="1151" 
d="M947 0h-259l117 624q14 75 14 126q0 133 -157 133q-134 0 -241 -113l-143 -770h-251l151 803q4 21 4 58q0 89 -29 190l245 45l23 -120q132 115 331 115q330 0 330 -309q0 -55 -14 -130zM748 1285h-140l-281 358h255l130 -146l178 143h298z" />
    <glyph glyph-name="Odblacute" unicode="&#x150;" horiz-adv-x="1438" 
d="M99 545q0 391 213.5 668.5t555.5 277.5q263 0 405 -139.5t142 -403.5q0 -433 -218 -703t-597 -270q-232 0 -366.5 156.5t-134.5 413.5zM369 572q0 -169 67 -269t196 -100q238 0 376 214t138 511q0 336 -296 336q-208 0 -344.5 -220t-136.5 -472zM1192 1585h-215l177 283
h286zM822 1585h-215l177 283h286z" />
    <glyph glyph-name="odblacute" unicode="&#x151;" horiz-adv-x="1167" 
d="M72 401q0 290 177 490t448 200q207 0 319 -107.5t112 -305.5q0 -296 -175 -497t-452 -201q-203 0 -316 108.5t-113 312.5zM332 413q0 -229 197 -229q156 0 247 144.5t91 342.5q0 216 -197 216q-153 0 -245.5 -142.5t-92.5 -331.5zM979 1285h-215l177 283h286zM609 1285
h-215l177 283h286z" />
    <glyph glyph-name="Racute" unicode="&#x154;" horiz-adv-x="1277" 
d="M845 649l327 -649h-293l-280 606q-68 1 -167 8l-113 -614h-268l268 1465q292 15 383 15q237 0 374.5 -91.5t137.5 -264.5q0 -176 -100.5 -305.5t-268.5 -169.5zM546 1240l-75 -410q59 -6 105 -6q378 0 378 240q0 101 -72.5 143.5t-240.5 42.5q-14 0 -95 -10zM762 1585
h-216l205 333h284z" />
    <glyph glyph-name="racute" unicode="&#x155;" horiz-adv-x="915" 
d="M869 817q-89 66 -157 66q-97 0 -177.5 -84.5t-101.5 -193.5l-113 -605h-251l200 1071h251l-17 -93q133 113 294 113q41 0 147 -19zM684 1285h-216l205 333h284z" />
    <glyph glyph-name="Rcaron" unicode="&#x158;" horiz-adv-x="1277" 
d="M845 649l327 -649h-293l-280 606q-68 1 -167 8l-113 -614h-268l268 1465q292 15 383 15q237 0 374.5 -91.5t137.5 -264.5q0 -176 -100.5 -305.5t-268.5 -169.5zM546 1240l-75 -410q59 -6 105 -6q378 0 378 240q0 101 -72.5 143.5t-240.5 42.5q-14 0 -95 -10zM820 1568
h-140l-281 358h255l130 -146l178 143h298z" />
    <glyph glyph-name="rcaron" unicode="&#x159;" horiz-adv-x="915" 
d="M869 817q-89 66 -157 66q-97 0 -177.5 -84.5t-101.5 -193.5l-113 -605h-251l200 1071h251l-17 -93q133 113 294 113q41 0 147 -19zM692 1285h-140l-281 358h255l130 -146l178 143h298z" />
    <glyph glyph-name="Sacute" unicode="&#x15a;" horiz-adv-x="1027" 
d="M940 1176q-116 85 -236 85q-241 0 -241 -182q0 -77 128 -184l151 -128q70 -60 97 -87.5t57 -76.5t45 -99t15 -102q0 -201 -150.5 -314t-390.5 -113q-197 0 -372 85l84 257q134 -101 311 -101q107 0 177.5 45.5t70.5 129.5q0 83 -128 183l-157 125q-72 58 -97.5 84
t-53.5 72.5t-42 95.5t-14 101q0 202 134 320t351 118q72 0 184 -16.5t157 -37.5zM770 1585h-216l205 333h284z" />
    <glyph glyph-name="sacute" unicode="&#x15b;" horiz-adv-x="940" 
d="M791 778q-120 105 -220 105q-62 0 -107.5 -28.5t-45.5 -76.5q0 -59 108.5 -114t166.5 -87.5t95 -88t37 -127.5q0 -177 -132.5 -279t-338.5 -102q-176 0 -344 99l132 227q125 -118 245 -118q76 0 125.5 38t49.5 103q0 54 -94 103t-166 89.5t-109.5 99t-37.5 129.5
q0 156 124.5 248.5t305.5 92.5q124 0 322 -84zM653 1285h-216l205 333h284z" />
    <glyph glyph-name="Tcommaaccent" unicode="&#x21a;" horiz-adv-x="1403" 
d="M1391 1237h-462l-226 -1237h-263l226 1237h-466l42 228h1192zM439 -552l-63 85q66 50 81 73.5t15 49.5t-34.5 60.5t-34.5 75.5q0 118 117 118q123 0 123 -139q0 -196 -204 -323z" />
    <glyph glyph-name="tcommaaccent" unicode="&#x21b;" horiz-adv-x="897" 
d="M841 870h-295l-108 -475q-13 -57 -13 -95q0 -110 124 -110q55 0 180 52v-225q-108 -37 -294 -37q-122 0 -196 76t-74 198q0 40 9 79l121 537h-124l43 201h124l42 219l286 104l-75 -323h293zM292 -552l-63 85q66 50 81 73.5t15 49.5t-34.5 60.5t-34.5 75.5q0 118 117 118
q123 0 123 -139q0 -196 -204 -323z" />
    <glyph glyph-name="Tcaron" unicode="&#x164;" horiz-adv-x="1403" 
d="M1391 1237h-462l-226 -1237h-263l226 1237h-466l42 228h1192zM858 1568h-140l-281 358h255l130 -146l178 143h298z" />
    <glyph glyph-name="tcaron" unicode="&#x165;" horiz-adv-x="1238" 
d="M841 870h-295l-108 -475q-13 -57 -13 -95q0 -110 124 -110q55 0 180 52v-225q-108 -37 -294 -37q-122 0 -196 76t-74 198q0 40 9 79l121 537h-124l43 201h124l42 219l286 104l-75 -323h293zM1100 917l-63 85q66 50 81 73.5t15 49.5t-34.5 60.5t-34.5 75.5q0 118 117 118
q123 0 123 -139q0 -196 -204 -323z" />
    <glyph glyph-name="Uring" unicode="&#x16e;" horiz-adv-x="1355" 
d="M1217 451q-42 -226 -210 -351t-416 -125q-207 0 -337.5 99.5t-130.5 274.5q0 53 11 113l184 1003h268l-187 -998q-5 -27 -5 -57q0 -99 61 -153t166 -54q134 0 223 73t113 205l183 984h264zM915 1504q-99 0 -173 60t-74 150t74 149.5t173 59.5q100 0 173 -59t73 -150
t-73.5 -150.5t-172.5 -59.5zM918 1802q-51 0 -89 -26t-38 -66q0 -39 38 -65t89 -26t89 26t38 65q0 40 -38 66t-89 26z" />
    <glyph glyph-name="uring" unicode="&#x16f;" horiz-adv-x="1141" 
d="M928 -1h-250l15 78q-134 -97 -336 -97q-138 0 -216.5 79t-78.5 219q0 44 11 103l129 690h254l-127 -680q-8 -43 -8 -73q0 -130 146 -130q119 0 199.5 77.5t100.5 186.5l110 619h251zM689 1285q-99 0 -173 60t-74 150t74 149.5t173 59.5q100 0 173 -59t73 -150
t-73.5 -150.5t-172.5 -59.5zM692 1583q-51 0 -89 -26t-38 -66q0 -39 38 -65t89 -26t89 26t38 65q0 40 -38 66t-89 26z" />
    <glyph glyph-name="Udblacute" unicode="&#x170;" horiz-adv-x="1355" 
d="M1217 451q-42 -226 -210 -351t-416 -125q-207 0 -337.5 99.5t-130.5 274.5q0 53 11 113l184 1003h268l-187 -998q-5 -27 -5 -57q0 -99 61 -153t166 -54q134 0 223 73t113 205l183 984h264zM1173 1585h-215l177 283h286zM803 1585h-215l177 283h286z" />
    <glyph glyph-name="udblacute" unicode="&#x171;" horiz-adv-x="1141" 
d="M928 -1h-250l15 78q-134 -97 -336 -97q-138 0 -216.5 79t-78.5 219q0 44 11 103l129 690h254l-127 -680q-8 -43 -8 -73q0 -130 146 -130q119 0 199.5 77.5t100.5 186.5l110 619h251zM979 1285h-215l177 283h286zM609 1285h-215l177 283h286z" />
    <glyph glyph-name="Zacute" unicode="&#x179;" horiz-adv-x="1252" 
d="M482 228h597l-43 -228h-949v83l793 1154h-602l42 228h928v-83zM874 1585h-216l205 333h284z" />
    <glyph glyph-name="zacute" unicode="&#x17a;" horiz-adv-x="1091" 
d="M447 217h508l-41 -217h-886v85l626 769h-525l41 217h892v-89zM680 1285h-216l205 333h284z" />
    <glyph glyph-name="Zdot" unicode="&#x17b;" horiz-adv-x="1252" 
d="M482 228h597l-43 -228h-949v83l793 1154h-602l42 228h928v-83zM662 1703q0 52 46 84.5t106 32.5q58 0 105.5 -32.5t47.5 -84.5t-46.5 -85t-106.5 -33q-59 0 -105.5 32.5t-46.5 85.5z" />
    <glyph glyph-name="zdot" unicode="&#x17c;" horiz-adv-x="1091" 
d="M447 217h508l-41 -217h-886v85l626 769h-525l41 217h892v-89zM488 1403q0 52 46 84.5t106 32.5q58 0 105.5 -32.5t47.5 -84.5t-46.5 -85t-106.5 -33q-59 0 -105.5 32.5t-46.5 85.5z" />
    <glyph glyph-name="foursuperior" horiz-adv-x="910" 
d="M881 796h-97l-37 -231h-166l37 231h-385l18 110l560 572h83l-87 -532h97zM458 946h185l37 214z" />
    <glyph glyph-name="currency" unicode="&#xa4;" 
d="M987 203l-147 148q-118 -75 -249 -75t-250 75l-147 -148l-126 132l147 144q-73 122 -73 247q0 124 73 246l-147 144l126 132l148 -148q118 75 249 75t249 -74l147 147l127 -132l-147 -144q74 -122 74 -246q0 -125 -74 -247l147 -144zM321 726q0 -113 78 -191.5t191 -78.5
q111 0 190 79t79 191t-78.5 190.5t-190.5 78.5q-113 0 -191 -78.5t-78 -190.5z" />
    <glyph glyph-name="questiongreek" unicode="&#x37e;" horiz-adv-x="752" 
d="M449 1071q65 0 112 -47t47 -113q0 -62 -44.5 -109.5t-114.5 -47.5q-69 0 -113.5 46t-44.5 111q0 70 47 115t111 45zM152 -313q157 117 157 264q0 55 -57 100t-57 96q0 65 52 107.5t126 42.5q75 0 126.5 -58.5t51.5 -132.5q0 -301 -324 -520z" />
    <glyph glyph-name="tonos" unicode="&#x384;" 
d="M711 1284h-217l204 334h285z" />
    <glyph glyph-name="dieresistonos" unicode="&#x385;" 
d="M729 1214h-123l43 336h189zM1026 1507q59 0 101 -41t42 -100q0 -58 -43 -100.5t-100 -42.5q-59 0 -100 42t-41 101q0 60 40.5 100.5t100.5 40.5zM379 1507q58 0 99.5 -41t41.5 -100q0 -58 -41.5 -100.5t-99.5 -42.5q-60 0 -101.5 41.5t-41.5 101.5q0 61 40.5 101
t102.5 40z" />
    <glyph glyph-name="Alphatonos" unicode="&#x386;" horiz-adv-x="1280" 
d="M926 0l-45 299h-525l-172 -299h-270l889 1485h94l301 -1485h-272zM768 1040l-301 -546h385zM451 1464l-181 -366h-194l121 366h254z" />
    <glyph glyph-name="anoteleia" unicode="&#x387;" horiz-adv-x="752" 
d="M391 831q65 0 108.5 -44t43.5 -105q0 -63 -44 -107.5t-108 -44.5q-59 0 -104 45t-45 107q0 60 45 104.5t104 44.5z" />
    <glyph glyph-name="Epsilontonos" unicode="&#x388;" horiz-adv-x="1323" 
d="M1356 1237h-676l-62 -338h486l-41 -217h-485l-82 -455h665l-43 -227h-932l269 1464h944zM268 1464l-180 -366h-194l120 366h254z" />
    <glyph glyph-name="Etatonos" unicode="&#x389;" horiz-adv-x="1522" 
d="M1294 0h-262l125 682h-582l-124 -682h-265l269 1464h264l-105 -565h584l102 565h267zM268 1464l-180 -366h-194l120 366h254z" />
    <glyph glyph-name="Iotatonos" unicode="&#x38a;" horiz-adv-x="688" 
d="M449 0h-263l271 1464h260zM268 1464l-180 -366h-194l120 366h254z" />
    <glyph glyph-name="Omicrontonos" unicode="&#x38c;" horiz-adv-x="1511" 
d="M172 545q0 387 212.5 666.5t557.5 279.5q259 0 403 -137t144 -406q0 -428 -217.5 -700.5t-597.5 -272.5q-234 0 -368 157t-134 413zM442 571q0 -166 67 -267t198 -101q236 0 375 215t139 510q0 336 -297 336q-209 0 -345.5 -220t-136.5 -473zM268 1464l-180 -366h-194
l120 366h254z" />
    <glyph glyph-name="Upsilontonos" unicode="&#x38e;" horiz-adv-x="1436" 
d="M897 647l-119 -647h-258l121 655l-344 809h270l236 -571l440 571h297zM268 1464l-180 -366h-194l120 366h254z" />
    <glyph glyph-name="Omegatonos" unicode="&#x38f;" horiz-adv-x="1569" 
d="M344 203q-154 224 -154 463q0 213 107 414.5t283.5 311t382.5 109.5q258 0 403 -152.5t145 -408.5q0 -223 -95 -418t-255 -319q92 16 258 16l-43 -219h-583v80q230 213 338 417.5t108 432.5q0 162 -77 253t-218 91q-207 0 -345 -185.5t-138 -437.5q0 -267 184 -571v-80
h-612l43 221q157 0 268 -18zM268 1464l-180 -366h-194l120 366h254z" />
    <glyph glyph-name="iotadieresistonos" unicode="&#x390;" horiz-adv-x="578" 
d="M502 1071l-125 -654q-27 -141 -27 -208q0 -57 35.5 -91t91.5 -34q-58 -94 -180 -94q-94 0 -147.5 63.5t-53.5 149.5q0 99 45 327l107 541h254zM549 1550l-109 -336h-123l43 336h189zM737 1507q59 0 101.5 -41t42.5 -100q0 -58 -43 -100.5t-101 -42.5q-59 0 -100 42
t-41 101q0 60 40.5 100.5t100.5 40.5zM90 1507q60 0 100.5 -40.5t40.5 -100.5q0 -58 -41.5 -100.5t-99.5 -42.5q-60 0 -101.5 41.5t-41.5 101.5q0 61 41.5 101t101.5 40z" />
    <glyph glyph-name="Alpha" unicode="&#x391;" horiz-adv-x="1280" 
d="M926 0l-45 299h-525l-172 -299h-270l889 1485h94l301 -1485h-272zM768 1040l-301 -546h385z" />
    <glyph glyph-name="Beta" unicode="&#x392;" horiz-adv-x="1229" 
d="M961 817q74 -30 125 -122t51 -201q0 -255 -180 -380.5t-574 -125.5q-133 0 -330 12l269 1462q169 25 299 25q546 0 546 -361q0 -91 -56.5 -175.5t-149.5 -133.5zM549 1260l-64 -359q37 -2 109 -2q137 0 224 58.5t87 177.5q0 131 -231 131q-48 0 -125 -6zM451 715
l-95 -502q30 -4 88 -4q198 0 313 66.5t115 197.5q0 246 -319 246q-35 0 -102 -4z" />
    <glyph glyph-name="Gamma" unicode="&#x393;" horiz-adv-x="1126" 
d="M1192 1237h-647l-228 -1237h-264l269 1464h911z" />
    <glyph glyph-name="Epsilon" unicode="&#x395;" horiz-adv-x="1190" 
d="M1223 1237h-676l-62 -338h486l-41 -217h-486l-82 -455h666l-43 -227h-932l269 1464h944z" />
    <glyph glyph-name="Zeta" unicode="&#x396;" horiz-adv-x="1206" 
d="M457 227h598l-43 -227h-951v84l795 1153h-602l41 227h928v-82z" />
    <glyph glyph-name="Eta" unicode="&#x397;" horiz-adv-x="1389" 
d="M1161 0h-262l125 682h-582l-125 -682h-264l269 1464h264l-105 -565h584l102 565h267z" />
    <glyph glyph-name="Theta" unicode="&#x398;" horiz-adv-x="1470" 
d="M98 545q0 259 116.5 489t295.5 343.5t403 113.5q258 0 396.5 -143.5t138.5 -407.5q0 -218 -90.5 -444.5t-273.5 -373.5t-455 -147q-258 0 -394.5 148t-136.5 422zM360 543q0 -344 302 -344q158 0 277 103.5t183 285.5t64 354q0 326 -307 326q-224 0 -371.5 -215.5
t-147.5 -509.5zM1075 860l-47 -223h-553l47 223h553z" />
    <glyph glyph-name="Iota" unicode="&#x399;" horiz-adv-x="569" 
d="M330 0h-262l270 1464h260z" />
    <glyph glyph-name="Kappa" unicode="&#x39a;" horiz-adv-x="1276" 
d="M799 821l364 -821h-293l-274 627l-209 -230l-74 -397h-260l271 1464h258l-121 -665l608 665h309z" />
    <glyph glyph-name="Lambda" unicode="&#x39b;" horiz-adv-x="1290" 
d="M809 1485h98l291 -1485h-289l-143 973l-543 -973h-297z" />
    <glyph glyph-name="Mu" unicode="&#x39c;" horiz-adv-x="1612" 
d="M1233 0l-16 793l-445 -813h-92l-143 821l-308 -801h-252l545 1464h146l147 -927l485 927h150l41 -1464h-258z" />
    <glyph glyph-name="Nu" unicode="&#x39d;" horiz-adv-x="1352" 
d="M1118 -20h-100l-541 948l-162 -928h-258l271 1464h118l531 -907l158 907h258z" />
    <glyph glyph-name="Xi" unicode="&#x39e;" horiz-adv-x="1335" 
d="M1380 1464l-39 -215h-403l-66 -356h304l-37 -205h-303l-86 -471h415l-41 -217h-1087l41 217h416l86 471h-304l37 205h303l66 356h-403l38 215h1063z" />
    <glyph glyph-name="Omicron" unicode="&#x39f;" horiz-adv-x="1438" 
d="M98 545q0 387 212.5 666.5t557.5 279.5q259 0 403 -137t144 -406q0 -302 -107 -523.5t-284 -335.5t-424 -114q-234 0 -368 157t-134 413zM369 571q0 -166 67 -267t197 -101q236 0 375 215t139 510q0 336 -297 336q-208 0 -344.5 -220t-136.5 -473z" />
    <glyph glyph-name="Pi" unicode="&#x3a0;" horiz-adv-x="1346" 
d="M1120 0h-264l227 1237h-536l-228 -1237h-264l269 1464h1065z" />
    <glyph glyph-name="Rho" unicode="&#x3a1;" horiz-adv-x="1208" 
d="M418 539l-99 -539h-266l277 1462q192 23 317 23q582 0 582 -436q0 -245 -175.5 -387t-457.5 -142q-92 0 -178 19zM547 1243l-88 -483q61 -15 131 -15q168 0 268 74t100 209q0 232 -262 232q-64 0 -149 -17z" />
    <glyph glyph-name="Sigma" unicode="&#x3a3;" horiz-adv-x="1274" 
d="M25 0v84l661 696l-379 602v82h1030l-41 -227h-591l292 -467l-503 -543h614l-43 -227h-1040z" />
    <glyph glyph-name="Tau" unicode="&#x3a4;" horiz-adv-x="1335" 
d="M1391 1237h-461l-228 -1237h-262l226 1237h-465l41 227h1192z" />
    <glyph glyph-name="Upsilon" unicode="&#x3a5;" horiz-adv-x="1243" 
d="M776 647l-119 -647h-258l121 655l-344 809h270l236 -571l440 571h297z" />
    <glyph glyph-name="Phi" unicode="&#x3a6;" horiz-adv-x="1655" 
d="M1124 1372q239 -19 375.5 -154.5t136.5 -349.5q0 -290 -197 -504.5t-546 -240.5l-29 -152h-260l29 152q-236 16 -375 153t-139 351q0 270 201.5 494.5t543.5 250.5l29 152h260zM926 322q245 42 346.5 201t101.5 331q0 133 -75 216.5t-216 100.5zM831 1174
q-206 -34 -328 -187.5t-122 -345.5q0 -133 75.5 -216.5t217.5 -100.5z" />
    <glyph glyph-name="Chi" unicode="&#x3a7;" horiz-adv-x="1321" 
d="M836 741l346 -741h-289l-231 516l-394 -516h-303l588 772l-279 694l269 -2l188 -487l395 487h304z" />
    <glyph glyph-name="Psi" unicode="&#x3a8;" horiz-adv-x="1698" 
d="M1741 1464l-100 -567q-31 -176 -120 -296t-233 -189.5t-336 -85.5l-59 -330h-260l59 328q-493 52 -493 448q0 63 13 131l105 561h258q-101 -539 -105.5 -578t-4.5 -73q0 -250 268 -274l172 925h252l-170 -925q158 17 261.5 116t134.5 267l100 542h258z" />
    <glyph glyph-name="Iotadieresis" unicode="&#x3aa;" horiz-adv-x="569" 
d="M330 0h-262l270 1464h260zM741 1884q56 0 102 -31.5t46 -80.5q0 -52 -45 -82.5t-103 -30.5q-57 0 -102 30.5t-45 82.5q0 51 45 81.5t102 30.5zM268 1884q56 0 102 -30t46 -82q0 -50 -44.5 -81.5t-103.5 -31.5q-57 0 -102 30.5t-45 82.5q0 49 46 80.5t101 31.5z" />
    <glyph glyph-name="Upsilondieresis" unicode="&#x3ab;" horiz-adv-x="1243" 
d="M776 647l-119 -647h-258l121 655l-344 809h270l236 -571l440 571h297zM1114 1884q56 0 102 -31.5t46 -80.5q0 -52 -45 -82.5t-103 -30.5q-57 0 -102 30.5t-45 82.5t45.5 82t101.5 30zM641 1884q56 0 101.5 -30t45.5 -82q0 -50 -44 -81.5t-103 -31.5q-57 0 -102 30.5
t-45 82.5q0 49 45.5 80.5t101.5 31.5z" />
    <glyph glyph-name="alphatonos" unicode="&#x3ac;" horiz-adv-x="1190" 
d="M969 238q0 -130 75 -234q-9 0 -47 -6q-70 -10 -100 -10q-116 0 -152 125q-112 -133 -307 -133q-173 0 -268.5 96.5t-95.5 273.5q0 223 95.5 395.5t238.5 259.5t315 87q276 0 393 -52q-109 -539 -128 -649.5t-19 -152.5zM700 887q-167 0 -266.5 -157.5t-99.5 -373.5
q0 -172 170 -172q109 0 187 123t145 559q-68 21 -136 21zM1032 1610l-182 -330h-193l115 330h260z" />
    <glyph glyph-name="epsilontonos" unicode="&#x3ad;" horiz-adv-x="1040" 
d="M926 823q-134 70 -310 70q-83 0 -137.5 -42t-54.5 -103q0 -105 174 -105q92 0 180 6l-35 -192q-100 6 -182 6q-111 0 -176.5 -52.5t-65.5 -121.5q0 -111 170 -111q178 0 338 109l82 -191q-200 -119 -475 -119q-167 0 -273 70.5t-106 202.5q0 97 68.5 177t187.5 122
q-68 19 -106.5 71t-38.5 119q0 89 58.5 170t169.5 133t251 52q190 0 365 -82zM932 1610l-182 -330h-193l115 330h260z" />
    <glyph glyph-name="etatonos" unicode="&#x3ae;" horiz-adv-x="1202" 
d="M922 -276l-273 -64l182 965q13 59 13 125q0 133 -158 133q-136 0 -240 -113l-143 -770h-252l152 803q4 28 4 57q0 86 -29 191l244 45l24 -119q134 115 330 115q330 0 330 -310q0 -52 -14 -131zM997 1610l-182 -330h-192l114 330h260z" />
    <glyph glyph-name="iotatonos" unicode="&#x3af;" horiz-adv-x="578" 
d="M502 1071l-125 -654q-27 -141 -27 -208q0 -57 35.5 -91t91.5 -34q-58 -94 -180 -94q-94 0 -147.5 63.5t-53.5 149.5q0 99 45 327l107 541h254zM641 1610l-182 -330h-193l115 330h260z" />
    <glyph glyph-name="upsilondieresistonos" unicode="&#x3b0;" horiz-adv-x="1206" 
d="M1130 1071q9 -73 9 -135q0 -239 -67.5 -460t-218 -357.5t-355.5 -136.5q-181 0 -281 97.5t-100 264.5q0 80 22 187l113 540h258l-85 -421q-36 -183 -41 -223.5t-5 -66.5q0 -170 153 -170q106 0 192 109.5t120.5 320t34.5 328.5q0 59 -5 123h256zM838 1550l-109 -336h-123
l43 336h189zM1026 1507q59 0 101 -41t42 -100q0 -58 -43 -100.5t-100 -42.5q-59 0 -100 42t-41 101q0 60 40.5 100.5t100.5 40.5zM379 1507q58 0 99.5 -41t41.5 -100q0 -58 -41.5 -100.5t-99.5 -42.5q-60 0 -101.5 41.5t-41.5 101.5q0 61 40.5 101t102.5 40z" />
    <glyph glyph-name="alpha" unicode="&#x3b1;" horiz-adv-x="1190" 
d="M969 238q0 -130 75 -234q-9 0 -47 -6q-70 -10 -100 -10q-116 0 -152 125q-112 -133 -307 -133q-173 0 -268.5 96.5t-95.5 273.5q0 223 95.5 395.5t238.5 259.5t315 87q276 0 393 -52q-109 -539 -128 -649.5t-19 -152.5zM700 887q-167 0 -266.5 -157.5t-99.5 -373.5
q0 -172 170 -172q109 0 187 123t145 559q-68 21 -136 21z" />
    <glyph glyph-name="beta" unicode="&#x3b2;" horiz-adv-x="1196" 
d="M848 831q130 -35 199 -126t69 -213q0 -134 -86 -263t-223.5 -189t-290.5 -60q-110 0 -240 29t-171.5 51t-41.5 46q0 12 3 23l161 887q42 230 187 366t356 136q164 0 268.5 -84t104.5 -217q0 -128 -76.5 -231t-218.5 -155zM457 920h139q139 0 219 80t80 184
q0 135 -156 135q-96 0 -172 -78.5t-110 -320.5zM334 244q17 -31 75 -48.5t126 -17.5q150 0 237.5 87t87.5 227q0 112 -78 174.5t-223 62.5h-137z" />
    <glyph glyph-name="gamma" unicode="&#x3b3;" horiz-adv-x="1159" 
d="M1219 1071q-193 -466 -605 -1036q-10 -148 -29 -212.5t-63.5 -118.5t-115.5 -86.5t-170 -43.5l-39 213q83 8 123 66t40 217q0 180 -40 403.5t-84.5 306t-151.5 88.5l35 211h51q158 0 239.5 -82t125.5 -300t49 -355q226 362 360 729h275z" />
    <glyph glyph-name="delta" unicode="&#x3b4;" horiz-adv-x="1192" 
d="M1241 1509l-37 -200q-348 0 -375 8l-4 -6q28 -14 144 -199t137.5 -284t21.5 -166q0 -161 -74.5 -326.5t-217 -260.5t-332.5 -95q-207 0 -318.5 114.5t-111.5 315.5q0 184 81.5 342.5t209 242.5t270.5 84q41 0 84 -10l-223 361l14 79h731zM870 678q0 124 -67 211
q-52 16 -113 16q-160 0 -258 -150.5t-98 -344.5q0 -108 49.5 -167t144.5 -59q161 0 251.5 152t90.5 342z" />
    <glyph glyph-name="epsilon" unicode="&#x3b5;" horiz-adv-x="1040" 
d="M926 823q-140 70 -310 70q-83 0 -137.5 -42t-54.5 -103q0 -105 174 -105q92 0 180 6l-35 -192q-100 6 -182 6q-111 0 -176.5 -52.5t-65.5 -121.5q0 -111 170 -111q178 0 338 109l82 -191q-200 -119 -475 -119q-167 0 -273 70.5t-106 202.5q0 97 68.5 177t187.5 122
q-68 19 -106.5 71t-38.5 119q0 141 135.5 248t343.5 107q190 0 365 -82z" />
    <glyph glyph-name="zeta" unicode="&#x3b6;" horiz-adv-x="977" 
d="M1157 1430q-437 -403 -633 -657t-196 -427q0 -78 51 -108.5t185 -44.5q130 -14 190.5 -42.5t94.5 -81t34 -120.5q0 -148 -115 -258.5t-299 -110.5q-88 0 -150 14l48 187q55 -19 114 -19q69 0 110.5 39t41.5 99q0 52 -44 70t-194 26q-158 6 -251 87t-93 214
q0 269 260.5 578t454.5 436v6q-28 -8 -387 -8l39 200h739v-79z" />
    <glyph glyph-name="eta" unicode="&#x3b7;" horiz-adv-x="1202" 
d="M922 -276l-273 -64l182 965q13 59 13 125q0 133 -158 133q-136 0 -240 -113l-143 -770h-252l152 803q4 28 4 57q0 86 -29 191l244 45l24 -119q134 115 330 115q330 0 330 -310q0 -52 -14 -131z" />
    <glyph glyph-name="theta" unicode="&#x3b8;" horiz-adv-x="1227" 
d="M797 1516q399 0 399 -498q0 -224 -91 -495.5t-233.5 -407t-349.5 -135.5q-196 0 -297.5 124t-101.5 367q0 225 90.5 501.5t239 410t344.5 133.5zM926 872q18 124 18 158q0 283 -178 283q-219 0 -328 -441h488zM893 674h-496q-22 -151 -22 -203q0 -150 43 -219.5
t133 -69.5q129 0 212.5 140.5t129.5 351.5z" />
    <glyph glyph-name="iota" unicode="&#x3b9;" horiz-adv-x="578" 
d="M502 1071l-125 -654q-27 -141 -27 -208q0 -57 35.5 -91t91.5 -34q-58 -94 -180 -94q-94 0 -147.5 63.5t-53.5 149.5q0 99 45 327l107 541h254z" />
    <glyph glyph-name="kappa" unicode="&#x3ba;" horiz-adv-x="1176" 
d="M795 0l-260 451l-177 -134l-59 -317h-250l195 1071h250l-84 -469q356 291 439 365.5t130 134.5l168 -166q-80 -95 -420 -354l354 -582h-286z" />
    <glyph glyph-name="lambda" unicode="&#x3bb;" horiz-adv-x="1151" 
d="M1026 0h-264l-100 793l-451 -793h-289l682 1098q-13 123 -38.5 164t-92.5 41q-49 0 -133 -37l-74 204q134 46 248 46q137 0 219 -77.5t113 -277.5z" />
    <glyph glyph-name="nu" unicode="&#x3bd;" horiz-adv-x="1118" 
d="M520 -20h-90l-330 1091h267l186 -696q231 369 350 696h275q-207 -498 -658 -1091z" />
    <glyph glyph-name="xi" unicode="&#x3be;" horiz-adv-x="1012" 
d="M1118 1454l-92 -205q-115 66 -256 66q-109 0 -184.5 -63.5t-75.5 -157.5q0 -170 274 -170h166l-35 -205h-127q-127 0 -200 -30t-136 -85t-95.5 -122.5t-32.5 -123.5q0 -84 57 -120t208.5 -47.5t224.5 -76t73 -165.5q0 -148 -116 -258.5t-298 -110.5q-88 0 -149 14l47 187
q55 -19 114 -19q69 0 110.5 39t41.5 99q0 52 -44 70t-194 26q-160 6 -252 91t-92 228q0 161 110 296t296 208q-97 21 -155 97t-58 178q0 170 152 297t388 127q172 0 330 -64z" />
    <glyph glyph-name="omicron" unicode="&#x3bf;" horiz-adv-x="1188" 
d="M76 401q0 289 177.5 490t446.5 201q205 0 319 -107.5t114 -306.5q0 -204 -84.5 -363t-222 -247t-320.5 -88q-208 0 -319 109.5t-111 311.5zM336 414q0 -230 196 -230q156 0 247 142t91 346q0 215 -196 215q-155 0 -246.5 -142.5t-91.5 -330.5z" />
    <glyph glyph-name="rho" unicode="&#x3c1;" horiz-adv-x="1217" 
d="M-31 -420l174 957q45 244 197.5 399.5t400.5 155.5q196 0 312 -107t116 -317q0 -273 -170 -480.5t-464 -207.5q-127 0 -230 57l-82 -457h-254zM344 246q67 -58 201 -58q182 0 272 141.5t90 329.5q0 228 -198 228q-78 0 -141 -41.5t-106 -120t-68 -210.5z" />
    <glyph glyph-name="sigma1" unicode="&#x3c2;" horiz-adv-x="973" 
d="M1057 1008l-94 -201q-106 76 -228 76q-173 0 -276 -138.5t-103 -295.5q0 -185 226 -228q162 -30 238.5 -97t76.5 -177q0 -151 -114.5 -260t-297.5 -109q-87 0 -149 14l47 187q55 -19 115 -19q65 0 107 35.5t42 98.5q0 90 -125 110q-187 30 -268 81t-123.5 141t-42.5 200
q0 171 87 333t234 247.5t339 85.5q170 0 309 -84z" />
    <glyph glyph-name="sigma" unicode="&#x3c3;" horiz-adv-x="1251" 
d="M76 406q0 276 188.5 470.5t499.5 194.5h522l-37 -207l-262 4q131 -127 131 -317q0 -218 -169.5 -394.5t-432.5 -176.5q-205 0 -322.5 116t-117.5 310zM340 412q0 -109 52 -168.5t151 -59.5q131 0 224 112t93 275q0 191 -125 295q-186 0 -290.5 -133t-104.5 -321z" />
    <glyph glyph-name="tau" unicode="&#x3c4;" horiz-adv-x="963" 
d="M1006 1071l-37 -209h-342l-85 -412q-30 -147 -30 -171q0 -82 82 -82q43 0 100 18v-209q-86 -22 -162 -22q-130 0 -204 67.5t-74 190.5q0 56 18 137l105 483h-287l37 209h879z" />
    <glyph glyph-name="upsilon" unicode="&#x3c5;" horiz-adv-x="1206" 
d="M1130 1071q9 -73 9 -135q0 -239 -67.5 -460t-218 -357.5t-355.5 -136.5q-181 0 -281 97.5t-100 264.5q0 80 22 187l113 540h258l-85 -421q-36 -183 -41 -223.5t-5 -66.5q0 -170 153 -170q106 0 192 109.5t120.5 320t34.5 328.5q0 59 -5 123h256z" />
    <glyph glyph-name="phi" unicode="&#x3c6;" horiz-adv-x="1552" 
d="M604 178l86 474q30 170 86 259t140.5 136t189.5 47q187 0 293 -123.5t106 -306.5q0 -256 -176 -455t-520 -227l-72 -402h-243l71 402q-239 21 -362 135.5t-123 304.5q0 231 125 407.5t311 268.5l100 -158q-143 -92 -212.5 -224t-69.5 -263q0 -121 69 -192t201 -83z
M844 176q183 18 295 144.5t112 324.5q0 123 -46.5 188.5t-114.5 65.5q-52 0 -89.5 -38.5t-51.5 -109.5z" />
    <glyph glyph-name="chi" unicode="&#x3c7;" horiz-adv-x="1176" 
d="M729 541l318 -541h-295l-189 373l-287 -373h-317l490 561l-293 510h288l174 -340l271 340h301z" />
    <glyph glyph-name="psi" unicode="&#x3c8;" horiz-adv-x="1608" 
d="M1571 1071l-88 -504q-32 -186 -114.5 -311t-217 -194t-317.5 -80l-72 -402h-244l72 402q-459 49 -459 432q0 66 16 153l95 504h250l-68 -368q-32 -174 -35.5 -205.5t-3.5 -59.5q0 -232 244 -258l162 891h239l-162 -893q149 19 243 115t123 259l93 519h244z" />
    <glyph glyph-name="omega" unicode="&#x3c9;" horiz-adv-x="1628" 
d="M1284 1102q133 -77 202.5 -211.5t69.5 -280.5q0 -246 -150.5 -438t-373.5 -192q-200 0 -270 149q-120 -149 -324 -149q-165 0 -260.5 106.5t-95.5 284.5q0 207 109.5 397.5t314.5 333.5l151 -166q-149 -105 -232 -252.5t-83 -304.5q0 -93 39 -142t108 -49q21 0 39.5 4
t36.5 12.5t35.5 22t34.5 33.5t34 46q5 7 36 163q22 108 33 173q14 88 18 132h252q-11 -40 -25 -104t-32 -155l-38 -189q0 -36 32 -87t104 -51q109 0 180 119t71 297q0 219 -153 336z" />
    <glyph glyph-name="iotadieresis" unicode="&#x3ca;" horiz-adv-x="578" 
d="M502 1071l-125 -654q-27 -141 -27 -208q0 -57 35.5 -91t91.5 -34q-58 -94 -180 -94q-94 0 -147.5 63.5t-53.5 149.5q0 99 45 327l107 541h254zM678 1507q59 0 101 -41t42 -100q0 -58 -42.5 -100.5t-100.5 -42.5q-59 0 -100 42t-41 101q0 60 40.5 100.5t100.5 40.5z
M139 1507q60 0 101 -40.5t41 -100.5q0 -58 -42 -100.5t-100 -42.5q-59 0 -101 41.5t-42 101.5t41.5 100.5t101.5 40.5z" />
    <glyph glyph-name="upsilondieresis" unicode="&#x3cb;" horiz-adv-x="1206" 
d="M1130 1071q9 -73 9 -135q0 -239 -67.5 -460t-218 -357.5t-355.5 -136.5q-181 0 -281 97.5t-100 264.5q0 80 22 187l113 540h258l-85 -421q-36 -183 -41 -223.5t-5 -66.5q0 -170 153 -170q106 0 192 109.5t120.5 320t34.5 328.5q0 59 -5 123h256zM979 1507q59 0 101 -41
t42 -100q0 -58 -42.5 -100.5t-100.5 -42.5q-59 0 -100 42t-41 101q0 60 40.5 100.5t100.5 40.5zM434 1507q60 0 100.5 -40.5t40.5 -100.5q0 -58 -41.5 -100.5t-99.5 -42.5q-59 0 -101 41.5t-42 101.5t41.5 100.5t101.5 40.5z" />
    <glyph glyph-name="omicrontonos" unicode="&#x3cc;" horiz-adv-x="1188" 
d="M76 401q0 289 177.5 490t446.5 201q205 0 319 -107.5t114 -306.5q0 -204 -84.5 -363t-222 -247t-320.5 -88q-208 0 -319 109.5t-111 311.5zM336 414q0 -230 196 -230q156 0 247 142t91 346q0 215 -196 215q-155 0 -246.5 -142.5t-91.5 -330.5zM985 1610l-182 -330h-193
l115 330h260z" />
    <glyph glyph-name="upsilontonos" unicode="&#x3cd;" horiz-adv-x="1206" 
d="M1130 1071q9 -73 9 -135q0 -239 -67.5 -460t-218 -357.5t-355.5 -136.5q-181 0 -281 97.5t-100 264.5q0 80 22 187l113 540h258l-85 -421q-36 -183 -41 -223.5t-5 -66.5q0 -170 153 -170q106 0 192 109.5t120.5 320t34.5 328.5q0 59 -5 123h256zM971 1610l-183 -330h-192
l115 330h260z" />
    <glyph glyph-name="omegatonos" unicode="&#x3ce;" horiz-adv-x="1628" 
d="M1284 1102q133 -77 202.5 -211.5t69.5 -280.5q0 -246 -150.5 -438t-373.5 -192q-200 0 -270 149q-120 -149 -324 -149q-165 0 -260.5 106.5t-95.5 284.5q0 207 109.5 397.5t314.5 333.5l151 -166q-149 -105 -232 -252.5t-83 -304.5q0 -93 39 -142t108 -49q21 0 39.5 4
t36.5 12.5t35.5 22t34.5 33.5t34 46q5 7 36 163q22 108 33 173q14 88 18 132h252q-11 -40 -25 -104t-32 -155l-38 -189q0 -36 32 -87t104 -51q109 0 180 119t71 297q0 219 -153 336zM1196 1610l-182 -330h-193l115 330h260z" />
    <glyph glyph-name="afii10023" unicode="&#x401;" horiz-adv-x="1178" 
d="M1223 1237h-676l-62 -338h486l-41 -217h-486l-82 -455h666l-43 -227h-932l269 1464h944zM1079 1911q57 0 101.5 -39.5t44.5 -97.5q0 -61 -43.5 -99.5t-102.5 -38.5q-56 0 -100.5 37t-44.5 101q0 59 42.5 98t102.5 39zM614 1911q55 0 100.5 -36.5t45.5 -100.5
q0 -58 -42 -98t-104 -40q-56 0 -100.5 37t-44.5 101q0 56 43.5 96.5t101.5 40.5z" />
    <glyph glyph-name="afii10051" unicode="&#x402;" horiz-adv-x="1571" 
d="M770 672l-123 -672h-264l229 1239h-401l41 225h1110l-41 -225h-447l-67 -360q112 24 231 24q205 0 326.5 -102.5t121.5 -278.5q0 -124 -58 -256.5t-175 -204t-266 -71.5q-45 0 -121 8l41 215q52 -8 86 -8q74 0 129 44t76 119.5t21 127.5q0 95 -63.5 146.5t-178.5 51.5
q-97 0 -207 -22z" />
    <glyph glyph-name="afii10052" unicode="&#x403;" horiz-adv-x="1139" 
d="M1200 1237h-645l-236 -1237h-266l277 1464h911zM1163 1921l-268 -332h-207l205 332h270z" />
    <glyph glyph-name="afii10053" unicode="&#x404;" horiz-adv-x="1206" 
d="M1237 1434l-78 -238q-115 74 -252 74q-154 0 -284.5 -107t-196.5 -291h539l-39 -215h-553q-8 -50 -8 -88q0 -197 94 -283.5t233 -86.5q183 0 363 129l-6 -238q-152 -115 -402 -115q-252 0 -395 155t-143 417q0 241 101.5 457.5t284.5 351.5t433 135q165 0 309 -57z" />
    <glyph glyph-name="afii10054" unicode="&#x405;" horiz-adv-x="1047" 
d="M938 1176q-117 86 -236 86q-241 0 -241 -183q0 -77 129 -184q181 -154 224.5 -193t77 -97t48 -105.5t14.5 -98.5q0 -197 -149 -311.5t-391 -114.5q-196 0 -373 84l84 258q136 -102 311 -102q105 0 176.5 46t71.5 130q0 40 -30 83.5t-90 91.5l-165 132q-87 70 -125 117.5
t-59.5 109.5t-21.5 128q0 203 135 320.5t350 117.5q57 0 178.5 -18t161.5 -37z" />
    <glyph glyph-name="afii10055" unicode="&#x406;" horiz-adv-x="569" 
d="M330 0h-262l270 1464h260z" />
    <glyph glyph-name="afii10056" unicode="&#x407;" horiz-adv-x="569" 
d="M330 0h-262l270 1464h260zM741 1911q57 0 101.5 -39.5t44.5 -97.5q0 -61 -43.5 -99.5t-102.5 -38.5q-56 0 -100.5 37t-44.5 101q0 59 42.5 98t102.5 39zM276 1911q55 0 100.5 -36.5t45.5 -100.5q0 -58 -42 -98t-104 -40q-56 0 -100.5 37t-44.5 101q0 58 44.5 97.5
t100.5 39.5z" />
    <glyph glyph-name="afii10057" unicode="&#x408;" horiz-adv-x="1016" 
d="M18 336h228q0 -127 108 -127q102 0 157 36.5t75.5 96t48.5 209.5l168 913h258l-168 -915q-67 -356 -202 -462.5t-367 -106.5q-137 0 -224.5 73t-87.5 209q0 31 6 74z" />
    <glyph glyph-name="afii10058" unicode="&#x409;" horiz-adv-x="2101" 
d="M1759 518q0 199 -268 199q-51 0 -145 -10l-91 -490q106 -6 127 -6q201 0 289 92.5t88 214.5zM1382 913q116 13 172 13q221 0 345 -98t124 -277q0 -236 -163.5 -393.5t-462.5 -157.5h-439l232 1243h-287q-108 -407 -252 -714.5t-291.5 -425t-396.5 -117.5l47 241
q66 0 124.5 22t117.5 81.5t145 229.5t171.5 412t154.5 492h762z" />
    <glyph glyph-name="afii10059" unicode="&#x40a;" horiz-adv-x="1946" 
d="M1604 518q0 199 -269 199q-51 0 -145 -10l-90 -490q106 -6 127 -6q201 0 289 92.5t88 214.5zM1229 913q114 13 170 13q221 0 344.5 -98t123.5 -277q0 -236 -163 -393.5t-463 -157.5h-440l125 682h-484l-125 -682h-264l269 1464h264l-105 -565h486l102 565h262z" />
    <glyph glyph-name="afii10060" unicode="&#x40b;" horiz-adv-x="1608" 
d="M772 672l-121 -672h-264l223 1239h-399l41 225h1110l-41 -225h-447l-65 -360q112 24 227 24q206 0 324.5 -96.5t118.5 -268.5q0 -50 -11 -105l-82 -433h-268l64 344q23 126 23 158q0 192 -230 192q-94 0 -203 -22z" />
    <glyph glyph-name="afii10061" unicode="&#x40c;" horiz-adv-x="1307" 
d="M1376 1470l-41 -231q-9 2 -43 2q-42 0 -65.5 -23t-52.5 -100q-53 -134 -160.5 -228t-251.5 -122q268 -97 274 -416q2 -85 20 -107t68 -22q23 0 41 4l-43 -233q-29 -6 -86 -6q-132 0 -191 69t-59 222q0 205 -80 295t-260 90h-12l-121 -664h-260l269 1464h260l-109 -579h10
q352 0 465 319q51 141 121 206t215 65q55 0 92 -5zM1186 1921l-268 -332h-207l204 332h271z" />
    <glyph glyph-name="afii10062" unicode="&#x40e;" horiz-adv-x="1270" 
d="M1425 1464q-189 -473 -415 -836t-420 -502.5t-492 -139.5h-24l49 239q12 -2 47 -2q241 0 399 187l-374 1054h280l266 -858q245 405 410 858h274zM1231 1884q-82 -301 -408 -301q-152 0 -241 79.5t-89 217.5q0 30 5 62l217 -23q-4 -22 -4 -42q0 -124 133 -124
q154 0 186 176z" />
    <glyph glyph-name="afii10145" unicode="&#x40f;" horiz-adv-x="1343" 
d="M467 0h-414l269 1464h262l-228 -1237h541l227 1237h262l-268 -1464h-413l-76 -420h-238z" />
    <glyph glyph-name="afii10017" unicode="&#x410;" horiz-adv-x="1298" 
d="M934 0l-45 299h-524l-172 -299h-271l889 1485h94l301 -1485h-272zM776 1040l-301 -546h385z" />
    <glyph glyph-name="afii10018" unicode="&#x411;" horiz-adv-x="1214" 
d="M863 508q0 184 -271 184q-74 0 -154 -8l-86 -467q81 -6 137 -6q203 0 288.5 89t85.5 208zM475 891q106 10 180 10q225 0 352.5 -97t127.5 -274q0 -228 -165.5 -379t-465.5 -151h-451l269 1464h886l-39 -225h-624z" />
    <glyph glyph-name="afii10019" unicode="&#x412;" horiz-adv-x="1219" 
d="M918 805q106 -39 165.5 -125t59.5 -188q0 -230 -176.5 -367t-583.5 -137q-133 0 -330 12l269 1462q186 23 333 23q251 0 380.5 -93t129.5 -266q0 -108 -64.5 -193t-182.5 -128zM543 1262l-66 -361q38 -2 129 -2q151 0 225 58t74 147q0 168 -223 168q-68 0 -139 -10z
M444 715l-94 -506q30 -4 105 -4q233 0 327.5 75.5t94.5 194.5q0 244 -306 244q-50 0 -127 -4z" />
    <glyph glyph-name="afii10020" unicode="&#x413;" horiz-adv-x="1139" 
d="M1200 1237h-645l-236 -1237h-266l277 1464h911z" />
    <glyph glyph-name="afii10021" unicode="&#x414;" horiz-adv-x="1518" 
d="M1255 215h164l-114 -635h-232l76 420h-961l-79 -420h-232l119 635h100q161 171 339.5 457t367.5 792h686zM1206 1251h-256q-90 -277 -251 -571t-316 -465h618z" />
    <glyph glyph-name="afii10022" unicode="&#x415;" horiz-adv-x="1178" 
d="M1223 1237h-676l-62 -338h486l-41 -217h-486l-82 -455h666l-43 -227h-932l269 1464h944z" />
    <glyph glyph-name="afii10024" unicode="&#x416;" horiz-adv-x="1927" 
d="M1995 1470l-43 -229q-8 2 -39 2q-47 0 -70 -30t-47 -97q-106 -289 -385 -348q238 -105 248 -416q3 -86 20 -108.5t66 -22.5q17 0 35 4l-41 -231q-27 -6 -82 -6q-121 0 -177.5 66.5t-56.5 207.5q0 404 -299 404l-120 -666h-250l120 666q-321 0 -454 -394
q-50 -149 -127 -216.5t-205 -67.5q-57 0 -84 6l43 231q14 -4 35 -4q44 0 67.5 24t57.5 115q115 323 416 416q-248 67 -258 340q-3 68 -15 97.5t-57 29.5q-37 0 -45 -2l41 229q35 5 92 5q118 0 167.5 -64t49.5 -201q0 -170 74.5 -248.5t240.5 -78.5l109 581h250l-109 -581
q151 0 261 82t163 237q48 141 116.5 207t197.5 66q59 0 94 -5z" />
    <glyph glyph-name="afii10025" unicode="&#x417;" horiz-adv-x="1124" 
d="M823 788q106 -34 164 -116t58 -189q0 -117 -66.5 -237.5t-213.5 -195.5t-345 -75q-100 0 -215 29.5t-193 75.5l88 231q69 -50 164 -81t180 -31q146 0 239.5 77t93.5 205q0 106 -76.5 158.5t-206.5 52.5q-95 0 -158 -6l37 213q79 -8 147 -8q160 0 247.5 66.5t87.5 170.5
q0 142 -198 142q-160 0 -329 -76l-70 225q212 72 442 72q194 0 308.5 -87t114.5 -237q0 -135 -84.5 -235t-215.5 -144z" />
    <glyph glyph-name="afii10026" unicode="&#x418;" horiz-adv-x="1427" 
d="M1198 0h-264l178 975l-946 -998h-113l273 1487h264l-180 -975l948 998h112z" />
    <glyph glyph-name="afii10027" unicode="&#x419;" horiz-adv-x="1427" 
d="M1198 0h-264l178 975l-946 -998h-113l273 1487h264l-180 -975l948 998h112zM1346 1884q-82 -301 -408 -301q-152 0 -241 79.5t-89 217.5q0 30 4 62l217 -23q-3 -22 -3 -42q0 -124 132 -124q156 0 189 176z" />
    <glyph glyph-name="afii10028" unicode="&#x41a;" horiz-adv-x="1307" 
d="M1376 1470l-41 -231q-9 2 -43 2q-42 0 -65.5 -23t-52.5 -100q-53 -134 -160.5 -228t-251.5 -122q268 -97 274 -416q2 -85 20 -107t68 -22q23 0 41 4l-43 -233q-29 -6 -86 -6q-132 0 -191 69t-59 222q0 205 -80 295t-260 90h-12l-121 -664h-260l269 1464h260l-109 -579h10
q352 0 465 319q51 141 121 206t215 65q55 0 92 -5z" />
    <glyph glyph-name="afii10029" unicode="&#x41b;" horiz-adv-x="1446" 
d="M1217 0h-263l236 1243h-279q-103 -388 -252.5 -704.5t-297 -434.5t-398.5 -118l47 241q66 0 124.5 22t117 81t147 231t177 416t155.5 487h758z" />
    <glyph glyph-name="afii10030" unicode="&#x41c;" horiz-adv-x="1624" 
d="M1231 0l-17 811l-444 -831h-92l-146 827l-303 -807h-254l545 1464h150l153 -948l488 948h137l41 -1464h-258z" />
    <glyph glyph-name="afii10031" unicode="&#x41d;" horiz-adv-x="1391" 
d="M1161 0h-262l125 682h-582l-125 -682h-264l269 1464h264l-105 -565h584l102 565h267z" />
    <glyph glyph-name="afii10032" unicode="&#x41e;" horiz-adv-x="1440" 
d="M111 545q0 387 212.5 666.5t557.5 279.5q259 0 402.5 -137t143.5 -406q0 -302 -107 -523.5t-284 -335.5t-424 -114q-233 0 -367 157t-134 413zM381 571q0 -166 67 -267t197 -101q236 0 375 215t139 510q0 336 -297 336q-208 0 -344.5 -220t-136.5 -473z" />
    <glyph glyph-name="afii10033" unicode="&#x41f;" horiz-adv-x="1343" 
d="M1118 0h-264l227 1237h-536l-228 -1237h-264l269 1464h1064z" />
    <glyph glyph-name="afii10034" unicode="&#x420;" horiz-adv-x="1204" 
d="M418 539l-99 -539h-266l277 1462q192 23 317 23q582 0 582 -436q0 -245 -175.5 -387t-457.5 -142q-92 0 -178 19zM547 1243l-88 -483q61 -15 131 -15q168 0 268 74t100 209q0 232 -262 232q-64 0 -149 -17z" />
    <glyph glyph-name="afii10035" unicode="&#x421;" 
d="M1161 1184q-113 80 -254 80q-221 0 -374.5 -212t-153.5 -479q0 -174 84 -272t229 -98q230 0 361 125l-4 -230q-144 -123 -410 -123q-241 0 -385.5 157t-144.5 407q0 279 108 496t285.5 336.5t417.5 119.5q175 0 313 -59z" />
    <glyph glyph-name="afii10036" unicode="&#x422;" horiz-adv-x="1346" 
d="M1401 1237h-461l-227 -1237h-262l225 1237h-465l41 227h1192z" />
    <glyph glyph-name="afii10037" unicode="&#x423;" horiz-adv-x="1270" 
d="M1425 1464q-189 -473 -415 -836t-420 -502.5t-492 -139.5h-24l49 239q12 -2 47 -2q241 0 399 187l-374 1054h280l266 -858q245 405 410 858h274z" />
    <glyph glyph-name="afii10038" unicode="&#x424;" horiz-adv-x="1620" 
d="M1106 1354q236 -15 369.5 -145.5t133.5 -342.5q0 -279 -190 -496.5t-539 -244.5l-26 -158h-254l26 160q-236 15 -369.5 146.5t-133.5 343.5q0 284 197.5 498.5t531.5 240.5l28 157h254zM911 319q227 28 339 188t112 357q0 273 -293 299zM823 1161q-222 -23 -337.5 -183
t-115.5 -357q0 -276 295 -304z" />
    <glyph glyph-name="afii10039" unicode="&#x425;" horiz-adv-x="1296" 
d="M838 743l329 -743h-288l-220 530l-403 -530h-307l610 768l-305 696h278l203 -487l377 487h303z" />
    <glyph glyph-name="afii10040" unicode="&#x426;" horiz-adv-x="1382" 
d="M1016 0h-963l269 1464h262l-228 -1237h510l228 1237h260l-228 -1237h168l-116 -647h-238z" />
    <glyph glyph-name="afii10041" unicode="&#x427;" horiz-adv-x="1288" 
d="M1342 1464l-270 -1464h-264l108 582q-132 -29 -256 -29q-209 0 -325 93.5t-116 264.5q0 52 11 110l84 443h277l-63 -328q-25 -129 -27 -147.5t-2 -35.5q0 -187 221 -187q105 0 233 31l125 667h264z" />
    <glyph glyph-name="afii10042" unicode="&#x428;" horiz-adv-x="1886" 
d="M1929 1464l-268 -1464h-1608l269 1464h251l-229 -1247h428l229 1247h252l-229 -1247h428l229 1247h248z" />
    <glyph glyph-name="afii10043" unicode="&#x429;" horiz-adv-x="1958" 
d="M1513 -420l76 420h-1536l269 1464h251l-229 -1247h428l229 1247h252l-229 -1247h428l229 1247h248l-229 -1241h164l-115 -643h-236z" />
    <glyph glyph-name="afii10044" unicode="&#x42a;" horiz-adv-x="1610" 
d="M1264 516q0 98 -65.5 149.5t-213.5 51.5q-49 0 -147 -10l-90 -490q109 -6 131 -6q201 0 293 89.5t92 215.5zM874 913q98 13 189 13q222 0 345 -98t123 -277q0 -240 -171 -395.5t-469 -155.5h-440l227 1237h-469l39 227h729z" />
    <glyph glyph-name="afii10045" unicode="&#x42b;" horiz-adv-x="1696" 
d="M858 518q0 199 -270 199q-54 0 -150 -10l-90 -490q106 -6 127 -6q202 0 292.5 92t90.5 215zM475 913q117 13 176 13q222 0 346.5 -98.5t124.5 -277.5q0 -237 -166.5 -393.5t-466.5 -156.5h-436l266 1464h259zM1739 1464l-266 -1464h-261l267 1464h260z" />
    <glyph glyph-name="afii10046" unicode="&#x42c;" horiz-adv-x="1237" 
d="M886 519q0 198 -268 198q-58 0 -174 -10l-90 -490q82 -6 152 -6q200 0 290 92t90 216zM481 915q125 13 201 13q223 0 349.5 -100.5t126.5 -280.5q0 -239 -173.5 -393t-472.5 -154h-459l266 1464h265z" />
    <glyph glyph-name="afii10047" unicode="&#x42d;" horiz-adv-x="1223" 
d="M256 1413q196 78 422 78q251 0 385 -146t134 -411q0 -217 -85.5 -451.5t-267.5 -371t-441 -136.5q-243 0 -399 115l90 240q62 -59 151.5 -93t178.5 -34q167 0 298.5 121t178.5 333h-551l39 215h543q3 36 3 68q0 328 -286 328q-167 0 -321 -78z" />
    <glyph glyph-name="afii10048" unicode="&#x42e;" horiz-adv-x="1927" 
d="M713 889q91 287 275 442.5t415 155.5q249 0 373.5 -149.5t124.5 -398.5q0 -215 -88.5 -445.5t-262.5 -376.5t-424 -146q-236 0 -353.5 143t-117.5 395q0 74 11 153h-236l-121 -662h-256l266 1464h254l-102 -575h242zM1161 197q235 0 356.5 244.5t121.5 501.5
q0 319 -269 319q-215 0 -340 -240t-125 -502q0 -174 72 -248.5t184 -74.5z" />
    <glyph glyph-name="afii10049" unicode="&#x42f;" horiz-adv-x="1288" 
d="M1331 1456l-268 -1456h-258l115 608h-41q-202 0 -317.5 -84.5t-168.5 -261.5q-43 -143 -120 -208.5t-207 -65.5q-69 0 -97 6l41 231q22 -4 43 -4q42 0 65.5 26.5t53.5 112.5q44 129 140 218.5t225 121.5q-172 52 -225 136.5t-53 175.5q0 194 171 331.5t477 137.5
q157 0 424 -25zM1042 1262q-75 10 -178 10q-163 0 -253.5 -74t-90.5 -187q0 -62 32.5 -104.5t98 -65t160.5 -24.5l147 -2z" />
    <glyph glyph-name="afii10065" unicode="&#x430;" horiz-adv-x="1141" 
d="M989 301q0 -215 35 -301h-158q-69 0 -102 106q-130 -126 -320 -126q-173 0 -268.5 96.5t-95.5 273.5q0 309 185 525.5t464 216.5q274 0 391 -52l-82 -433q-44 -228 -46.5 -251t-2.5 -55zM707 887q-167 0 -267 -157.5t-100 -373.5q0 -172 170 -172q106 0 186 129.5
t146 552.5q-68 21 -135 21z" />
    <glyph glyph-name="afii10066" unicode="&#x431;" 
d="M1272 1331q-90 -52 -371 -65q-162 -8 -242.5 -39.5t-143 -106.5t-103.5 -198q177 106 356 106q187 0 294 -105.5t107 -285.5q0 -167 -82.5 -329t-225 -245t-314.5 -83q-211 0 -324.5 122.5t-113.5 346.5q0 205 91.5 475t251.5 407t478 160q190 12 287 53zM406 731
q-46 -125 -46 -282q0 -130 56.5 -199.5t161.5 -69.5q151 0 244 130.5t93 299.5q0 108 -55 166t-155 58q-158 0 -299 -103z" />
    <glyph glyph-name="afii10067" unicode="&#x432;" horiz-adv-x="1153" 
d="M846 549q205 -51 205 -232q0 -154 -136 -247t-383 -93q-85 0 -192 16t-171 35.5t-81.5 33t-17.5 32.5q0 12 53.5 287t70.5 343.5t68.5 149t121.5 130t153.5 72t179.5 22.5q170 0 269 -81t99 -206q0 -93 -64.5 -166.5t-174.5 -95.5zM410 637h176q260 0 260 156
q0 50 -41 83t-115 33q-226 0 -280 -272zM332 223q14 -20 79 -34.5t136 -14.5q254 0 254 162q0 52 -52 87.5t-141 35.5h-231z" />
    <glyph glyph-name="afii10068" unicode="&#x433;" horiz-adv-x="999" 
d="M203 1014q198 78 405 78q182 0 278.5 -71.5t96.5 -195.5q0 -116 -61.5 -183.5t-199.5 -120.5t-243 -89q-85 -32 -121 -66t-36 -83q0 -95 143 -95q178 0 395 123l-33 -264q-206 -67 -415 -67q-167 0 -261 76t-94 208q0 231 301 336q248 89 282 103.5t58.5 37t24.5 64.5
q0 80 -145 80t-277 -80z" />
    <glyph glyph-name="afii10069" unicode="&#x434;" horiz-adv-x="1237" 
d="M375 1509q150 23 334 23q532 0 532 -481q0 -241 -93 -524t-249 -415t-373 -132q-210 0 -328 111.5t-118 303.5q0 252 169.5 444.5t444.5 192.5q162 0 297 -78q2 26 2 74q0 155 -73.5 227t-247.5 72q-130 0 -264 -45zM961 762q-128 76 -273 76q-150 0 -251 -126t-101 -300
q0 -232 207 -232q298 0 418 582z" />
    <glyph glyph-name="afii10070" unicode="&#x435;" horiz-adv-x="1114" 
d="M342 469v-49q0 -111 68 -172.5t188 -61.5q65 0 145 31t131 78l-32 -258q-132 -57 -303 -57q-209 0 -329 124t-120 336q0 173 78 324.5t225.5 239.5t341.5 88q168 0 272.5 -72t104.5 -209q0 -179 -158 -281t-387 -102q-113 0 -225 41zM379 651q71 -24 166 -24
q319 0 319 161q0 99 -166 99q-113 0 -199.5 -68t-119.5 -168z" />
    <glyph glyph-name="afii10072" unicode="&#x436;" horiz-adv-x="1604" 
d="M1626 1077l-37 -203q-22 5 -43 5q-40 0 -65 -70q-78 -205 -312 -252q199 -82 220 -289q3 -40 13 -56.5t34 -16.5q35 0 47 4l-37 -205q-49 -6 -98 -6q-84 0 -130.5 47t-46.5 137q0 289 -241 293l-84 -465h-230l84 465q-139 0 -225.5 -70.5t-130.5 -218.5
q-54 -188 -246 -188q-45 0 -94 6l37 205q10 -4 41 -4q39 0 68 71q88 230 335 303q-94 23 -149.5 85.5t-63.5 148.5q-3 39 -13.5 57.5t-37.5 18.5q-17 0 -43 -5l37 203q73 6 100 6q166 0 166 -174q0 -239 256 -245l72 407h229l-71 -407q250 0 323 239q55 180 230 180
q30 0 106 -6z" />
    <glyph glyph-name="afii10073" unicode="&#x437;" horiz-adv-x="989" 
d="M737 553q162 -58 162 -207q0 -156 -131.5 -262.5t-374.5 -106.5q-220 0 -389 78l115 213q134 -88 299 -88q98 0 162.5 44.5t64.5 119.5q0 117 -182 117q-84 0 -148 -6l35 194q38 -2 154 -2q96 0 153.5 39.5t57.5 104.5q0 45 -37 74.5t-111 29.5q-145 0 -311 -70l-55 217
q198 52 397 52q172 0 268.5 -73t96.5 -194q0 -92 -60 -166t-166 -108z" />
    <glyph glyph-name="afii10074" unicode="&#x438;" horiz-adv-x="1188" 
d="M981 0h-250l14 78q-132 -98 -335 -98q-138 0 -216.5 80.5t-78.5 218.5q0 43 38 245l103 547h254q-120 -644 -127.5 -681.5t-7.5 -72.5q0 -129 145 -129q120 0 202 81t98 177l110 625h252z" />
    <glyph glyph-name="afii10075" unicode="&#x439;" horiz-adv-x="1188" 
d="M981 0h-250l14 78q-132 -98 -335 -98q-138 0 -216.5 80.5t-78.5 218.5q0 43 38 245l103 547h254q-120 -644 -127.5 -681.5t-7.5 -72.5q0 -129 145 -129q120 0 202 81t98 177l110 625h252zM1147 1526q-82 -301 -408 -301q-152 0 -241 79t-89 218q0 29 5 61l217 -22
q-4 -23 -4 -42q0 -124 133 -124q156 0 188 176z" />
    <glyph glyph-name="afii10076" unicode="&#x43a;" horiz-adv-x="1122" 
d="M1145 1077l-37 -203q-26 5 -47 5q-40 0 -66 -66q-85 -217 -319 -256q225 -76 235 -307q3 -55 50 -55q15 0 45 4l-37 -205q-54 -6 -115 -6q-85 0 -132.5 48.5t-47.5 139.5q0 285 -271 285h-10l-82 -461h-252l193 1071h252l-72 -403h12q259 0 340 239q30 88 82.5 132
t159.5 44q36 0 119 -6z" />
    <glyph glyph-name="afii10077" unicode="&#x43b;" horiz-adv-x="1247" 
d="M1049 0h-254l159 874h-262q-42 -227 -120 -430.5t-171.5 -298.5t-188 -126t-222.5 -31l43 221q123 0 202.5 98t146.5 294.5t122 469.5h737z" />
    <glyph glyph-name="afii10078" unicode="&#x43c;" horiz-adv-x="1552" 
d="M1169 0l11 567l-422 -585h-90l-201 591l-227 -573h-250l461 1092h90l247 -730l523 730h92l18 -1092h-252z" />
    <glyph glyph-name="afii10079" unicode="&#x43d;" horiz-adv-x="1204" 
d="M1006 0h-254l82 459h-439l-82 -459h-254l193 1071h254l-74 -405h438l74 405h254z" />
    <glyph glyph-name="afii10080" unicode="&#x43e;" horiz-adv-x="1165" 
d="M80 401q0 289 177.5 490t447.5 201q204 0 318 -107.5t114 -306.5q0 -294 -175 -496t-452 -202q-208 0 -319 109.5t-111 311.5zM340 414q0 -230 197 -230q155 0 246 142t91 346q0 215 -196 215q-155 0 -246.5 -142.5t-91.5 -330.5z" />
    <glyph glyph-name="afii10081" unicode="&#x43f;" horiz-adv-x="1186" 
d="M981 0h-258l119 634q12 65 12 116q0 133 -158 133q-135 0 -239 -113l-144 -770h-252l152 803q4 28 4 57q0 86 -29 191l244 45l25 -119q133 115 329 115q330 0 330 -310q0 -56 -8 -97z" />
    <glyph glyph-name="afii10082" unicode="&#x440;" horiz-adv-x="1194" 
d="M313 29l-80 -449h-249l215 1159q12 65 12 129q0 89 -18 179l243 43q15 -37 25 -103q138 105 274 105q430 0 430 -416q0 -305 -175.5 -500.5t-465.5 -195.5q-115 0 -211 49zM352 242q52 -52 146 -52q194 0 299.5 120t105.5 339q0 103 -63 164t-172 61q-35 0 -72 -13.5
t-64.5 -29t-45 -29t-30.5 -29.5q-3 -3 -34 -165z" />
    <glyph glyph-name="afii10083" unicode="&#x441;" horiz-adv-x="1004" 
d="M942 807q-106 76 -213 76q-171 0 -276 -128t-105 -323q0 -96 58.5 -169t152.5 -73q133 0 315 115l-30 -262q-159 -63 -316 -63q-202 0 -320 111.5t-118 309.5q0 210 82.5 364.5t219.5 240.5t323 86q159 0 278 -68z" />
    <glyph glyph-name="afii10084" unicode="&#x442;" horiz-adv-x="1763" 
d="M1688 728l-136 -728h-256l88 469q42 220 44 236.5t2 37.5q0 140 -148 140q-66 0 -134 -49t-71 -66l-143 -768h-256l143 756l2 22q0 105 -159 105q-63 0 -132.5 -51t-72.5 -66l-144 -766h-254l144 774q6 28 6 84q0 97 -29 193l246 43q16 -65 23 -97q122 95 301 95
q211 0 301 -115q127 115 319 115q322 0 322 -293q0 -42 -6 -71z" />
    <glyph glyph-name="afii10085" unicode="&#x443;" horiz-adv-x="1094" 
d="M621 -106q-148 -311 -578 -314v242q94 0 166 20.5t121.5 61t74.5 100.5l52 121q-67 17 -114.5 90.5t-74.5 214.5l-123 641h263q115 -696 149 -735l344 735h283z" />
    <glyph glyph-name="afii10086" unicode="&#x444;" horiz-adv-x="1626" 
d="M1058 1042q105 50 195 50q155 0 254.5 -98t99.5 -294q0 -177 -66 -352.5t-193 -271.5t-290 -96q-87 0 -163 32q-19 -133 -34.5 -183.5t-50 -99t-87.5 -84.5t-125.5 -59.5t-167.5 -36.5l-21 156q66 14 110 37.5t70.5 59.5t36.5 74t27 151q-105 -47 -211 -47
q-150 0 -244 100t-94 301q0 286 152 498.5t415 212.5q66 0 146 -35q24 162 48 227.5t77 121.5t136 89.5t198 42.5l18 -156q-90 -15 -135 -47t-62.5 -85.5t-38.5 -207.5zM921 197q53 -21 113 -21q99 0 177 72t116.5 201t38.5 234q0 216 -179 216q-78 0 -159 -31zM790 881
q-65 18 -123 18q-155 0 -237.5 -163.5t-82.5 -336.5q0 -105 41 -164t150 -59q56 0 148 39z" />
    <glyph glyph-name="afii10087" unicode="&#x445;" horiz-adv-x="1169" 
d="M748 543l307 -543h-295l-180 375l-301 -375h-310l504 559l-287 512h287l168 -344l285 344h297z" />
    <glyph glyph-name="afii10088" unicode="&#x446;" horiz-adv-x="1217" 
d="M1165 133l-102 -506h-229l79 365q-45 0 -85 37t-52 92q-160 -141 -373 -141q-130 0 -210 75.5t-80 225.5q0 44 11 105l128 685h252l-96 -522q-35 -192 -35 -223q0 -65 34 -101.5t97 -36.5q91 0 177 62.5t89 81.5l133 739h250l-137 -743q-7 -38 -7 -67q0 -128 156 -128z
" />
    <glyph glyph-name="afii10089" unicode="&#x447;" horiz-adv-x="1161" 
d="M1159 1071l-193 -1071h-249l73 414q-130 -47 -282 -47q-160 0 -245 77t-85 220q0 48 10 103l55 304h254q-54 -295 -57 -313t-3 -45q0 -138 163 -138q116 0 227 37l82 459h250z" />
    <glyph glyph-name="afii10090" unicode="&#x448;" horiz-adv-x="1737" 
d="M1731 1071l-156 -866q-21 -124 -27 -205h-243l10 92q-131 -112 -283 -112q-199 0 -260 145q-141 -145 -348 -145q-151 0 -231 75t-80 215q0 51 10 105l131 696h250l-126 -679q-7 -41 -7 -68q0 -138 143 -138q78 0 146.5 56.5t72.5 79.5l135 749h250l-125 -690
q-8 -43 -8 -70q0 -125 137 -125q69 0 146.5 62t81.5 82l133 741h248z" />
    <glyph glyph-name="afii10091" unicode="&#x449;" horiz-adv-x="1778" 
d="M1624 -373h-229l80 365q-46 0 -87 38t-51 93q-130 -143 -319 -143q-193 0 -254 145q-142 -145 -344 -145q-150 0 -228.5 74.5t-78.5 215.5q0 51 10 105l131 696h250l-126 -679q-7 -41 -7 -68q0 -138 139 -138q77 0 144 57t71 79l135 749h248l-125 -690q-8 -43 -8 -70
q0 -125 131 -125q71 0 146 61.5t79 82.5l133 741h248l-135 -743q-7 -38 -7 -67q0 -128 156 -128z" />
    <glyph glyph-name="afii10092" unicode="&#x44a;" horiz-adv-x="1315" 
d="M991 356q0 72 -49 113t-137 41q-79 0 -180 -18l-56 -285q56 -39 187 -39q109 0 172 53.5t63 134.5zM659 674q112 26 222 26q163 0 260.5 -91.5t97.5 -239.5q0 -157 -122.5 -273t-385.5 -116q-103 0 -228.5 23t-205.5 58l156 803h-322l41 207h565z" />
    <glyph glyph-name="afii10093" unicode="&#x44b;" horiz-adv-x="1544" 
d="M741 356q0 72 -47.5 113t-132.5 41q-77 0 -174 -18l-55 -285q55 -39 180 -39q101 0 165 50.5t64 137.5zM422 674q108 26 217 26q160 0 254 -91t94 -240q0 -166 -125.5 -277.5t-374.5 -111.5q-101 0 -225 23t-203 58l193 1010h248zM1538 1071l-195 -1071h-245l194 1071
h246z" />
    <glyph glyph-name="afii10094" unicode="&#x44c;" horiz-adv-x="1102" 
d="M772 356q0 71 -47.5 111.5t-132.5 40.5q-89 0 -203 -27l-49 -266q16 -18 73 -30.5t117 -12.5q99 0 170.5 48t71.5 136zM426 670q132 30 244 30q163 0 259.5 -91t96.5 -240q0 -167 -128.5 -278t-383.5 -111q-110 0 -241 23t-214 58l193 1010h254z" />
    <glyph glyph-name="afii10095" unicode="&#x44d;" horiz-adv-x="1001" 
d="M219 1053q142 41 311 41q207 0 320 -114t113 -321q0 -160 -70 -327t-213.5 -261t-347.5 -94q-167 0 -318 70l88 215q120 -82 248 -82q118 0 206 72.5t126 204.5h-420l37 192h412q0 84 -16.5 132.5t-62 81t-118.5 32.5q-113 0 -235 -53z" />
    <glyph glyph-name="afii10096" unicode="&#x44e;" horiz-adv-x="1563" 
d="M608 664q62 190 197 309t330 119q190 0 292.5 -107t102.5 -293q0 -152 -60.5 -321.5t-193.5 -280t-315 -110.5q-194 0 -297 106t-103 297q0 38 4 78h-180l-84 -461h-242l195 1071h244l-76 -407h186zM975 184q144 0 228.5 156.5t84.5 336.5q0 210 -172 210
q-132 0 -221.5 -152.5t-89.5 -337.5q0 -213 170 -213z" />
    <glyph glyph-name="afii10097" unicode="&#x44f;" horiz-adv-x="1145" 
d="M422 494q-106 22 -163 82t-57 146q0 142 128.5 252.5t378.5 110.5q114 0 233 -16t150.5 -29t31.5 -34q0 -9 -4 -31l-178 -975h-248l78 406h-76q-269 0 -354 -248q-57 -170 -238 -170q-54 0 -104 6l37 205q26 -4 43 -4q41 0 63 57q74 187 279 242zM858 872q-59 25 -180 25
q-107 0 -164.5 -48t-57.5 -117q0 -38 19 -68.5t70 -49.5t131 -20l129 -2z" />
    <glyph glyph-name="afii10071" unicode="&#x451;" horiz-adv-x="1114" 
d="M342 469v-49q0 -111 68 -172.5t188 -61.5q65 0 145 31t131 78l-32 -258q-132 -57 -303 -57q-209 0 -329 124t-120 336q0 173 78 324.5t225.5 239.5t341.5 88q168 0 272.5 -72t104.5 -209q0 -179 -158 -281t-387 -102q-113 0 -225 41zM379 651q71 -24 166 -24
q319 0 319 161q0 99 -166 99q-113 0 -199.5 -68t-119.5 -168zM1006 1552q57 0 101 -39.5t44 -97.5q0 -63 -44.5 -100t-100.5 -37q-57 0 -101.5 37t-44.5 100q0 60 42.5 98.5t103.5 38.5zM541 1552q54 0 99.5 -36t45.5 -101q0 -58 -42 -97.5t-103 -39.5q-57 0 -101.5 37
t-44.5 100q0 57 43.5 97t102.5 40z" />
    <glyph glyph-name="afii10099" unicode="&#x452;" horiz-adv-x="1192" 
d="M485 948q119 88 285 88q161 0 256.5 -87t95.5 -250q0 -51 -33 -232l-62 -342q-29 -161 -71 -252.5t-113 -157t-184.5 -100.5t-248.5 -37l39 215q92 1 157.5 34t104.5 97.5t63 194.5l64 342q32 172 32 201q0 79 -48 124t-132 45q-61 0 -129 -30t-117 -82l-129 -719h-252
l213 1184h-151l29 159h151l35 189h252l-35 -189h391l-28 -159h-392z" />
    <glyph glyph-name="afii10100" unicode="&#x453;" horiz-adv-x="999" 
d="M203 1014q198 78 405 78q182 0 278.5 -71.5t96.5 -195.5q0 -116 -61.5 -183.5t-199.5 -120.5t-243 -89q-84 -31 -120.5 -65.5t-36.5 -83.5q0 -95 143 -95q178 0 395 123l-33 -264q-206 -67 -415 -67q-167 0 -261 76t-94 208q0 231 301 336q248 89 282 103.5t58.5 37
t24.5 64.5q0 80 -145 80t-277 -80zM1006 1575l-269 -332h-207l205 332h271z" />
    <glyph glyph-name="afii10101" unicode="&#x454;" horiz-adv-x="1010" 
d="M1001 1038l-51 -215q-112 70 -219 70q-252 0 -350 -244h410l-37 -192h-410q-3 -26 -3 -50q0 -107 55 -167t159 -60q145 0 315 101l-28 -244q-159 -60 -316 -60q-213 0 -324.5 112.5t-111.5 326.5q0 168 80 333.5t219 255t330 89.5q157 0 282 -56z" />
    <glyph glyph-name="afii10102" unicode="&#x455;" horiz-adv-x="934" 
d="M793 778q-120 105 -220 105q-65 0 -109 -29.5t-44 -75.5q0 -59 108 -114q102 -53 166.5 -88.5t98.5 -90.5t34 -125q0 -175 -132.5 -277.5t-338.5 -102.5q-176 0 -344 100l131 225q126 -117 246 -117q78 0 126 38t48 104q0 53 -92 102q-150 78 -199 110t-81.5 86
t-32.5 122q0 148 116 245t314 97q119 0 321 -84z" />
    <glyph glyph-name="afii10103" unicode="&#x456;" horiz-adv-x="641" 
d="M346 1409q0 62 43.5 107t106.5 45q58 0 102.5 -41.5t44.5 -110.5q0 -68 -45.5 -108.5t-101.5 -40.5q-61 0 -105.5 43.5t-44.5 105.5zM397 0h-254l162 870h-137l43 201h387z" />
    <glyph glyph-name="afii10104" unicode="&#x457;" horiz-adv-x="641" 
d="M549 1415q0 60 42.5 98.5t102.5 38.5q57 0 101.5 -39.5t44.5 -97.5q0 -60 -43.5 -98.5t-102.5 -38.5q-56 0 -100.5 37t-44.5 100zM397 0h-254l162 870h-137l43 201h387zM229 1552q55 0 100.5 -36t45.5 -101q0 -58 -42 -97.5t-104 -39.5q-56 0 -100.5 37t-44.5 100
q0 58 44 97.5t101 39.5z" />
    <glyph glyph-name="afii10105" unicode="&#x458;" horiz-adv-x="678" 
d="M383 1409q0 62 43.5 107t105.5 45q59 0 103.5 -41.5t44.5 -110.5q0 -66 -44 -107.5t-104 -41.5q-63 0 -106 44.5t-43 104.5zM436 14q-39 -218 -188 -326t-469 -108l12 221q210 0 293.5 51.5t103.5 167.5l152 850h-143l47 201h389z" />
    <glyph glyph-name="afii10106" unicode="&#x459;" horiz-adv-x="1788" 
d="M1468 356q0 71 -46 112.5t-132 41.5q-73 0 -170 -18l-53 -285q55 -39 178 -39q96 0 159.5 46t63.5 142zM1155 674q110 26 211 26q160 0 253 -91t93 -240q0 -111 -57 -202t-166 -139t-268 -48q-101 0 -221 23t-199 58l151 813h-268q-42 -226 -117 -423.5t-169.5 -298.5
t-187 -132.5t-220.5 -31.5l43 221q123 0 202.5 98t146.5 294.5t122 469.5h727z" />
    <glyph glyph-name="afii10107" unicode="&#x45a;" horiz-adv-x="1708" 
d="M1386 356q0 72 -46.5 113t-131.5 41q-73 0 -170 -18l-53 -285q55 -39 178 -39q96 0 159.5 46t63.5 142zM1073 674q108 26 213 26q160 0 253 -91t93 -240q0 -170 -125 -279.5t-366 -109.5q-102 0 -223.5 23t-200.5 58l71 398h-399l-82 -459h-248l193 1071h248l-74 -405
h401l76 405h246z" />
    <glyph glyph-name="afii10108" unicode="&#x45b;" horiz-adv-x="1192" 
d="M485 948q119 88 285 88q161 0 256.5 -87t95.5 -250q0 -52 -4 -76l-112 -623h-254l77 417q37 197 39 212.5t2 32.5q0 79 -48 124t-132 45q-61 0 -129 -30t-117 -82l-129 -719h-252l213 1184h-151l29 159h151l35 189h252l-35 -189h391l-28 -159h-392z" />
    <glyph glyph-name="afii10109" unicode="&#x45c;" horiz-adv-x="1122" 
d="M1145 1077l-37 -203q-26 5 -47 5q-40 0 -66 -66q-85 -217 -319 -256q225 -76 235 -307q3 -55 50 -55q15 0 45 4l-37 -205q-54 -6 -115 -6q-85 0 -132.5 48.5t-47.5 139.5q0 285 -271 285h-10l-82 -461h-252l193 1071h252l-72 -403h12q259 0 340 239q30 88 82.5 132
t159.5 44q36 0 119 -6zM1051 1575l-269 -332h-207l205 332h271z" />
    <glyph glyph-name="afii10110" unicode="&#x45e;" horiz-adv-x="1094" 
d="M621 -106q-148 -311 -578 -314v242q94 0 166 20.5t121.5 61t74.5 100.5l52 121q-67 17 -114.5 90.5t-74.5 214.5l-123 641h263q115 -696 149 -735l344 735h283zM1110 1526q-82 -301 -408 -301q-152 0 -240.5 79t-88.5 218q0 29 4 61l217 -22q-4 -23 -4 -42
q0 -124 133 -124q156 0 188 176z" />
    <glyph glyph-name="afii10193" unicode="&#x45f;" horiz-adv-x="1182" 
d="M752 88q-77 -50 -154 -78l-74 -383h-231l90 353q-120 6 -195 82t-75 217q0 53 10 109l127 683h256l-128 -694q-5 -29 -5 -60q0 -129 143 -129q93 0 181 63t91 83l136 737h252l-160 -866q-19 -97 -27 -205h-246z" />
    <glyph glyph-name="afii10050" unicode="&#x490;" horiz-adv-x="1139" 
d="M1200 1237h-645l-236 -1237h-266l277 1464h690l57 322h221z" />
    <glyph glyph-name="afii10098" unicode="&#x491;" horiz-adv-x="952" 
d="M961 862h-490l-156 -862h-256l193 1071h543l49 270h203z" />
    <glyph glyph-name="Amacron" unicode="&#x100;" horiz-adv-x="1257" 
d="M918 0l-46 298h-524l-172 -298h-271l890 1485h93l301 -1485h-271zM760 1040l-301 -547h384zM1261 1568h-809l38 141h809z" />
    <glyph glyph-name="amacron" unicode="&#x101;" horiz-adv-x="1214" 
d="M988 384q-7 -37 -7 -82q0 -220 34 -302h-156q-70 0 -104 107q-128 -127 -319 -127q-174 0 -269.5 98t-95.5 273q0 305 184.5 522.5t465.5 217.5q271 0 391 -50zM699 887q-168 0 -268 -160.5t-100 -369.5q0 -173 170 -173q108 0 188.5 133t143.5 550q-71 20 -134 20z
M1151 1285h-809l38 141h809z" />
    <glyph glyph-name="Ccircumflex" unicode="&#x108;" horiz-adv-x="1255" 
d="M1165 1183q-114 81 -253 81q-225 0 -377.5 -214.5t-152.5 -475.5q0 -169 83 -270t231 -101q230 0 361 125l-5 -229q-142 -124 -409 -124q-238 0 -384 156.5t-146 406.5q0 404 224.5 678t586.5 274q177 0 314 -58zM1023 1568l-118 143l-191 -146h-271l432 358h139
l290 -355h-281z" />
    <glyph glyph-name="ccircumflex" unicode="&#x109;" horiz-adv-x="1009" 
d="M927 806q-105 77 -212 77q-172 0 -276.5 -128.5t-104.5 -321.5q0 -100 59 -171t152 -71q134 0 315 114l-30 -261q-153 -64 -315 -64q-203 0 -321.5 112.5t-118.5 309.5q0 299 173 494t453 195q160 0 277 -66zM819 1285l-118 143l-191 -146h-271l432 358h139l290 -355
h-281z" />
    <glyph glyph-name="Cdot" unicode="&#x10a;" horiz-adv-x="1255" 
d="M1165 1183q-114 81 -253 81q-225 0 -377.5 -214.5t-152.5 -475.5q0 -169 83 -270t231 -101q230 0 361 125l-5 -229q-142 -124 -409 -124q-238 0 -384 156.5t-146 406.5q0 404 224.5 678t586.5 274q177 0 314 -58zM738 1703q0 52 46 84.5t106 32.5q58 0 105.5 -32.5
t47.5 -84.5t-46.5 -85t-106.5 -33q-59 0 -105.5 32.5t-46.5 85.5z" />
    <glyph glyph-name="cdot" unicode="&#x10b;" horiz-adv-x="1009" 
d="M927 806q-105 77 -212 77q-172 0 -276.5 -128.5t-104.5 -321.5q0 -100 59 -171t152 -71q134 0 315 114l-30 -261q-153 -64 -315 -64q-203 0 -321.5 112.5t-118.5 309.5q0 299 173 494t453 195q160 0 277 -66zM549 1403q0 52 46 84.5t106 32.5q58 0 105.5 -32.5
t47.5 -84.5t-46.5 -85t-106.5 -33q-59 0 -105.5 32.5t-46.5 85.5z" />
    <glyph glyph-name="Emacron" unicode="&#x112;" horiz-adv-x="1215" 
d="M1212 1237h-675l-61 -337h484l-41 -218h-484l-82 -454h664l-43 -228h-932l270 1465h943zM1201 1568h-809l38 141h809z" />
    <glyph glyph-name="emacron" unicode="&#x113;" horiz-adv-x="1130" 
d="M343 465q-2 -26 -2 -45q0 -112 66.5 -172t184.5 -60q63 0 145 34.5t129 77.5l-29 -263q-127 -57 -310 -57q-198 0 -321 125t-123 343q0 276 177.5 459.5t464.5 183.5q169 0 274 -71.5t105 -204.5q0 -181 -156.5 -284t-385.5 -103q-112 0 -219 37zM391 654q65 -19 141 -19
q136 0 230 41.5t94 119.5q0 87 -190 87q-75 0 -153 -65.5t-122 -163.5zM1151 1285h-809l38 141h809z" />
    <glyph glyph-name="Ebreve" unicode="&#x114;" horiz-adv-x="1215" 
d="M1212 1237h-675l-61 -337h484l-41 -218h-484l-82 -454h664l-43 -228h-932l270 1465h943zM498 1910h214q-16 -55 -16 -73q0 -68 130 -68q162 0 192 141h214q-70 -325 -434 -325q-313 0 -313 236q0 32 13 89z" />
    <glyph glyph-name="ebreve" unicode="&#x115;" horiz-adv-x="1130" 
d="M343 465q-2 -26 -2 -45q0 -112 66.5 -172t184.5 -60q63 0 145 34.5t129 77.5l-29 -263q-127 -57 -310 -57q-198 0 -321 125t-123 343q0 276 177.5 459.5t464.5 183.5q169 0 274 -71.5t105 -204.5q0 -181 -156.5 -284t-385.5 -103q-112 0 -219 37zM391 654q65 -19 141 -19
q136 0 230 41.5t94 119.5q0 87 -190 87q-75 0 -153 -65.5t-122 -163.5zM448 1610h214q-16 -55 -16 -73q0 -68 130 -68q162 0 192 141h214q-70 -325 -434 -325q-313 0 -313 236q0 32 13 89z" />
    <glyph glyph-name="Edot" unicode="&#x116;" horiz-adv-x="1215" 
d="M1212 1237h-675l-61 -337h484l-41 -218h-484l-82 -454h664l-43 -228h-932l270 1465h943zM648 1703q0 52 46 84.5t106 32.5q58 0 105.5 -32.5t47.5 -84.5t-46.5 -85t-106.5 -33q-59 0 -105.5 32.5t-46.5 85.5z" />
    <glyph glyph-name="edot" unicode="&#x117;" horiz-adv-x="1130" 
d="M343 465q-2 -26 -2 -45q0 -112 66.5 -172t184.5 -60q63 0 145 34.5t129 77.5l-29 -263q-127 -57 -310 -57q-198 0 -321 125t-123 343q0 276 177.5 459.5t464.5 183.5q169 0 274 -71.5t105 -204.5q0 -181 -156.5 -284t-385.5 -103q-112 0 -219 37zM391 654q65 -19 141 -19
q136 0 230 41.5t94 119.5q0 87 -190 87q-75 0 -153 -65.5t-122 -163.5zM596 1403q0 52 46 84.5t106 32.5q58 0 105.5 -32.5t47.5 -84.5t-46.5 -85t-106.5 -33q-59 0 -105.5 32.5t-46.5 85.5z" />
    <glyph glyph-name="Gcircumflex" unicode="&#x11c;" horiz-adv-x="1385" 
d="M1204 133q-226 -158 -553 -158q-252 0 -409.5 161.5t-157.5 409.5q0 435 239.5 689.5t652.5 254.5q224 0 333 -100l-78 -217q-147 89 -293 89q-264 0 -424 -193.5t-160 -484.5q0 -180 99 -280.5t271 -100.5q143 0 250 79l53 290h-203l40 218h461zM1020 1568l-118 143
l-191 -146h-271l432 358h139l290 -355h-281z" />
    <glyph glyph-name="gcircumflex" unicode="&#x11d;" horiz-adv-x="1096" 
d="M995 885q22 -50 22 -120q0 -156 -67.5 -270t-222.5 -185t-170 -96q68 13 106 13q112 0 191 -68.5t79 -174.5q0 -194 -136.5 -299t-395.5 -105q-97 0 -212.5 38t-188.5 94l109 189q143 -102 297 -102q278 0 278 150q0 32 -28.5 53t-86.5 32l-191 34q-107 33 -107 124
q0 53 88 107q-108 31 -176.5 116.5t-68.5 190.5q0 216 143 350.5t367 134.5q138 0 233 -59l94 102l147 -146zM368 628q0 -80 36 -131t99 -51q110 0 182 87.5t72 212.5q0 141 -147 141q-111 0 -176.5 -72.5t-65.5 -186.5zM783 1285l-118 143l-191 -146h-271l432 358h139
l290 -355h-281z" />
    <glyph glyph-name="Gdot" unicode="&#x120;" horiz-adv-x="1385" 
d="M1204 133q-226 -158 -553 -158q-252 0 -409.5 161.5t-157.5 409.5q0 435 239.5 689.5t652.5 254.5q224 0 333 -100l-78 -217q-147 89 -293 89q-264 0 -424 -193.5t-160 -484.5q0 -180 99 -280.5t271 -100.5q143 0 250 79l53 290h-203l40 218h461zM748 1703q0 52 46 84.5
t106 32.5q58 0 105.5 -32.5t47.5 -84.5t-46.5 -85t-106.5 -33q-59 0 -105.5 32.5t-46.5 85.5z" />
    <glyph glyph-name="gdot" unicode="&#x121;" horiz-adv-x="1096" 
d="M995 885q22 -50 22 -120q0 -156 -67.5 -270t-222.5 -185t-170 -96q68 13 106 13q112 0 191 -68.5t79 -174.5q0 -194 -136.5 -299t-395.5 -105q-97 0 -212.5 38t-188.5 94l109 189q143 -102 297 -102q278 0 278 150q0 32 -28.5 53t-86.5 32l-191 34q-107 33 -107 124
q0 53 88 107q-108 31 -176.5 116.5t-68.5 190.5q0 216 143 350.5t367 134.5q138 0 233 -59l94 102l147 -146zM368 628q0 -80 36 -131t99 -51q110 0 182 87.5t72 212.5q0 141 -147 141q-111 0 -176.5 -72.5t-65.5 -186.5zM528 1403q0 52 46 84.5t106 32.5q58 0 105.5 -32.5
t47.5 -84.5t-46.5 -85t-106.5 -33q-59 0 -105.5 32.5t-46.5 85.5z" />
    <glyph glyph-name="Gcedilla" unicode="&#x122;" horiz-adv-x="1385" 
d="M1204 133q-226 -158 -553 -158q-252 0 -409.5 161.5t-157.5 409.5q0 435 239.5 689.5t652.5 254.5q224 0 333 -100l-78 -217q-147 89 -293 89q-264 0 -424 -193.5t-160 -484.5q0 -180 99 -280.5t271 -100.5q143 0 250 79l53 290h-203l40 218h461zM398 -450v123
q18 -5 39 -5q58 0 108 25q63 31 63 83q0 35 -29 64.5t-64 30.5l62 86q230 -15 230 -186q0 -115 -109 -176q-89 -50 -213 -50q-15 0 -87 5z" />
    <glyph glyph-name="gcedilla" unicode="&#x123;" horiz-adv-x="1096" 
d="M995 885q22 -50 22 -120q0 -156 -67.5 -270t-222.5 -185t-170 -96q68 13 106 13q112 0 191 -68.5t79 -174.5q0 -194 -136.5 -299t-395.5 -105q-97 0 -212.5 38t-188.5 94l109 189q143 -102 297 -102q278 0 278 150q0 32 -28.5 53t-86.5 32l-191 34q-107 33 -107 124
q0 53 88 107q-108 31 -176.5 116.5t-68.5 190.5q0 216 143 350.5t367 134.5q138 0 233 -59l94 102l147 -146zM368 628q0 -80 36 -131t99 -51q110 0 182 87.5t72 212.5q0 141 -147 141q-111 0 -176.5 -72.5t-65.5 -186.5zM707 1715l77 -101q-95 -90 -95 -117
q0 -29 37.5 -68.5t37.5 -92.5t-39.5 -87t-93.5 -34q-128 0 -128 164q0 194 204 336z" />
    <glyph glyph-name="Hcircumflex" unicode="&#x124;" horiz-adv-x="1389" 
d="M1162 0h-263l125 682h-582l-125 -682h-264l269 1465h264l-104 -565h582l104 565h265zM1043 1568l-118 143l-191 -146h-271l432 358h139l290 -355h-281z" />
    <glyph glyph-name="hcircumflex" unicode="&#x125;" horiz-adv-x="1151" 
d="M1080 655l-123 -655h-257l126 665q6 32 6 65q0 150 -150 150q-135 0 -243 -114l-142 -766h-255l272 1510h249l-82 -504q133 85 281 85q154 0 241.5 -86t87.5 -240q0 -51 -11 -110zM883 1588l-118 143l-191 -146h-271l432 358h139l290 -355h-281z" />
    <glyph glyph-name="Hbar" unicode="&#x126;" horiz-adv-x="1432" 
d="M1567 1257l-31 -155h-150l-204 -1102h-262l124 682h-583l-125 -682h-264l202 1102h-151l31 155h147l39 207h264l-39 -207h586l37 207h264l-37 -207h152zM1122 1102h-585l-37 -202h585z" />
    <glyph glyph-name="hbar" unicode="&#x127;" horiz-adv-x="1151" 
d="M1058 592l-101 -592h-257l107 604q6 30 6 57q0 70 -36 113q-49 57 -144 57q-110 0 -210 -112l-126 -719h-255l208 1184h-151l29 159h151l35 189h255l-34 -189h390l-28 -159h-390l-43 -236q115 88 252 88q187 0 285 -116q67 -81 67 -222q0 -51 -10 -106z" />
    <glyph glyph-name="Itilde" unicode="&#x128;" horiz-adv-x="570" 
d="M329 0h-261l269 1465h262zM278 1655h-160q23 105 90 179t153 74q49 0 150.5 -43t124.5 -43q33 0 62 26t34 60h162q-19 -87 -90 -170t-150 -83q-32 0 -144 46.5t-149 46.5q-56 0 -83 -93z" />
    <glyph glyph-name="itilde" unicode="&#x129;" horiz-adv-x="669" 
d="M397 0h-254l162 870h-137l42 201h387zM261 1285h-160q23 105 90 179t153 74q49 0 150.5 -43t124.5 -43q33 0 62 26t34 60h162q-19 -87 -90 -170t-150 -83q-32 0 -144 46.5t-149 46.5q-56 0 -83 -93z" />
    <glyph glyph-name="Imacron" unicode="&#x12a;" horiz-adv-x="570" 
d="M329 0h-261l269 1465h262zM872 1568h-809l38 141h809z" />
    <glyph glyph-name="imacron" unicode="&#x12b;" horiz-adv-x="669" 
d="M397 0h-254l162 870h-137l42 201h387zM861 1285h-809l38 141h809z" />
    <glyph glyph-name="Ibreve" unicode="&#x12c;" horiz-adv-x="570" 
d="M329 0h-261l269 1465h262zM188 1910h214q-16 -55 -16 -73q0 -68 130 -68q162 0 192 141h214q-70 -325 -434 -325q-313 0 -313 236q0 32 13 89z" />
    <glyph glyph-name="ibreve" unicode="&#x12d;" horiz-adv-x="669" 
d="M397 0h-254l162 870h-137l42 201h387zM158 1610h214q-16 -55 -16 -73q0 -68 130 -68q162 0 192 141h214q-70 -325 -434 -325q-313 0 -313 236q0 32 13 89z" />
    <glyph glyph-name="Iogonek" unicode="&#x12e;" horiz-adv-x="570" 
d="M599 1465l-270 -1465q-51 -14 -87 -53q-40 -41 -40 -92q0 -44 69 -44q86 0 166 61v-205q-132 -40 -204 -40q-108 0 -182 50q-86 58 -86 160q0 124 113 222l259 1406h262z" />
    <glyph glyph-name="iogonek" unicode="&#x12f;" horiz-adv-x="669" 
d="M649 1415q0 -64 -48.5 -109.5t-115.5 -45.5q-69 0 -115 43.5t-46 111.5q0 67 47 111.5t114 44.5t115.5 -45.5t48.5 -110.5zM597 1071l-200 -1071h-5q-51 -14 -87 -53q-40 -41 -40 -92q0 -44 69 -44q86 0 166 61v-205q-132 -40 -204 -40q-108 0 -182 50q-86 58 -86 160
q0 133 128 235l149 798h-137l42 201h387z" />
    <glyph glyph-name="IJ" unicode="&#x132;" horiz-adv-x="1550" 
d="M329 0h-261l269 1465h262zM526 336h229q-2 -128 107 -128q84 0 140 28t83.5 84.5t58.5 229.5l167 915h258l-168 -916q-63 -344 -194.5 -456.5t-374.5 -112.5q-142 0 -227 75.5t-85 206.5q0 30 6 74z" />
    <glyph glyph-name="ij" unicode="&#x133;" horiz-adv-x="1290" 
d="M323 1415q0 67 47.5 111.5t115.5 44.5q67 0 115 -44.5t48 -111.5q0 -66 -48 -111t-115 -45t-115 44.5t-48 111.5zM397 0h-254l162 870h-137l42 201h387zM940 1413q0 67 47.5 112.5t115.5 45.5t115.5 -45.5t47.5 -112.5t-48 -112t-115 -45t-115 45t-48 112zM1008 15
q-41 -222 -191 -328.5t-466 -106.5l11 221q140 0 216 19t121.5 69t60.5 132l152 849h-144l47 201h389z" />
    <glyph glyph-name="Jcircumflex" unicode="&#x134;" horiz-adv-x="1021" 
d="M-3 336h229q-2 -128 107 -128q84 0 140 28t83.5 84.5t58.5 229.5l167 915h258l-168 -916q-63 -344 -194.5 -456.5t-374.5 -112.5q-142 0 -227 75.5t-85 206.5q0 30 6 74zM1003 1568l-118 143l-191 -146h-271l432 358h139l290 -355h-281z" />
    <glyph glyph-name="jcircumflex" unicode="&#x135;" horiz-adv-x="794" 
d="M512 15q-41 -222 -191 -328.5t-466 -106.5l11 221q140 0 216 19t121.5 69t60.5 132l152 849h-144l47 201h389zM663 1285l-118 143l-191 -146h-271l432 358h139l290 -355h-281z" />
    <glyph glyph-name="Kcedilla" unicode="&#x136;" horiz-adv-x="1331" 
d="M815 821l364 -821h-293l-274 626l-208 -229l-74 -397h-260l269 1465h260l-121 -666l608 666h308zM324 -450v123q18 -5 39 -5q58 0 108 25q63 31 63 83q0 35 -29 64.5t-64 30.5l62 86q230 -15 230 -186q0 -115 -109 -176q-89 -50 -213 -50q-15 0 -87 5z" />
    <glyph glyph-name="kcedilla" unicode="&#x137;" horiz-adv-x="1105" 
d="M763 0l-339 441l-42 -35l-71 -406h-251l262 1510h246l-129 -795l189 164q193 168 256 256l175 -151q-44 -54 -442 -405l442 -579h-296zM264 -450v123q18 -5 39 -5q58 0 108 25q63 31 63 83q0 35 -29 64.5t-64 30.5l62 86q230 -15 230 -186q0 -115 -109 -176
q-89 -50 -213 -50q-15 0 -87 5z" />
    <glyph glyph-name="kgreenlandic" unicode="&#x138;" horiz-adv-x="1176" 
d="M795 0l-260 451l-177 -134l-59 -317h-250l195 1071h250l-84 -469q356 291 439 365.5t130 134.5l168 -166q-80 -95 -420 -354l354 -582h-286z" />
    <glyph glyph-name="Lcedilla" unicode="&#x13b;" horiz-adv-x="1082" 
d="M974 0h-924l269 1465h262l-227 -1237h662zM238 -450v123q18 -5 39 -5q58 0 108 25q63 31 63 83q0 35 -29 64.5t-64 30.5l62 86q230 -15 230 -186q0 -115 -109 -176q-89 -50 -213 -50q-15 0 -87 5z" />
    <glyph glyph-name="lcedilla" unicode="&#x13c;" horiz-adv-x="655" 
d="M477 84q-59 -94 -179 -94q-90 0 -142 59t-52 153q0 122 48 351l201 957h248l-206 -997q-44 -213 -44 -304q0 -58 36 -91.5t90 -33.5zM28 -450v123q18 -5 39 -5q58 0 108 25q63 31 63 83q0 35 -29 64.5t-64 30.5l62 86q230 -15 230 -186q0 -115 -109 -176
q-89 -50 -213 -50q-15 0 -87 5z" />
    <glyph glyph-name="Ncedilla" unicode="&#x145;" horiz-adv-x="1352" 
d="M1113 -20h-101l-540 947l-162 -927h-258l269 1465h120l529 -908l159 908h257zM358 -450v123q18 -5 39 -5q58 0 108 25q63 31 63 83q0 35 -29 64.5t-64 30.5l62 86q230 -15 230 -186q0 -115 -109 -176q-89 -50 -213 -50q-15 0 -87 5z" />
    <glyph glyph-name="ncedilla" unicode="&#x146;" horiz-adv-x="1151" 
d="M947 0h-259l117 624q14 75 14 126q0 133 -157 133q-134 0 -241 -113l-143 -770h-251l151 803q4 21 4 58q0 89 -29 190l245 45l23 -120q132 115 331 115q330 0 330 -309q0 -55 -14 -130zM218 -450v123q18 -5 39 -5q58 0 108 25q63 31 63 83q0 35 -29 64.5t-64 30.5l62 86
q230 -15 230 -186q0 -115 -109 -176q-89 -50 -213 -50q-15 0 -87 5z" />
    <glyph glyph-name="napostrophe" unicode="&#x149;" horiz-adv-x="1341" 
d="M63 1048l-63 85q66 50 81 73.5t15 49.5t-34.5 60.5t-34.5 75.5q0 118 117 118q123 0 123 -139q0 -196 -204 -323zM1137 0h-259l117 624q14 75 14 126q0 133 -157 133q-134 0 -241 -113l-143 -770h-251l151 803q4 21 4 58q0 89 -29 190l245 45l23 -120q132 115 331 115
q330 0 330 -309q0 -55 -14 -130z" />
    <glyph glyph-name="Eng" unicode="&#x14a;" horiz-adv-x="1378" 
d="M1341 1085q0 -62 -12 -131l-102 -571q-74 -414 -430 -414q-140 0 -228 92l121 179q55 -47 111 -47q130 0 162 182l94 536q16 94 16 142q0 75 -33 123q-58 84 -211 84q-80 0 -169.5 -42t-145.5 -104l-199 -1114h-262l260 1464h174l29 -125q172 152 397 152q234 0 349 -145
q79 -102 79 -261z" />
    <glyph glyph-name="eng" unicode="&#x14b;" horiz-adv-x="1151" 
d="M805 625q14 78 14 125q0 133 -157 133q-137 0 -240 -113l-143 -770h-252l151 803q4 22 4 57q0 85 -28 191l243 45l25 -119q133 115 330 115q330 0 330 -310q0 -53 -14 -131l-106 -579q-49 -260 -179 -373q-137 -119 -375 -119l44 215q201 0 253 281z" />
    <glyph glyph-name="Omacron" unicode="&#x14c;" horiz-adv-x="1438" 
d="M99 545q0 391 213.5 668.5t555.5 277.5q263 0 405 -139.5t142 -403.5q0 -433 -218 -703t-597 -270q-232 0 -366.5 156.5t-134.5 413.5zM369 572q0 -169 67 -269t196 -100q238 0 376 214t138 511q0 336 -296 336q-208 0 -344.5 -220t-136.5 -472zM1291 1568h-809l38 141
h809z" />
    <glyph glyph-name="omacron" unicode="&#x14d;" horiz-adv-x="1167" 
d="M72 401q0 290 177 490t448 200q207 0 319 -107.5t112 -305.5q0 -296 -175 -497t-452 -201q-203 0 -316 108.5t-113 312.5zM332 413q0 -229 197 -229q156 0 247 144.5t91 342.5q0 216 -197 216q-153 0 -245.5 -142.5t-92.5 -331.5zM1129 1285h-809l38 141h809z" />
    <glyph glyph-name="Obreve" unicode="&#x14e;" horiz-adv-x="1438" 
d="M99 545q0 391 213.5 668.5t555.5 277.5q263 0 405 -139.5t142 -403.5q0 -433 -218 -703t-597 -270q-232 0 -366.5 156.5t-134.5 413.5zM369 572q0 -169 67 -269t196 -100q238 0 376 214t138 511q0 336 -296 336q-208 0 -344.5 -220t-136.5 -472zM588 1910h214
q-16 -55 -16 -73q0 -68 130 -68q162 0 192 141h214q-70 -325 -434 -325q-313 0 -313 236q0 32 13 89z" />
    <glyph glyph-name="obreve" unicode="&#x14f;" horiz-adv-x="1167" 
d="M72 401q0 290 177 490t448 200q207 0 319 -107.5t112 -305.5q0 -296 -175 -497t-452 -201q-203 0 -316 108.5t-113 312.5zM332 413q0 -229 197 -229q156 0 247 144.5t91 342.5q0 216 -197 216q-153 0 -245.5 -142.5t-92.5 -331.5zM418 1610h214q-16 -55 -16 -73
q0 -68 130 -68q162 0 192 141h214q-70 -325 -434 -325q-313 0 -313 236q0 32 13 89z" />
    <glyph glyph-name="Rcedilla" unicode="&#x156;" horiz-adv-x="1277" 
d="M845 649l327 -649h-293l-280 606q-68 1 -167 8l-113 -614h-268l268 1465q292 15 383 15q237 0 374.5 -91.5t137.5 -264.5q0 -176 -100.5 -305.5t-268.5 -169.5zM546 1240l-75 -410q59 -6 105 -6q378 0 378 240q0 101 -72.5 143.5t-240.5 42.5q-14 0 -95 -10zM308 -450
v123q18 -5 39 -5q58 0 108 25q63 31 63 83q0 35 -29 64.5t-64 30.5l62 86q230 -15 230 -186q0 -115 -109 -176q-89 -50 -213 -50q-15 0 -87 5z" />
    <glyph glyph-name="rcedilla" unicode="&#x157;" horiz-adv-x="915" 
d="M869 817q-89 66 -157 66q-97 0 -177.5 -84.5t-101.5 -193.5l-113 -605h-251l200 1071h251l-17 -93q133 113 294 113q41 0 147 -19zM-32 -450v123q18 -5 39 -5q58 0 108 25q63 31 63 83q0 35 -29 64.5t-64 30.5l62 86q230 -15 230 -186q0 -115 -109 -176q-89 -50 -213 -50
q-15 0 -87 5z" />
    <glyph glyph-name="Scircumflex" unicode="&#x15c;" horiz-adv-x="1027" 
d="M940 1176q-116 85 -236 85q-241 0 -241 -182q0 -77 128 -184l151 -128q70 -60 97 -87.5t57 -76.5t45 -99t15 -102q0 -201 -150.5 -314t-390.5 -113q-197 0 -372 85l84 257q134 -101 311 -101q107 0 177.5 45.5t70.5 129.5q0 83 -128 183l-157 125q-72 58 -97.5 84
t-53.5 72.5t-42 95.5t-14 101q0 202 134 320t351 118q72 0 184 -16.5t157 -37.5zM803 1568l-118 143l-191 -146h-271l432 358h139l290 -355h-281z" />
    <glyph glyph-name="scircumflex" unicode="&#x15d;" horiz-adv-x="940" 
d="M791 778q-120 105 -220 105q-62 0 -107.5 -28.5t-45.5 -76.5q0 -59 108.5 -114t166.5 -87.5t95 -88t37 -127.5q0 -177 -132.5 -279t-338.5 -102q-176 0 -344 99l132 227q125 -118 245 -118q76 0 125.5 38t49.5 103q0 54 -94 103t-166 89.5t-109.5 99t-37.5 129.5
q0 156 124.5 248.5t305.5 92.5q124 0 322 -84zM703 1285l-118 143l-191 -146h-271l432 358h139l290 -355h-281z" />
    <glyph glyph-name="Tbar" unicode="&#x166;" horiz-adv-x="1403" 
d="M1434 1465l-43 -228h-462l-84 -457h318l-30 -164h-317l-113 -616h-263l113 616h-315l30 164h314l84 457h-466l42 228h1192z" />
    <glyph glyph-name="tbar" unicode="&#x167;" horiz-adv-x="897" 
d="M741 653l-34 -155h-246l-23 -103q-12 -56 -12 -96q0 -109 123 -109q57 0 180 52v-226q-107 -36 -295 -36q-120 0 -194 75.5t-74 198.5q0 43 8 80l37 164h-123l33 155h125l49 217h-125l43 201h125l43 219l285 105l-74 -324h293l-43 -201h-295l-49 -217h243z" />
    <glyph glyph-name="Utilde" unicode="&#x168;" horiz-adv-x="1355" 
d="M1217 451q-42 -226 -210 -351t-416 -125q-207 0 -337.5 99.5t-130.5 274.5q0 53 11 113l184 1003h268l-187 -998q-5 -27 -5 -57q0 -99 61 -153t166 -54q134 0 223 73t113 205l183 984h264zM669 1655h-160q23 105 90 179t153 74q49 0 150.5 -43t124.5 -43q33 0 62 26
t34 60h162q-19 -87 -90 -170t-150 -83q-32 0 -144 46.5t-149 46.5q-56 0 -83 -93z" />
    <glyph glyph-name="utilde" unicode="&#x169;" horiz-adv-x="1141" 
d="M928 -1h-250l15 78q-134 -97 -336 -97q-138 0 -216.5 79t-78.5 219q0 44 11 103l129 690h254l-127 -680q-8 -43 -8 -73q0 -130 146 -130q119 0 199.5 77.5t100.5 186.5l110 619h251zM509 1285h-160q23 105 90 179t153 74q49 0 150.5 -43t124.5 -43q33 0 62 26t34 60h162
q-19 -87 -90 -170t-150 -83q-32 0 -144 46.5t-149 46.5q-56 0 -83 -93z" />
    <glyph glyph-name="Umacron" unicode="&#x16a;" horiz-adv-x="1355" 
d="M1217 451q-42 -226 -210 -351t-416 -125q-207 0 -337.5 99.5t-130.5 274.5q0 53 11 113l184 1003h268l-187 -998q-5 -27 -5 -57q0 -99 61 -153t166 -54q134 0 223 73t113 205l183 984h264zM1281 1568h-809l38 141h809z" />
    <glyph glyph-name="umacron" unicode="&#x16b;" horiz-adv-x="1141" 
d="M928 -1h-250l15 78q-134 -97 -336 -97q-138 0 -216.5 79t-78.5 219q0 44 11 103l129 690h254l-127 -680q-8 -43 -8 -73q0 -130 146 -130q119 0 199.5 77.5t100.5 186.5l110 619h251zM1101 1285h-809l38 141h809z" />
    <glyph glyph-name="Ubreve" unicode="&#x16c;" horiz-adv-x="1355" 
d="M1217 451q-42 -226 -210 -351t-416 -125q-207 0 -337.5 99.5t-130.5 274.5q0 53 11 113l184 1003h268l-187 -998q-5 -27 -5 -57q0 -99 61 -153t166 -54q134 0 223 73t113 205l183 984h264zM568 1910h214q-16 -55 -16 -73q0 -68 130 -68q162 0 192 141h214
q-70 -325 -434 -325q-313 0 -313 236q0 32 13 89z" />
    <glyph glyph-name="ubreve" unicode="&#x16d;" horiz-adv-x="1141" 
d="M928 -1h-250l15 78q-134 -97 -336 -97q-138 0 -216.5 79t-78.5 219q0 44 11 103l129 690h254l-127 -680q-8 -43 -8 -73q0 -130 146 -130q119 0 199.5 77.5t100.5 186.5l110 619h251zM388 1610h214q-16 -55 -16 -73q0 -68 130 -68q162 0 192 141h214q-70 -325 -434 -325
q-313 0 -313 236q0 32 13 89z" />
    <glyph glyph-name="Uogonek" unicode="&#x172;" horiz-adv-x="1355" 
d="M1404 1465l-187 -1014q-42 -225 -209 -351q-121 -91 -286 -116q-87 -46 -87 -129q0 -44 69 -44q86 0 166 61v-205q-132 -40 -204 -40q-108 0 -182 50q-86 58 -86 160q0 82 49 152q-112 23 -193 85q-131 100 -131 274q0 61 10 115l184 1002h269l-187 -998q-6 -32 -6 -57
q0 -102 64 -156q60 -51 164 -51q135 0 222.5 72.5t112.5 205.5l184 984h264z" />
    <glyph glyph-name="uogonek" unicode="&#x173;" horiz-adv-x="1141" 
d="M1128 1071l-200 -1071q-51 -14 -87 -53q-40 -41 -40 -92q0 -44 69 -44q86 0 166 61v-205q-132 -40 -204 -40q-108 0 -182 50q-86 58 -86 160q0 85 114 168l14 73q-132 -98 -335 -98q-138 0 -215 79q-80 82 -80 220q0 32 11 102l129 690h254l-127 -680q-8 -43 -8 -74
q0 -129 147 -129q117 0 199 79t101 186l109 618h251z" />
    <glyph glyph-name="Wcircumflex" unicode="&#x174;" horiz-adv-x="1897" 
d="M1272 -20h-105l-159 894l-475 -894h-105l-207 1485h265l111 -888l462 888h113l136 -882l428 882h282zM1273 1568l-118 143l-191 -146h-271l432 358h139l290 -355h-281z" />
    <glyph glyph-name="wcircumflex" unicode="&#x175;" horiz-adv-x="1584" 
d="M1064 -20h-90l-187 619l-401 -619h-92l-211 1091h254l107 -590l367 590h90l177 -597l309 597h265zM1033 1285l-118 143l-191 -146h-271l432 358h139l290 -355h-281z" />
    <glyph glyph-name="Ycircumflex" unicode="&#x176;" horiz-adv-x="1400" 
d="M848 648l-119 -648h-258l121 656l-345 809h271l236 -573l439 573h297zM1013 1568l-118 143l-191 -146h-271l432 358h139l290 -355h-281z" />
    <glyph glyph-name="ycircumflex" unicode="&#x177;" horiz-adv-x="1155" 
d="M620 -107q-149 -311 -578 -313v241q283 1 363 183l52 120q-137 39 -185 288l-127 659h263q117 -704 149 -735l344 735h283zM809 1285l-118 143l-191 -146h-271l432 358h139l290 -355h-281z" />
    <glyph glyph-name="longs" unicode="&#x17f;" horiz-adv-x="719" 
d="M61 0l187 1051q81 458 467 458q101 0 180 -41l-49 -194q-81 33 -141 33q-157 0 -201 -265l-176 -1042h-267z" />
    <glyph glyph-name="Aringacute" unicode="&#x1fa;" horiz-adv-x="1257" 
d="M1221 1878l-216 -226q87 -60 87 -161q0 -78 -55 -134q-50 -51 -128 -69l280 -1288h-271l-48 298h-520l-174 -298h-271l836 1301q-142 56 -142 190q0 89 71 148q66 54 157 60l110 179h284zM976 1487q0 44 -43 70q-37 22 -84 22t-84 -22q-43 -26 -43 -70q0 -43 44 -69
q37 -22 83 -22t83 22q44 26 44 69zM838 493l-78 497l-295 -497h373z" />
    <glyph glyph-name="aringacute" unicode="&#x1fb;" horiz-adv-x="1214" 
d="M988 384q-7 -37 -7 -82q0 -220 34 -302h-156q-70 0 -104 107q-128 -127 -319 -127q-174 0 -269.5 98t-95.5 273q0 305 184.5 522.5t465.5 217.5q271 0 391 -50zM699 887q-168 0 -268 -160.5t-100 -369.5q0 -173 170 -173q108 0 188.5 133t143.5 550q-71 20 -134 20z
M771 1166q-99 0 -173 60t-74 150t74 149.5t173 59.5q100 0 173 -59t73 -150t-73.5 -150.5t-172.5 -59.5zM774 1464q-51 0 -89 -26t-38 -66q0 -39 38 -65t89 -26t89 26t38 65q0 40 -38 66t-89 26zM860 1644h-216l205 333h284z" />
    <glyph glyph-name="AEacute" unicode="&#x1fc;" horiz-adv-x="1965" 
d="M1962 1237h-675l-61 -337h484l-41 -218h-484l-82 -454h664l-43 -228h-932l55 298h-391l-183 -298h-307l969 1465h1070zM554 493h329l140 750zM1380 1585h-216l205 333h284z" />
    <glyph glyph-name="aeacute" unicode="&#x1fd;" horiz-adv-x="1830" 
d="M1020 1030l-23 -109q163 170 428 170q157 0 258 -60q126 -73 126 -219q0 -196 -185 -301q-151 -87 -362 -87q-113 0 -214 35q-2 -19 -2 -38q0 -117 57 -171t189 -54q67 0 155 39q82 36 126 80l-31 -277q-128 -58 -315 -58q-141 0 -220 37q-79 38 -135 131q-2 -23 17 -148
h-93q-68 0 -101 151q-108 -171 -279 -171q-165 0 -260 108q-90 102 -90 265q0 294 185 512q192 226 470 226q157 0 299 -61zM1551 784q0 91 -145 91q-91 0 -177 -60.5t-131 -158.5q59 -17 134 -17q319 0 319 145zM827 837q-34 42 -98 42q-170 0 -283 -151
q-109 -144 -109 -343q0 -193 120 -193q144 0 282 295q40 107 60 202zM1100 1285h-216l205 333h284z" />
    <glyph glyph-name="Oslashacute" unicode="&#x1fe;" horiz-adv-x="1438" 
d="M1468 1491l-149 -194q96 -134 96 -349q0 -433 -218 -703t-597 -270q-142 0 -250 61l-54 -71h-248l156 205q-105 150 -105 375q0 391 213.5 668.5t555.5 277.5q174 0 296 -62l48 62h256zM1011 1228q-65 36 -161 36q-208 0 -344.5 -220t-136.5 -472q0 -88 19 -160zM504 236
q54 -33 128 -33q238 0 376 214t138 511q0 71 -13 127zM935 1585h-216l205 333h284z" />
    <glyph glyph-name="oslashacute" unicode="&#x1ff;" horiz-adv-x="1167" 
d="M1185 1091l-131 -151q74 -102 74 -262q0 -296 -175 -497t-452 -201q-139 0 -237 52l-58 -67h-208l148 170q-74 104 -74 266q0 290 177 490t448 200q140 0 238 -50l44 50h206zM780 863q-44 24 -110 24q-153 0 -245.5 -142.5t-92.5 -331.5q0 -32 4 -60zM419 210
q44 -26 110 -26q156 0 247 144.5t91 342.5q0 27 -3 51zM725 1285h-216l205 333h284z" />
    <glyph glyph-name="Wgrave" unicode="&#x1e80;" horiz-adv-x="1897" 
d="M1272 -20h-105l-159 894l-475 -894h-105l-207 1485h265l111 -888l462 888h113l136 -882l428 882h282zM1112 1585l-153 333h280l35 -333h-162z" />
    <glyph glyph-name="wgrave" unicode="&#x1e81;" horiz-adv-x="1584" 
d="M1064 -20h-90l-187 619l-401 -619h-92l-211 1091h254l107 -590l367 590h90l177 -597l309 597h265zM857 1285l-153 333h280l35 -333h-162z" />
    <glyph glyph-name="Wacute" unicode="&#x1e82;" horiz-adv-x="1897" 
d="M1272 -20h-105l-159 894l-475 -894h-105l-207 1485h265l111 -888l462 888h113l136 -882l428 882h282zM1180 1585h-216l205 333h284z" />
    <glyph glyph-name="wacute" unicode="&#x1e83;" horiz-adv-x="1584" 
d="M1064 -20h-90l-187 619l-401 -619h-92l-211 1091h254l107 -590l367 590h90l177 -597l309 597h265zM962 1285h-216l205 333h284z" />
    <glyph glyph-name="Wdieresis" unicode="&#x1e84;" horiz-adv-x="1897" 
d="M1272 -20h-105l-159 894l-475 -894h-105l-207 1485h265l111 -888l462 888h113l136 -882l428 882h282zM1245 1771q0 51 45 81.5t102 30.5q58 0 103 -31.5t45 -80.5q0 -51 -44.5 -82t-103.5 -31q-58 0 -102.5 31t-44.5 82zM772 1771q0 49 45 80.5t103 31.5q57 0 102 -30.5
t45 -81.5q0 -50 -45 -81.5t-102 -31.5q-59 0 -103.5 31t-44.5 82z" />
    <glyph glyph-name="wdieresis" unicode="&#x1e85;" horiz-adv-x="1584" 
d="M1064 -20h-90l-187 619l-401 -619h-92l-211 1091h254l107 -590l367 590h90l177 -597l309 597h265zM975 1401q0 51 45 81.5t102 30.5q58 0 103 -31.5t45 -80.5q0 -51 -44.5 -82t-103.5 -31q-58 0 -102.5 31t-44.5 82zM502 1401q0 49 45 80.5t103 31.5q57 0 102 -30.5
t45 -81.5q0 -50 -45 -81.5t-102 -31.5q-59 0 -103.5 31t-44.5 82z" />
    <glyph glyph-name="Ygrave" unicode="&#x1ef2;" horiz-adv-x="1400" 
d="M848 648l-119 -648h-258l121 656l-345 809h271l236 -573l439 573h297zM807 1585l-153 333h280l35 -333h-162z" />
    <glyph glyph-name="ygrave" unicode="&#x1ef3;" horiz-adv-x="1155" 
d="M620 -107q-149 -311 -578 -313v241q283 1 363 183l52 120q-137 39 -185 288l-127 659h263q117 -704 149 -735l344 735h283zM627 1285l-153 333h280l35 -333h-162z" />
    <glyph glyph-name="afii00208" unicode="&#x2015;" horiz-adv-x="1504" 
d="M63 502v201h1369v-201h-1369z" />
    <glyph glyph-name="underscoredbl" unicode="&#x2017;" 
d="M-8 -254v129h1214v-129h-1214zM-8 -504v129h1214v-129h-1214z" />
    <glyph glyph-name="minute" unicode="&#x2032;" horiz-adv-x="406" 
d="M348 1056h-193l166 411h244z" />
    <glyph glyph-name="second" unicode="&#x2033;" horiz-adv-x="766" 
d="M348 1056h-193l166 411h244zM708 1056h-193l166 411h244z" />
    <glyph glyph-name="exclamdbl" unicode="&#x203c;" horiz-adv-x="1252" 
d="M442 424h-132l10 279q4 109 13.5 202.5t22.5 165.5l78 420h297l-57 -330q-13 -77 -103 -348zM163 141q0 68 49.5 114.5t117.5 46.5t117.5 -46.5t49.5 -114.5t-49 -114.5t-118 -46.5t-118 46.5t-49 114.5zM942 424h-132l10 279q4 109 13.5 202.5t22.5 165.5l78 420h297
l-57 -330q-13 -77 -103 -348zM663 141q0 68 49.5 114.5t117.5 46.5t117.5 -46.5t49.5 -114.5t-49 -114.5t-118 -46.5t-118 46.5t-49 114.5z" />
    <glyph glyph-name="radicalex" unicode="&#x203e;" horiz-adv-x="1074" 
d="M785 1471v-175h-791v175h791z" />
    <glyph glyph-name="nsuperior" unicode="&#x207f;" horiz-adv-x="876" 
d="M876 1272q0 -48 -8 -92l-84 -452h-162l82 433q8 44 8 88q0 95 -106 95q-95 0 -166 -80l-99 -536h-162l107 558q2 11 2 41q0 60 -21 135l156 31l17 -84q93 82 209 82q227 0 227 -219z" />
    <glyph glyph-name="afii08941" unicode="&#x20a4;" 
d="M862 657l-26 -143h-245q-23 -209 -118 -317q137 -43 239 -43q145 0 247 151l162 -170q-51 -103 -173 -163q-114 -56 -247 -56q-97 0 -226 28t-211 28q-119 0 -218 -21l-51 203q140 37 188 80q101 89 135 280h-196l26 143h186v150h-161l26 143h137q38 529 563 529
q150 0 262 -84l-137 -205q-92 61 -178 61q-215 0 -239 -301h305l-25 -143h-283l-2 -150h260z" />
    <glyph glyph-name="peseta" unicode="&#x20a7;" horiz-adv-x="2400" 
d="M2367 1016l-100 -187q-93 60 -194 60q-70 0 -115 -29q-49 -31 -49 -84q0 -48 65 -90q17 -11 154 -88q164 -93 164 -248q0 -171 -133 -274q-127 -99 -304 -99q-166 0 -272 89q-110 -86 -252 -86q-120 0 -184 71t-64 191q0 63 7 92l114 536h-121q-38 -125 -129 -208
q-152 -142 -395 -142q-81 0 -156 19l-98 -539h-266l276 1462q170 23 285 23q497 0 510 -414h135l41 219l277 105l-70 -324h168l-41 -201h-170l-102 -479q-11 -48 -11 -100q0 -105 103 -105q73 0 198 109q101 -113 232 -113q73 0 120.5 36.5t47.5 96.5q0 69 -84 117
q-54 29 -154 86q-133 83 -133 230q0 159 117 251q114 91 293 91q161 0 290 -74zM852 1028q0 232 -203 232q-50 0 -117 -17l-88 -483q50 -15 107 -15q138 0 219.5 74t81.5 209z" />
    <glyph glyph-name="afii61248" unicode="&#x2105;" horiz-adv-x="1477" 
d="M1408 1491l-1063 -1526h-190l1063 1526h190zM1408 377q0 -178 -98 -298q-106 -128 -266 -128q-115 0 -190 75t-75 205q0 175 98 295q106 129 269 129q113 0 187.5 -74t74.5 -204zM1246 375q0 132 -114 132q-95 0 -146 -83q-45 -74 -45 -193q0 -132 117 -132q95 0 145 84
q43 73 43 192zM720 1308q-81 55 -148 55q-101 0 -166 -80q-61 -79 -61 -185q0 -70 32.5 -106.5t86.5 -36.5q91 0 217 80l-25 -187q-107 -41 -211 -41q-106 0 -184 71t-78 201q0 182 112.5 307t270.5 125q105 0 193 -47z" />
    <glyph glyph-name="afii61289" unicode="&#x2113;" 
d="M1094 1200q-45 -236 -493 -568l-36 -187q-14 -71 -14 -123q0 -140 102 -140q92 0 164 63l72 -163q-45 -41 -136 -72q-87 -30 -153 -30q-220 0 -280 139q-24 56 -24 145q0 86 23 202l-96 -51l-45 186l186 100l22 111q58 300 128 438q122 241 346 241q133 0 196 -80
q46 -57 46 -140q0 -33 -8 -71zM869 1188q5 25 5 44q0 57 -45 57q-100 0 -144 -224l-28 -144q191 159 212 267z" />
    <glyph glyph-name="afii61352" unicode="&#x2116;" horiz-adv-x="1964" 
d="M1924 749q0 -94 -34 -188q-37 -100 -100 -160q-97 -92 -246 -92q-123 0 -191 80q-65 76 -65 199q0 204 137 332q101 94 246 94q120 0 188 -74q65 -71 65 -191zM1778 164l-33 -170h-524l32 170h525zM1309 1465l-277 -1483h-114l-455 920l-166 -902h-244l275 1484h114
l455 -919l168 900h244zM1750 738q0 122 -105 122q-89 0 -140 -94q-43 -79 -43 -176q0 -127 105 -127q92 0 142 98q41 79 41 177z" />
    <glyph glyph-name="estimated" unicode="&#x212e;" horiz-adv-x="1125" 
d="M1063 537h-814v-371q151 -123 309 -123q94 0 220 45t166 93l47 -53q-163 -148 -430 -148q-217 0 -358.5 149t-141.5 394q0 254 147.5 411t354.5 157q231 0 365.5 -166.5t134.5 -387.5zM250 886v-281h630v281q-120 142 -314 142q-185 0 -316 -142z" />
    <glyph glyph-name="oneeighth" unicode="&#x215b;" horiz-adv-x="1796" 
d="M1659 705q0 -71 -40.5 -134.5t-113.5 -103.5q109 -82 109 -188q0 -143 -90 -227q-94 -87 -260 -87q-113 0 -189 61.5t-76 163.5q0 99 56 177q53 74 151 122q-90 62 -90 166q0 110 90 181q87 67 211 67q99 0 172 -57q70 -55 70 -141zM1393 1491l-883 -1526h-188l884 1526
h187zM600 1478l-147 -913h-166l100 613l-156 -86l25 186q193 97 262 200h82zM1491 682q0 30 -27.5 52.5t-64.5 22.5q-115 0 -115 -102q0 -66 105 -118q102 73 102 145zM1446 268q0 84 -107 140q-69 -19 -125 -78q-47 -51 -47 -121q0 -45 36 -72q33 -26 79 -26
q75 0 119.5 43.5t44.5 113.5z" />
    <glyph glyph-name="threeeighths" unicode="&#x215c;" horiz-adv-x="1796" 
d="M1667 705q0 -71 -40 -134.5t-114 -103.5q109 -82 109 -188q0 -143 -90 -227q-93 -87 -260 -87q-112 0 -188 61.5t-76 163.5q0 99 55 177q53 74 151 122q-90 62 -90 166q0 110 90 181q87 67 211 67q99 0 172 -57q70 -55 70 -141zM1440 1491l-883 -1526h-188l884 1526h187z
M743 1270q0 -149 -147 -230q106 -51 106 -168q0 -147 -91 -231q-87 -87 -261 -87q-140 0 -219 91l82 162q59 -94 158 -94q163 0 163 140q0 114 -184 114l27 144q84 0 141 36t57 104q0 81 -98 81q-65 0 -131 -55l-82 120q92 94 250 94q105 0 167 -61t62 -160zM1499 682
q0 30 -27.5 52.5t-64.5 22.5q-115 0 -115 -102q0 -66 105 -118q102 73 102 145zM1454 268q0 84 -106 140q-70 -19 -125 -78q-47 -51 -47 -121q0 -45 34 -71.5t80 -26.5q75 0 119.5 43.5t44.5 113.5z" />
    <glyph glyph-name="fiveeighths" unicode="&#x215d;" horiz-adv-x="1796" 
d="M1667 705q0 -71 -40 -134.5t-114 -103.5q109 -82 109 -188q0 -143 -90 -227q-93 -87 -260 -87q-112 0 -188 61.5t-76 163.5q0 99 55 177q53 74 151 122q-90 62 -90 166q0 110 90 181q87 67 211 67q99 0 172 -57q70 -55 70 -141zM1440 1491l-883 -1526h-188l884 1526h187z
M799 1477l-27 -146h-330l-34 -155q41 14 102 14q99 0 164 -62t65 -159q0 -184 -100 -296q-107 -120 -297 -120q-128 0 -217 82l76 146q66 -82 155 -82q97 0 152 64q59 69 59 173q0 115 -129 115q-85 0 -149 -64l-74 33l90 457h494zM1499 682q0 30 -27.5 52.5t-64.5 22.5
q-115 0 -115 -102q0 -66 105 -118q102 73 102 145zM1454 268q0 84 -106 140q-70 -19 -125 -78q-47 -51 -47 -121q0 -45 34 -71.5t80 -26.5q75 0 119.5 43.5t44.5 113.5z" />
    <glyph glyph-name="seveneighths" unicode="&#x215e;" horiz-adv-x="1796" 
d="M1661 705q0 -71 -40.5 -134.5t-113.5 -103.5q109 -82 109 -188q0 -143 -90 -227q-94 -87 -260 -87q-113 0 -189 61.5t-76 163.5q0 99 56 177q53 74 151 122q-90 62 -90 166q0 110 90 181q87 67 211 67q99 0 172 -57q70 -55 70 -141zM1415 1491l-883 -1526h-188l885 1526
h186zM913 1403q-288 -399 -507 -838h-197q216 413 446 758h-381l31 154h608v-74zM1493 682q0 30 -27.5 52.5t-64.5 22.5q-115 0 -115 -102q0 -66 105 -118q102 73 102 145zM1448 268q0 84 -107 140q-69 -19 -125 -78q-47 -51 -47 -121q0 -45 36 -72q33 -26 79 -26
q75 0 119.5 43.5t44.5 113.5z" />
    <glyph glyph-name="H22073" unicode="&#x25a1;" horiz-adv-x="1237" 
d="M146 944h944v-944h-944v944zM222 868v-792h792v792h-792z" />
    <glyph glyph-name="H18543" unicode="&#x25aa;" horiz-adv-x="726" 
d="M594 908v-463h-463v463h463z" />
    <glyph glyph-name="H18551" unicode="&#x25ab;" horiz-adv-x="726" 
d="M594 908v-463h-463v463h463zM518 832h-311v-311h311v311z" />
    <glyph glyph-name="H18533" unicode="&#x25cf;" horiz-adv-x="1237" 
d="M177 576q0 183 129 312t312 129q182 0 311 -129t129 -312q0 -182 -129 -311t-311 -129q-183 0 -312 129t-129 311z" />
    <glyph glyph-name="openbullet" unicode="&#x25e6;" horiz-adv-x="726" 
d="M363 928q104 0 177.5 -73.5t73.5 -177.5t-73.5 -177.5t-177.5 -73.5t-177.5 73.5t-73.5 177.5t73 177.5t178 73.5zM363 852q-73 0 -124 -51.5t-51 -123.5q0 -73 51.5 -124t123.5 -51t123.5 51t51.5 124q0 72 -51 123.5t-124 51.5z" />
    <glyph glyph-name="quotereversed" unicode="&#x201b;" horiz-adv-x="752" 
d="M574 1221q-66 -39 -77 -72q-18 -47 9 -106q13 -27 60 -93l-118 -84q-148 166 -148 340q0 78 29 158q55 146 169 146q39 0 71 -9q104 -30 104 -122q-1 -100 -99 -158z" />
    <glyph glyph-name="Scommaaccent" unicode="&#x218;" horiz-adv-x="1027" 
d="M940 1176q-116 85 -236 85q-241 0 -241 -182q0 -77 128 -184l151 -128q70 -60 97 -87.5t57 -76.5t45 -99t15 -102q0 -201 -150.5 -314t-390.5 -113q-197 0 -372 85l84 257q134 -101 311 -101q107 0 177.5 45.5t70.5 129.5q0 83 -128 183l-157 125q-72 58 -97.5 84
t-53.5 72.5t-42 95.5t-14 101q0 202 134 320t351 118q72 0 184 -16.5t157 -37.5zM358 -571l-63 85q66 50 81 73.5t15 49.5t-34.5 60.5t-34.5 75.5q0 118 117 118q123 0 123 -139q0 -196 -204 -323z" />
    <glyph glyph-name="scommaaccent" unicode="&#x219;" horiz-adv-x="940" 
d="M791 778q-120 105 -220 105q-62 0 -107.5 -28.5t-45.5 -76.5q0 -59 108.5 -114t166.5 -87.5t95 -88t37 -127.5q0 -177 -132.5 -279t-338.5 -102q-176 0 -344 99l132 227q125 -118 245 -118q76 0 125.5 38t49.5 103q0 54 -94 103t-166 89.5t-109.5 99t-37.5 129.5
q0 156 124.5 248.5t305.5 92.5q124 0 322 -84zM283 -571l-63 85q66 50 81 73.5t15 49.5t-34.5 60.5t-34.5 75.5q0 118 117 118q123 0 123 -139q0 -196 -204 -323z" />
    <glyph glyph-name="Tcedilla" unicode="&#x162;" horiz-adv-x="1403" 
d="M1391 1237h-462l-226 -1237h-263l226 1237h-466l42 228h1192zM309 -450v123q18 -5 39 -5q58 0 108 25q63 31 63 83q0 35 -29 64.5t-64 30.5l62 86q230 -15 230 -186q0 -115 -109 -176q-89 -50 -213 -50q-15 0 -87 5z" />
    <glyph glyph-name="tcedilla" unicode="&#x163;" horiz-adv-x="897" 
d="M841 870h-295l-108 -475q-13 -57 -13 -95q0 -110 124 -110q55 0 180 52v-225q-108 -37 -294 -37q-122 0 -196 76t-74 198q0 40 9 79l121 537h-124l43 201h124l42 219l286 104l-75 -323h293zM114 -450v123q18 -5 39 -5q58 0 108 25q63 31 63 83q0 35 -29 64.5t-64 30.5
l62 86q230 -15 230 -186q0 -115 -109 -176q-89 -50 -213 -50q-15 0 -87 5z" />
    <glyph glyph-name="dottediacute" horiz-adv-x="669" 
d="M323 1415q0 67 47.5 111.5t115.5 44.5q67 0 115 -44.5t48 -111.5q0 -66 -48 -111t-115 -45t-115 44.5t-48 111.5zM397 0h-254l162 870h-137l42 201h387zM598 1641h-216l205 333h284z" />
    </font>
</defs>
</svg>
