<?xml version="1.0" encoding="UTF-8"?>
<svg width="20px" height="20px" viewBox="0 0 20 20" version="1.1" xmlns="http://www.w3.org/2000/svg" xmlns:xlink="http://www.w3.org/1999/xlink">
    <!-- Generator: Sketch 50.2 (55047) - http://www.bohemiancoding.com/sketch -->
    <title>Group 18 Copy 4</title>
    <desc>Created with Sketch.</desc>
    <defs></defs>
    <g id="切圖" stroke="none" stroke-width="1" fill="none" fill-rule="evenodd">
        <g id="图标" transform="translate(-57.000000, -727.000000)" fill="#333333" fill-rule="nonzero">
            <g id="Group-18-Copy-4" transform="translate(55.000000, 725.000000)">
                <path d="M9.70710678,12.6066017 L19.6066017,2.70710678 C19.997126,2.31658249 20.630291,2.31658249 21.0208153,2.70710678 C21.4113396,3.09763107 21.4113396,3.73079605 21.0208153,4.12132034 L11.1213203,14.0208153 C10.7307961,14.4113396 10.0976311,14.4113396 9.70710678,14.0208153 C9.31658249,13.630291 9.31658249,12.997126 9.70710678,12.6066017 Z M12.895457,2 L12.895457,4 L4,4 L4,20 L20,20 L20,11.0762727 L22,11.0762727 L22,20 C22,21.1045695 21.1045695,22 20,22 L4,22 C2.8954305,22 2,21.1045695 2,20 L2,4 C2,2.8954305 2.8954305,2 4,2 L12.895457,2 Z" id="Combined-Shape"></path>
            </g>
        </g>
    </g>
</svg>