<?xml version="1.0" encoding="UTF-8"?>
<svg width="24px" height="24px" viewBox="0 0 24 24" version="1.1" xmlns="http://www.w3.org/2000/svg" xmlns:xlink="http://www.w3.org/1999/xlink">
    <!-- Generator: Sketch 50.2 (55047) - http://www.bohemiancoding.com/sketch -->
    <title>svg_24x24_search</title>
    <desc>Created with Sketch.</desc>
    <defs></defs>
    <g id="切圖" stroke="none" stroke-width="1" fill="none" fill-rule="evenodd">
        <g id="SVG" transform="translate(-124.000000, -50.000000)" fill="#333333" fill-rule="nonzero">
            <g id="svg_24x24_search" transform="translate(124.000000, 50.000000)">
                <path d="M9.50028671,4.51434352 C12.2572644,4.51434352 14.5000588,6.76970967 14.5000588,9.54303055 C14.5000588,10.5877403 14.17948,11.5922205 13.5735232,12.4496116 L13.0807119,13.1448276 L12.3892674,13.6388961 C11.5479968,14.2452458 10.5372998,14.5715892 9.50028671,14.5717176 C6.74330905,14.5717176 4.50051463,12.3163514 4.50051463,9.54303055 C4.50051463,6.76970964 6.74330905,4.5143435 9.50028671,4.51434352 Z M9.50028671,2 C5.35790576,2 2,5.37676333 2,9.54303055 C2,13.7092978 5.35790576,17.0860611 9.50028671,17.0860611 C11.0573118,17.0868217 12.5751216,16.5977448 13.8387864,15.6880861 L19.8618963,21.7463968 C20.0957452,21.9832572 20.4147253,22.1165801 20.7475739,22.1165801 C21.0804224,22.1165801 21.3994025,21.9832572 21.6332514,21.7463968 C22.1222495,21.2537554 22.1222495,20.458883 21.6332514,19.9662416 L15.6101415,13.9079309 C16.5152683,12.633015 17.0008142,11.1078295 16.9993162,9.54428772 C16.9993162,5.37802051 13.6414105,2.00125717 9.50028671,2.00125717 L9.50028671,2 Z" id="Shape"></path>
            </g>
        </g>
    </g>
</svg>