<?xml version="1.0" encoding="UTF-8"?>
<svg width="24px" height="24px" viewBox="0 0 24 24" version="1.1" xmlns="http://www.w3.org/2000/svg" xmlns:xlink="http://www.w3.org/1999/xlink">
    <!-- Generator: Sketch 52.2 (67145) - http://www.bohemiancoding.com/sketch -->
    <title>ic_新增渠道信息_24x24_bg copy 61</title>
    <desc>Created with Sketch.</desc>
    <g id="V1.6.4-11.24" stroke="none" stroke-width="1" fill="none" fill-rule="evenodd">
        <g id="游戏规则管理" transform="translate(-1762.000000, -254.000000)" fill="#333333" fill-rule="nonzero">
            <g id="Group">
                <g id="list-default" transform="translate(280.000000, 226.000000)">
                    <g id="funtion-btn-1-copy" transform="translate(1362.000000, 28.000000)">
                        <g id="ic_online_24x24_blue-copy" transform="translate(132.000000, 12.000000) scale(1, -1) translate(-132.000000, -12.000000) translate(120.000000, 0.000000)">
                            <path d="M4,6 L4,18 C4,19.1045695 4.8954305,20 6,20 L18,20 C19.1045695,20 20,19.1045695 20,18 L20,6 C20,4.8954305 19.1045695,4 18,4 L6,4 C4.8954305,4 4,4.8954305 4,6 Z M6,2 L18,2 C20.209139,2 22,3.790861 22,6 L22,18 C22,20.209139 20.209139,22 18,22 L6,22 C3.790861,22 2,20.209139 2,18 L2,6 C2,3.790861 3.790861,2 6,2 Z M11,11 L11,6 L13,6 L13,11 L18,11 L18,13 L13,13 L13,18 L11,18 L11,13 L6,13 L6,11 L11,11 Z" id="Combined-Shape"></path>
                        </g>
                    </g>
                </g>
            </g>
        </g>
    </g>
</svg>