<?xml version="1.0" encoding="UTF-8"?>
<svg width="24px" height="24px" viewBox="0 0 24 24" version="1.1" xmlns="http://www.w3.org/2000/svg" xmlns:xlink="http://www.w3.org/1999/xlink">
    <!-- Generator: Sketch 50.2 (55047) - http://www.bohemiancoding.com/sketch -->
    <title>svg_flag_24x24</title>
    <desc>Created with Sketch.</desc>
    <defs></defs>
    <g id="切圖" stroke="none" stroke-width="1" fill="none" fill-rule="evenodd">
        <g id="SVG" transform="translate(-22.000000, -168.000000)" fill="#333333" fill-rule="nonzero">
            <g id="svg_flag_24x24" transform="translate(22.000000, 168.000000)">
                <g id="flag" transform="translate(1.000000, 1.000000)">
                    <path d="M7.85134657,0.262426831 C8.58723662,0.436569963 9.29589207,0.64707709 9.97731292,0.893948212 L12.0215755,1.63395551 C12.0215755,1.63395551 12.7302309,1.84446264 14.1475418,2.26547689 C15.5648527,2.68649115 15.6765962,2.68649115 16.3143644,2.64506397 C16.9521326,2.60363679 17.5038822,2.48386289 18.137133,2.39820547 C18.7703838,2.31254806 19.3100736,2.2072945 19.7562023,2.08244478 C20.202331,1.95759507 20.6019571,1.83254333 20.9550806,1.70728957 C21.3082041,1.58203581 21.5720277,1.47678224 21.7465515,1.39152888 L22,1.26304276 L22,18.9401868 C21.9396022,18.9729144 21.8491907,19.0173593 21.7287656,19.0735215 C21.6083405,19.1296836 21.3535951,19.2317049 20.9645293,19.3795851 C20.5754636,19.5274654 20.1699089,19.6557494 19.7478652,19.7644374 C19.3258215,19.8731253 18.7935425,19.9733283 18.1510282,20.0650464 C17.508514,20.1567645 16.8617385,20.2028255 16.2107018,20.2032296 C15.5715224,20.2032296 14.8839877,20.116158 14.1480976,19.9420149 C13.4122076,19.7678718 12.7035521,19.5573646 12.0221313,19.3104935 L9.97786873,18.5704862 C9.97786873,18.5704862 9.26921328,18.3599791 7.85190238,17.9389648 C6.43459148,17.5179506 6.41727892,17.5303907 5.52658326,17.5303907 C4.6358876,17.5303907 3.16386236,17.7171689 2,18 L2,22 L0,22 L0,1.26304276 C0.0603978239,1.23031517 0.15080929,1.18587028 0.271234399,1.12970811 C0.391659509,1.07354594 0.646404932,0.971524735 1.03547067,0.823644488 C1.42453641,0.675764242 1.83009112,0.547480148 2.25213481,0.438792207 C2.6741785,0.330104266 3.20645748,0.229901258 3.84897175,0.138183181 C4.49148603,0.0464651048 5.1382615,0.00040404439 5.78929817,0 C6.42792178,0.00121213317 7.11545652,0.0882836991 7.85134657,0.262426831 Z M2,3.02972686 L2,15.528032 C3.2000384,15.2779285 4.4000768,15.1528767 5.6001152,15.1528767 C6.4875676,15.1528767 7.37502,15.2597465 8.2624724,15.473486 C9.1499248,15.6872255 10.1593011,15.9914709 11.2906013,16.3862222 C11.4342219,16.438748 11.7045665,16.5357187 12.1016353,16.6771342 C12.498704,16.8185497 12.7894013,16.9205709 12.9737272,16.9831978 C13.1580531,17.0458247 13.4283977,17.1312801 13.7847611,17.239564 C14.1411245,17.3478479 14.4395021,17.4268386 14.6798938,17.476536 C14.9202854,17.5262335 15.1967743,17.5722945 15.5093603,17.6147192 C15.8219463,17.6571439 16.1187878,17.6785582 16.3998848,17.6789623 C17.624884,17.6789623 18.8249224,17.5112838 20,17.175927 L20,4.6776219 C18.7999616,4.92772538 17.5999232,5.05277711 16.3998848,5.05277711 C15.5124324,5.05277711 14.62498,4.94590737 13.7375276,4.73216789 C12.8500752,4.51842841 11.8406989,4.21418298 10.7093987,3.81943162 C10.5657781,3.76690584 10.2954335,3.66993519 9.89836475,3.52851965 C9.50129604,3.38710412 9.21059874,3.28508291 9.02627284,3.22245603 C8.84194694,3.15982915 8.57160229,3.07437376 8.21523889,2.96608986 C7.85887548,2.85780597 7.56049794,2.77881529 7.32010624,2.72911783 C7.07971455,2.67942037 6.8032257,2.63335931 6.4906397,2.59093465 C6.1780537,2.54850999 5.8812122,2.52709564 5.6001152,2.52669159 C4.375116,2.52669159 3.1750776,2.69437001 2,3.02972686 Z" id="Shape"></path>
                </g>
            </g>
        </g>
    </g>
</svg>