<?xml version="1.0" encoding="UTF-8"?>
<svg width="24px" height="24px" viewBox="0 0 24 24" version="1.1" xmlns="http://www.w3.org/2000/svg" xmlns:xlink="http://www.w3.org/1999/xlink">
    <!-- Generator: Sketch 50.2 (55047) - http://www.bohemiancoding.com/sketch -->
    <title>svg_首頁_24x24</title>
    <desc>Created with Sketch.</desc>
    <defs></defs>
    <g id="切圖" stroke="none" stroke-width="1" fill="none" fill-rule="evenodd">
        <g id="SVG" transform="translate(-56.000000, -168.000000)" fill="#333333" fill-rule="nonzero">
            <g id="svg_首頁_24x24" transform="translate(56.000000, 168.000000)">
                <g id="page" transform="translate(1.000000, 1.000000)">
                    <path d="M6.00000001,0 L6.00000001,1.99531616 L8.00000001,1.99531616 L8.00000001,8 L2,8 L2,5.98594847 L0,5.98594847 L0,7.98126465 L0,22 L22,22 L22,1.99531616 L22,0 L20,0 L8.00000001,0 L6.00000001,0 Z M10,1.99531616 L20,1.99531616 L20,20 L2,20 L2,9.9765808 L10,9.9765808 L10,1.99531616 Z M3.99999999,1.99531616 L3.99999999,3.99063231 L6.00000001,3.99063231 L6.00000001,1.99531616 L3.99999999,1.99531616 Z M2,3.99063231 L2,5.98594847 L3.99999999,5.98594847 L3.99999999,3.99063231 L2,3.99063231 Z" id="Shape"></path>
                </g>
            </g>
        </g>
    </g>
</svg>