<?xml version="1.0" encoding="UTF-8"?>
<svg width="24px" height="24px" viewBox="0 0 24 24" version="1.1" xmlns="http://www.w3.org/2000/svg" xmlns:xlink="http://www.w3.org/1999/xlink">
    <!-- Generator: Sketch 51 (57462) - http://www.bohemiancoding.com/sketch -->
    <title>ic_设为首页_24x24_black</title>
    <desc>Created with Sketch.</desc>
    <defs></defs>
    <g id="切圖" stroke="none" stroke-width="1" fill="none" fill-rule="evenodd">
        <g id="SVG" transform="translate(-22.000000, -201.000000)" fill="#333333" fill-rule="nonzero">
            <g id="ic_设为首页_24x24_black" transform="translate(34.000000, 213.000000) scale(1, -1) translate(-34.000000, -213.000000) translate(22.000000, 201.000000)">
                <g id="设为首页" transform="translate(12.000000, 12.000000) scale(1, -1) translate(-12.000000, -12.000000) translate(2.000000, 2.000000)">
                    <path d="M19,10 L19,15 C19,17.7369048 16.9883598,20 14.4444444,20 L5.55555556,20 C3.01164021,20 1,17.7369048 1,15 L1,10 C0.744077682,10 0.488155365,9.89887843 0.292893219,9.6966353 C-0.0976310729,9.29214903 -0.0976310729,8.63634722 0.292893219,8.23186095 L8.58578644,0.6067294 C9.36683502,-0.202243133 10.633165,-0.202243133 11.4142136,0.6067294 L19.7071068,8.23186095 C20.0976311,8.63634722 20.0976311,9.29214903 19.7071068,9.6966353 C19.5118446,9.89887843 19.2559223,10 19,10 Z M3,8.50784863 L3,15 C3,16.6813732 4.17211268,18 5.55555556,18 L14.4444444,18 C15.8278873,18 17,16.6813732 17,15 L17,8.50784863 L10,2.07150375 L3,8.50784863 Z" id="Combined-Shape"></path>
                    <path d="M8,13 L8,18 L12,18 L12,13 L8,13 Z M8,11 L12,11 C13.1045695,11 14,11.8954305 14,13 L14,18 C14,19.1045695 13.1045695,20 12,20 L8,20 C6.8954305,20 6,19.1045695 6,18 L6,13 C6,11.8954305 6.8954305,11 8,11 Z" id="Rectangle-15"></path>
                </g>
            </g>
        </g>
    </g>
</svg>