<?xml version="1.0" encoding="UTF-8"?>
<svg width="24px" height="24px" viewBox="0 0 24 24" version="1.1" xmlns="http://www.w3.org/2000/svg" xmlns:xlink="http://www.w3.org/1999/xlink">
    <!-- Generator: Sketch 50.2 (55047) - http://www.bohemiancoding.com/sketch -->
    <title>ic_online_24x24_blue</title>
    <desc>Created with Sketch.</desc>
    <defs></defs>
    <g id="切圖" stroke="none" stroke-width="1" fill="none" fill-rule="evenodd">
        <g id="图标" transform="translate(-97.000000, -668.000000)" fill="#333333">
            <g id="Group-16-Copy-3" transform="translate(97.000000, 668.000000)">
                <path d="M4,2 L20,2 C21.1045695,2 22,2.8954305 22,4 L22,20 C22,21.1045695 21.1045695,22 20,22 L4,22 C2.8954305,22 2,21.1045695 2,20 L2,4 C2,2.8954305 2.8954305,2 4,2 Z M12.0045776,5.99969482 L17.021455,10.9998301 L14.0089842,10.9998301 L14.0089842,16.9872653 L19.9625209,16.9872653 L19.9625209,4 L4,4 L4,16.9872653 L9.95038603,16.9872653 L9.95038603,10.9998301 L6.95011314,10.9998301 L12.0045776,5.99969482 Z" id="Combined-Shape"></path>
            </g>
        </g>
    </g>
</svg>