<?xml version="1.0" encoding="UTF-8"?>
<svg width="24px" height="24px" viewBox="0 0 24 24" version="1.1" xmlns="http://www.w3.org/2000/svg" xmlns:xlink="http://www.w3.org/1999/xlink">
    <!-- Generator: Sketch 50.2 (55047) - http://www.bohemiancoding.com/sketch -->
    <title>svg_素材管理_24x24</title>
    <desc>Created with Sketch.</desc>
    <defs></defs>
    <g id="切圖" stroke="none" stroke-width="1" fill="none" fill-rule="evenodd">
        <g id="SVG" transform="translate(-158.000000, -168.000000)" fill="#333333" fill-rule="nonzero">
            <g id="svg_素材管理_24x24" transform="translate(158.000000, 168.000000)">
                <path d="M21,5 L3,5 L3,21 C3.5,20.4074074 3.77181995,20.184268 4.02552014,19.8371781 C4.27983018,19.4900881 4.54511763,19.1761552 4.82260221,18.8953791 C5.09947693,18.6153086 5.38488964,18.3853262 5.67945019,18.2047266 C5.97401074,18.024127 6.27101072,17.9345326 6.57105998,17.9345326 C6.92904557,17.9345326 7.23763282,17.9641622 7.49743157,18.024127 C7.75784017,18.0847972 7.98836582,18.1609877 8.19022823,18.2548148 C8.39270049,18.348642 8.57992635,18.4516402 8.75312553,18.5652204 C8.92632467,18.6788007 9.1141604,18.7825044 9.3160228,18.875626 C9.5178852,18.9694532 9.7459714,19.0456437 9.9996716,19.1063139 C10.2539817,19.1662786 10.5595196,19.1959083 10.9175052,19.1959083 C11.2754908,19.1959083 11.5840781,19.0724515 11.8438768,18.8262433 C12.1036755,18.5786243 12.3433491,18.2682186 12.5622874,17.8936155 C12.7818357,17.5204233 13.0013839,17.1197178 13.2209321,16.6922046 C13.4398705,16.2653968 13.6886919,15.8639859 13.9655666,15.4900882 C14.2424413,15.1168959 14.5711538,14.8057848 14.9523139,14.5588712 C15.3334741,14.3119577 15.7951352,14.1885009 16.3372974,14.1885009 C16.7989585,14.1885009 17.2441536,14.3521693 17.6710529,14.6795062 C18.0979523,15.006843 18.493749,15.4301235 18.8572233,15.9507583 C19.2206976,16.4720988 19.5555087,17.0526984 19.8616565,17.6939682 C20.1678043,18.3345326 20.5,19.2222222 21,19.8148148 L21,5 Z M14,3 L20,3 L20,5 L23,5 L23,23 L1,23 L1,3 L12,3 L12,5 L14,5 L14,3 Z M7.83098908,12.6537862 C7.46708675,12.4960299 7.15044447,12.2807861 6.88173737,12.0087233 C6.61370541,11.7366606 6.39968493,11.4198111 6.23967593,11.0595118 C6.08034207,10.6992124 6,10.3161855 6,9.91109939 C6,9.50601334 6.08034207,9.12365485 6.23967593,8.7626871 C6.39968493,8.40238776 6.61370541,8.08888052 6.88173737,7.82350234 C7.15044447,7.55745571 7.46708675,7.34555424 7.83098908,7.18779795 C8.19489141,7.0293732 8.58850002,6.95049505 9.00978957,6.95049505 C9.41892649,6.95049505 9.80510857,7.0293732 10.1696861,7.18779795 C10.5342635,7.34555424 10.8502307,7.55745571 11.1182627,7.82350234 C11.3869697,8.08888052 11.6009902,8.40238776 11.7609992,8.7626871 C11.920333,9.12365485 12,9.50601334 12,9.91109939 C12,10.3161855 11.920333,10.6992124 11.7609992,11.0595118 C11.6009902,11.4198111 11.3869697,11.7366606 11.1182627,12.0087233 C10.8502307,12.2807861 10.5342635,12.4960299 10.1696861,12.6537862 C9.80510857,12.8122109 9.41892649,12.8910891 9.00978957,12.8910891 C8.58850002,12.8910891 8.19489141,12.8122109 7.83098908,12.6537862 Z M16,1 L18,1 L18,7 L16,7 L16,1 Z" id="Fill-1"></path>
            </g>
        </g>
    </g>
</svg>