<?xml version="1.0" encoding="UTF-8"?>
<svg width="40px" height="40px" viewBox="0 0 40 40" version="1.1" xmlns="http://www.w3.org/2000/svg" xmlns:xlink="http://www.w3.org/1999/xlink">
    <!-- Generator: Sketch 50.2 (55047) - http://www.bohemiancoding.com/sketch -->
    <title>svg_+子頁面_40x40</title>
    <desc>Created with Sketch.</desc>
    <defs></defs>
    <g id="切圖" stroke="none" stroke-width="1" fill="none" fill-rule="evenodd">
        <g id="SVG" transform="translate(-22.000000, -118.000000)" fill="#333333">
            <g id="svg_+子頁面_40x40" transform="translate(22.000000, 118.000000)">
                <g id="ic_14x14_add_white" transform="translate(1.000000, 1.000000)">
                    <path d="M19,36 C28.3888407,36 36,28.3888407 36,19 C36,9.61115925 28.3888407,2 19,2 C9.61115925,2 2,9.61115925 2,19 C2,28.3888407 9.61115925,36 19,36 Z M19,38 C8.50658975,38 0,29.4934102 0,19 C0,8.50658975 8.50658975,0 19,0 C29.4934102,0 38,8.50658975 38,19 C38,29.4934102 29.4934102,38 19,38 Z" id="Oval-4" fill-rule="nonzero"></path>
                    <path d="M20,18 L29,18 L29,20 L20,20 L20,29 L18,29 L18,20 L9,20 L9,18 L18,18 L18,9 L20,9 L20,18 Z" id="Rectangle-213"></path>
                </g>
            </g>
        </g>
    </g>
</svg>