<?xml version="1.0" encoding="UTF-8"?>
<svg width="16px" height="16px" viewBox="0 0 16 16" version="1.1" xmlns="http://www.w3.org/2000/svg" xmlns:xlink="http://www.w3.org/1999/xlink">
    <!-- Generator: Sketch 50.2 (55047) - http://www.bohemiancoding.com/sketch -->
    <title>svg_16x16_setting</title>
    <desc>Created with Sketch.</desc>
    <defs></defs>
    <g id="切圖" stroke="none" stroke-width="1" fill="none" fill-rule="evenodd">
        <g id="SVG" transform="translate(-48.000000, -24.000000)" fill="#333333" fill-rule="nonzero">
            <g id="svg_16x16_setting" transform="translate(50.000000, 26.000000)">
                <g id="setting">
                    <path d="M10.4782396,10.2132204 C10.3011462,10.1491877 10.1765249,10.1107681 10.0584627,10.0659452 C9.69771693,9.93147642 9.3500892,9.77779787 8.98278442,9.65613569 C8.8778402,9.62411932 8.72698288,9.63692587 8.62859767,9.68815205 C8.37279613,9.80981424 8.1235536,9.95068624 7.88742911,10.1107681 C7.80872094,10.1619943 7.7431308,10.2772532 7.72345376,10.3733023 C7.64474559,10.7959183 7.58571447,11.2249376 7.53324236,11.6539569 C7.50044729,11.8972812 7.38238505,12.0061369 7.1265835,11.9997336 C6.37229691,11.9933303 5.61801031,11.9933303 4.86372372,11.9997336 C4.61448119,11.9997336 4.48330091,11.9036845 4.45050584,11.6603601 C4.39147471,11.2313409 4.31932556,10.8087248 4.26685345,10.3797055 C4.2471764,10.2324303 4.19470429,10.1427844 4.05040599,10.0723484 C3.80772248,9.95708953 3.59127502,9.79700771 3.34859151,9.6817488 C3.26332433,9.63692589 3.13214405,9.61771607 3.04031785,9.64973243 C2.61398195,9.79700771 2.20076407,9.96349281 1.78098719,10.1235746 C1.47927255,10.2388335 1.39400537,10.2132205 1.223471,9.93147645 C0.849607209,9.31035897 0.482302435,8.68924149 0.114997649,8.06812401 C-0.0555367068,7.77997673 -0.0489777004,7.70954073 0.21994187,7.50463599 C0.574128619,7.22929525 0.934874387,6.96676106 1.28250212,6.68501704 C1.34809225,6.63379086 1.39400536,6.51853195 1.39400536,6.43528939 C1.40712338,6.1983683 1.35465127,5.94864064 1.39400536,5.71812281 C1.43991845,5.46839516 1.33497423,5.34032971 1.15132185,5.20586098 C0.823371147,4.97534315 0.521656509,4.71921223 0.20026484,4.4886944 C0.0100534404,4.34782239 -0.0358596638,4.20054712 0.0887616002,3.99564237 C0.488861441,3.33610525 0.882402276,2.67016487 1.27594311,2.00422447 C1.38744635,1.81852955 1.53174466,1.78010991 1.73507408,1.8569492 C2.167969,2.02343429 2.60086391,2.19632266 3.04031784,2.35000122 C3.13214403,2.38201758 3.27644234,2.36280776 3.36826854,2.31798486 C3.61751107,2.19632267 3.84051753,2.03624084 4.08976006,1.91457866 C4.22094034,1.85054593 4.26685343,1.77370665 4.27997146,1.6456412 C4.33900259,1.21021863 4.41115174,0.774796065 4.47018286,0.339373499 C4.4898599,0.089645824 4.6275992,0 4.87028271,0 C5.6245693,0.00640327733 6.3788559,0.00640327733 7.13314249,0 C7.369267,0 7.50044727,0.0960490896 7.52668333,0.326566921 C7.58571446,0.755586209 7.65786361,1.17820223 7.71033572,1.60722152 C7.73001276,1.76730335 7.78904389,1.86335244 7.94646023,1.93378844 C8.17602571,2.03624081 8.39247317,2.16430627 8.60236161,2.30517828 C8.7401009,2.40122737 8.85816316,2.40122737 9.00902047,2.33719464 C9.41567933,2.17070955 9.82889721,2.02343427 10.2421151,1.85694917 C10.4716806,1.76730335 10.6290969,1.81212627 10.7537182,2.02983754 C11.127582,2.67656812 11.5211228,3.31689542 11.9015456,3.95722272 C12.0524029,4.21335364 12.0327259,4.29659618 11.7900424,4.48229111 C11.4424146,4.7448253 11.0947869,5.01376276 10.7406001,5.27629696 C10.6225379,5.36594278 10.5897428,5.44918533 10.6028608,5.59646061 C10.6290969,5.86539807 10.5963018,6.14073882 10.6094199,6.40967628 C10.6159789,6.50572537 10.661892,6.62098429 10.7340411,6.67861374 C11.0816689,6.96035776 11.4424146,7.22289195 11.7966014,7.49182941 C12.0392849,7.67752433 12.0524029,7.76076687 11.9015456,8.0168978 C11.5145638,8.67003165 11.127582,9.31676222 10.7340411,9.9634928 C10.668451,10.0787517 10.5569477,10.1427844 10.4782396,10.2132204 Z M5.98482552,7.99996921 C7.0834429,8.00603893 7.9938993,7.11379161 7.99996901,6.02731359 C8.00603872,4.91048702 7.11986116,4.00610029 6.01517406,4.00003058 C4.91048697,3.99396086 4.00003058,4.89227789 4.00003058,5.99696503 C3.99396088,7.08951277 4.89227785,7.9938995 5.98482552,7.99996921 Z" id="Shape"></path>
                </g>
            </g>
        </g>
    </g>
</svg>