<?xml version="1.0" encoding="UTF-8"?>
<svg width="24px" height="24px" viewBox="0 0 24 24" version="1.1" xmlns="http://www.w3.org/2000/svg" xmlns:xlink="http://www.w3.org/1999/xlink">
    <!-- Generator: Sketch 50.2 (55047) - http://www.bohemiancoding.com/sketch -->
    <title>svg_＋子頁面_24x24</title>
    <desc>Created with Sketch.</desc>
    <defs></defs>
    <g id="切圖" stroke="none" stroke-width="1" fill="none" fill-rule="evenodd">
        <g id="SVG" transform="translate(-260.000000, -50.000000)" fill="#333333">
            <g id="svg_＋子頁面_24x24" transform="translate(260.000000, 50.000000)">
                <g id="svg_14x14_add_white" transform="translate(1.000000, 1.000000)">
                    <path d="M11,20 C15.9705627,20 20,15.9705627 20,11 C20,6.02943725 15.9705627,2 11,2 C6.02943725,2 2,6.02943725 2,11 C2,15.9705627 6.02943725,20 11,20 Z M11,22 C4.92486775,22 0,17.0751322 0,11 C0,4.92486775 4.92486775,0 11,0 C17.0751322,0 22,4.92486775 22,11 C22,17.0751322 17.0751322,22 11,22 Z" id="Oval-4" fill-rule="nonzero"></path>
                    <path d="M12,10 L16,10 L16,12 L12,12 L12,16 L10,16 L10,12 L6,12 L6,10 L10,10 L10,6 L12,6 L12,10 Z" id="Rectangle-213"></path>
                </g>
            </g>
        </g>
    </g>
</svg>