<?xml version="1.0" encoding="UTF-8"?>
<svg width="24px" height="24px" viewBox="0 0 24 24" version="1.1" xmlns="http://www.w3.org/2000/svg" xmlns:xlink="http://www.w3.org/1999/xlink">
    <!-- Generator: Sketch 50.2 (55047) - http://www.bohemiancoding.com/sketch -->
    <title>svg_24x24_save_template</title>
    <desc>Created with Sketch.</desc>
    <defs></defs>
    <g id="切圖" stroke="none" stroke-width="1" fill="none" fill-rule="evenodd">
        <g id="SVG" transform="translate(-158.000000, -50.000000)" fill="#333333">
            <g id="svg_24x24_save_template" transform="translate(158.000000, 50.000000)">
                <path d="M21,9 L21,19.8749278 C21,20.187512 20.8905903,20.4530564 20.6718758,20.6718758 C20.4531614,20.8905903 20.187512,21 19.8750328,21 L4.12507219,21 C3.81259297,21 3.54694363,20.8905903 3.32812418,20.6718758 C3.10940973,20.4530564 3,20.187512 3,19.8749278 L3,4.12496719 C3,3.81248797 3.10940973,3.54683863 3.32812418,3.32812418 C3.54694363,3.10940973 3.81259297,3 4.12507219,3 L15,3 C15.3124792,3 15.6562484,3.0781198 16.0313074,3.23435941 C16.4062615,3.39059902 16.7030957,3.57812855 16.9219152,3.79684301 L20.203157,7.0780848 C20.4218714,7.29690426 20.609401,7.59373852 20.7656406,7.96879758 C20.9218802,8.34375164 21,8.68752078 21,9 Z M13,8.66670556 L13,5.33329444 C13,5.24304081 12.9505793,5.16492055 12.8515978,5.09893366 C12.7526163,5.03294678 12.6354345,5 12.5000525,5 L9.4999475,5 C9.36456547,5 9.24738371,5.03294678 9.14840223,5.09893366 C9.04942074,5.16492055 9,5.24304081 9,5.33329444 L9,8.66670556 C9,8.75695919 9.04942074,8.83507945 9.14840223,8.90106634 C9.24738371,8.96705322 9.36456547,9 9.4999475,9 L12.5000525,9 C12.6354345,9 12.7526163,8.96705322 12.8515978,8.90106634 C12.9505793,8.83507945 13,8.75695919 13,8.66670556 Z M17,19 L19,19 L19,9.1999902 C19,9.0978741 18.963544,8.95753796 18.8906319,8.77888378 C18.8177198,8.6002296 18.7448077,8.47449547 18.6718957,8.4015834 L15.5984166,5.32810433 C15.5255045,5.25519226 15.4016324,5.18228018 15.2266042,5.10936811 C15.0515761,5.03645604 15.3750612,5 15,5 L15,9.94992895 C15,10.2416752 14.8978839,10.4895175 14.6937497,10.6937497 C14.4896155,10.8978839 14.2416752,11 13.950027,11 L8.04997305,11 C7.75832476,11 7.51038451,10.8978839 7.30625031,10.6937497 C7.1021161,10.4895175 7,10.2416752 7,9.94992895 L7,5 L5,5 L5,19 L7,19 L7,14.049973 C7,13.7583248 7.1021161,13.5103845 7.30625031,13.3062503 C7.51038451,13.1021161 7.75832476,13 8.04997305,13 L15.9499289,13 C16.2415772,13 16.4895175,13.1021161 16.6937497,13.3062503 C16.8978839,13.5103845 17,13.7583248 17,14.049973 L17,19 Z M9,19 L15,19 L15,15 L9,15 L9,19 Z" id="ic_save_template"></path>
            </g>
        </g>
    </g>
</svg>