<?xml version="1.0" encoding="UTF-8"?>
<svg width="24px" height="24px" viewBox="0 0 24 24" version="1.1" xmlns="http://www.w3.org/2000/svg" xmlns:xlink="http://www.w3.org/1999/xlink">
    <!-- Generator: Sketch 50.2 (55047) - http://www.bohemiancoding.com/sketch -->
    <title>svg_setting_24x24</title>
    <desc>Created with Sketch.</desc>
    <defs></defs>
    <g id="切圖" stroke="none" stroke-width="1" fill="none" fill-rule="evenodd">
        <g id="SVG" transform="translate(-226.000000, -168.000000)" fill="#333333">
            <g id="svg_setting_24x24" transform="translate(226.000000, 168.000000)">
                <path d="M22.8456479,13.7461083 L22.7540013,14.3249287 L20.9861872,14.9158079 C20.8318351,15.3933348 20.638895,15.8612146 20.4097786,16.3073887 L21.2442447,17.9739092 L20.9017759,18.4514361 C20.2071914,19.3992545 19.3775488,20.2288972 18.4345538,20.9138347 L17.9594387,21.2563034 L16.2929182,20.4218373 C15.8443324,20.6509537 15.3788643,20.8438939 14.9013374,20.998246 L14.31287,22.7612366 L13.7388731,22.8504714 C13.0997588,22.951765 12.5474677,23 11.9975882,23 C11.4621793,23 10.9074764,22.951765 10.2538917,22.8480596 L9.67507126,22.7564131 L9.08660381,20.9861872 C8.59942995,20.8270116 8.1315501,20.6340715 7.69502302,20.4121903 L6.03091427,21.2490682 L5.55579917,20.9065994 C4.61039246,20.2216619 3.78074984,19.394431 3.09098882,18.4442008 L2.74852006,17.966674 L3.58298619,16.3001535 C3.35628152,15.8539794 3.16334137,15.3885113 3.00898926,14.9109844 L1.24117518,14.3249287 L1.14952861,13.7461083 C1.04823504,13.1069941 1,12.5378207 1,12 C1,11.4597676 1.04823504,10.8905942 1.14952861,10.2563034 L1.24117518,9.67748301 L3.00898926,9.08660381 C3.16334137,8.60907696 3.35628152,8.14119711 3.58539794,7.69502302 L2.75575532,6.03332602 L3.09822407,5.56062267 C3.45516334,5.0638018 3.82416137,4.62727472 4.22451217,4.22451217 C4.5983337,3.84827889 5.03486078,3.47928086 5.55821092,3.09581232 L6.03332602,2.75334357 L7.69743477,3.58780969 C8.14602061,3.35869327 8.61148871,3.16334137 9.08901557,3.01140101 L9.67748301,1.24117518 L10.2563034,1.14952861 C10.8905942,1.04823504 11.4597676,1 11.9975882,1 C12.5354089,1 13.1045823,1.04823504 13.7412848,1.14952861 L14.3201052,1.24117518 L14.9085727,3.01140101 C15.381276,3.16575312 15.8467441,3.35869327 16.2977417,3.58539794 L17.9642622,2.75093181 L18.4393773,3.09340057 C18.957904,3.4672221 19.394431,3.83622013 19.7730761,4.22210042 C20.1661916,4.61521596 20.5327779,5.05415479 20.8993642,5.55821092 L21.2418329,6.03573778 L20.4073668,7.70225828 C20.6364832,8.14843236 20.8294234,8.61390046 20.9837755,9.09383907 L22.7515896,9.68471826 L22.8432361,10.2635387 C22.9445297,10.8978294 22.9927647,11.4670029 22.9927647,12.0048235 C23,12.5378207 22.951765,13.1094058 22.8456479,13.7461083 L22.8456479,13.7461083 Z M21.2659504,12.019294 L21.2659504,12.0072353 C21.2659504,11.6816488 21.2442447,11.3512388 21.2032449,10.9967112 L20.3494848,10.7121245 L19.5946064,10.4564788 L19.3606665,9.69677702 C19.2280202,9.25783819 19.0519623,8.83095812 18.8373164,8.42578382 L18.4659066,7.72396404 L19.2231967,6.21179566 C19.0013155,5.93203245 18.7818461,5.68362201 18.5527297,5.45450559 L18.5479062,5.44968209 C18.3236132,5.22297742 18.0752028,5.003508 17.7954396,4.78403859 L16.2880947,5.5389169 L15.5886867,5.17474238 C15.1762771,4.96009647 14.7421618,4.78162684 14.3008112,4.64174523 L13.5459329,4.40539355 L13.2999342,3.65775049 L13.0153475,2.80399035 C12.6632317,2.76057882 12.33041,2.74128481 12.0048235,2.74128481 C11.6816488,2.74128481 11.348827,2.76299057 10.9942995,2.80399035 L10.7097128,3.65775049 L10.4613023,4.41262881 L9.70160053,4.64656873 C9.25301469,4.78403859 8.82613462,4.96009647 8.43060732,5.16991888 L7.72637579,5.53650515 L7.01490901,5.18197764 L6.21179566,4.78162684 C5.93203245,5.003508 5.68362201,5.22297742 5.45450559,5.45209384 C5.22056567,5.68603376 5.00109625,5.9344442 4.78403859,6.20938391 L5.53650515,7.71672879 L5.16991888,8.41613681 C4.95044946,8.83578163 4.77197983,9.26507345 4.64174523,9.69436527 L4.40780531,10.4540671 L2.8015786,10.9870642 C2.75816707,11.33918 2.73887305,11.6720018 2.73887305,11.9975882 C2.73887305,12.3231747 2.76057882,12.6535847 2.8015786,13.0081123 L4.4029818,13.5411094 L4.63692173,14.2983995 C4.77197983,14.7349266 4.95044946,15.1666301 5.16509537,15.5814514 L5.53168165,16.2808595 L5.17956588,16.9875027 L4.77921508,17.7906161 C5.20127165,18.316378 5.68121026,18.7963166 6.20697216,19.2183732 L7.71672879,18.4634948 L8.41854856,18.8324929 C8.82372287,19.044727 9.25542644,19.2231967 9.70160053,19.3630783 L10.4564788,19.5994299 L10.707301,20.3494848 L10.9918877,21.2032449 C11.3560623,21.2442447 11.6864723,21.2659504 12,21.2659504 C12.3231747,21.2659504 12.6559965,21.2442447 13.0081123,21.2032449 L13.5435212,19.6042535 L14.2983995,19.3703135 C14.7373383,19.2328437 15.1690419,19.054374 15.5814514,18.8421399 L16.2808595,18.4755536 L17.7882043,19.2304319 C18.3139662,18.8083754 18.7963166,18.3284367 19.2231967,17.8002631 L18.4707301,16.2929182 L18.8324929,15.5959219 C19.0471388,15.1811006 19.2280202,14.7469853 19.36549,14.3056347 L19.6018417,13.5507564 L20.3518965,13.2999342 L21.2056567,13.0153475 C21.2514799,12.6535847 21.270774,12.3279982 21.2659504,12.019294 L21.2659504,12.019294 Z M12.0024118,16.2036834 C9.68471826,16.2036834 7.79872835,14.3176935 7.79872835,12 C7.79872835,9.68230651 9.68471826,7.7963166 12.0024118,7.7963166 C14.3201052,7.7963166 16.2060952,9.68230651 16.2060952,12 C16.2060952,14.3176935 14.3201052,16.2036834 12.0024118,16.2036834 L12.0024118,16.2036834 Z M13.7461083,10.2563034 C13.2806402,9.79083534 12.66082,9.5327779 12.0024118,9.5327779 C11.3440035,9.5327779 10.7241833,9.78842359 10.2587152,10.2563034 C9.79324709,10.7217715 9.53518965,11.3415918 9.53518965,12 C9.53518965,12.6584082 9.79083534,13.2782285 10.2587152,13.7436966 C10.7241833,14.2091647 11.3440035,14.4672221 12.0024118,14.4672221 C12.66082,14.4672221 13.2806402,14.2115764 13.7461083,13.7436966 C14.2115764,13.2758167 14.4696339,12.6584082 14.4696339,12 C14.4696339,11.3415918 14.2115764,10.7217715 13.7461083,10.2563034 L13.7461083,10.2563034 Z" id="Shape" transform="translate(11.996736, 12.000000) scale(1, -1) translate(-11.996736, -12.000000) "></path>
            </g>
        </g>
    </g>
</svg>