<?xml version="1.0" encoding="UTF-8"?>
<svg width="24px" height="24px" viewBox="0 0 24 24" version="1.1" xmlns="http://www.w3.org/2000/svg" xmlns:xlink="http://www.w3.org/1999/xlink">
    <!-- Generator: Sketch 50.2 (55047) - http://www.bohemiancoding.com/sketch -->
    <title>svg_mobile_24x24</title>
    <desc>Created with Sketch.</desc>
    <defs></defs>
    <g id="切圖" stroke="none" stroke-width="1" fill="none" fill-rule="evenodd">
        <g id="SVG" transform="translate(-124.000000, -84.000000)" fill="#333333" fill-rule="nonzero">
            <g id="svg_mobile_24x24" transform="translate(124.000000, 84.000000)">
                <g id="mobile" transform="translate(5.000000, 1.000000)">
                    <path d="M12.7166926,0 L1.28333124,0 C0.577753344,0 -3.38813179e-21,0.495194983 -3.38813179e-21,1.09995185 L-3.38813179e-21,20.9000481 C-3.38813179e-21,21.504805 0.577753344,22 1.28333124,22 L12.7166688,22 C13.4222467,22 14,21.504805 14,20.9000481 L14,1.09997251 C14.0000238,0.495217152 13.4222705,0 12.7166926,0 Z M5.0000002,20 L5.00000019,19 L9,19 L9,19.9999996 L5.0000002,20 Z M1.99997958,17 L1.99997958,2 L11.9999796,2 L11.9999796,17 L1.99997958,17 Z"></path>
                </g>
            </g>
        </g>
    </g>
</svg>