<?xml version="1.0" encoding="UTF-8"?>
<svg width="24px" height="24px" viewBox="0 0 24 24" version="1.1" xmlns="http://www.w3.org/2000/svg" xmlns:xlink="http://www.w3.org/1999/xlink">
    <!-- Generator: Sketch 50.2 (55047) - http://www.bohemiancoding.com/sketch -->
    <title>svg_商品數據管理_24x24</title>
    <desc>Created with Sketch.</desc>
    <defs></defs>
    <g id="切圖" stroke="none" stroke-width="1" fill="none" fill-rule="evenodd">
        <g id="SVG" transform="translate(-124.000000, -168.000000)" fill="#333333" fill-rule="nonzero">
            <g id="svg_商品數據管理_24x24" transform="translate(124.000000, 168.000000)">
                <g id="shopping-bag" transform="translate(1.000000, 1.000000)">
                    <path d="M19.2581644,22.0156128 L2.75744837,22.0156128 C1.74680218,22.0156128 0.830254854,22.0156128 0.00780639344,22.0156128 L0.00780639344,4.59864776 C0.00780639809,4.40032131 3.38550574,0.0156128103 3.6739957,0.0156128103 L18.3416171,0.0156128103 C18.5339437,0.0156128103 19.7560068,1.54329113 22.0078064,4.59864776 L22.0078064,22.0156128 L19.2581644,22.0156128 Z M2.00624513,5.01377736 L2.00624513,20.0156128 L19.107869,20.0156128 L20.0078064,20.0156128 L20.0078064,5.01377736 L17.7579628,2.01405152 L4.25608874,2.01405152 L2.00624513,5.01377736 Z" id="Shape"></path>
                    <path d="M21.0236983,7 L0.977862924,7 C0.438235275,7 0.000780632318,6.55228475 0.000780632318,6 C0.000780632318,5.44771525 0.438235275,5 0.977862924,5 L21.0236983,5 C21.563326,5 22.0007806,5.44771525 22.0007806,6 C22.0007806,6.55228475 21.563326,7 21.0236983,7 Z M10.7712221,13 C8.3223942,13 6.33011237,11.2056 6.33011237,9.00000001 C6.33018746,8.55822004 6.72783598,8.20012248 7.21833431,8.20012248 C7.70883265,8.20012248 8.10648117,8.55822004 8.10655626,9.00000001 C8.10655626,10.3232 9.302103,11.4 10.7712221,11.4 C12.2403412,11.4 13.435888,10.3232 13.435888,9.00000001 C13.4358394,8.71415837 13.6051229,8.45001108 13.8799597,8.30707762 C14.1547965,8.16414417 14.4934234,8.16414417 14.7682602,8.30707762 C15.0430969,8.45001108 15.2123805,8.71415837 15.2123319,9.00000001 C15.2123319,11.2056 13.22005,13 10.7712221,13 Z" id="Shape"></path>
                </g>
            </g>
        </g>
    </g>
</svg>