<?xml version="1.0" encoding="UTF-8"?>
<svg width="24px" height="24px" viewBox="0 0 24 24" version="1.1" xmlns="http://www.w3.org/2000/svg" xmlns:xlink="http://www.w3.org/1999/xlink">
    <!-- Generator: Sketch 50.2 (55047) - http://www.bohemiancoding.com/sketch -->
    <title>svg_裝修_24x24</title>
    <desc>Created with Sketch.</desc>
    <defs></defs>
    <g id="切圖" stroke="none" stroke-width="1" fill="none" fill-rule="evenodd">
        <g id="SVG" transform="translate(-22.000000, -84.000000)" fill="#333333" fill-rule="nonzero">
            <g id="svg_裝修_24x24" transform="translate(22.000000, 84.000000)">
                <g id="ic_裝修_24x24" transform="translate(3.000000, 2.000000)">
                    <path d="M15,3 L15,0.969230776 C15,0.436153846 14.560181,0 14.0226244,0 L0.977375551,0 C0.439818982,0 -2.290724e-08,0.436153846 0,0.969230776 L0,7.03076925 C0,7.56384618 0.439819005,8.00000002 0.977375551,8 L14.0226244,8 C14.560181,8 15,7.56384615 15,7.03076925 L15,5 L17,5 L17,10 L6,10 L6,20 C6,19.9932703 6.66666667,19.9932703 8,20 C8,19.0769231 8,16.4102564 8,12 L19,12 L19,3 L15,3 Z" id="Shape"></path>
                </g>
            </g>
        </g>
    </g>
</svg>