<?xml version="1.0" encoding="UTF-8"?>
<svg width="24px" height="24px" viewBox="0 0 24 24" version="1.1" xmlns="http://www.w3.org/2000/svg" xmlns:xlink="http://www.w3.org/1999/xlink">
    <!-- Generator: Sketch 51 (57462) - http://www.bohemiancoding.com/sketch -->
    <title>ic_查看链接_24x24_black</title>
    <desc>Created with Sketch.</desc>
    <defs></defs>
    <g id="切圖" stroke="none" stroke-width="1" fill="none" fill-rule="evenodd">
        <g id="SVG" transform="translate(-22.000000, -266.000000)" fill="#333333" fill-rule="nonzero">
            <g id="ic_查看链接_24x24_black" transform="translate(34.000000, 278.000000) scale(1, -1) translate(-34.000000, -278.000000) translate(24.000000, 268.000000)">
                <path d="M10,2 C5.581722,2 2,5.581722 2,10 C2,14.418278 5.581722,18 10,18 C14.418278,18 18,14.418278 18,10 C18,5.581722 14.418278,2 10,2 Z M10,0 C15.5228475,-1.11022302e-15 20,4.4771525 20,10 C20,15.5228475 15.5228475,20 10,20 C4.4771525,20 8.8817842e-16,15.5228475 0,10 C-6.66133815e-16,4.4771525 4.4771525,8.8817842e-16 10,0 Z" id="Rectangle-17"></path>
                <g id="Group-10" transform="translate(10.363961, 10.136039) rotate(45.000000) translate(-10.363961, -10.136039) translate(3.863961, 7.636039)">
                    <path d="M6.46793974,3 C6.48619386,2.91996708 6.5,2.83558045 6.5,2.75 C6.5,2.33578644 6.83578644,2 7.25,2 C7.66421356,2 8,2.33578644 8,2.75 C8,2.82575323 7.97714737,2.9658525 7.92914996,3.09340672 C7.66276595,4.18766776 6.67624816,5 5.5,5 L2.5,5 C1.11928813,5 1.69088438e-16,3.88071187 0,2.5 C-1.69088438e-16,1.11928813 1.11928813,2.53633005e-16 2.5,0 L3,0 L3,0.00244530588 C3.08392688,-0.000260005817 3.16877498,-4.10382635e-15 3.25,-4.10382635e-15 C3.66421356,-4.10382635e-15 4,0.335786438 4,0.75 C4,1.16421356 3.66421356,1.5 3.25,1.5 C3.17540716,1.5 3.05864026,1.50617426 2.93658079,1.5 L2.5,1.5 C1.94771525,1.5 1.5,1.94771525 1.5,2.5 C1.5,3.05228475 1.94771525,3.5 2.5,3.5 L5.6,3.5 C5.97014118,3.5 6.29331309,3.29890069 6.4662178,3 L6.46793974,3 Z" id="Combined-Shape"></path>
                    <path d="M10.8679397,3 C10.8861939,2.91996708 10.9,2.83558045 10.9,2.75 C10.9,2.33578644 11.2357864,2 11.65,2 C12.0642136,2 12.4,2.33578644 12.4,2.75 C12.4,2.82575323 12.3771474,2.9658525 12.32915,3.09340672 C12.062766,4.18766776 11.0762482,5 9.9,5 L6.9,5 C5.51928813,5 4.4,3.88071187 4.4,2.5 C4.4,1.11928813 5.51928813,2.53633005e-16 6.9,0 L7.4,0 L7.4,0.00244530588 C7.48392688,-0.000260005817 7.56877498,-4.10382635e-15 7.65,-4.10382635e-15 C8.06421356,-4.10382635e-15 8.4,0.335786438 8.4,0.75 C8.4,1.16421356 8.06421356,1.5 7.65,1.5 C7.57540716,1.5 7.45864026,1.50617426 7.33658079,1.5 L6.9,1.5 C6.34771525,1.5 5.9,1.94771525 5.9,2.5 C5.9,3.05228475 6.34771525,3.5 6.9,3.5 L10,3.5 C10.3701412,3.5 10.6933131,3.29890069 10.8662178,3 L10.8679397,3 Z" id="Combined-Shape-Copy" transform="translate(8.400000, 2.499997) scale(-1, -1) translate(-8.400000, -2.499997) "></path>
                </g>
            </g>
        </g>
    </g>
</svg>