<?xml version="1.0" encoding="UTF-8"?>
<svg width="20px" height="20px" viewBox="0 0 20 20" version="1.1" xmlns="http://www.w3.org/2000/svg" xmlns:xlink="http://www.w3.org/1999/xlink">
    <!-- Generator: Sketch 50.2 (55047) - http://www.bohemiancoding.com/sketch -->
    <title>Group 18 Copy 2</title>
    <desc>Created with Sketch.</desc>
    <defs></defs>
    <g id="切圖" stroke="none" stroke-width="1" fill="none" fill-rule="evenodd">
        <g id="图标" transform="translate(-56.000000, -824.000000)" fill="#333333" fill-rule="nonzero">
            <g id="Group-18-Copy-2" transform="translate(54.000000, 822.000000)">
                <path d="M22,12.895457 L22,4 C22,2.8954305 21.1045695,2 20,2 L4,2 C2.8954305,2 2,2.8954305 2,4 L2,20 C2,21.1045695 2.8954305,22 4,22 L12.9237273,22 L12.9237273,20 L4,20 L4,4 L20,4 L20,12.895457 L22,12.895457 Z M22,12.895457 L22,4 C22,2.8954305 21.1045695,2 20,2 L4,2 C2.8954305,2 2,2.8954305 2,4 L2,20 C2,21.1045695 2.8954305,22 4,22 L12.9237273,22 L12.9237273,20 L4,20 L4,4 L20,4 L20,12.895457 L22,12.895457 Z" id="Rectangle-12"></path>
                <g id="Group-5" transform="translate(14.778175, 14.778175) rotate(-45.000000) translate(-14.778175, -14.778175) translate(9.778175, 6.778175)">
                    <path d="M4.01854507,9.90370963 C1.72707152,9.44763191 1.13686838e-13,7.42550554 1.13686838e-13,5 C1.13686838e-13,2.23857625 2.23857625,1.13686838e-13 5,1.13686838e-13 C7.76142375,1.13686838e-13 10,2.23857625 10,5 C10,7.35308036 8.37452873,9.32651156 6.18518332,9.85869647 C6.20341313,9.9383697 6.21304251,10.0213209 6.21304251,10.1065213 L6.21304251,14.5326063 C6.21304251,15.1437211 5.71763607,15.6391275 5.10652125,15.6391275 C4.49540644,15.6391275 4,15.1437211 4,14.5326063 L4,10.1065213 C4,10.0372461 4.00636606,9.9694579 4.01854507,9.90370963 Z M5,8 C6.65685425,8 8,6.65685425 8,5 C8,3.34314575 6.65685425,2 5,2 C3.34314575,2 2,3.34314575 2,5 C2,6.65685425 3.34314575,8 5,8 Z" id="Combined-Shape"></path>
                </g>
            </g>
        </g>
    </g>
</svg>